%TF.GenerationSoftware,KiCad,Pcbnew,(5.1.10)-1*%
%TF.CreationDate,2021-07-15T23:48:19-07:00*%
%TF.ProjectId,esp32_sensor,65737033-325f-4736-956e-736f722e6b69,rev?*%
%TF.SameCoordinates,Original*%
%TF.FileFunction,Soldermask,Bot*%
%TF.FilePolarity,Negative*%
%FSLAX46Y46*%
G04 Gerber Fmt 4.6, Leading zero omitted, Abs format (unit mm)*
G04 Created by KiCad (PCBNEW (5.1.10)-1) date 2021-07-15 23:48:19*
%MOMM*%
%LPD*%
G01*
G04 APERTURE LIST*
%ADD10C,2.000000*%
%ADD11R,0.250000X1.050000*%
%ADD12R,0.250000X1.200000*%
%ADD13R,1.700000X1.700000*%
%ADD14O,1.700000X1.700000*%
%ADD15C,2.500000*%
%ADD16C,0.850000*%
%ADD17C,2.700000*%
%ADD18C,0.787400*%
%ADD19C,0.990600*%
%ADD20C,0.600000*%
%ADD21O,1.700000X0.900000*%
%ADD22O,2.000000X0.900000*%
G04 APERTURE END LIST*
D10*
%TO.C,TP21*%
X33990000Y-52570000D03*
%TD*%
D11*
%TO.C,U12*%
X30910000Y-55810000D03*
X31410000Y-55810000D03*
X31910000Y-55810000D03*
X31910000Y-54210000D03*
X31410000Y-54210000D03*
D12*
X30910000Y-54285000D03*
%TD*%
D10*
%TO.C,TP29*%
X43640000Y-83590000D03*
%TD*%
%TO.C,TP28*%
X52730000Y-81180000D03*
%TD*%
%TO.C,TP27*%
X39750000Y-74180000D03*
%TD*%
%TO.C,TP26*%
X79470000Y-43980000D03*
%TD*%
%TO.C,TP25*%
X121110000Y-39100000D03*
%TD*%
%TO.C,TP24*%
X101920000Y-77460000D03*
%TD*%
%TO.C,TP23*%
X104970000Y-76620000D03*
%TD*%
%TO.C,TP22*%
X85840000Y-61390000D03*
%TD*%
%TO.C,TP20*%
X84290000Y-65630000D03*
%TD*%
D13*
%TO.C,J6*%
X54360000Y-85240000D03*
D14*
X54360000Y-82700000D03*
X56900000Y-85240000D03*
X56900000Y-82700000D03*
X59440000Y-85240000D03*
X59440000Y-82700000D03*
X61980000Y-85240000D03*
X61980000Y-82700000D03*
X64520000Y-85240000D03*
X64520000Y-82700000D03*
X67060000Y-85240000D03*
X67060000Y-82700000D03*
X69600000Y-85240000D03*
X69600000Y-82700000D03*
X72140000Y-85240000D03*
X72140000Y-82700000D03*
%TD*%
D10*
%TO.C,TP19*%
X40490000Y-35860000D03*
%TD*%
%TO.C,TP18*%
X48690000Y-52040000D03*
%TD*%
%TO.C,TP17*%
X43670000Y-47270000D03*
%TD*%
%TO.C,TP16*%
X43360000Y-42890000D03*
%TD*%
%TO.C,TP15*%
X63340000Y-42400000D03*
%TD*%
%TO.C,TP14*%
X64910000Y-74950000D03*
%TD*%
%TO.C,TP13*%
X104710000Y-41920000D03*
%TD*%
%TO.C,TP12*%
X63450000Y-79470000D03*
%TD*%
%TO.C,TP11*%
X73800000Y-76090000D03*
%TD*%
%TO.C,TP10*%
X74340000Y-79530000D03*
%TD*%
%TO.C,TP9*%
X44920000Y-75200000D03*
%TD*%
%TO.C,TP8*%
X49750000Y-38810000D03*
%TD*%
%TO.C,TP7*%
X46630000Y-39720000D03*
%TD*%
%TO.C,TP6*%
X117390000Y-78690000D03*
%TD*%
%TO.C,TP5*%
X119300000Y-81210000D03*
%TD*%
%TO.C,TP4*%
X120120000Y-33790000D03*
%TD*%
%TO.C,TP3*%
X67940000Y-76340000D03*
%TD*%
%TO.C,TP2*%
X71570000Y-73960000D03*
%TD*%
%TO.C,TP1*%
X60920000Y-75190000D03*
%TD*%
D15*
%TO.C,H5*%
X127150000Y-84170000D03*
%TD*%
D16*
%TO.C,SW1*%
X39390000Y-31920000D03*
X42390000Y-31920000D03*
%TD*%
D17*
%TO.C,H4*%
X78160000Y-83890000D03*
%TD*%
%TO.C,H3*%
X126960000Y-33050000D03*
%TD*%
%TO.C,H2*%
X33040000Y-83910000D03*
%TD*%
%TO.C,H1*%
X33040000Y-33050000D03*
%TD*%
D18*
%TO.C,J7*%
X110510000Y-84301000D03*
X110510000Y-85571000D03*
X111780000Y-84301000D03*
X111780000Y-85571000D03*
X113050000Y-84301000D03*
X113050000Y-85571000D03*
D19*
X114320000Y-84936000D03*
X109240000Y-85952000D03*
X109240000Y-83920000D03*
%TD*%
D20*
%TO.C,J1*%
X35780000Y-42010000D03*
X35780000Y-47790000D03*
D21*
X32090000Y-49220000D03*
X32090000Y-40580000D03*
D22*
X36260000Y-49220000D03*
X36260000Y-40580000D03*
%TD*%
M02*
