%TF.GenerationSoftware,KiCad,Pcbnew,(5.1.10)-1*%
%TF.CreationDate,2021-07-15T23:48:19-07:00*%
%TF.ProjectId,esp32_sensor,65737033-325f-4736-956e-736f722e6b69,rev?*%
%TF.SameCoordinates,Original*%
%TF.FileFunction,Copper,L3,Inr*%
%TF.FilePolarity,Positive*%
%FSLAX46Y46*%
G04 Gerber Fmt 4.6, Leading zero omitted, Abs format (unit mm)*
G04 Created by KiCad (PCBNEW (5.1.10)-1) date 2021-07-15 23:48:19*
%MOMM*%
%LPD*%
G01*
G04 APERTURE LIST*
%TA.AperFunction,ComponentPad*%
%ADD10R,1.700000X1.700000*%
%TD*%
%TA.AperFunction,ComponentPad*%
%ADD11O,1.700000X1.700000*%
%TD*%
%TA.AperFunction,ComponentPad*%
%ADD12O,1.700000X0.900000*%
%TD*%
%TA.AperFunction,ComponentPad*%
%ADD13O,2.000000X0.900000*%
%TD*%
%TA.AperFunction,ViaPad*%
%ADD14C,0.500000*%
%TD*%
%TA.AperFunction,Conductor*%
%ADD15C,1.000000*%
%TD*%
%TA.AperFunction,Conductor*%
%ADD16C,0.150000*%
%TD*%
%TA.AperFunction,Conductor*%
%ADD17C,0.500000*%
%TD*%
%TA.AperFunction,Conductor*%
%ADD18C,0.400000*%
%TD*%
%TA.AperFunction,Conductor*%
%ADD19C,0.300000*%
%TD*%
%TA.AperFunction,Conductor*%
%ADD20C,0.750000*%
%TD*%
%TA.AperFunction,Conductor*%
%ADD21C,3.000000*%
%TD*%
%TA.AperFunction,Conductor*%
%ADD22C,2.800000*%
%TD*%
%TA.AperFunction,Conductor*%
%ADD23C,2.000000*%
%TD*%
%TA.AperFunction,Conductor*%
%ADD24C,0.200000*%
%TD*%
%TA.AperFunction,Conductor*%
%ADD25C,0.254000*%
%TD*%
%TA.AperFunction,Conductor*%
%ADD26C,0.100000*%
%TD*%
G04 APERTURE END LIST*
D10*
%TO.N,VBUS*%
%TO.C,J6*%
X54360000Y-85240000D03*
D11*
%TO.N,+BATT*%
X54360000Y-82700000D03*
%TO.N,GND*%
X56900000Y-85240000D03*
%TO.N,+3V3*%
X56900000Y-82700000D03*
%TO.N,/GPIO12*%
X59440000Y-85240000D03*
%TO.N,/ALS_INT*%
X59440000Y-82700000D03*
%TO.N,/GPIO10*%
X61980000Y-85240000D03*
%TO.N,/PRESS_INT*%
X61980000Y-82700000D03*
%TO.N,/GPIO38*%
X64520000Y-85240000D03*
%TO.N,/RESET_N*%
X64520000Y-82700000D03*
%TO.N,/LDO_EN*%
X67060000Y-85240000D03*
%TO.N,/AD1*%
X67060000Y-82700000D03*
%TO.N,/SCL*%
X69600000Y-85240000D03*
%TO.N,/SDA*%
X69600000Y-82700000D03*
%TO.N,/RXDO*%
X72140000Y-85240000D03*
%TO.N,/TXD0*%
X72140000Y-82700000D03*
%TD*%
D12*
%TO.N,GND*%
%TO.C,J1*%
X32090000Y-49220000D03*
X32090000Y-40580000D03*
D13*
X36260000Y-49220000D03*
X36260000Y-40580000D03*
%TD*%
D14*
%TO.N,Net-(F1-Pad1)*%
X38250000Y-47370000D03*
X38790000Y-39170000D03*
%TO.N,Net-(R11-Pad2)*%
X39550000Y-84330000D03*
X43654996Y-78135004D03*
%TO.N,Net-(R12-Pad1)*%
X43536497Y-76933503D03*
X48540000Y-85340000D03*
%TO.N,Net-(R13-Pad2)*%
X52717932Y-79780040D03*
X43729951Y-82638694D03*
%TO.N,Net-(J9-Pad33)*%
X84480000Y-53840000D03*
X57270000Y-61410000D03*
%TO.N,GND*%
X40135000Y-44245000D03*
X45510000Y-43750000D03*
X49660000Y-45825000D03*
X122070000Y-55000000D03*
X118700000Y-57650000D03*
X115610000Y-55860000D03*
X115670000Y-57370000D03*
X125160000Y-31550000D03*
X125250000Y-34970000D03*
X114180000Y-64430000D03*
X117400000Y-67440000D03*
X110930000Y-67500000D03*
X114170000Y-70700000D03*
X110930000Y-70760000D03*
X117420000Y-70760000D03*
X117400000Y-64450000D03*
X111490000Y-64340000D03*
X122210000Y-62240000D03*
X120910000Y-62240000D03*
X122250000Y-63670000D03*
X121020000Y-63620000D03*
X122110000Y-74950000D03*
X120500000Y-74930000D03*
X118510000Y-75010000D03*
X116820000Y-74940000D03*
X115120000Y-74990000D03*
X96900000Y-75390000D03*
X101050000Y-75330000D03*
X120210000Y-31010000D03*
X118620000Y-30910000D03*
X36250000Y-38940000D03*
X32070000Y-38990000D03*
X36260000Y-50800000D03*
X31600000Y-52860000D03*
X38330000Y-49440000D03*
X45440000Y-43090000D03*
X44770000Y-43020000D03*
X46010000Y-38210000D03*
X44610000Y-34780000D03*
X45550000Y-48910000D03*
X45560000Y-49930000D03*
X44620000Y-50410000D03*
X45580000Y-50830000D03*
X46580000Y-50340000D03*
X46130000Y-42700000D03*
X46150000Y-41920000D03*
X46120000Y-72180000D03*
X47050000Y-72200000D03*
X46780000Y-71520000D03*
X46230000Y-71020000D03*
X45060000Y-71070000D03*
X44940000Y-72220000D03*
X42560000Y-82220000D03*
X41580000Y-82650000D03*
X37420000Y-83110000D03*
X42860000Y-77390000D03*
X56440000Y-80210000D03*
X56420000Y-79590000D03*
X55140000Y-79600000D03*
X55430000Y-80350000D03*
X122080000Y-52270000D03*
X122150000Y-49220000D03*
X122120000Y-46080000D03*
X122090000Y-44730000D03*
X70900000Y-80820000D03*
X65350000Y-80890000D03*
X65350000Y-77960000D03*
X50240000Y-86330000D03*
X60510000Y-81060000D03*
X60510000Y-78130000D03*
X41780000Y-81740000D03*
X44761397Y-80268603D03*
X46001089Y-80280000D03*
X52960000Y-76700000D03*
X52250000Y-76000000D03*
X42430000Y-81250000D03*
X85580000Y-69480000D03*
X86720000Y-69500000D03*
X87710000Y-69600000D03*
X88710000Y-69640000D03*
X49520000Y-86320000D03*
X51240000Y-45825000D03*
X54963503Y-47763503D03*
X77020000Y-78440000D03*
X81800000Y-78420000D03*
X58320000Y-67660000D03*
X61860000Y-67640000D03*
X59940000Y-68940000D03*
X57270000Y-55390000D03*
X59950000Y-54880000D03*
X80590000Y-50250000D03*
X80710000Y-66240000D03*
X80660000Y-60285000D03*
X83880000Y-60285000D03*
X83787346Y-57302654D03*
X122750000Y-81960000D03*
X122120000Y-75920000D03*
X108290000Y-85030000D03*
X110420000Y-86510000D03*
X83890000Y-49950000D03*
X51240000Y-34130000D03*
X57970000Y-34090000D03*
X63320000Y-34070000D03*
X68500000Y-34120000D03*
X72890000Y-34360000D03*
X74770000Y-34680000D03*
X78730000Y-34740000D03*
X72340000Y-41410000D03*
X63940000Y-39960000D03*
X61830000Y-41880000D03*
X67507126Y-80332874D03*
X70920000Y-78370000D03*
X86560000Y-57790000D03*
X85490000Y-56490000D03*
X94580000Y-65880000D03*
X93140000Y-43470000D03*
X98310000Y-43420000D03*
X104150000Y-43340000D03*
X92710000Y-51420000D03*
X98700000Y-51350000D03*
X105900000Y-51450000D03*
X96520000Y-54420000D03*
X91150000Y-55450000D03*
X100750000Y-68750000D03*
X95350000Y-68780000D03*
X91630000Y-79160000D03*
X96990000Y-78330000D03*
X88790000Y-60285010D03*
X83644117Y-66915883D03*
X87140000Y-51730000D03*
X86610000Y-49440000D03*
X83710000Y-54530000D03*
X80880000Y-54770000D03*
X114660000Y-50650000D03*
X108610000Y-43500000D03*
X110880000Y-43710000D03*
X40070000Y-77960000D03*
X42180000Y-36940000D03*
X39450000Y-37750000D03*
X40190000Y-42620000D03*
X34900000Y-34870000D03*
X31230000Y-35320000D03*
X35430000Y-31470000D03*
X40890000Y-31000000D03*
X51260000Y-31560000D03*
X55300000Y-31580000D03*
X55400000Y-33770000D03*
X51510000Y-37960000D03*
X56670000Y-37940000D03*
X50800000Y-42200000D03*
X57990000Y-39080000D03*
X59430000Y-44000000D03*
X61670000Y-48190000D03*
X57990000Y-49800000D03*
X33030000Y-70840000D03*
X33120000Y-75300000D03*
X33070000Y-77270000D03*
X33070000Y-81370000D03*
X36280000Y-81680000D03*
X38590000Y-81320000D03*
X37830000Y-79450000D03*
X52740000Y-83780000D03*
X75730000Y-85920000D03*
X81180000Y-85990000D03*
X86770000Y-85860000D03*
X91410000Y-85970000D03*
X96950000Y-86100000D03*
X101050000Y-86110000D03*
X104400000Y-85990000D03*
X100720000Y-62010000D03*
X98160000Y-58440000D03*
X110690000Y-31810000D03*
X113650000Y-31750000D03*
X101660000Y-32040000D03*
X98540000Y-32190000D03*
X90010000Y-32020000D03*
X86260000Y-32040000D03*
X78350000Y-31830000D03*
X59680000Y-46780000D03*
X46720000Y-65780000D03*
X45600000Y-64430000D03*
X65490000Y-45970000D03*
X69330000Y-46190000D03*
X71480000Y-48330000D03*
X63620000Y-64720000D03*
X63570000Y-61880000D03*
X63590000Y-58470000D03*
X75780000Y-52660000D03*
X78690000Y-55590000D03*
X86390000Y-65790000D03*
X87520000Y-65230000D03*
X94490000Y-63490000D03*
X94290000Y-62480000D03*
X96980000Y-65940000D03*
X72620000Y-61100000D03*
X76450000Y-61460000D03*
X73740000Y-71320000D03*
X85910000Y-78310000D03*
X33420000Y-59700000D03*
X80880000Y-69700000D03*
X45083596Y-38963596D03*
%TO.N,+3V3*%
X77320000Y-36560000D03*
%TO.N,VBUS*%
X45310000Y-83330000D03*
X45960000Y-83310000D03*
X46660000Y-83320000D03*
X45930000Y-82710000D03*
X42960000Y-79760000D03*
X43619998Y-79760000D03*
X50780000Y-73540000D03*
X52000000Y-73520000D03*
X51290000Y-72440000D03*
X46330000Y-39470000D03*
X47010000Y-39390000D03*
X46780000Y-38800000D03*
X57800000Y-54120000D03*
X58640000Y-54090000D03*
X56860000Y-54220000D03*
%TO.N,+BATT*%
X43310000Y-74430000D03*
X42640000Y-74450000D03*
X42670000Y-75420000D03*
X58850000Y-56900000D03*
X58140000Y-56450000D03*
X59100000Y-56020000D03*
%TO.N,+3V3*%
X47940000Y-49940000D03*
X48710000Y-49950000D03*
X47950000Y-50630000D03*
X48730000Y-50620000D03*
X49410000Y-50630000D03*
X49400000Y-49970000D03*
%TO.N,GND*%
X103200000Y-79910000D03*
X104930000Y-79770000D03*
X103540000Y-83450000D03*
X100500000Y-82960000D03*
X98430000Y-82920000D03*
X97060000Y-82510000D03*
X123640000Y-38010000D03*
X128060000Y-37930000D03*
X118550000Y-40370000D03*
X119440000Y-39620000D03*
X116500000Y-35930000D03*
X119040000Y-40790000D03*
X124080000Y-32390000D03*
X119099228Y-56507893D03*
X117020000Y-44820000D03*
X37470000Y-58080000D03*
X39430000Y-53280000D03*
X34450000Y-50980000D03*
X30950000Y-50640000D03*
X32160000Y-51140000D03*
X31266678Y-58178206D03*
X32120000Y-59110000D03*
X53030000Y-53560000D03*
X53150000Y-51310000D03*
X51660000Y-51290000D03*
X84020000Y-45390000D03*
X81130000Y-45320000D03*
X78460000Y-45320000D03*
X75990000Y-44250000D03*
X70020000Y-49980000D03*
X108800000Y-74750000D03*
X107150000Y-74010000D03*
X105060000Y-72330000D03*
X30688907Y-52209340D03*
X39240000Y-50640000D03*
X37950000Y-51000000D03*
X39690000Y-49200000D03*
X44050000Y-49590000D03*
X45090000Y-53790000D03*
X46590000Y-53780000D03*
X45880000Y-55170000D03*
X38990000Y-58100000D03*
X40220000Y-58270000D03*
X52090000Y-68840000D03*
X59910000Y-74140000D03*
X56890000Y-75030000D03*
X51960000Y-67620000D03*
X51930000Y-66060000D03*
X35640000Y-53180000D03*
X36100000Y-54280000D03*
X37080000Y-54270000D03*
X37030000Y-53230000D03*
X49120000Y-60770000D03*
X51160000Y-60470000D03*
X47380000Y-62540000D03*
X49090000Y-63260000D03*
X46460000Y-58490000D03*
X49520000Y-58260000D03*
X48240000Y-57090000D03*
X63730000Y-46020000D03*
X63490000Y-49610000D03*
X63280000Y-51560000D03*
X45210000Y-61270000D03*
X45670000Y-61790000D03*
X44850000Y-60680000D03*
X45390000Y-57890000D03*
X46890000Y-59260000D03*
X61900000Y-68590000D03*
X61920000Y-69480000D03*
X63480000Y-74060000D03*
X71160000Y-70170000D03*
X69240000Y-71490000D03*
X62690000Y-73450000D03*
X61970000Y-73010000D03*
X66970000Y-73580000D03*
X67980000Y-73620000D03*
X73950000Y-73480000D03*
X75110000Y-72870000D03*
X76420000Y-73020000D03*
X69990000Y-68180000D03*
X72360000Y-65960000D03*
X73640000Y-64150000D03*
X70000000Y-63460000D03*
X69960000Y-60850000D03*
X70020000Y-58310000D03*
X70050000Y-56770000D03*
%TO.N,+3V3*%
X55000000Y-76440000D03*
X55750000Y-76400000D03*
X55110000Y-75670000D03*
X87300000Y-47620000D03*
X88810000Y-47640000D03*
X88140000Y-48870000D03*
X113300000Y-48460000D03*
X113855000Y-49860000D03*
X113110000Y-49400000D03*
X88590000Y-39660000D03*
X100170000Y-39660000D03*
X112190000Y-40180000D03*
X56670000Y-41510000D03*
X59060000Y-61290000D03*
X36000000Y-51950000D03*
%TO.N,VCC*%
X41849137Y-36195786D03*
X48694988Y-39358084D03*
%TO.N,/LDO_EN*%
X40400000Y-43580000D03*
X40150000Y-35220000D03*
X66950000Y-77960000D03*
X61340000Y-72120000D03*
X58820000Y-72060000D03*
%TO.N,/HDC2080_INT*%
X116210000Y-58690000D03*
X120132272Y-33460701D03*
%TO.N,/RESET_N*%
X121030000Y-81160000D03*
X110500000Y-83220000D03*
X62920000Y-75360000D03*
X60560000Y-70190000D03*
X62560000Y-50530000D03*
%TO.N,/SCL*%
X123730000Y-33820000D03*
X97980000Y-77640000D03*
X116200000Y-37040000D03*
X62230000Y-66140000D03*
X70300000Y-75030000D03*
X70260000Y-77460000D03*
X115880000Y-53860000D03*
X112350000Y-56180000D03*
X121548555Y-42035000D03*
X32030000Y-57010000D03*
X47210000Y-60570000D03*
%TO.N,/SDA*%
X123750000Y-31020000D03*
X69630000Y-78090000D03*
X114940000Y-55390000D03*
X114330000Y-40480000D03*
X62960000Y-65620000D03*
X68950000Y-74310000D03*
X100210000Y-79870000D03*
X120490000Y-42035000D03*
%TO.N,/DBG_OUT*%
X119270000Y-80360000D03*
%TO.N,/SPIV*%
X117470000Y-79380000D03*
%TO.N,/TFT_LITE*%
X55189492Y-49585508D03*
X93090002Y-72630000D03*
%TO.N,/BOOT0*%
X118690000Y-58580000D03*
X62880000Y-41740000D03*
X77770000Y-43520000D03*
%TO.N,/RXDO*%
X72460910Y-78202317D03*
X115911291Y-80083301D03*
%TO.N,/TXD0*%
X71840000Y-78010000D03*
X114730000Y-80520000D03*
%TO.N,/TFT_RESET*%
X111660000Y-79152317D03*
X113070000Y-83150000D03*
X84080000Y-61020000D03*
%TO.N,/TFT_CS*%
X111540000Y-86500000D03*
X110210000Y-78680000D03*
X83520000Y-64540000D03*
%TO.N,/TFT_DC*%
X111810000Y-83180000D03*
X108650000Y-78530000D03*
X84490000Y-63780000D03*
%TO.N,/MISO*%
X105650000Y-79190000D03*
X84258988Y-61728007D03*
%TO.N,/SCK*%
X104100000Y-79200000D03*
X83640000Y-63250000D03*
%TO.N,/MOSI*%
X102710000Y-79152317D03*
X83690000Y-62210000D03*
%TO.N,/AD0*%
X97821551Y-67449785D03*
X104300000Y-41300000D03*
%TO.N,/AD1*%
X66180000Y-77910000D03*
X87390000Y-40780000D03*
X93930000Y-67670000D03*
%TO.N,/BTN*%
X61340000Y-42690000D03*
X117720000Y-58020000D03*
X78310000Y-42700000D03*
%TO.N,/LED0*%
X129100000Y-43350000D03*
X111740000Y-58660000D03*
%TO.N,/LED1*%
X129120000Y-41260000D03*
X110210000Y-58560000D03*
%TO.N,/LED2*%
X129110000Y-39260000D03*
%TO.N,/LED3*%
X107220000Y-58530000D03*
X128826885Y-36684896D03*
%TO.N,/LED2*%
X108710000Y-58500000D03*
%TO.N,/GPIO38*%
X63430000Y-79610000D03*
X107440000Y-79400000D03*
%TO.N,/PRESS_INT*%
X61930000Y-78100000D03*
X105490001Y-58310000D03*
%TO.N,/GPIO10*%
X61219124Y-78139124D03*
X104200000Y-58300000D03*
%TO.N,/ALS_INT*%
X102750000Y-58360000D03*
X59730000Y-78130000D03*
%TO.N,/GPIO12*%
X101220000Y-58400000D03*
%TO.N,/TMS*%
X113130000Y-79200000D03*
X115150000Y-85960000D03*
%TO.N,/CTC_IRQ*%
X99740000Y-58410000D03*
X61500000Y-66650000D03*
%TO.N,/D_P*%
X38460000Y-45680000D03*
X38340000Y-44660000D03*
%TO.N,Net-(R18-Pad2)*%
X95270000Y-59810000D03*
X40737829Y-72944288D03*
%TO.N,/D_P*%
X43117502Y-45475000D03*
X96647394Y-69824517D03*
%TO.N,/D_N*%
X43117502Y-44725000D03*
X97415000Y-69810000D03*
%TO.N,/PRESS_INT*%
X117350000Y-46660000D03*
X119260000Y-42575000D03*
%TO.N,Net-(TP25-Pad1)*%
X123013691Y-40035000D03*
%TO.N,Net-(R36-Pad1)*%
X32670000Y-56000000D03*
%TO.N,/SDA*%
X31280000Y-57240000D03*
X46590000Y-60984990D03*
%TO.N,/GPIO12*%
X59840000Y-77180000D03*
%TO.N,VDDF*%
X31310000Y-51390000D03*
X31610000Y-51960000D03*
%TO.N,/ALS_INT*%
X35390000Y-57270000D03*
X47260000Y-61670000D03*
%TD*%
D15*
%TO.N,Net-(F1-Pad1)*%
X38250000Y-47370000D02*
X37620000Y-47370000D01*
X37620000Y-47370000D02*
X36770000Y-46520000D01*
X38790000Y-40155649D02*
X38790000Y-39170000D01*
X36770000Y-42175649D02*
X38790000Y-40155649D01*
X36770000Y-46520000D02*
X36770000Y-42175649D01*
%TO.N,Net-(J9-Pad33)*%
X84230001Y-53590001D02*
X84480000Y-53840000D01*
X61549998Y-49856116D02*
X64471244Y-46934870D01*
X58730000Y-62870000D02*
X58929582Y-62870000D01*
X57270000Y-61410000D02*
X58730000Y-62870000D01*
X68729577Y-46934870D02*
X75384708Y-53590001D01*
X61549998Y-60249584D02*
X61549998Y-49856116D01*
X64471244Y-46934870D02*
X68729577Y-46934870D01*
X75384708Y-53590001D02*
X84230001Y-53590001D01*
X58929582Y-62870000D02*
X61549998Y-60249584D01*
D16*
%TO.N,GND*%
X55640000Y-86330000D02*
X50240000Y-86330000D01*
X56900000Y-85070000D02*
X55640000Y-86330000D01*
D17*
X65350000Y-77960000D02*
X65350000Y-80890000D01*
X65350000Y-77960000D02*
X65350000Y-77120000D01*
D18*
X53100000Y-86330000D02*
X50240000Y-86330000D01*
X59700001Y-55129999D02*
X59950000Y-54880000D01*
X57992096Y-55129999D02*
X59700001Y-55129999D01*
X57732095Y-55390000D02*
X57992096Y-55129999D01*
X57270000Y-55390000D02*
X57732095Y-55390000D01*
D17*
X110420000Y-85806954D02*
X110420000Y-86510000D01*
X109643046Y-85030000D02*
X110420000Y-85806954D01*
X108290000Y-85030000D02*
X109643046Y-85030000D01*
D18*
X66950000Y-80890000D02*
X67507126Y-80332874D01*
X65350000Y-80890000D02*
X66950000Y-80890000D01*
X70412874Y-80332874D02*
X70900000Y-80820000D01*
X67507126Y-80332874D02*
X70412874Y-80332874D01*
D19*
X83880010Y-60285010D02*
X83880000Y-60285000D01*
X88790000Y-60285010D02*
X83880010Y-60285010D01*
X80660000Y-60285000D02*
X83880000Y-60285000D01*
D15*
%TO.N,VBUS*%
X45930000Y-82710000D02*
X45310000Y-83330000D01*
X46650000Y-83330000D02*
X46660000Y-83320000D01*
X45310000Y-83330000D02*
X46650000Y-83330000D01*
X46050000Y-82710000D02*
X46660000Y-83320000D01*
X45930000Y-82710000D02*
X46050000Y-82710000D01*
X45930000Y-82710000D02*
X43619998Y-80399998D01*
X43619998Y-80399998D02*
X43619998Y-79760000D01*
D20*
X42960000Y-79760000D02*
X43619998Y-79760000D01*
D15*
X51290000Y-73030000D02*
X50780000Y-73540000D01*
X51290000Y-72440000D02*
X51290000Y-73030000D01*
X51290000Y-72810000D02*
X52000000Y-73520000D01*
X51290000Y-72440000D02*
X51290000Y-72810000D01*
X50800000Y-73520000D02*
X50780000Y-73540000D01*
X52000000Y-73520000D02*
X50800000Y-73520000D01*
X50780000Y-72950000D02*
X51290000Y-72440000D01*
X50780000Y-73540000D02*
X50780000Y-72950000D01*
X46410000Y-39390000D02*
X46330000Y-39470000D01*
X47010000Y-39390000D02*
X46410000Y-39390000D01*
X46330000Y-39470000D02*
X46780000Y-39020000D01*
X46780000Y-39020000D02*
X46780000Y-38800000D01*
X54190000Y-85070000D02*
X54360000Y-85240000D01*
X49970000Y-85070000D02*
X54190000Y-85070000D01*
X48210000Y-83310000D02*
X49970000Y-85070000D01*
X45960000Y-83310000D02*
X48210000Y-83310000D01*
X57700000Y-54220000D02*
X57800000Y-54120000D01*
X56860000Y-54220000D02*
X57700000Y-54220000D01*
X58610000Y-54120000D02*
X58640000Y-54090000D01*
X57800000Y-54120000D02*
X58610000Y-54120000D01*
%TO.N,+BATT*%
X42640000Y-75390000D02*
X42670000Y-75420000D01*
X42640000Y-74450000D02*
X42640000Y-75390000D01*
X42660000Y-74430000D02*
X42640000Y-74450000D01*
X43310000Y-74430000D02*
X42660000Y-74430000D01*
X43310000Y-74780000D02*
X42670000Y-75420000D01*
X43310000Y-74430000D02*
X43310000Y-74780000D01*
D21*
X51060000Y-81770000D02*
X51160000Y-81770000D01*
X43310000Y-74430000D02*
X43720000Y-74430000D01*
D18*
X51820000Y-82530000D02*
X49815000Y-80525000D01*
D21*
X49815000Y-80525000D02*
X51060000Y-81770000D01*
X43720000Y-74430000D02*
X49815000Y-80525000D01*
D15*
X51990000Y-82700000D02*
X51060000Y-81770000D01*
X54360000Y-82700000D02*
X51990000Y-82700000D01*
X58570000Y-56020000D02*
X58140000Y-56450000D01*
X59100000Y-56020000D02*
X58570000Y-56020000D01*
X58590000Y-56900000D02*
X58140000Y-56450000D01*
X58850000Y-56900000D02*
X58590000Y-56900000D01*
D19*
%TO.N,GND*%
X118550000Y-40370000D02*
X119300000Y-39620000D01*
X119300000Y-39620000D02*
X119440000Y-39620000D01*
D17*
X119440000Y-40390000D02*
X119040000Y-40790000D01*
X118550000Y-40370000D02*
X118970000Y-40790000D01*
X119440000Y-39620000D02*
X119440000Y-40390000D01*
X118970000Y-40790000D02*
X119040000Y-40790000D01*
D16*
X60510000Y-81060000D02*
X60510000Y-77160000D01*
X60510000Y-77160000D02*
X60630000Y-77040000D01*
D19*
X61860000Y-67534002D02*
X61860000Y-67640000D01*
X63620000Y-65774002D02*
X61860000Y-67534002D01*
X63620000Y-64720000D02*
X63620000Y-65774002D01*
X59940000Y-70384002D02*
X59940000Y-68940000D01*
X60295999Y-70740001D02*
X59940000Y-70384002D01*
X60824001Y-70740001D02*
X60295999Y-70740001D01*
X61920000Y-69644002D02*
X60824001Y-70740001D01*
X61920000Y-69480000D02*
X61920000Y-69644002D01*
X63590000Y-61860000D02*
X63570000Y-61880000D01*
X63590000Y-58470000D02*
X63590000Y-61860000D01*
D21*
%TO.N,+3V3*%
X49410000Y-50630000D02*
X61980000Y-38060000D01*
X61980000Y-38060000D02*
X112400000Y-38060000D01*
X49410000Y-52760000D02*
X55000000Y-58350000D01*
X49410000Y-50630000D02*
X49410000Y-52760000D01*
D22*
X75270000Y-47620000D02*
X87300000Y-47620000D01*
D21*
X65710000Y-38060000D02*
X75270000Y-47620000D01*
X61980000Y-38060000D02*
X65710000Y-38060000D01*
D15*
X88790000Y-47620000D02*
X88810000Y-47640000D01*
X87300000Y-47620000D02*
X88790000Y-47620000D01*
X88810000Y-48200000D02*
X88140000Y-48870000D01*
X88810000Y-47640000D02*
X88810000Y-48200000D01*
D17*
X113300000Y-49210000D02*
X113110000Y-49400000D01*
X113300000Y-48460000D02*
X113300000Y-49210000D01*
X113395000Y-49400000D02*
X113855000Y-49860000D01*
X113110000Y-49400000D02*
X113395000Y-49400000D01*
X113300000Y-48460000D02*
X113940000Y-49100000D01*
X113940000Y-49775000D02*
X113855000Y-49860000D01*
X113940000Y-49100000D02*
X113940000Y-49775000D01*
X113855000Y-49860000D02*
X113855000Y-49465000D01*
X113855000Y-49465000D02*
X113610000Y-49220000D01*
D20*
X55000000Y-60320000D02*
X58090000Y-60320000D01*
X58090000Y-60320000D02*
X59060000Y-61290000D01*
D21*
X55000000Y-58350000D02*
X55000000Y-60320000D01*
D23*
X55000000Y-75780000D02*
X55350000Y-76130000D01*
X55000000Y-60320000D02*
X55000000Y-75780000D01*
D18*
%TO.N,VCC*%
X45532690Y-36195786D02*
X48694988Y-39358084D01*
X41849137Y-36195786D02*
X45532690Y-36195786D01*
D24*
%TO.N,/LDO_EN*%
X40635001Y-43815001D02*
X40400000Y-43580000D01*
X40635001Y-51255001D02*
X40635001Y-43815001D01*
X52950001Y-63570001D02*
X40635001Y-51255001D01*
D16*
X56374992Y-77355008D02*
X58820000Y-74910000D01*
X54842584Y-77355008D02*
X56374992Y-77355008D01*
X58820000Y-74910000D02*
X58820000Y-72060000D01*
X52950001Y-75462425D02*
X54842584Y-77355008D01*
X52950001Y-75270001D02*
X52950001Y-75462425D01*
D24*
X52950001Y-75497781D02*
X52950001Y-75270001D01*
X52950001Y-75270001D02*
X52950001Y-63570001D01*
D16*
X62690000Y-72120000D02*
X61340000Y-72120000D01*
X66950000Y-76380000D02*
X62690000Y-72120000D01*
X66950000Y-77960000D02*
X66950000Y-76380000D01*
D24*
%TO.N,/RESET_N*%
X112560000Y-81160000D02*
X110500000Y-83220000D01*
X121030000Y-81160000D02*
X112560000Y-81160000D01*
X109569999Y-82289999D02*
X110500000Y-83220000D01*
X107249999Y-82289999D02*
X109569999Y-82289999D01*
X106350010Y-81390010D02*
X107249999Y-82289999D01*
X65142890Y-81390010D02*
X106350010Y-81390010D01*
X64670000Y-80917120D02*
X65142890Y-81390010D01*
D16*
X64670000Y-77110000D02*
X64670000Y-80917120D01*
X62920000Y-75360000D02*
X64670000Y-77110000D01*
X60560000Y-62850000D02*
X62560000Y-60850000D01*
X62560000Y-60850000D02*
X62560000Y-50530000D01*
X60560000Y-70190000D02*
X60560000Y-62850000D01*
%TO.N,/SCL*%
X97550001Y-77210001D02*
X70509999Y-77210001D01*
X97980000Y-77640000D02*
X97550001Y-77210001D01*
X70509999Y-77210001D02*
X70260000Y-77460000D01*
D24*
X120480000Y-33820000D02*
X117260000Y-37040000D01*
X117260000Y-37040000D02*
X116200000Y-37040000D01*
X123730000Y-33820000D02*
X120480000Y-33820000D01*
D16*
X42764989Y-56494989D02*
X46840000Y-60570000D01*
X46840000Y-60570000D02*
X47210000Y-60570000D01*
X34795011Y-56494989D02*
X42764989Y-56494989D01*
X34280000Y-57010000D02*
X34795011Y-56494989D01*
X32030000Y-57010000D02*
X34280000Y-57010000D01*
%TO.N,/SDA*%
X97066998Y-79870000D02*
X100210000Y-79870000D01*
X70496998Y-78090000D02*
X71051999Y-77534999D01*
X94731997Y-77534999D02*
X97066998Y-79870000D01*
X71051999Y-77534999D02*
X94731997Y-77534999D01*
X69630000Y-78090000D02*
X70496998Y-78090000D01*
%TO.N,/BOOT0*%
X86355318Y-44160000D02*
X78390000Y-44160000D01*
X91420000Y-49224682D02*
X86355318Y-44160000D01*
X91420000Y-54090000D02*
X91420000Y-49224682D01*
X97640000Y-60310000D02*
X91420000Y-54090000D01*
X116960000Y-60310000D02*
X97640000Y-60310000D01*
X118690000Y-58580000D02*
X116960000Y-60310000D01*
X77830000Y-43580000D02*
X77770000Y-43520000D01*
X78390000Y-44160000D02*
X77830000Y-43600000D01*
X77830000Y-43600000D02*
X77830000Y-43580000D01*
X77830000Y-43600000D02*
X77760000Y-43530000D01*
%TO.N,/RXDO*%
X74683594Y-80425001D02*
X72460910Y-78202317D01*
X115661292Y-79833302D02*
X114306698Y-79833302D01*
X114306698Y-79833302D02*
X113714999Y-80425001D01*
X115911291Y-80083301D02*
X115661292Y-79833302D01*
X113714999Y-80425001D02*
X74683594Y-80425001D01*
%TO.N,/TXD0*%
X114440000Y-80810000D02*
X114730000Y-80520000D01*
X74286447Y-80810000D02*
X114440000Y-80810000D01*
X71840000Y-78363553D02*
X74286447Y-80810000D01*
X71840000Y-78010000D02*
X71840000Y-78363553D01*
%TO.N,/TFT_RESET*%
X111660000Y-79152317D02*
X111660000Y-70786998D01*
X101893002Y-61020000D02*
X84080000Y-61020000D01*
X111660000Y-70786998D02*
X101893002Y-61020000D01*
%TO.N,/TFT_CS*%
X110210000Y-74710000D02*
X100040000Y-64540000D01*
X110210000Y-78680000D02*
X110210000Y-74710000D01*
X100040000Y-64540000D02*
X83520000Y-64540000D01*
%TO.N,/TFT_DC*%
X108226447Y-78530000D02*
X96086447Y-66390000D01*
X96086447Y-66390000D02*
X84666998Y-66390000D01*
X84666998Y-66390000D02*
X83044999Y-64768001D01*
X83044999Y-64151999D02*
X83416998Y-63780000D01*
X83416998Y-63780000D02*
X84490000Y-63780000D01*
X83044999Y-64768001D02*
X83044999Y-64151999D01*
X108650000Y-78530000D02*
X108226447Y-78530000D01*
%TO.N,/MISO*%
X110930000Y-78663002D02*
X110930000Y-74380000D01*
X109718001Y-79875001D02*
X110930000Y-78663002D01*
X105650000Y-79190000D02*
X106335001Y-79875001D01*
X106335001Y-79875001D02*
X109718001Y-79875001D01*
X110930000Y-74380000D02*
X98278007Y-61728007D01*
X98278007Y-61728007D02*
X84258988Y-61728007D01*
%TO.N,/SCK*%
X83640000Y-63250000D02*
X83286447Y-63250000D01*
X83286447Y-63250000D02*
X82744988Y-63791459D01*
X94998013Y-66690011D02*
X104100000Y-75791998D01*
X84542730Y-66690011D02*
X94998013Y-66690011D01*
X104100000Y-75791998D02*
X104100000Y-79200000D01*
X82744988Y-64892269D02*
X84542730Y-66690011D01*
X82744988Y-63791459D02*
X82744988Y-64892269D01*
%TO.N,/MOSI*%
X82444977Y-63455023D02*
X83690000Y-62210000D01*
X82444977Y-65016537D02*
X82444977Y-63455023D01*
X94145009Y-67135009D02*
X84563449Y-67135009D01*
X94610000Y-67600000D02*
X94145009Y-67135009D01*
X94610000Y-71052317D02*
X94610000Y-67600000D01*
X102710000Y-79152317D02*
X94610000Y-71052317D01*
X84563449Y-67135009D02*
X82444977Y-65016537D01*
%TO.N,/AD1*%
X67954999Y-78435001D02*
X67954999Y-78455001D01*
X66180000Y-77910000D02*
X66180000Y-78310000D01*
X66180000Y-78310000D02*
X66770000Y-78900000D01*
X67490000Y-78900000D02*
X67954999Y-78435001D01*
X66770000Y-78900000D02*
X67490000Y-78900000D01*
X67954999Y-78435001D02*
X78720000Y-67670000D01*
X78720000Y-67670000D02*
X93930000Y-67670000D01*
%TO.N,/BTN*%
X85519596Y-42900000D02*
X79070000Y-42900000D01*
X91720010Y-49100414D02*
X85519596Y-42900000D01*
X91720010Y-53500010D02*
X91720010Y-49100414D01*
X97830000Y-59610000D02*
X91720010Y-53500010D01*
X116130000Y-59610000D02*
X97830000Y-59610000D01*
X117720000Y-58020000D02*
X116130000Y-59610000D01*
X78510000Y-42900000D02*
X78310000Y-42700000D01*
X79070000Y-42900000D02*
X78510000Y-42900000D01*
D20*
%TO.N,/LED0*%
X111490001Y-48579999D02*
X115260000Y-44810000D01*
X111490001Y-58410001D02*
X111490001Y-48579999D01*
X111740000Y-58660000D02*
X111490001Y-58410001D01*
D24*
X117955001Y-42074999D02*
X115070000Y-44960000D01*
X120785002Y-43360000D02*
X119500001Y-42074999D01*
X126910000Y-43360000D02*
X120785002Y-43360000D01*
X119500001Y-42074999D02*
X117955001Y-42074999D01*
X126920000Y-43350000D02*
X126910000Y-43360000D01*
X129100000Y-43350000D02*
X126920000Y-43350000D01*
D20*
%TO.N,/LED1*%
X120050000Y-41260000D02*
X129120000Y-41260000D01*
X110210000Y-48422616D02*
X116862616Y-41770000D01*
X110210000Y-58560000D02*
X110210000Y-48422616D01*
D24*
X119990000Y-41320000D02*
X120050000Y-41260000D01*
X117380000Y-41320000D02*
X119990000Y-41320000D01*
X116930000Y-41770000D02*
X117380000Y-41320000D01*
X116862616Y-41770000D02*
X116930000Y-41770000D01*
D20*
%TO.N,/LED3*%
X119402106Y-36684896D02*
X128826885Y-36684896D01*
X107220000Y-58530000D02*
X107220000Y-48867002D01*
X107220000Y-48867002D02*
X119402106Y-36684896D01*
%TO.N,/LED2*%
X129110000Y-39260000D02*
X120267002Y-39260000D01*
X118574810Y-38784999D02*
X108710000Y-48649809D01*
X120267002Y-39260000D02*
X119792001Y-38784999D01*
X119792001Y-38784999D02*
X118574810Y-38784999D01*
X108710000Y-48649809D02*
X108710000Y-58500000D01*
D16*
%TO.N,/GPIO12*%
X101220000Y-58390000D02*
X101220000Y-58400000D01*
D24*
%TO.N,/PRESS_INT*%
X118085000Y-42575000D02*
X119260000Y-42575000D01*
X116250000Y-44410000D02*
X118085000Y-42575000D01*
X116250000Y-45560000D02*
X116250000Y-44410000D01*
X117350000Y-46660000D02*
X116250000Y-45560000D01*
D16*
%TO.N,/SDA*%
X35161999Y-56794999D02*
X42400009Y-56794999D01*
X34466999Y-57489999D02*
X35161999Y-56794999D01*
X31280000Y-57240000D02*
X31529999Y-57489999D01*
X31529999Y-57489999D02*
X34466999Y-57489999D01*
X42400009Y-56794999D02*
X46590000Y-60984990D01*
%TO.N,Net-(R18-Pad2)*%
X44429079Y-72694289D02*
X40987828Y-72694289D01*
X50484790Y-78750000D02*
X44429079Y-72694289D01*
X55570000Y-78750000D02*
X50484790Y-78750000D01*
X59320000Y-75000000D02*
X55570000Y-78750000D01*
X59320000Y-72950000D02*
X59320000Y-75000000D01*
X62180000Y-70090000D02*
X59320000Y-72950000D01*
X63901068Y-70090000D02*
X62180000Y-70090000D01*
X64781068Y-70970000D02*
X63901068Y-70090000D01*
X40987828Y-72694289D02*
X40737829Y-72944288D01*
X68442805Y-70970000D02*
X64781068Y-70970000D01*
X79602805Y-59810000D02*
X68442805Y-70970000D01*
X95270000Y-59810000D02*
X79602805Y-59810000D01*
D19*
%TO.N,VDDF*%
X31310000Y-51660000D02*
X31610000Y-51960000D01*
X31310000Y-51390000D02*
X31310000Y-51660000D01*
D16*
%TO.N,/ALS_INT*%
X46570000Y-61670000D02*
X47260000Y-61670000D01*
X42170000Y-57270000D02*
X46570000Y-61670000D01*
X35390000Y-57270000D02*
X42170000Y-57270000D01*
%TD*%
D25*
%TO.N,GND*%
X118840795Y-43359277D02*
X119001855Y-43425990D01*
X119172835Y-43460000D01*
X119347165Y-43460000D01*
X119518145Y-43425990D01*
X119679205Y-43359277D01*
X119718546Y-43332990D01*
X120239748Y-43854193D01*
X120262764Y-43882238D01*
X120374682Y-43974087D01*
X120502369Y-44042337D01*
X120617904Y-44077384D01*
X120640917Y-44084365D01*
X120785002Y-44098556D01*
X120821107Y-44095000D01*
X126873895Y-44095000D01*
X126910000Y-44098556D01*
X126946105Y-44095000D01*
X127047638Y-44085000D01*
X128607047Y-44085000D01*
X128680795Y-44134277D01*
X128841855Y-44200990D01*
X129012835Y-44235000D01*
X129187165Y-44235000D01*
X129315000Y-44209572D01*
X129315000Y-44310182D01*
X123210149Y-44303000D01*
X123185224Y-44305440D01*
X123161399Y-44312667D01*
X123139443Y-44324403D01*
X123120197Y-44340197D01*
X123104403Y-44359443D01*
X123092667Y-44381399D01*
X123085440Y-44405224D01*
X123083000Y-44430000D01*
X123083000Y-86315000D01*
X115960871Y-86315000D01*
X116000990Y-86218145D01*
X116035000Y-86047165D01*
X116035000Y-85872835D01*
X116000990Y-85701855D01*
X115934277Y-85540795D01*
X115837424Y-85395845D01*
X115714155Y-85272576D01*
X115569205Y-85175723D01*
X115435755Y-85120446D01*
X115450300Y-85047325D01*
X115450300Y-84824675D01*
X115406863Y-84606304D01*
X115321659Y-84400602D01*
X115197961Y-84215476D01*
X115040524Y-84058039D01*
X114855398Y-83934341D01*
X114649696Y-83849137D01*
X114431325Y-83805700D01*
X114208675Y-83805700D01*
X113990304Y-83849137D01*
X113784602Y-83934341D01*
X113599476Y-84058039D01*
X113442039Y-84215476D01*
X113318341Y-84400602D01*
X113233137Y-84606304D01*
X113189700Y-84824675D01*
X113189700Y-85047325D01*
X113233137Y-85265696D01*
X113318341Y-85471398D01*
X113442039Y-85656524D01*
X113599476Y-85813961D01*
X113784602Y-85937659D01*
X113990304Y-86022863D01*
X114208675Y-86066300D01*
X114268806Y-86066300D01*
X114299010Y-86218145D01*
X114339129Y-86315000D01*
X112405539Y-86315000D01*
X112390990Y-86241855D01*
X112324277Y-86080795D01*
X112227424Y-85935845D01*
X112104155Y-85812576D01*
X111959205Y-85715723D01*
X111798145Y-85649010D01*
X111627165Y-85615000D01*
X111452835Y-85615000D01*
X111281855Y-85649010D01*
X111120795Y-85715723D01*
X110975845Y-85812576D01*
X110852576Y-85935845D01*
X110755723Y-86080795D01*
X110689010Y-86241855D01*
X110674461Y-86315000D01*
X110313068Y-86315000D01*
X110326863Y-86281696D01*
X110370300Y-86063325D01*
X110370300Y-85840675D01*
X110326863Y-85622304D01*
X110241659Y-85416602D01*
X110117961Y-85231476D01*
X109960524Y-85074039D01*
X109775398Y-84950341D01*
X109740776Y-84936000D01*
X109775398Y-84921659D01*
X109960524Y-84797961D01*
X110117961Y-84640524D01*
X110241659Y-84455398D01*
X110326863Y-84249696D01*
X110357822Y-84094057D01*
X110412835Y-84105000D01*
X110587165Y-84105000D01*
X110758145Y-84070990D01*
X110919205Y-84004277D01*
X111064155Y-83907424D01*
X111175000Y-83796579D01*
X111245845Y-83867424D01*
X111390795Y-83964277D01*
X111551855Y-84030990D01*
X111722835Y-84065000D01*
X111897165Y-84065000D01*
X112068145Y-84030990D01*
X112229205Y-83964277D01*
X112374155Y-83867424D01*
X112455000Y-83786579D01*
X112505845Y-83837424D01*
X112650795Y-83934277D01*
X112811855Y-84000990D01*
X112982835Y-84035000D01*
X113157165Y-84035000D01*
X113328145Y-84000990D01*
X113489205Y-83934277D01*
X113634155Y-83837424D01*
X113757424Y-83714155D01*
X113854277Y-83569205D01*
X113920990Y-83408145D01*
X113955000Y-83237165D01*
X113955000Y-83062835D01*
X113920990Y-82891855D01*
X113854277Y-82730795D01*
X113757424Y-82585845D01*
X113634155Y-82462576D01*
X113489205Y-82365723D01*
X113328145Y-82299010D01*
X113157165Y-82265000D01*
X112982835Y-82265000D01*
X112811855Y-82299010D01*
X112650795Y-82365723D01*
X112505845Y-82462576D01*
X112425000Y-82543421D01*
X112374155Y-82492576D01*
X112309843Y-82449604D01*
X112864447Y-81895000D01*
X120537047Y-81895000D01*
X120610795Y-81944277D01*
X120771855Y-82010990D01*
X120942835Y-82045000D01*
X121117165Y-82045000D01*
X121288145Y-82010990D01*
X121449205Y-81944277D01*
X121594155Y-81847424D01*
X121717424Y-81724155D01*
X121814277Y-81579205D01*
X121880990Y-81418145D01*
X121915000Y-81247165D01*
X121915000Y-81072835D01*
X121880990Y-80901855D01*
X121814277Y-80740795D01*
X121717424Y-80595845D01*
X121594155Y-80472576D01*
X121449205Y-80375723D01*
X121288145Y-80309010D01*
X121117165Y-80275000D01*
X120942835Y-80275000D01*
X120771855Y-80309010D01*
X120610795Y-80375723D01*
X120537047Y-80425000D01*
X120155000Y-80425000D01*
X120155000Y-80272835D01*
X120120990Y-80101855D01*
X120054277Y-79940795D01*
X119957424Y-79795845D01*
X119834155Y-79672576D01*
X119689205Y-79575723D01*
X119528145Y-79509010D01*
X119357165Y-79475000D01*
X119182835Y-79475000D01*
X119011855Y-79509010D01*
X118850795Y-79575723D01*
X118705845Y-79672576D01*
X118582576Y-79795845D01*
X118485723Y-79940795D01*
X118419010Y-80101855D01*
X118385000Y-80272835D01*
X118385000Y-80425000D01*
X116727672Y-80425000D01*
X116762281Y-80341446D01*
X116796291Y-80170466D01*
X116796291Y-79996136D01*
X116786789Y-79948368D01*
X116905845Y-80067424D01*
X117050795Y-80164277D01*
X117211855Y-80230990D01*
X117382835Y-80265000D01*
X117557165Y-80265000D01*
X117728145Y-80230990D01*
X117889205Y-80164277D01*
X118034155Y-80067424D01*
X118157424Y-79944155D01*
X118254277Y-79799205D01*
X118320990Y-79638145D01*
X118355000Y-79467165D01*
X118355000Y-79292835D01*
X118320990Y-79121855D01*
X118254277Y-78960795D01*
X118157424Y-78815845D01*
X118034155Y-78692576D01*
X117889205Y-78595723D01*
X117728145Y-78529010D01*
X117557165Y-78495000D01*
X117382835Y-78495000D01*
X117211855Y-78529010D01*
X117050795Y-78595723D01*
X116905845Y-78692576D01*
X116782576Y-78815845D01*
X116685723Y-78960795D01*
X116619010Y-79121855D01*
X116585000Y-79292835D01*
X116585000Y-79467165D01*
X116594502Y-79514933D01*
X116475446Y-79395877D01*
X116330496Y-79299024D01*
X116169436Y-79232311D01*
X115998456Y-79198301D01*
X115979451Y-79198301D01*
X115934312Y-79174174D01*
X115800476Y-79133575D01*
X115696169Y-79123302D01*
X115696167Y-79123302D01*
X115661292Y-79119867D01*
X115626417Y-79123302D01*
X114341573Y-79123302D01*
X114306698Y-79119867D01*
X114271823Y-79123302D01*
X114271821Y-79123302D01*
X114167514Y-79133575D01*
X114033678Y-79174174D01*
X114015000Y-79184158D01*
X114015000Y-79112835D01*
X113980990Y-78941855D01*
X113914277Y-78780795D01*
X113817424Y-78635845D01*
X113694155Y-78512576D01*
X113549205Y-78415723D01*
X113388145Y-78349010D01*
X113217165Y-78315000D01*
X113042835Y-78315000D01*
X112871855Y-78349010D01*
X112710795Y-78415723D01*
X112565845Y-78512576D01*
X112442576Y-78635845D01*
X112410930Y-78683206D01*
X112370000Y-78621949D01*
X112370000Y-70821872D01*
X112373435Y-70786997D01*
X112370000Y-70752121D01*
X112359727Y-70647814D01*
X112319128Y-70513978D01*
X112253200Y-70390635D01*
X112164475Y-70282523D01*
X112137384Y-70260290D01*
X102897093Y-61020000D01*
X116925125Y-61020000D01*
X116960000Y-61023435D01*
X116994875Y-61020000D01*
X116994877Y-61020000D01*
X117099184Y-61009727D01*
X117233020Y-60969128D01*
X117356363Y-60903200D01*
X117464475Y-60814475D01*
X117486712Y-60787379D01*
X118817019Y-59457073D01*
X118948145Y-59430990D01*
X119109205Y-59364277D01*
X119254155Y-59267424D01*
X119377424Y-59144155D01*
X119474277Y-58999205D01*
X119540990Y-58838145D01*
X119575000Y-58667165D01*
X119575000Y-58492835D01*
X119540990Y-58321855D01*
X119474277Y-58160795D01*
X119377424Y-58015845D01*
X119254155Y-57892576D01*
X119109205Y-57795723D01*
X118948145Y-57729010D01*
X118777165Y-57695000D01*
X118602835Y-57695000D01*
X118547830Y-57705941D01*
X118504277Y-57600795D01*
X118407424Y-57455845D01*
X118284155Y-57332576D01*
X118139205Y-57235723D01*
X117978145Y-57169010D01*
X117807165Y-57135000D01*
X117632835Y-57135000D01*
X117461855Y-57169010D01*
X117300795Y-57235723D01*
X117155845Y-57332576D01*
X117032576Y-57455845D01*
X116935723Y-57600795D01*
X116869010Y-57761855D01*
X116842927Y-57892982D01*
X116749684Y-57986225D01*
X116629205Y-57905723D01*
X116468145Y-57839010D01*
X116297165Y-57805000D01*
X116122835Y-57805000D01*
X115951855Y-57839010D01*
X115790795Y-57905723D01*
X115645845Y-58002576D01*
X115522576Y-58125845D01*
X115425723Y-58270795D01*
X115359010Y-58431855D01*
X115325000Y-58602835D01*
X115325000Y-58777165D01*
X115349433Y-58900000D01*
X112722643Y-58900000D01*
X112735385Y-58857994D01*
X112754886Y-58660000D01*
X112735385Y-58462005D01*
X112677632Y-58271621D01*
X112583846Y-58096160D01*
X112500001Y-57993994D01*
X112500001Y-57052501D01*
X112608145Y-57030990D01*
X112769205Y-56964277D01*
X112914155Y-56867424D01*
X113037424Y-56744155D01*
X113134277Y-56599205D01*
X113200990Y-56438145D01*
X113235000Y-56267165D01*
X113235000Y-56092835D01*
X113200990Y-55921855D01*
X113134277Y-55760795D01*
X113037424Y-55615845D01*
X112914155Y-55492576D01*
X112769205Y-55395723D01*
X112608145Y-55329010D01*
X112500001Y-55307499D01*
X112500001Y-55302835D01*
X114055000Y-55302835D01*
X114055000Y-55477165D01*
X114089010Y-55648145D01*
X114155723Y-55809205D01*
X114252576Y-55954155D01*
X114375845Y-56077424D01*
X114520795Y-56174277D01*
X114681855Y-56240990D01*
X114852835Y-56275000D01*
X115027165Y-56275000D01*
X115198145Y-56240990D01*
X115359205Y-56174277D01*
X115504155Y-56077424D01*
X115627424Y-55954155D01*
X115724277Y-55809205D01*
X115790990Y-55648145D01*
X115825000Y-55477165D01*
X115825000Y-55302835D01*
X115790990Y-55131855D01*
X115724277Y-54970795D01*
X115627424Y-54825845D01*
X115504155Y-54702576D01*
X115359205Y-54605723D01*
X115198145Y-54539010D01*
X115027165Y-54505000D01*
X114852835Y-54505000D01*
X114681855Y-54539010D01*
X114520795Y-54605723D01*
X114375845Y-54702576D01*
X114252576Y-54825845D01*
X114155723Y-54970795D01*
X114089010Y-55131855D01*
X114055000Y-55302835D01*
X112500001Y-55302835D01*
X112500001Y-53772835D01*
X114995000Y-53772835D01*
X114995000Y-53947165D01*
X115029010Y-54118145D01*
X115095723Y-54279205D01*
X115192576Y-54424155D01*
X115315845Y-54547424D01*
X115460795Y-54644277D01*
X115621855Y-54710990D01*
X115792835Y-54745000D01*
X115967165Y-54745000D01*
X116138145Y-54710990D01*
X116299205Y-54644277D01*
X116444155Y-54547424D01*
X116567424Y-54424155D01*
X116664277Y-54279205D01*
X116730990Y-54118145D01*
X116765000Y-53947165D01*
X116765000Y-53772835D01*
X116730990Y-53601855D01*
X116664277Y-53440795D01*
X116567424Y-53295845D01*
X116444155Y-53172576D01*
X116299205Y-53075723D01*
X116138145Y-53009010D01*
X115967165Y-52975000D01*
X115792835Y-52975000D01*
X115621855Y-53009010D01*
X115460795Y-53075723D01*
X115315845Y-53172576D01*
X115192576Y-53295845D01*
X115095723Y-53440795D01*
X115029010Y-53601855D01*
X114995000Y-53772835D01*
X112500001Y-53772835D01*
X112500001Y-50044261D01*
X112514951Y-50056530D01*
X112545845Y-50087424D01*
X112582171Y-50111696D01*
X112615941Y-50139411D01*
X112654467Y-50160004D01*
X112690795Y-50184277D01*
X112731165Y-50200999D01*
X112769687Y-50221589D01*
X112811487Y-50234269D01*
X112851855Y-50250990D01*
X112894705Y-50259513D01*
X112936510Y-50272195D01*
X112979987Y-50276477D01*
X113022835Y-50285000D01*
X113028422Y-50285000D01*
X113167574Y-50424152D01*
X113167576Y-50424155D01*
X113198472Y-50455051D01*
X113226183Y-50488817D01*
X113259951Y-50516530D01*
X113290845Y-50547424D01*
X113327171Y-50571696D01*
X113360941Y-50599411D01*
X113399467Y-50620004D01*
X113435795Y-50644277D01*
X113476165Y-50660999D01*
X113514687Y-50681589D01*
X113556487Y-50694269D01*
X113596855Y-50710990D01*
X113639705Y-50719513D01*
X113681510Y-50732195D01*
X113724987Y-50736477D01*
X113767835Y-50745000D01*
X113811523Y-50745000D01*
X113855000Y-50749282D01*
X113898476Y-50745000D01*
X113942165Y-50745000D01*
X113985013Y-50736477D01*
X114022712Y-50732764D01*
X114028490Y-50732195D01*
X114070293Y-50719514D01*
X114113145Y-50710990D01*
X114153516Y-50694268D01*
X114195312Y-50681589D01*
X114233831Y-50661000D01*
X114274205Y-50644277D01*
X114310537Y-50620001D01*
X114349058Y-50599411D01*
X114382825Y-50571699D01*
X114419155Y-50547424D01*
X114450051Y-50516528D01*
X114483817Y-50488817D01*
X114511530Y-50455049D01*
X114535049Y-50431530D01*
X114568817Y-50403817D01*
X114679411Y-50269059D01*
X114761589Y-50115313D01*
X114812195Y-49948490D01*
X114825000Y-49818477D01*
X114825000Y-49818467D01*
X114829281Y-49775001D01*
X114825000Y-49731535D01*
X114825000Y-49143469D01*
X114829281Y-49100000D01*
X114825000Y-49056531D01*
X114825000Y-49056523D01*
X114812195Y-48926510D01*
X114787840Y-48846223D01*
X114761589Y-48759686D01*
X114679411Y-48605941D01*
X114596532Y-48504953D01*
X114596530Y-48504951D01*
X114568817Y-48471183D01*
X114535050Y-48443471D01*
X113987426Y-47895848D01*
X113987424Y-47895845D01*
X113956530Y-47864951D01*
X113928817Y-47831183D01*
X113895051Y-47803472D01*
X113864155Y-47772576D01*
X113827825Y-47748301D01*
X113794058Y-47720589D01*
X113783441Y-47714914D01*
X115598337Y-45900019D01*
X115635913Y-45970319D01*
X115727762Y-46082237D01*
X115755808Y-46105254D01*
X116481706Y-46831153D01*
X116499010Y-46918145D01*
X116565723Y-47079205D01*
X116662576Y-47224155D01*
X116785845Y-47347424D01*
X116930795Y-47444277D01*
X117091855Y-47510990D01*
X117262835Y-47545000D01*
X117437165Y-47545000D01*
X117608145Y-47510990D01*
X117769205Y-47444277D01*
X117914155Y-47347424D01*
X118037424Y-47224155D01*
X118134277Y-47079205D01*
X118200990Y-46918145D01*
X118235000Y-46747165D01*
X118235000Y-46572835D01*
X118200990Y-46401855D01*
X118134277Y-46240795D01*
X118037424Y-46095845D01*
X117914155Y-45972576D01*
X117769205Y-45875723D01*
X117608145Y-45809010D01*
X117521153Y-45791706D01*
X116985000Y-45255554D01*
X116985000Y-44714446D01*
X118389447Y-43310000D01*
X118767047Y-43310000D01*
X118840795Y-43359277D01*
%TA.AperFunction,Conductor*%
D26*
G36*
X118840795Y-43359277D02*
G01*
X119001855Y-43425990D01*
X119172835Y-43460000D01*
X119347165Y-43460000D01*
X119518145Y-43425990D01*
X119679205Y-43359277D01*
X119718546Y-43332990D01*
X120239748Y-43854193D01*
X120262764Y-43882238D01*
X120374682Y-43974087D01*
X120502369Y-44042337D01*
X120617904Y-44077384D01*
X120640917Y-44084365D01*
X120785002Y-44098556D01*
X120821107Y-44095000D01*
X126873895Y-44095000D01*
X126910000Y-44098556D01*
X126946105Y-44095000D01*
X127047638Y-44085000D01*
X128607047Y-44085000D01*
X128680795Y-44134277D01*
X128841855Y-44200990D01*
X129012835Y-44235000D01*
X129187165Y-44235000D01*
X129315000Y-44209572D01*
X129315000Y-44310182D01*
X123210149Y-44303000D01*
X123185224Y-44305440D01*
X123161399Y-44312667D01*
X123139443Y-44324403D01*
X123120197Y-44340197D01*
X123104403Y-44359443D01*
X123092667Y-44381399D01*
X123085440Y-44405224D01*
X123083000Y-44430000D01*
X123083000Y-86315000D01*
X115960871Y-86315000D01*
X116000990Y-86218145D01*
X116035000Y-86047165D01*
X116035000Y-85872835D01*
X116000990Y-85701855D01*
X115934277Y-85540795D01*
X115837424Y-85395845D01*
X115714155Y-85272576D01*
X115569205Y-85175723D01*
X115435755Y-85120446D01*
X115450300Y-85047325D01*
X115450300Y-84824675D01*
X115406863Y-84606304D01*
X115321659Y-84400602D01*
X115197961Y-84215476D01*
X115040524Y-84058039D01*
X114855398Y-83934341D01*
X114649696Y-83849137D01*
X114431325Y-83805700D01*
X114208675Y-83805700D01*
X113990304Y-83849137D01*
X113784602Y-83934341D01*
X113599476Y-84058039D01*
X113442039Y-84215476D01*
X113318341Y-84400602D01*
X113233137Y-84606304D01*
X113189700Y-84824675D01*
X113189700Y-85047325D01*
X113233137Y-85265696D01*
X113318341Y-85471398D01*
X113442039Y-85656524D01*
X113599476Y-85813961D01*
X113784602Y-85937659D01*
X113990304Y-86022863D01*
X114208675Y-86066300D01*
X114268806Y-86066300D01*
X114299010Y-86218145D01*
X114339129Y-86315000D01*
X112405539Y-86315000D01*
X112390990Y-86241855D01*
X112324277Y-86080795D01*
X112227424Y-85935845D01*
X112104155Y-85812576D01*
X111959205Y-85715723D01*
X111798145Y-85649010D01*
X111627165Y-85615000D01*
X111452835Y-85615000D01*
X111281855Y-85649010D01*
X111120795Y-85715723D01*
X110975845Y-85812576D01*
X110852576Y-85935845D01*
X110755723Y-86080795D01*
X110689010Y-86241855D01*
X110674461Y-86315000D01*
X110313068Y-86315000D01*
X110326863Y-86281696D01*
X110370300Y-86063325D01*
X110370300Y-85840675D01*
X110326863Y-85622304D01*
X110241659Y-85416602D01*
X110117961Y-85231476D01*
X109960524Y-85074039D01*
X109775398Y-84950341D01*
X109740776Y-84936000D01*
X109775398Y-84921659D01*
X109960524Y-84797961D01*
X110117961Y-84640524D01*
X110241659Y-84455398D01*
X110326863Y-84249696D01*
X110357822Y-84094057D01*
X110412835Y-84105000D01*
X110587165Y-84105000D01*
X110758145Y-84070990D01*
X110919205Y-84004277D01*
X111064155Y-83907424D01*
X111175000Y-83796579D01*
X111245845Y-83867424D01*
X111390795Y-83964277D01*
X111551855Y-84030990D01*
X111722835Y-84065000D01*
X111897165Y-84065000D01*
X112068145Y-84030990D01*
X112229205Y-83964277D01*
X112374155Y-83867424D01*
X112455000Y-83786579D01*
X112505845Y-83837424D01*
X112650795Y-83934277D01*
X112811855Y-84000990D01*
X112982835Y-84035000D01*
X113157165Y-84035000D01*
X113328145Y-84000990D01*
X113489205Y-83934277D01*
X113634155Y-83837424D01*
X113757424Y-83714155D01*
X113854277Y-83569205D01*
X113920990Y-83408145D01*
X113955000Y-83237165D01*
X113955000Y-83062835D01*
X113920990Y-82891855D01*
X113854277Y-82730795D01*
X113757424Y-82585845D01*
X113634155Y-82462576D01*
X113489205Y-82365723D01*
X113328145Y-82299010D01*
X113157165Y-82265000D01*
X112982835Y-82265000D01*
X112811855Y-82299010D01*
X112650795Y-82365723D01*
X112505845Y-82462576D01*
X112425000Y-82543421D01*
X112374155Y-82492576D01*
X112309843Y-82449604D01*
X112864447Y-81895000D01*
X120537047Y-81895000D01*
X120610795Y-81944277D01*
X120771855Y-82010990D01*
X120942835Y-82045000D01*
X121117165Y-82045000D01*
X121288145Y-82010990D01*
X121449205Y-81944277D01*
X121594155Y-81847424D01*
X121717424Y-81724155D01*
X121814277Y-81579205D01*
X121880990Y-81418145D01*
X121915000Y-81247165D01*
X121915000Y-81072835D01*
X121880990Y-80901855D01*
X121814277Y-80740795D01*
X121717424Y-80595845D01*
X121594155Y-80472576D01*
X121449205Y-80375723D01*
X121288145Y-80309010D01*
X121117165Y-80275000D01*
X120942835Y-80275000D01*
X120771855Y-80309010D01*
X120610795Y-80375723D01*
X120537047Y-80425000D01*
X120155000Y-80425000D01*
X120155000Y-80272835D01*
X120120990Y-80101855D01*
X120054277Y-79940795D01*
X119957424Y-79795845D01*
X119834155Y-79672576D01*
X119689205Y-79575723D01*
X119528145Y-79509010D01*
X119357165Y-79475000D01*
X119182835Y-79475000D01*
X119011855Y-79509010D01*
X118850795Y-79575723D01*
X118705845Y-79672576D01*
X118582576Y-79795845D01*
X118485723Y-79940795D01*
X118419010Y-80101855D01*
X118385000Y-80272835D01*
X118385000Y-80425000D01*
X116727672Y-80425000D01*
X116762281Y-80341446D01*
X116796291Y-80170466D01*
X116796291Y-79996136D01*
X116786789Y-79948368D01*
X116905845Y-80067424D01*
X117050795Y-80164277D01*
X117211855Y-80230990D01*
X117382835Y-80265000D01*
X117557165Y-80265000D01*
X117728145Y-80230990D01*
X117889205Y-80164277D01*
X118034155Y-80067424D01*
X118157424Y-79944155D01*
X118254277Y-79799205D01*
X118320990Y-79638145D01*
X118355000Y-79467165D01*
X118355000Y-79292835D01*
X118320990Y-79121855D01*
X118254277Y-78960795D01*
X118157424Y-78815845D01*
X118034155Y-78692576D01*
X117889205Y-78595723D01*
X117728145Y-78529010D01*
X117557165Y-78495000D01*
X117382835Y-78495000D01*
X117211855Y-78529010D01*
X117050795Y-78595723D01*
X116905845Y-78692576D01*
X116782576Y-78815845D01*
X116685723Y-78960795D01*
X116619010Y-79121855D01*
X116585000Y-79292835D01*
X116585000Y-79467165D01*
X116594502Y-79514933D01*
X116475446Y-79395877D01*
X116330496Y-79299024D01*
X116169436Y-79232311D01*
X115998456Y-79198301D01*
X115979451Y-79198301D01*
X115934312Y-79174174D01*
X115800476Y-79133575D01*
X115696169Y-79123302D01*
X115696167Y-79123302D01*
X115661292Y-79119867D01*
X115626417Y-79123302D01*
X114341573Y-79123302D01*
X114306698Y-79119867D01*
X114271823Y-79123302D01*
X114271821Y-79123302D01*
X114167514Y-79133575D01*
X114033678Y-79174174D01*
X114015000Y-79184158D01*
X114015000Y-79112835D01*
X113980990Y-78941855D01*
X113914277Y-78780795D01*
X113817424Y-78635845D01*
X113694155Y-78512576D01*
X113549205Y-78415723D01*
X113388145Y-78349010D01*
X113217165Y-78315000D01*
X113042835Y-78315000D01*
X112871855Y-78349010D01*
X112710795Y-78415723D01*
X112565845Y-78512576D01*
X112442576Y-78635845D01*
X112410930Y-78683206D01*
X112370000Y-78621949D01*
X112370000Y-70821872D01*
X112373435Y-70786997D01*
X112370000Y-70752121D01*
X112359727Y-70647814D01*
X112319128Y-70513978D01*
X112253200Y-70390635D01*
X112164475Y-70282523D01*
X112137384Y-70260290D01*
X102897093Y-61020000D01*
X116925125Y-61020000D01*
X116960000Y-61023435D01*
X116994875Y-61020000D01*
X116994877Y-61020000D01*
X117099184Y-61009727D01*
X117233020Y-60969128D01*
X117356363Y-60903200D01*
X117464475Y-60814475D01*
X117486712Y-60787379D01*
X118817019Y-59457073D01*
X118948145Y-59430990D01*
X119109205Y-59364277D01*
X119254155Y-59267424D01*
X119377424Y-59144155D01*
X119474277Y-58999205D01*
X119540990Y-58838145D01*
X119575000Y-58667165D01*
X119575000Y-58492835D01*
X119540990Y-58321855D01*
X119474277Y-58160795D01*
X119377424Y-58015845D01*
X119254155Y-57892576D01*
X119109205Y-57795723D01*
X118948145Y-57729010D01*
X118777165Y-57695000D01*
X118602835Y-57695000D01*
X118547830Y-57705941D01*
X118504277Y-57600795D01*
X118407424Y-57455845D01*
X118284155Y-57332576D01*
X118139205Y-57235723D01*
X117978145Y-57169010D01*
X117807165Y-57135000D01*
X117632835Y-57135000D01*
X117461855Y-57169010D01*
X117300795Y-57235723D01*
X117155845Y-57332576D01*
X117032576Y-57455845D01*
X116935723Y-57600795D01*
X116869010Y-57761855D01*
X116842927Y-57892982D01*
X116749684Y-57986225D01*
X116629205Y-57905723D01*
X116468145Y-57839010D01*
X116297165Y-57805000D01*
X116122835Y-57805000D01*
X115951855Y-57839010D01*
X115790795Y-57905723D01*
X115645845Y-58002576D01*
X115522576Y-58125845D01*
X115425723Y-58270795D01*
X115359010Y-58431855D01*
X115325000Y-58602835D01*
X115325000Y-58777165D01*
X115349433Y-58900000D01*
X112722643Y-58900000D01*
X112735385Y-58857994D01*
X112754886Y-58660000D01*
X112735385Y-58462005D01*
X112677632Y-58271621D01*
X112583846Y-58096160D01*
X112500001Y-57993994D01*
X112500001Y-57052501D01*
X112608145Y-57030990D01*
X112769205Y-56964277D01*
X112914155Y-56867424D01*
X113037424Y-56744155D01*
X113134277Y-56599205D01*
X113200990Y-56438145D01*
X113235000Y-56267165D01*
X113235000Y-56092835D01*
X113200990Y-55921855D01*
X113134277Y-55760795D01*
X113037424Y-55615845D01*
X112914155Y-55492576D01*
X112769205Y-55395723D01*
X112608145Y-55329010D01*
X112500001Y-55307499D01*
X112500001Y-55302835D01*
X114055000Y-55302835D01*
X114055000Y-55477165D01*
X114089010Y-55648145D01*
X114155723Y-55809205D01*
X114252576Y-55954155D01*
X114375845Y-56077424D01*
X114520795Y-56174277D01*
X114681855Y-56240990D01*
X114852835Y-56275000D01*
X115027165Y-56275000D01*
X115198145Y-56240990D01*
X115359205Y-56174277D01*
X115504155Y-56077424D01*
X115627424Y-55954155D01*
X115724277Y-55809205D01*
X115790990Y-55648145D01*
X115825000Y-55477165D01*
X115825000Y-55302835D01*
X115790990Y-55131855D01*
X115724277Y-54970795D01*
X115627424Y-54825845D01*
X115504155Y-54702576D01*
X115359205Y-54605723D01*
X115198145Y-54539010D01*
X115027165Y-54505000D01*
X114852835Y-54505000D01*
X114681855Y-54539010D01*
X114520795Y-54605723D01*
X114375845Y-54702576D01*
X114252576Y-54825845D01*
X114155723Y-54970795D01*
X114089010Y-55131855D01*
X114055000Y-55302835D01*
X112500001Y-55302835D01*
X112500001Y-53772835D01*
X114995000Y-53772835D01*
X114995000Y-53947165D01*
X115029010Y-54118145D01*
X115095723Y-54279205D01*
X115192576Y-54424155D01*
X115315845Y-54547424D01*
X115460795Y-54644277D01*
X115621855Y-54710990D01*
X115792835Y-54745000D01*
X115967165Y-54745000D01*
X116138145Y-54710990D01*
X116299205Y-54644277D01*
X116444155Y-54547424D01*
X116567424Y-54424155D01*
X116664277Y-54279205D01*
X116730990Y-54118145D01*
X116765000Y-53947165D01*
X116765000Y-53772835D01*
X116730990Y-53601855D01*
X116664277Y-53440795D01*
X116567424Y-53295845D01*
X116444155Y-53172576D01*
X116299205Y-53075723D01*
X116138145Y-53009010D01*
X115967165Y-52975000D01*
X115792835Y-52975000D01*
X115621855Y-53009010D01*
X115460795Y-53075723D01*
X115315845Y-53172576D01*
X115192576Y-53295845D01*
X115095723Y-53440795D01*
X115029010Y-53601855D01*
X114995000Y-53772835D01*
X112500001Y-53772835D01*
X112500001Y-50044261D01*
X112514951Y-50056530D01*
X112545845Y-50087424D01*
X112582171Y-50111696D01*
X112615941Y-50139411D01*
X112654467Y-50160004D01*
X112690795Y-50184277D01*
X112731165Y-50200999D01*
X112769687Y-50221589D01*
X112811487Y-50234269D01*
X112851855Y-50250990D01*
X112894705Y-50259513D01*
X112936510Y-50272195D01*
X112979987Y-50276477D01*
X113022835Y-50285000D01*
X113028422Y-50285000D01*
X113167574Y-50424152D01*
X113167576Y-50424155D01*
X113198472Y-50455051D01*
X113226183Y-50488817D01*
X113259951Y-50516530D01*
X113290845Y-50547424D01*
X113327171Y-50571696D01*
X113360941Y-50599411D01*
X113399467Y-50620004D01*
X113435795Y-50644277D01*
X113476165Y-50660999D01*
X113514687Y-50681589D01*
X113556487Y-50694269D01*
X113596855Y-50710990D01*
X113639705Y-50719513D01*
X113681510Y-50732195D01*
X113724987Y-50736477D01*
X113767835Y-50745000D01*
X113811523Y-50745000D01*
X113855000Y-50749282D01*
X113898476Y-50745000D01*
X113942165Y-50745000D01*
X113985013Y-50736477D01*
X114022712Y-50732764D01*
X114028490Y-50732195D01*
X114070293Y-50719514D01*
X114113145Y-50710990D01*
X114153516Y-50694268D01*
X114195312Y-50681589D01*
X114233831Y-50661000D01*
X114274205Y-50644277D01*
X114310537Y-50620001D01*
X114349058Y-50599411D01*
X114382825Y-50571699D01*
X114419155Y-50547424D01*
X114450051Y-50516528D01*
X114483817Y-50488817D01*
X114511530Y-50455049D01*
X114535049Y-50431530D01*
X114568817Y-50403817D01*
X114679411Y-50269059D01*
X114761589Y-50115313D01*
X114812195Y-49948490D01*
X114825000Y-49818477D01*
X114825000Y-49818467D01*
X114829281Y-49775001D01*
X114825000Y-49731535D01*
X114825000Y-49143469D01*
X114829281Y-49100000D01*
X114825000Y-49056531D01*
X114825000Y-49056523D01*
X114812195Y-48926510D01*
X114787840Y-48846223D01*
X114761589Y-48759686D01*
X114679411Y-48605941D01*
X114596532Y-48504953D01*
X114596530Y-48504951D01*
X114568817Y-48471183D01*
X114535050Y-48443471D01*
X113987426Y-47895848D01*
X113987424Y-47895845D01*
X113956530Y-47864951D01*
X113928817Y-47831183D01*
X113895051Y-47803472D01*
X113864155Y-47772576D01*
X113827825Y-47748301D01*
X113794058Y-47720589D01*
X113783441Y-47714914D01*
X115598337Y-45900019D01*
X115635913Y-45970319D01*
X115727762Y-46082237D01*
X115755808Y-46105254D01*
X116481706Y-46831153D01*
X116499010Y-46918145D01*
X116565723Y-47079205D01*
X116662576Y-47224155D01*
X116785845Y-47347424D01*
X116930795Y-47444277D01*
X117091855Y-47510990D01*
X117262835Y-47545000D01*
X117437165Y-47545000D01*
X117608145Y-47510990D01*
X117769205Y-47444277D01*
X117914155Y-47347424D01*
X118037424Y-47224155D01*
X118134277Y-47079205D01*
X118200990Y-46918145D01*
X118235000Y-46747165D01*
X118235000Y-46572835D01*
X118200990Y-46401855D01*
X118134277Y-46240795D01*
X118037424Y-46095845D01*
X117914155Y-45972576D01*
X117769205Y-45875723D01*
X117608145Y-45809010D01*
X117521153Y-45791706D01*
X116985000Y-45255554D01*
X116985000Y-44714446D01*
X118389447Y-43310000D01*
X118767047Y-43310000D01*
X118840795Y-43359277D01*
G37*
%TD.AperFunction*%
D25*
X77092724Y-82204956D02*
X76954767Y-82505162D01*
X78160000Y-83710395D01*
X79365233Y-82505162D01*
X79227276Y-82204956D01*
X79068490Y-82125010D01*
X106045564Y-82125010D01*
X106704745Y-82784192D01*
X106727761Y-82812237D01*
X106769218Y-82846260D01*
X106839679Y-82904086D01*
X106967365Y-82972336D01*
X107105914Y-83014364D01*
X107249999Y-83028555D01*
X107286104Y-83024999D01*
X108544978Y-83024999D01*
X108519476Y-83042039D01*
X108362039Y-83199476D01*
X108238341Y-83384602D01*
X108153137Y-83590304D01*
X108109700Y-83808675D01*
X108109700Y-84031325D01*
X108153137Y-84249696D01*
X108238341Y-84455398D01*
X108362039Y-84640524D01*
X108519476Y-84797961D01*
X108704602Y-84921659D01*
X108739224Y-84936000D01*
X108704602Y-84950341D01*
X108519476Y-85074039D01*
X108362039Y-85231476D01*
X108238341Y-85416602D01*
X108153137Y-85622304D01*
X108109700Y-85840675D01*
X108109700Y-86063325D01*
X108153137Y-86281696D01*
X108166932Y-86315000D01*
X73165107Y-86315000D01*
X73293475Y-86186632D01*
X73455990Y-85943411D01*
X73567932Y-85673158D01*
X73625000Y-85386260D01*
X73625000Y-85274838D01*
X76954767Y-85274838D01*
X77092724Y-85575044D01*
X77441967Y-85750882D01*
X77818804Y-85855207D01*
X78208753Y-85884009D01*
X78596828Y-85836184D01*
X78968116Y-85713568D01*
X79227276Y-85575044D01*
X79365233Y-85274838D01*
X78160000Y-84069605D01*
X76954767Y-85274838D01*
X73625000Y-85274838D01*
X73625000Y-85093740D01*
X73567932Y-84806842D01*
X73455990Y-84536589D01*
X73293475Y-84293368D01*
X73086632Y-84086525D01*
X72912240Y-83970000D01*
X72959004Y-83938753D01*
X76165991Y-83938753D01*
X76213816Y-84326828D01*
X76336432Y-84698116D01*
X76474956Y-84957276D01*
X76775162Y-85095233D01*
X77980395Y-83890000D01*
X78339605Y-83890000D01*
X79544838Y-85095233D01*
X79845044Y-84957276D01*
X80020882Y-84608033D01*
X80125207Y-84231196D01*
X80154009Y-83841247D01*
X80106184Y-83453172D01*
X79983568Y-83081884D01*
X79845044Y-82822724D01*
X79544838Y-82684767D01*
X78339605Y-83890000D01*
X77980395Y-83890000D01*
X76775162Y-82684767D01*
X76474956Y-82822724D01*
X76299118Y-83171967D01*
X76194793Y-83548804D01*
X76165991Y-83938753D01*
X72959004Y-83938753D01*
X73086632Y-83853475D01*
X73293475Y-83646632D01*
X73455990Y-83403411D01*
X73567932Y-83133158D01*
X73625000Y-82846260D01*
X73625000Y-82553740D01*
X73567932Y-82266842D01*
X73509184Y-82125010D01*
X77242292Y-82125010D01*
X77092724Y-82204956D01*
%TA.AperFunction,Conductor*%
D26*
G36*
X77092724Y-82204956D02*
G01*
X76954767Y-82505162D01*
X78160000Y-83710395D01*
X79365233Y-82505162D01*
X79227276Y-82204956D01*
X79068490Y-82125010D01*
X106045564Y-82125010D01*
X106704745Y-82784192D01*
X106727761Y-82812237D01*
X106769218Y-82846260D01*
X106839679Y-82904086D01*
X106967365Y-82972336D01*
X107105914Y-83014364D01*
X107249999Y-83028555D01*
X107286104Y-83024999D01*
X108544978Y-83024999D01*
X108519476Y-83042039D01*
X108362039Y-83199476D01*
X108238341Y-83384602D01*
X108153137Y-83590304D01*
X108109700Y-83808675D01*
X108109700Y-84031325D01*
X108153137Y-84249696D01*
X108238341Y-84455398D01*
X108362039Y-84640524D01*
X108519476Y-84797961D01*
X108704602Y-84921659D01*
X108739224Y-84936000D01*
X108704602Y-84950341D01*
X108519476Y-85074039D01*
X108362039Y-85231476D01*
X108238341Y-85416602D01*
X108153137Y-85622304D01*
X108109700Y-85840675D01*
X108109700Y-86063325D01*
X108153137Y-86281696D01*
X108166932Y-86315000D01*
X73165107Y-86315000D01*
X73293475Y-86186632D01*
X73455990Y-85943411D01*
X73567932Y-85673158D01*
X73625000Y-85386260D01*
X73625000Y-85274838D01*
X76954767Y-85274838D01*
X77092724Y-85575044D01*
X77441967Y-85750882D01*
X77818804Y-85855207D01*
X78208753Y-85884009D01*
X78596828Y-85836184D01*
X78968116Y-85713568D01*
X79227276Y-85575044D01*
X79365233Y-85274838D01*
X78160000Y-84069605D01*
X76954767Y-85274838D01*
X73625000Y-85274838D01*
X73625000Y-85093740D01*
X73567932Y-84806842D01*
X73455990Y-84536589D01*
X73293475Y-84293368D01*
X73086632Y-84086525D01*
X72912240Y-83970000D01*
X72959004Y-83938753D01*
X76165991Y-83938753D01*
X76213816Y-84326828D01*
X76336432Y-84698116D01*
X76474956Y-84957276D01*
X76775162Y-85095233D01*
X77980395Y-83890000D01*
X78339605Y-83890000D01*
X79544838Y-85095233D01*
X79845044Y-84957276D01*
X80020882Y-84608033D01*
X80125207Y-84231196D01*
X80154009Y-83841247D01*
X80106184Y-83453172D01*
X79983568Y-83081884D01*
X79845044Y-82822724D01*
X79544838Y-82684767D01*
X78339605Y-83890000D01*
X77980395Y-83890000D01*
X76775162Y-82684767D01*
X76474956Y-82822724D01*
X76299118Y-83171967D01*
X76194793Y-83548804D01*
X76165991Y-83938753D01*
X72959004Y-83938753D01*
X73086632Y-83853475D01*
X73293475Y-83646632D01*
X73455990Y-83403411D01*
X73567932Y-83133158D01*
X73625000Y-82846260D01*
X73625000Y-82553740D01*
X73567932Y-82266842D01*
X73509184Y-82125010D01*
X77242292Y-82125010D01*
X77092724Y-82204956D01*
G37*
%TD.AperFunction*%
D25*
X122899010Y-30761855D02*
X122865000Y-30932835D01*
X122865000Y-31107165D01*
X122899010Y-31278145D01*
X122965723Y-31439205D01*
X123062576Y-31584155D01*
X123185845Y-31707424D01*
X123330795Y-31804277D01*
X123491855Y-31870990D01*
X123662835Y-31905000D01*
X123837165Y-31905000D01*
X124008145Y-31870990D01*
X124169205Y-31804277D01*
X124314155Y-31707424D01*
X124356417Y-31665162D01*
X125754767Y-31665162D01*
X126960000Y-32870395D01*
X128165233Y-31665162D01*
X128027276Y-31364956D01*
X127678033Y-31189118D01*
X127301196Y-31084793D01*
X126911247Y-31055991D01*
X126523172Y-31103816D01*
X126151884Y-31226432D01*
X125892724Y-31364956D01*
X125754767Y-31665162D01*
X124356417Y-31665162D01*
X124437424Y-31584155D01*
X124534277Y-31439205D01*
X124600990Y-31278145D01*
X124635000Y-31107165D01*
X124635000Y-30932835D01*
X124600990Y-30761855D01*
X124569156Y-30685000D01*
X129315000Y-30685000D01*
X129315000Y-35800573D01*
X129215265Y-35747264D01*
X129024879Y-35689511D01*
X128876493Y-35674896D01*
X119664551Y-35674896D01*
X120784447Y-34555000D01*
X123237047Y-34555000D01*
X123310795Y-34604277D01*
X123471855Y-34670990D01*
X123642835Y-34705000D01*
X123817165Y-34705000D01*
X123988145Y-34670990D01*
X124149205Y-34604277D01*
X124294155Y-34507424D01*
X124366741Y-34434838D01*
X125754767Y-34434838D01*
X125892724Y-34735044D01*
X126241967Y-34910882D01*
X126618804Y-35015207D01*
X127008753Y-35044009D01*
X127396828Y-34996184D01*
X127768116Y-34873568D01*
X128027276Y-34735044D01*
X128165233Y-34434838D01*
X126960000Y-33229605D01*
X125754767Y-34434838D01*
X124366741Y-34434838D01*
X124417424Y-34384155D01*
X124514277Y-34239205D01*
X124580990Y-34078145D01*
X124615000Y-33907165D01*
X124615000Y-33732835D01*
X124580990Y-33561855D01*
X124514277Y-33400795D01*
X124417424Y-33255845D01*
X124294155Y-33132576D01*
X124243536Y-33098753D01*
X124965991Y-33098753D01*
X125013816Y-33486828D01*
X125136432Y-33858116D01*
X125274956Y-34117276D01*
X125575162Y-34255233D01*
X126780395Y-33050000D01*
X127139605Y-33050000D01*
X128344838Y-34255233D01*
X128645044Y-34117276D01*
X128820882Y-33768033D01*
X128925207Y-33391196D01*
X128954009Y-33001247D01*
X128906184Y-32613172D01*
X128783568Y-32241884D01*
X128645044Y-31982724D01*
X128344838Y-31844767D01*
X127139605Y-33050000D01*
X126780395Y-33050000D01*
X125575162Y-31844767D01*
X125274956Y-31982724D01*
X125099118Y-32331967D01*
X124994793Y-32708804D01*
X124965991Y-33098753D01*
X124243536Y-33098753D01*
X124149205Y-33035723D01*
X123988145Y-32969010D01*
X123817165Y-32935000D01*
X123642835Y-32935000D01*
X123471855Y-32969010D01*
X123310795Y-33035723D01*
X123237047Y-33085000D01*
X120934569Y-33085000D01*
X120916549Y-33041496D01*
X120819696Y-32896546D01*
X120696427Y-32773277D01*
X120551477Y-32676424D01*
X120390417Y-32609711D01*
X120219437Y-32575701D01*
X120045107Y-32575701D01*
X119874127Y-32609711D01*
X119713067Y-32676424D01*
X119568117Y-32773277D01*
X119444848Y-32896546D01*
X119347995Y-33041496D01*
X119281282Y-33202556D01*
X119247272Y-33373536D01*
X119247272Y-33547866D01*
X119281282Y-33718846D01*
X119347995Y-33879906D01*
X119361074Y-33899480D01*
X116955554Y-36305000D01*
X116692953Y-36305000D01*
X116619205Y-36255723D01*
X116458145Y-36189010D01*
X116287165Y-36155000D01*
X116112835Y-36155000D01*
X115941855Y-36189010D01*
X115780795Y-36255723D01*
X115635845Y-36352576D01*
X115512576Y-36475845D01*
X115415723Y-36620795D01*
X115349010Y-36781855D01*
X115315000Y-36952835D01*
X115315000Y-37127165D01*
X115349010Y-37298145D01*
X115415723Y-37459205D01*
X115512576Y-37604155D01*
X115635845Y-37727424D01*
X115780795Y-37824277D01*
X115941855Y-37890990D01*
X116112835Y-37925000D01*
X116287165Y-37925000D01*
X116458145Y-37890990D01*
X116619205Y-37824277D01*
X116692953Y-37775000D01*
X116883646Y-37775000D01*
X114877319Y-39781327D01*
X114749205Y-39695723D01*
X114588145Y-39629010D01*
X114417165Y-39595000D01*
X114242835Y-39595000D01*
X114071855Y-39629010D01*
X113910795Y-39695723D01*
X113765845Y-39792576D01*
X113642576Y-39915845D01*
X113545723Y-40060795D01*
X113479010Y-40221855D01*
X113445000Y-40392835D01*
X113445000Y-40567165D01*
X113479010Y-40738145D01*
X113545723Y-40899205D01*
X113631327Y-41027320D01*
X106540901Y-48117746D01*
X106502368Y-48149369D01*
X106470745Y-48187902D01*
X106470744Y-48187903D01*
X106376154Y-48303162D01*
X106282368Y-48478623D01*
X106224615Y-48669008D01*
X106205114Y-48867002D01*
X106210001Y-48916620D01*
X106210000Y-57794597D01*
X106177425Y-57745845D01*
X106054156Y-57622576D01*
X105909206Y-57525723D01*
X105748146Y-57459010D01*
X105577166Y-57425000D01*
X105402836Y-57425000D01*
X105231856Y-57459010D01*
X105070796Y-57525723D01*
X104925846Y-57622576D01*
X104850001Y-57698422D01*
X104764155Y-57612576D01*
X104619205Y-57515723D01*
X104458145Y-57449010D01*
X104287165Y-57415000D01*
X104112835Y-57415000D01*
X103941855Y-57449010D01*
X103780795Y-57515723D01*
X103635845Y-57612576D01*
X103512576Y-57735845D01*
X103454955Y-57822081D01*
X103437424Y-57795845D01*
X103314155Y-57672576D01*
X103169205Y-57575723D01*
X103008145Y-57509010D01*
X102837165Y-57475000D01*
X102662835Y-57475000D01*
X102491855Y-57509010D01*
X102330795Y-57575723D01*
X102185845Y-57672576D01*
X102062576Y-57795845D01*
X101971636Y-57931945D01*
X101907424Y-57835845D01*
X101784155Y-57712576D01*
X101639205Y-57615723D01*
X101478145Y-57549010D01*
X101307165Y-57515000D01*
X101132835Y-57515000D01*
X100961855Y-57549010D01*
X100800795Y-57615723D01*
X100655845Y-57712576D01*
X100532576Y-57835845D01*
X100476659Y-57919530D01*
X100427424Y-57845845D01*
X100304155Y-57722576D01*
X100159205Y-57625723D01*
X99998145Y-57559010D01*
X99827165Y-57525000D01*
X99652835Y-57525000D01*
X99481855Y-57559010D01*
X99320795Y-57625723D01*
X99175845Y-57722576D01*
X99052576Y-57845845D01*
X98955723Y-57990795D01*
X98889010Y-58151855D01*
X98855000Y-58322835D01*
X98855000Y-58497165D01*
X98889010Y-58668145D01*
X98955723Y-58829205D01*
X99003027Y-58900000D01*
X98124091Y-58900000D01*
X92430010Y-53205919D01*
X92430010Y-49135291D01*
X92433445Y-49100414D01*
X92419737Y-48961229D01*
X92379138Y-48827394D01*
X92365154Y-48801231D01*
X92313210Y-48704051D01*
X92224485Y-48595939D01*
X92197389Y-48573702D01*
X86046308Y-42422621D01*
X86024071Y-42395525D01*
X85915959Y-42306800D01*
X85792616Y-42240872D01*
X85658780Y-42200273D01*
X85554473Y-42190000D01*
X85554471Y-42190000D01*
X85519596Y-42186565D01*
X85484721Y-42190000D01*
X79033609Y-42190000D01*
X78997424Y-42135845D01*
X78874155Y-42012576D01*
X78729205Y-41915723D01*
X78568145Y-41849010D01*
X78397165Y-41815000D01*
X78222835Y-41815000D01*
X78051855Y-41849010D01*
X77890795Y-41915723D01*
X77745845Y-42012576D01*
X77622576Y-42135845D01*
X77525723Y-42280795D01*
X77459010Y-42441855D01*
X77425000Y-42612835D01*
X77425000Y-42704986D01*
X77350795Y-42735723D01*
X77205845Y-42832576D01*
X77082576Y-42955845D01*
X76985723Y-43100795D01*
X76919010Y-43261855D01*
X76885000Y-43432835D01*
X76885000Y-43607165D01*
X76919010Y-43778145D01*
X76985723Y-43939205D01*
X77082576Y-44084155D01*
X77205845Y-44207424D01*
X77350795Y-44304277D01*
X77511855Y-44370990D01*
X77618016Y-44392107D01*
X77863288Y-44637379D01*
X77885525Y-44664475D01*
X77993637Y-44753200D01*
X78116980Y-44819128D01*
X78250816Y-44859727D01*
X78355123Y-44870000D01*
X78355125Y-44870000D01*
X78390000Y-44873435D01*
X78424875Y-44870000D01*
X86061227Y-44870000D01*
X86776227Y-45585000D01*
X76254345Y-45585000D01*
X70864345Y-40195000D01*
X86723421Y-40195000D01*
X86702576Y-40215845D01*
X86605723Y-40360795D01*
X86539010Y-40521855D01*
X86505000Y-40692835D01*
X86505000Y-40867165D01*
X86539010Y-41038145D01*
X86605723Y-41199205D01*
X86702576Y-41344155D01*
X86825845Y-41467424D01*
X86970795Y-41564277D01*
X87131855Y-41630990D01*
X87302835Y-41665000D01*
X87477165Y-41665000D01*
X87648145Y-41630990D01*
X87809205Y-41564277D01*
X87954155Y-41467424D01*
X88077424Y-41344155D01*
X88165169Y-41212835D01*
X103415000Y-41212835D01*
X103415000Y-41387165D01*
X103449010Y-41558145D01*
X103515723Y-41719205D01*
X103612576Y-41864155D01*
X103735845Y-41987424D01*
X103880795Y-42084277D01*
X104041855Y-42150990D01*
X104212835Y-42185000D01*
X104387165Y-42185000D01*
X104558145Y-42150990D01*
X104719205Y-42084277D01*
X104864155Y-41987424D01*
X104987424Y-41864155D01*
X105084277Y-41719205D01*
X105150990Y-41558145D01*
X105185000Y-41387165D01*
X105185000Y-41212835D01*
X105150990Y-41041855D01*
X105084277Y-40880795D01*
X104987424Y-40735845D01*
X104864155Y-40612576D01*
X104719205Y-40515723D01*
X104558145Y-40449010D01*
X104387165Y-40415000D01*
X104212835Y-40415000D01*
X104041855Y-40449010D01*
X103880795Y-40515723D01*
X103735845Y-40612576D01*
X103612576Y-40735845D01*
X103515723Y-40880795D01*
X103449010Y-41041855D01*
X103415000Y-41212835D01*
X88165169Y-41212835D01*
X88174277Y-41199205D01*
X88240990Y-41038145D01*
X88275000Y-40867165D01*
X88275000Y-40692835D01*
X88240990Y-40521855D01*
X88216739Y-40463308D01*
X88331855Y-40510990D01*
X88502835Y-40545000D01*
X88677165Y-40545000D01*
X88848145Y-40510990D01*
X89009205Y-40444277D01*
X89154155Y-40347424D01*
X89277424Y-40224155D01*
X89296905Y-40195000D01*
X99463095Y-40195000D01*
X99482576Y-40224155D01*
X99605845Y-40347424D01*
X99750795Y-40444277D01*
X99911855Y-40510990D01*
X100082835Y-40545000D01*
X100257165Y-40545000D01*
X100428145Y-40510990D01*
X100589205Y-40444277D01*
X100734155Y-40347424D01*
X100857424Y-40224155D01*
X100876905Y-40195000D01*
X111305000Y-40195000D01*
X111305000Y-40267165D01*
X111339010Y-40438145D01*
X111405723Y-40599205D01*
X111502576Y-40744155D01*
X111625845Y-40867424D01*
X111770795Y-40964277D01*
X111931855Y-41030990D01*
X112102835Y-41065000D01*
X112277165Y-41065000D01*
X112448145Y-41030990D01*
X112609205Y-40964277D01*
X112754155Y-40867424D01*
X112877424Y-40744155D01*
X112974277Y-40599205D01*
X113040990Y-40438145D01*
X113075000Y-40267165D01*
X113075000Y-40092835D01*
X113073776Y-40086681D01*
X113220982Y-40042026D01*
X113591881Y-39843777D01*
X113916977Y-39576977D01*
X114183777Y-39251881D01*
X114382026Y-38880982D01*
X114504108Y-38478533D01*
X114545330Y-38060000D01*
X114504108Y-37641467D01*
X114382026Y-37239018D01*
X114183777Y-36868119D01*
X113916977Y-36543023D01*
X113591881Y-36276223D01*
X113220982Y-36077974D01*
X112818533Y-35955892D01*
X112504882Y-35925000D01*
X77936579Y-35925000D01*
X77884155Y-35872576D01*
X77739205Y-35775723D01*
X77578145Y-35709010D01*
X77407165Y-35675000D01*
X77232835Y-35675000D01*
X77061855Y-35709010D01*
X76900795Y-35775723D01*
X76755845Y-35872576D01*
X76703421Y-35925000D01*
X65814872Y-35925000D01*
X65710000Y-35914671D01*
X65605128Y-35925000D01*
X62084871Y-35925000D01*
X61979999Y-35914671D01*
X61875127Y-35925000D01*
X61875118Y-35925000D01*
X61561467Y-35955892D01*
X61159018Y-36077974D01*
X60788119Y-36276223D01*
X60716338Y-36335132D01*
X60544489Y-36476165D01*
X60544487Y-36476167D01*
X60463023Y-36543023D01*
X60396167Y-36624487D01*
X56326140Y-40694514D01*
X56250795Y-40725723D01*
X56105845Y-40822576D01*
X55982576Y-40945845D01*
X55885723Y-41090795D01*
X55854514Y-41166140D01*
X48055655Y-48965000D01*
X47494481Y-48965000D01*
X47370599Y-48977201D01*
X47251477Y-49013336D01*
X47141694Y-49072017D01*
X47045468Y-49150987D01*
X46966498Y-49247213D01*
X46907817Y-49356996D01*
X46871682Y-49476118D01*
X46859481Y-49600000D01*
X46868825Y-49694873D01*
X46859499Y-50935226D01*
X46864245Y-51017638D01*
X46891501Y-51139099D01*
X46941930Y-51252909D01*
X47013592Y-51354694D01*
X47103735Y-51440542D01*
X47208894Y-51507155D01*
X47275000Y-51532666D01*
X47275000Y-52655128D01*
X47264671Y-52760000D01*
X47275000Y-52864872D01*
X47275000Y-52864882D01*
X47305892Y-53178533D01*
X47390322Y-53456857D01*
X47427975Y-53580982D01*
X47626224Y-53951881D01*
X47826165Y-54195510D01*
X47826168Y-54195513D01*
X47893024Y-54276977D01*
X47974487Y-54343832D01*
X52865000Y-59234346D01*
X52865000Y-60424882D01*
X52895892Y-60738533D01*
X53017975Y-61140982D01*
X53216224Y-61511881D01*
X53365000Y-61693165D01*
X53365000Y-62945553D01*
X41370001Y-50950555D01*
X41370001Y-44637835D01*
X42232502Y-44637835D01*
X42232502Y-44812165D01*
X42266512Y-44983145D01*
X42314915Y-45100000D01*
X42266512Y-45216855D01*
X42232502Y-45387835D01*
X42232502Y-45562165D01*
X42266512Y-45733145D01*
X42333225Y-45894205D01*
X42430078Y-46039155D01*
X42553347Y-46162424D01*
X42698297Y-46259277D01*
X42859357Y-46325990D01*
X43030337Y-46360000D01*
X43204667Y-46360000D01*
X43375647Y-46325990D01*
X43536707Y-46259277D01*
X43681657Y-46162424D01*
X43804926Y-46039155D01*
X43901779Y-45894205D01*
X43968492Y-45733145D01*
X44002502Y-45562165D01*
X44002502Y-45387835D01*
X43968492Y-45216855D01*
X43920089Y-45100000D01*
X43968492Y-44983145D01*
X44002502Y-44812165D01*
X44002502Y-44637835D01*
X43968492Y-44466855D01*
X43901779Y-44305795D01*
X43804926Y-44160845D01*
X43681657Y-44037576D01*
X43536707Y-43940723D01*
X43375647Y-43874010D01*
X43204667Y-43840000D01*
X43030337Y-43840000D01*
X42859357Y-43874010D01*
X42698297Y-43940723D01*
X42553347Y-44037576D01*
X42430078Y-44160845D01*
X42333225Y-44305795D01*
X42266512Y-44466855D01*
X42232502Y-44637835D01*
X41370001Y-44637835D01*
X41370001Y-43851106D01*
X41373557Y-43815001D01*
X41359366Y-43670916D01*
X41317338Y-43532368D01*
X41286288Y-43474277D01*
X41278357Y-43459440D01*
X41250990Y-43321855D01*
X41184277Y-43160795D01*
X41087424Y-43015845D01*
X40964155Y-42892576D01*
X40819205Y-42795723D01*
X40658145Y-42729010D01*
X40487165Y-42695000D01*
X40312835Y-42695000D01*
X40141855Y-42729010D01*
X39980795Y-42795723D01*
X39835845Y-42892576D01*
X39712576Y-43015845D01*
X39615723Y-43160795D01*
X39549010Y-43321855D01*
X39515000Y-43492835D01*
X39515000Y-43667165D01*
X39549010Y-43838145D01*
X39615723Y-43999205D01*
X39712576Y-44144155D01*
X39835845Y-44267424D01*
X39900002Y-44310293D01*
X39900001Y-51218896D01*
X39896445Y-51255001D01*
X39900001Y-51291105D01*
X39910636Y-51399085D01*
X39952664Y-51537633D01*
X40020914Y-51665320D01*
X40112763Y-51777238D01*
X40140809Y-51800255D01*
X52215002Y-63874449D01*
X52215001Y-71778007D01*
X52096449Y-71633551D01*
X51923623Y-71491716D01*
X51726446Y-71386324D01*
X51512498Y-71321423D01*
X51290000Y-71299509D01*
X51067501Y-71321423D01*
X50853553Y-71386324D01*
X50656377Y-71491716D01*
X50483551Y-71633551D01*
X50448004Y-71676865D01*
X50016860Y-72108009D01*
X49973552Y-72143551D01*
X49831717Y-72316377D01*
X49726324Y-72513553D01*
X49661423Y-72727501D01*
X49648573Y-72857972D01*
X49639509Y-72950000D01*
X49645000Y-73005751D01*
X49645000Y-73484249D01*
X49639509Y-73540000D01*
X49653325Y-73680273D01*
X49661423Y-73762498D01*
X49726324Y-73976446D01*
X49831716Y-74173623D01*
X49973551Y-74346449D01*
X50146377Y-74488284D01*
X50343553Y-74593676D01*
X50557501Y-74658577D01*
X50780000Y-74680491D01*
X51002498Y-74658577D01*
X51014290Y-74655000D01*
X51944248Y-74655000D01*
X52000000Y-74660491D01*
X52075866Y-74653019D01*
X52215001Y-74639315D01*
X52215001Y-75533885D01*
X52225636Y-75641865D01*
X52267664Y-75780413D01*
X52335914Y-75908100D01*
X52427763Y-76020018D01*
X52539681Y-76111868D01*
X52659280Y-76175795D01*
X54315872Y-77832387D01*
X54338109Y-77859483D01*
X54446221Y-77948208D01*
X54548421Y-78002835D01*
X54569564Y-78014136D01*
X54654825Y-78040000D01*
X50778881Y-78040000D01*
X44955791Y-72216910D01*
X44933554Y-72189814D01*
X44825442Y-72101089D01*
X44702099Y-72035161D01*
X44568263Y-71994562D01*
X44463956Y-71984289D01*
X44463954Y-71984289D01*
X44429079Y-71980854D01*
X44394204Y-71984289D01*
X41400497Y-71984289D01*
X41407137Y-71858467D01*
X41408841Y-71841185D01*
X41410003Y-60107647D01*
X41409159Y-60099066D01*
X41408236Y-60063592D01*
X41403763Y-60027630D01*
X41402385Y-59991417D01*
X41401074Y-59982296D01*
X41367884Y-59762296D01*
X41353236Y-59704321D01*
X41339390Y-59646105D01*
X41336332Y-59637412D01*
X41261043Y-59428049D01*
X41235404Y-59374003D01*
X41210522Y-59319603D01*
X41205834Y-59311670D01*
X41091313Y-59120918D01*
X41055674Y-59072894D01*
X41020692Y-59024352D01*
X41014552Y-59017480D01*
X40865162Y-58852605D01*
X40820864Y-58812409D01*
X40777129Y-58771595D01*
X40769771Y-58766047D01*
X40591201Y-58633327D01*
X40539925Y-58602492D01*
X40489107Y-58570958D01*
X40480812Y-58566944D01*
X40279865Y-58471438D01*
X40223591Y-58451155D01*
X40167605Y-58430088D01*
X40158689Y-58427762D01*
X39943018Y-58373105D01*
X39883831Y-58364132D01*
X39824861Y-58354347D01*
X39815664Y-58353797D01*
X39815662Y-58353797D01*
X39608539Y-58342867D01*
X39591327Y-58341166D01*
X35857789Y-58339990D01*
X35849136Y-58340840D01*
X35813592Y-58341764D01*
X35777630Y-58346237D01*
X35741417Y-58347615D01*
X35732296Y-58348926D01*
X35512296Y-58382116D01*
X35454321Y-58396764D01*
X35396105Y-58410610D01*
X35387412Y-58413668D01*
X35178049Y-58488957D01*
X35124003Y-58514596D01*
X35069603Y-58539478D01*
X35061670Y-58544166D01*
X34870918Y-58658687D01*
X34822894Y-58694326D01*
X34774352Y-58729308D01*
X34767480Y-58735448D01*
X34602605Y-58884838D01*
X34562409Y-58929136D01*
X34521595Y-58972871D01*
X34516047Y-58980229D01*
X34383327Y-59158799D01*
X34352492Y-59210075D01*
X34320958Y-59260893D01*
X34316944Y-59269188D01*
X34221438Y-59470135D01*
X34201155Y-59526409D01*
X34180088Y-59582395D01*
X34177762Y-59591311D01*
X34123105Y-59806982D01*
X34114132Y-59866169D01*
X34104347Y-59925139D01*
X34103797Y-59934338D01*
X34092863Y-60141532D01*
X34091159Y-60158815D01*
X34089997Y-71892353D01*
X34090841Y-71900934D01*
X34091764Y-71936408D01*
X34096237Y-71972371D01*
X34097615Y-72008582D01*
X34098926Y-72017704D01*
X34132116Y-72237703D01*
X34146762Y-72295670D01*
X34160610Y-72353895D01*
X34163668Y-72362588D01*
X34238957Y-72571951D01*
X34264596Y-72625997D01*
X34289478Y-72680397D01*
X34294166Y-72688330D01*
X34408687Y-72879082D01*
X34444317Y-72927094D01*
X34479308Y-72975649D01*
X34485448Y-72982520D01*
X34634839Y-73147396D01*
X34679117Y-73187574D01*
X34722871Y-73228406D01*
X34730229Y-73233954D01*
X34908799Y-73366673D01*
X34960057Y-73397497D01*
X35010892Y-73429042D01*
X35019188Y-73433056D01*
X35220134Y-73528561D01*
X35276375Y-73548832D01*
X35332394Y-73569912D01*
X35341311Y-73572238D01*
X35556982Y-73626895D01*
X35616169Y-73635868D01*
X35675139Y-73645653D01*
X35684336Y-73646203D01*
X35684338Y-73646203D01*
X35891462Y-73657134D01*
X35908673Y-73658834D01*
X39642211Y-73660010D01*
X39650864Y-73659160D01*
X39686408Y-73658236D01*
X39722371Y-73653763D01*
X39758582Y-73652385D01*
X39767704Y-73651074D01*
X39987703Y-73617884D01*
X40045670Y-73603238D01*
X40103895Y-73589390D01*
X40112588Y-73586332D01*
X40124140Y-73582178D01*
X40173674Y-73631712D01*
X40318624Y-73728565D01*
X40479684Y-73795278D01*
X40650664Y-73829288D01*
X40824994Y-73829288D01*
X40995974Y-73795278D01*
X41157034Y-73728565D01*
X41301984Y-73631712D01*
X41331759Y-73601937D01*
X41327974Y-73609018D01*
X41205892Y-74011467D01*
X41164670Y-74430000D01*
X41205892Y-74848533D01*
X41327974Y-75250982D01*
X41521705Y-75613428D01*
X41586324Y-75826447D01*
X41691717Y-76023623D01*
X41833552Y-76196449D01*
X41850032Y-76209974D01*
X41863552Y-76226448D01*
X41906855Y-76261986D01*
X41906857Y-76261988D01*
X42036377Y-76368283D01*
X42118215Y-76412026D01*
X42233554Y-76473676D01*
X42447502Y-76538577D01*
X42670000Y-76560491D01*
X42735769Y-76554013D01*
X42685507Y-76675358D01*
X42651497Y-76846338D01*
X42651497Y-77020668D01*
X42685507Y-77191648D01*
X42752220Y-77352708D01*
X42849073Y-77497658D01*
X42949424Y-77598009D01*
X42870719Y-77715799D01*
X42804006Y-77876859D01*
X42769996Y-78047839D01*
X42769996Y-78222169D01*
X42804006Y-78393149D01*
X42870719Y-78554209D01*
X42967572Y-78699159D01*
X43018413Y-78750000D01*
X42910392Y-78750000D01*
X42762006Y-78764615D01*
X42571620Y-78822368D01*
X42396160Y-78916153D01*
X42242367Y-79042367D01*
X42116153Y-79196160D01*
X42022368Y-79371620D01*
X41964615Y-79562006D01*
X41945114Y-79760000D01*
X41964615Y-79957994D01*
X42022368Y-80148380D01*
X42116153Y-80323840D01*
X42242367Y-80477633D01*
X42396160Y-80603847D01*
X42515039Y-80667389D01*
X42566322Y-80836444D01*
X42671714Y-81033621D01*
X42813549Y-81206447D01*
X42856863Y-81241994D01*
X43422851Y-81807982D01*
X43310746Y-81854417D01*
X43165796Y-81951270D01*
X43042527Y-82074539D01*
X42945674Y-82219489D01*
X42878961Y-82380549D01*
X42844951Y-82551529D01*
X42844951Y-82725859D01*
X42878961Y-82896839D01*
X42945674Y-83057899D01*
X43042527Y-83202849D01*
X43165796Y-83326118D01*
X43310746Y-83422971D01*
X43471806Y-83489684D01*
X43642786Y-83523694D01*
X43817116Y-83523694D01*
X43988096Y-83489684D01*
X44149156Y-83422971D01*
X44176844Y-83404471D01*
X44191423Y-83552499D01*
X44256324Y-83766447D01*
X44361716Y-83963623D01*
X44503551Y-84136449D01*
X44676377Y-84278284D01*
X44873553Y-84383676D01*
X45087501Y-84448577D01*
X45254248Y-84465000D01*
X45254249Y-84465000D01*
X45310000Y-84470491D01*
X45365751Y-84465000D01*
X46594249Y-84465000D01*
X46650000Y-84470491D01*
X46705751Y-84465000D01*
X46705752Y-84465000D01*
X46872499Y-84448577D01*
X46884291Y-84445000D01*
X47739869Y-84445000D01*
X47961645Y-84666776D01*
X47852576Y-84775845D01*
X47755723Y-84920795D01*
X47689010Y-85081855D01*
X47655000Y-85252835D01*
X47655000Y-85427165D01*
X47689010Y-85598145D01*
X47755723Y-85759205D01*
X47852576Y-85904155D01*
X47975845Y-86027424D01*
X48120795Y-86124277D01*
X48281855Y-86190990D01*
X48452835Y-86225000D01*
X48627165Y-86225000D01*
X48798145Y-86190990D01*
X48959205Y-86124277D01*
X49104155Y-86027424D01*
X49213850Y-85917729D01*
X49292849Y-85982561D01*
X49336377Y-86018284D01*
X49533553Y-86123676D01*
X49747501Y-86188577D01*
X49970000Y-86210491D01*
X50025752Y-86205000D01*
X52883254Y-86205000D01*
X52884188Y-86214482D01*
X52914680Y-86315000D01*
X30685000Y-86315000D01*
X30685000Y-85294838D01*
X31834767Y-85294838D01*
X31972724Y-85595044D01*
X32321967Y-85770882D01*
X32698804Y-85875207D01*
X33088753Y-85904009D01*
X33476828Y-85856184D01*
X33848116Y-85733568D01*
X34107276Y-85595044D01*
X34245233Y-85294838D01*
X33040000Y-84089605D01*
X31834767Y-85294838D01*
X30685000Y-85294838D01*
X30685000Y-83958753D01*
X31045991Y-83958753D01*
X31093816Y-84346828D01*
X31216432Y-84718116D01*
X31354956Y-84977276D01*
X31655162Y-85115233D01*
X32860395Y-83910000D01*
X33219605Y-83910000D01*
X34424838Y-85115233D01*
X34725044Y-84977276D01*
X34900882Y-84628033D01*
X35005207Y-84251196D01*
X35005824Y-84242835D01*
X38665000Y-84242835D01*
X38665000Y-84417165D01*
X38699010Y-84588145D01*
X38765723Y-84749205D01*
X38862576Y-84894155D01*
X38985845Y-85017424D01*
X39130795Y-85114277D01*
X39291855Y-85180990D01*
X39462835Y-85215000D01*
X39637165Y-85215000D01*
X39808145Y-85180990D01*
X39969205Y-85114277D01*
X40114155Y-85017424D01*
X40237424Y-84894155D01*
X40334277Y-84749205D01*
X40400990Y-84588145D01*
X40435000Y-84417165D01*
X40435000Y-84242835D01*
X40400990Y-84071855D01*
X40334277Y-83910795D01*
X40237424Y-83765845D01*
X40114155Y-83642576D01*
X39969205Y-83545723D01*
X39808145Y-83479010D01*
X39637165Y-83445000D01*
X39462835Y-83445000D01*
X39291855Y-83479010D01*
X39130795Y-83545723D01*
X38985845Y-83642576D01*
X38862576Y-83765845D01*
X38765723Y-83910795D01*
X38699010Y-84071855D01*
X38665000Y-84242835D01*
X35005824Y-84242835D01*
X35034009Y-83861247D01*
X34986184Y-83473172D01*
X34863568Y-83101884D01*
X34725044Y-82842724D01*
X34424838Y-82704767D01*
X33219605Y-83910000D01*
X32860395Y-83910000D01*
X31655162Y-82704767D01*
X31354956Y-82842724D01*
X31179118Y-83191967D01*
X31074793Y-83568804D01*
X31045991Y-83958753D01*
X30685000Y-83958753D01*
X30685000Y-82525162D01*
X31834767Y-82525162D01*
X33040000Y-83730395D01*
X34245233Y-82525162D01*
X34107276Y-82224956D01*
X33758033Y-82049118D01*
X33381196Y-81944793D01*
X32991247Y-81915991D01*
X32603172Y-81963816D01*
X32231884Y-82086432D01*
X31972724Y-82224956D01*
X31834767Y-82525162D01*
X30685000Y-82525162D01*
X30685000Y-57896579D01*
X30715845Y-57927424D01*
X30860795Y-58024277D01*
X31021855Y-58090990D01*
X31192835Y-58125000D01*
X31211840Y-58125000D01*
X31256979Y-58149127D01*
X31390815Y-58189726D01*
X31495122Y-58199999D01*
X31495124Y-58199999D01*
X31529999Y-58203434D01*
X31564874Y-58199999D01*
X34432124Y-58199999D01*
X34466999Y-58203434D01*
X34501874Y-58199999D01*
X34501876Y-58199999D01*
X34606183Y-58189726D01*
X34740019Y-58149127D01*
X34863362Y-58083199D01*
X34931002Y-58027688D01*
X34970795Y-58054277D01*
X35131855Y-58120990D01*
X35302835Y-58155000D01*
X35477165Y-58155000D01*
X35648145Y-58120990D01*
X35809205Y-58054277D01*
X35920368Y-57980000D01*
X41875909Y-57980000D01*
X46043288Y-62147379D01*
X46065525Y-62174475D01*
X46173637Y-62263200D01*
X46296980Y-62329128D01*
X46430816Y-62369727D01*
X46535123Y-62380000D01*
X46535125Y-62380000D01*
X46570000Y-62383435D01*
X46604875Y-62380000D01*
X46729632Y-62380000D01*
X46840795Y-62454277D01*
X47001855Y-62520990D01*
X47172835Y-62555000D01*
X47347165Y-62555000D01*
X47518145Y-62520990D01*
X47679205Y-62454277D01*
X47824155Y-62357424D01*
X47947424Y-62234155D01*
X48044277Y-62089205D01*
X48110990Y-61928145D01*
X48145000Y-61757165D01*
X48145000Y-61582835D01*
X48110990Y-61411855D01*
X48044277Y-61250795D01*
X47947424Y-61105845D01*
X47928791Y-61087212D01*
X47994277Y-60989205D01*
X48060990Y-60828145D01*
X48095000Y-60657165D01*
X48095000Y-60482835D01*
X48060990Y-60311855D01*
X47994277Y-60150795D01*
X47897424Y-60005845D01*
X47774155Y-59882576D01*
X47629205Y-59785723D01*
X47468145Y-59719010D01*
X47297165Y-59685000D01*
X47122835Y-59685000D01*
X46986258Y-59712167D01*
X43291701Y-56017610D01*
X43269464Y-55990514D01*
X43161352Y-55901789D01*
X43038009Y-55835861D01*
X42904173Y-55795262D01*
X42799866Y-55784989D01*
X42799864Y-55784989D01*
X42764989Y-55781554D01*
X42730114Y-55784989D01*
X34829888Y-55784989D01*
X34795011Y-55781554D01*
X34655826Y-55795262D01*
X34609863Y-55809205D01*
X34521991Y-55835861D01*
X34398648Y-55901789D01*
X34290536Y-55990514D01*
X34268299Y-56017610D01*
X33985909Y-56300000D01*
X33503653Y-56300000D01*
X33520990Y-56258145D01*
X33555000Y-56087165D01*
X33555000Y-55912835D01*
X33520990Y-55741855D01*
X33454277Y-55580795D01*
X33357424Y-55435845D01*
X33234155Y-55312576D01*
X33089205Y-55215723D01*
X32928145Y-55149010D01*
X32757165Y-55115000D01*
X32582835Y-55115000D01*
X32411855Y-55149010D01*
X32250795Y-55215723D01*
X32105845Y-55312576D01*
X31982576Y-55435845D01*
X31885723Y-55580795D01*
X31819010Y-55741855D01*
X31785000Y-55912835D01*
X31785000Y-56087165D01*
X31798247Y-56153760D01*
X31771855Y-56159010D01*
X31610795Y-56225723D01*
X31465845Y-56322576D01*
X31422428Y-56365993D01*
X31367165Y-56355000D01*
X31192835Y-56355000D01*
X31021855Y-56389010D01*
X30860795Y-56455723D01*
X30715845Y-56552576D01*
X30685000Y-56583421D01*
X30685000Y-52135838D01*
X30752236Y-52217764D01*
X30762260Y-52225990D01*
X30825723Y-52379205D01*
X30922576Y-52524155D01*
X31045845Y-52647424D01*
X31190795Y-52744277D01*
X31351855Y-52810990D01*
X31522835Y-52845000D01*
X31697165Y-52845000D01*
X31868145Y-52810990D01*
X32029205Y-52744277D01*
X32174155Y-52647424D01*
X32297424Y-52524155D01*
X32394277Y-52379205D01*
X32460990Y-52218145D01*
X32495000Y-52047165D01*
X32495000Y-51872835D01*
X32493011Y-51862835D01*
X35115000Y-51862835D01*
X35115000Y-52037165D01*
X35149010Y-52208145D01*
X35215723Y-52369205D01*
X35312576Y-52514155D01*
X35435845Y-52637424D01*
X35580795Y-52734277D01*
X35741855Y-52800990D01*
X35912835Y-52835000D01*
X36087165Y-52835000D01*
X36258145Y-52800990D01*
X36419205Y-52734277D01*
X36564155Y-52637424D01*
X36687424Y-52514155D01*
X36784277Y-52369205D01*
X36850990Y-52208145D01*
X36885000Y-52037165D01*
X36885000Y-51862835D01*
X36850990Y-51691855D01*
X36784277Y-51530795D01*
X36687424Y-51385845D01*
X36564155Y-51262576D01*
X36419205Y-51165723D01*
X36258145Y-51099010D01*
X36087165Y-51065000D01*
X35912835Y-51065000D01*
X35741855Y-51099010D01*
X35580795Y-51165723D01*
X35435845Y-51262576D01*
X35312576Y-51385845D01*
X35215723Y-51530795D01*
X35149010Y-51691855D01*
X35115000Y-51862835D01*
X32493011Y-51862835D01*
X32460990Y-51701855D01*
X32394277Y-51540795D01*
X32297424Y-51395845D01*
X32192662Y-51291083D01*
X32160990Y-51131855D01*
X32094277Y-50970795D01*
X31997424Y-50825845D01*
X31874155Y-50702576D01*
X31729205Y-50605723D01*
X31568145Y-50539010D01*
X31397165Y-50505000D01*
X31222835Y-50505000D01*
X31051855Y-50539010D01*
X30890795Y-50605723D01*
X30745845Y-50702576D01*
X30685000Y-50763421D01*
X30685000Y-49625673D01*
X30717298Y-49717197D01*
X30832986Y-49897408D01*
X30981609Y-50051587D01*
X31157455Y-50173809D01*
X31353767Y-50259376D01*
X31563000Y-50305000D01*
X31963000Y-50305000D01*
X31963000Y-49347000D01*
X32217000Y-49347000D01*
X32217000Y-50305000D01*
X32617000Y-50305000D01*
X32826233Y-50259376D01*
X33022545Y-50173809D01*
X33198391Y-50051587D01*
X33347014Y-49897408D01*
X33462702Y-49717197D01*
X33534408Y-49514001D01*
X34665592Y-49514001D01*
X34737298Y-49717197D01*
X34852986Y-49897408D01*
X35001609Y-50051587D01*
X35177455Y-50173809D01*
X35373767Y-50259376D01*
X35583000Y-50305000D01*
X36133000Y-50305000D01*
X36133000Y-49347000D01*
X36387000Y-49347000D01*
X36387000Y-50305000D01*
X36937000Y-50305000D01*
X37146233Y-50259376D01*
X37342545Y-50173809D01*
X37518391Y-50051587D01*
X37667014Y-49897408D01*
X37782702Y-49717197D01*
X37854408Y-49514001D01*
X37727502Y-49347000D01*
X36387000Y-49347000D01*
X36133000Y-49347000D01*
X34792498Y-49347000D01*
X34665592Y-49514001D01*
X33534408Y-49514001D01*
X33407502Y-49347000D01*
X32217000Y-49347000D01*
X31963000Y-49347000D01*
X31943000Y-49347000D01*
X31943000Y-49093000D01*
X31963000Y-49093000D01*
X31963000Y-48135000D01*
X32217000Y-48135000D01*
X32217000Y-49093000D01*
X33407502Y-49093000D01*
X33534408Y-48925999D01*
X33462702Y-48722803D01*
X33347014Y-48542592D01*
X33198391Y-48388413D01*
X33022545Y-48266191D01*
X32826233Y-48180624D01*
X32617000Y-48135000D01*
X32217000Y-48135000D01*
X31963000Y-48135000D01*
X31563000Y-48135000D01*
X31353767Y-48180624D01*
X31157455Y-48266191D01*
X30981609Y-48388413D01*
X30832986Y-48542592D01*
X30717298Y-48722803D01*
X30685000Y-48814327D01*
X30685000Y-40985673D01*
X30717298Y-41077197D01*
X30832986Y-41257408D01*
X30981609Y-41411587D01*
X31157455Y-41533809D01*
X31353767Y-41619376D01*
X31563000Y-41665000D01*
X31963000Y-41665000D01*
X31963000Y-40707000D01*
X32217000Y-40707000D01*
X32217000Y-41665000D01*
X32617000Y-41665000D01*
X32826233Y-41619376D01*
X33022545Y-41533809D01*
X33198391Y-41411587D01*
X33347014Y-41257408D01*
X33462702Y-41077197D01*
X33534408Y-40874001D01*
X34665592Y-40874001D01*
X34737298Y-41077197D01*
X34852986Y-41257408D01*
X35001609Y-41411587D01*
X35038294Y-41437085D01*
X34951414Y-41567111D01*
X34880932Y-41737271D01*
X34845000Y-41917911D01*
X34845000Y-42102089D01*
X34880932Y-42282729D01*
X34951414Y-42452889D01*
X35053738Y-42606028D01*
X35183972Y-42736262D01*
X35337111Y-42838586D01*
X35507271Y-42909068D01*
X35635001Y-42934475D01*
X35635000Y-46464248D01*
X35629509Y-46520000D01*
X35635000Y-46575751D01*
X35651423Y-46742498D01*
X35685685Y-46855443D01*
X35507271Y-46890932D01*
X35337111Y-46961414D01*
X35183972Y-47063738D01*
X35053738Y-47193972D01*
X34951414Y-47347111D01*
X34880932Y-47517271D01*
X34845000Y-47697911D01*
X34845000Y-47882089D01*
X34880932Y-48062729D01*
X34951414Y-48232889D01*
X35038294Y-48362915D01*
X35001609Y-48388413D01*
X34852986Y-48542592D01*
X34737298Y-48722803D01*
X34665592Y-48925999D01*
X34792498Y-49093000D01*
X36133000Y-49093000D01*
X36133000Y-49073000D01*
X36387000Y-49073000D01*
X36387000Y-49093000D01*
X37727502Y-49093000D01*
X37854408Y-48925999D01*
X37782702Y-48722803D01*
X37667014Y-48542592D01*
X37634676Y-48509046D01*
X37675752Y-48505000D01*
X38305752Y-48505000D01*
X38472499Y-48488577D01*
X38686447Y-48423676D01*
X38883623Y-48318284D01*
X39056449Y-48176449D01*
X39198284Y-48003623D01*
X39303676Y-47806447D01*
X39368577Y-47592499D01*
X39390491Y-47370000D01*
X39368577Y-47147501D01*
X39303676Y-46933553D01*
X39198284Y-46736377D01*
X39056449Y-46563551D01*
X38910227Y-46443549D01*
X39024155Y-46367424D01*
X39147424Y-46244155D01*
X39244277Y-46099205D01*
X39310990Y-45938145D01*
X39345000Y-45767165D01*
X39345000Y-45592835D01*
X39310990Y-45421855D01*
X39244277Y-45260795D01*
X39147424Y-45115845D01*
X39118872Y-45087293D01*
X39124277Y-45079205D01*
X39190990Y-44918145D01*
X39225000Y-44747165D01*
X39225000Y-44572835D01*
X39190990Y-44401855D01*
X39124277Y-44240795D01*
X39027424Y-44095845D01*
X38904155Y-43972576D01*
X38759205Y-43875723D01*
X38598145Y-43809010D01*
X38427165Y-43775000D01*
X38252835Y-43775000D01*
X38081855Y-43809010D01*
X37920795Y-43875723D01*
X37905000Y-43886277D01*
X37905000Y-42645780D01*
X39553141Y-40997640D01*
X39596449Y-40962098D01*
X39738284Y-40789272D01*
X39843676Y-40592096D01*
X39908577Y-40378148D01*
X39925000Y-40211401D01*
X39925000Y-40211392D01*
X39930490Y-40155650D01*
X39925000Y-40099908D01*
X39925000Y-39114249D01*
X39908577Y-38947501D01*
X39843676Y-38733553D01*
X39738284Y-38536377D01*
X39596449Y-38363551D01*
X39423623Y-38221716D01*
X39226447Y-38116324D01*
X39012499Y-38051423D01*
X38790000Y-38029509D01*
X38567502Y-38051423D01*
X38353554Y-38116324D01*
X38156378Y-38221716D01*
X37983552Y-38363551D01*
X37841717Y-38536377D01*
X37736324Y-38733553D01*
X37671423Y-38947501D01*
X37655000Y-39114248D01*
X37655000Y-39685517D01*
X37554571Y-39785946D01*
X37518391Y-39748413D01*
X37342545Y-39626191D01*
X37146233Y-39540624D01*
X36937000Y-39495000D01*
X36387000Y-39495000D01*
X36387000Y-40453000D01*
X36407000Y-40453000D01*
X36407000Y-40707000D01*
X36387000Y-40707000D01*
X36387000Y-40727000D01*
X36133000Y-40727000D01*
X36133000Y-40707000D01*
X34792498Y-40707000D01*
X34665592Y-40874001D01*
X33534408Y-40874001D01*
X33407502Y-40707000D01*
X32217000Y-40707000D01*
X31963000Y-40707000D01*
X31943000Y-40707000D01*
X31943000Y-40453000D01*
X31963000Y-40453000D01*
X31963000Y-39495000D01*
X32217000Y-39495000D01*
X32217000Y-40453000D01*
X33407502Y-40453000D01*
X33534408Y-40285999D01*
X34665592Y-40285999D01*
X34792498Y-40453000D01*
X36133000Y-40453000D01*
X36133000Y-39495000D01*
X35583000Y-39495000D01*
X35373767Y-39540624D01*
X35177455Y-39626191D01*
X35001609Y-39748413D01*
X34852986Y-39902592D01*
X34737298Y-40082803D01*
X34665592Y-40285999D01*
X33534408Y-40285999D01*
X33462702Y-40082803D01*
X33347014Y-39902592D01*
X33198391Y-39748413D01*
X33022545Y-39626191D01*
X32826233Y-39540624D01*
X32617000Y-39495000D01*
X32217000Y-39495000D01*
X31963000Y-39495000D01*
X31563000Y-39495000D01*
X31353767Y-39540624D01*
X31157455Y-39626191D01*
X30981609Y-39748413D01*
X30832986Y-39902592D01*
X30717298Y-40082803D01*
X30685000Y-40174327D01*
X30685000Y-36108621D01*
X40964137Y-36108621D01*
X40964137Y-36282951D01*
X40998147Y-36453931D01*
X41064860Y-36614991D01*
X41161713Y-36759941D01*
X41284982Y-36883210D01*
X41429932Y-36980063D01*
X41590992Y-37046776D01*
X41761972Y-37080786D01*
X41936302Y-37080786D01*
X42107282Y-37046776D01*
X42145885Y-37030786D01*
X45186823Y-37030786D01*
X46070239Y-37914202D01*
X45973552Y-37993551D01*
X45831716Y-38166377D01*
X45726324Y-38363553D01*
X45680606Y-38514263D01*
X45646865Y-38548004D01*
X45603551Y-38583551D01*
X45568004Y-38626865D01*
X45488012Y-38706857D01*
X45381717Y-38836378D01*
X45276324Y-39033554D01*
X45211423Y-39247502D01*
X45189509Y-39470000D01*
X45211423Y-39692498D01*
X45276324Y-39906446D01*
X45381717Y-40103622D01*
X45523552Y-40276448D01*
X45696378Y-40418283D01*
X45893554Y-40523676D01*
X46107502Y-40588577D01*
X46330000Y-40610491D01*
X46552498Y-40588577D01*
X46762081Y-40525000D01*
X47065752Y-40525000D01*
X47232499Y-40508577D01*
X47446447Y-40443676D01*
X47643623Y-40338284D01*
X47816449Y-40196449D01*
X47958284Y-40023623D01*
X48010764Y-39925439D01*
X48130833Y-40045508D01*
X48275783Y-40142361D01*
X48436843Y-40209074D01*
X48607823Y-40243084D01*
X48782153Y-40243084D01*
X48953133Y-40209074D01*
X49114193Y-40142361D01*
X49259143Y-40045508D01*
X49382412Y-39922239D01*
X49479265Y-39777289D01*
X49545978Y-39616229D01*
X49579988Y-39445249D01*
X49579988Y-39270919D01*
X49545978Y-39099939D01*
X49479265Y-38938879D01*
X49382412Y-38793929D01*
X49259143Y-38670660D01*
X49114193Y-38573807D01*
X49075590Y-38557817D01*
X46152136Y-35634365D01*
X46125981Y-35602495D01*
X45998836Y-35498150D01*
X45853777Y-35420614D01*
X45696379Y-35372868D01*
X45573709Y-35360786D01*
X45573708Y-35360786D01*
X45532690Y-35356746D01*
X45491672Y-35360786D01*
X42145885Y-35360786D01*
X42107282Y-35344796D01*
X41936302Y-35310786D01*
X41761972Y-35310786D01*
X41590992Y-35344796D01*
X41429932Y-35411509D01*
X41284982Y-35508362D01*
X41161713Y-35631631D01*
X41064860Y-35776581D01*
X40998147Y-35937641D01*
X40964137Y-36108621D01*
X30685000Y-36108621D01*
X30685000Y-35132835D01*
X39265000Y-35132835D01*
X39265000Y-35307165D01*
X39299010Y-35478145D01*
X39365723Y-35639205D01*
X39462576Y-35784155D01*
X39585845Y-35907424D01*
X39730795Y-36004277D01*
X39891855Y-36070990D01*
X40062835Y-36105000D01*
X40237165Y-36105000D01*
X40408145Y-36070990D01*
X40569205Y-36004277D01*
X40714155Y-35907424D01*
X40837424Y-35784155D01*
X40934277Y-35639205D01*
X41000990Y-35478145D01*
X41035000Y-35307165D01*
X41035000Y-35132835D01*
X41000990Y-34961855D01*
X40934277Y-34800795D01*
X40837424Y-34655845D01*
X40714155Y-34532576D01*
X40569205Y-34435723D01*
X40408145Y-34369010D01*
X40237165Y-34335000D01*
X40062835Y-34335000D01*
X39891855Y-34369010D01*
X39730795Y-34435723D01*
X39585845Y-34532576D01*
X39462576Y-34655845D01*
X39365723Y-34800795D01*
X39299010Y-34961855D01*
X39265000Y-35132835D01*
X30685000Y-35132835D01*
X30685000Y-34434838D01*
X31834767Y-34434838D01*
X31972724Y-34735044D01*
X32321967Y-34910882D01*
X32698804Y-35015207D01*
X33088753Y-35044009D01*
X33476828Y-34996184D01*
X33848116Y-34873568D01*
X34107276Y-34735044D01*
X34245233Y-34434838D01*
X33040000Y-33229605D01*
X31834767Y-34434838D01*
X30685000Y-34434838D01*
X30685000Y-33098753D01*
X31045991Y-33098753D01*
X31093816Y-33486828D01*
X31216432Y-33858116D01*
X31354956Y-34117276D01*
X31655162Y-34255233D01*
X32860395Y-33050000D01*
X33219605Y-33050000D01*
X34424838Y-34255233D01*
X34725044Y-34117276D01*
X34900882Y-33768033D01*
X35005207Y-33391196D01*
X35034009Y-33001247D01*
X34986184Y-32613172D01*
X34863568Y-32241884D01*
X34725044Y-31982724D01*
X34424838Y-31844767D01*
X33219605Y-33050000D01*
X32860395Y-33050000D01*
X31655162Y-31844767D01*
X31354956Y-31982724D01*
X31179118Y-32331967D01*
X31074793Y-32708804D01*
X31045991Y-33098753D01*
X30685000Y-33098753D01*
X30685000Y-31665162D01*
X31834767Y-31665162D01*
X33040000Y-32870395D01*
X34094796Y-31815599D01*
X38330000Y-31815599D01*
X38330000Y-32024401D01*
X38370735Y-32229191D01*
X38450640Y-32422098D01*
X38566644Y-32595711D01*
X38714289Y-32743356D01*
X38887902Y-32859360D01*
X39080809Y-32939265D01*
X39285599Y-32980000D01*
X39494401Y-32980000D01*
X39699191Y-32939265D01*
X39892098Y-32859360D01*
X40065711Y-32743356D01*
X40213356Y-32595711D01*
X40329360Y-32422098D01*
X40409265Y-32229191D01*
X40450000Y-32024401D01*
X40450000Y-31815599D01*
X41330000Y-31815599D01*
X41330000Y-32024401D01*
X41370735Y-32229191D01*
X41450640Y-32422098D01*
X41566644Y-32595711D01*
X41714289Y-32743356D01*
X41887902Y-32859360D01*
X42080809Y-32939265D01*
X42285599Y-32980000D01*
X42494401Y-32980000D01*
X42699191Y-32939265D01*
X42892098Y-32859360D01*
X43065711Y-32743356D01*
X43213356Y-32595711D01*
X43329360Y-32422098D01*
X43409265Y-32229191D01*
X43450000Y-32024401D01*
X43450000Y-31815599D01*
X43409265Y-31610809D01*
X43329360Y-31417902D01*
X43213356Y-31244289D01*
X43065711Y-31096644D01*
X42892098Y-30980640D01*
X42699191Y-30900735D01*
X42494401Y-30860000D01*
X42285599Y-30860000D01*
X42080809Y-30900735D01*
X41887902Y-30980640D01*
X41714289Y-31096644D01*
X41566644Y-31244289D01*
X41450640Y-31417902D01*
X41370735Y-31610809D01*
X41330000Y-31815599D01*
X40450000Y-31815599D01*
X40409265Y-31610809D01*
X40329360Y-31417902D01*
X40213356Y-31244289D01*
X40065711Y-31096644D01*
X39892098Y-30980640D01*
X39699191Y-30900735D01*
X39494401Y-30860000D01*
X39285599Y-30860000D01*
X39080809Y-30900735D01*
X38887902Y-30980640D01*
X38714289Y-31096644D01*
X38566644Y-31244289D01*
X38450640Y-31417902D01*
X38370735Y-31610809D01*
X38330000Y-31815599D01*
X34094796Y-31815599D01*
X34245233Y-31665162D01*
X34107276Y-31364956D01*
X33758033Y-31189118D01*
X33381196Y-31084793D01*
X32991247Y-31055991D01*
X32603172Y-31103816D01*
X32231884Y-31226432D01*
X31972724Y-31364956D01*
X31834767Y-31665162D01*
X30685000Y-31665162D01*
X30685000Y-30685000D01*
X122930844Y-30685000D01*
X122899010Y-30761855D01*
%TA.AperFunction,Conductor*%
D26*
G36*
X122899010Y-30761855D02*
G01*
X122865000Y-30932835D01*
X122865000Y-31107165D01*
X122899010Y-31278145D01*
X122965723Y-31439205D01*
X123062576Y-31584155D01*
X123185845Y-31707424D01*
X123330795Y-31804277D01*
X123491855Y-31870990D01*
X123662835Y-31905000D01*
X123837165Y-31905000D01*
X124008145Y-31870990D01*
X124169205Y-31804277D01*
X124314155Y-31707424D01*
X124356417Y-31665162D01*
X125754767Y-31665162D01*
X126960000Y-32870395D01*
X128165233Y-31665162D01*
X128027276Y-31364956D01*
X127678033Y-31189118D01*
X127301196Y-31084793D01*
X126911247Y-31055991D01*
X126523172Y-31103816D01*
X126151884Y-31226432D01*
X125892724Y-31364956D01*
X125754767Y-31665162D01*
X124356417Y-31665162D01*
X124437424Y-31584155D01*
X124534277Y-31439205D01*
X124600990Y-31278145D01*
X124635000Y-31107165D01*
X124635000Y-30932835D01*
X124600990Y-30761855D01*
X124569156Y-30685000D01*
X129315000Y-30685000D01*
X129315000Y-35800573D01*
X129215265Y-35747264D01*
X129024879Y-35689511D01*
X128876493Y-35674896D01*
X119664551Y-35674896D01*
X120784447Y-34555000D01*
X123237047Y-34555000D01*
X123310795Y-34604277D01*
X123471855Y-34670990D01*
X123642835Y-34705000D01*
X123817165Y-34705000D01*
X123988145Y-34670990D01*
X124149205Y-34604277D01*
X124294155Y-34507424D01*
X124366741Y-34434838D01*
X125754767Y-34434838D01*
X125892724Y-34735044D01*
X126241967Y-34910882D01*
X126618804Y-35015207D01*
X127008753Y-35044009D01*
X127396828Y-34996184D01*
X127768116Y-34873568D01*
X128027276Y-34735044D01*
X128165233Y-34434838D01*
X126960000Y-33229605D01*
X125754767Y-34434838D01*
X124366741Y-34434838D01*
X124417424Y-34384155D01*
X124514277Y-34239205D01*
X124580990Y-34078145D01*
X124615000Y-33907165D01*
X124615000Y-33732835D01*
X124580990Y-33561855D01*
X124514277Y-33400795D01*
X124417424Y-33255845D01*
X124294155Y-33132576D01*
X124243536Y-33098753D01*
X124965991Y-33098753D01*
X125013816Y-33486828D01*
X125136432Y-33858116D01*
X125274956Y-34117276D01*
X125575162Y-34255233D01*
X126780395Y-33050000D01*
X127139605Y-33050000D01*
X128344838Y-34255233D01*
X128645044Y-34117276D01*
X128820882Y-33768033D01*
X128925207Y-33391196D01*
X128954009Y-33001247D01*
X128906184Y-32613172D01*
X128783568Y-32241884D01*
X128645044Y-31982724D01*
X128344838Y-31844767D01*
X127139605Y-33050000D01*
X126780395Y-33050000D01*
X125575162Y-31844767D01*
X125274956Y-31982724D01*
X125099118Y-32331967D01*
X124994793Y-32708804D01*
X124965991Y-33098753D01*
X124243536Y-33098753D01*
X124149205Y-33035723D01*
X123988145Y-32969010D01*
X123817165Y-32935000D01*
X123642835Y-32935000D01*
X123471855Y-32969010D01*
X123310795Y-33035723D01*
X123237047Y-33085000D01*
X120934569Y-33085000D01*
X120916549Y-33041496D01*
X120819696Y-32896546D01*
X120696427Y-32773277D01*
X120551477Y-32676424D01*
X120390417Y-32609711D01*
X120219437Y-32575701D01*
X120045107Y-32575701D01*
X119874127Y-32609711D01*
X119713067Y-32676424D01*
X119568117Y-32773277D01*
X119444848Y-32896546D01*
X119347995Y-33041496D01*
X119281282Y-33202556D01*
X119247272Y-33373536D01*
X119247272Y-33547866D01*
X119281282Y-33718846D01*
X119347995Y-33879906D01*
X119361074Y-33899480D01*
X116955554Y-36305000D01*
X116692953Y-36305000D01*
X116619205Y-36255723D01*
X116458145Y-36189010D01*
X116287165Y-36155000D01*
X116112835Y-36155000D01*
X115941855Y-36189010D01*
X115780795Y-36255723D01*
X115635845Y-36352576D01*
X115512576Y-36475845D01*
X115415723Y-36620795D01*
X115349010Y-36781855D01*
X115315000Y-36952835D01*
X115315000Y-37127165D01*
X115349010Y-37298145D01*
X115415723Y-37459205D01*
X115512576Y-37604155D01*
X115635845Y-37727424D01*
X115780795Y-37824277D01*
X115941855Y-37890990D01*
X116112835Y-37925000D01*
X116287165Y-37925000D01*
X116458145Y-37890990D01*
X116619205Y-37824277D01*
X116692953Y-37775000D01*
X116883646Y-37775000D01*
X114877319Y-39781327D01*
X114749205Y-39695723D01*
X114588145Y-39629010D01*
X114417165Y-39595000D01*
X114242835Y-39595000D01*
X114071855Y-39629010D01*
X113910795Y-39695723D01*
X113765845Y-39792576D01*
X113642576Y-39915845D01*
X113545723Y-40060795D01*
X113479010Y-40221855D01*
X113445000Y-40392835D01*
X113445000Y-40567165D01*
X113479010Y-40738145D01*
X113545723Y-40899205D01*
X113631327Y-41027320D01*
X106540901Y-48117746D01*
X106502368Y-48149369D01*
X106470745Y-48187902D01*
X106470744Y-48187903D01*
X106376154Y-48303162D01*
X106282368Y-48478623D01*
X106224615Y-48669008D01*
X106205114Y-48867002D01*
X106210001Y-48916620D01*
X106210000Y-57794597D01*
X106177425Y-57745845D01*
X106054156Y-57622576D01*
X105909206Y-57525723D01*
X105748146Y-57459010D01*
X105577166Y-57425000D01*
X105402836Y-57425000D01*
X105231856Y-57459010D01*
X105070796Y-57525723D01*
X104925846Y-57622576D01*
X104850001Y-57698422D01*
X104764155Y-57612576D01*
X104619205Y-57515723D01*
X104458145Y-57449010D01*
X104287165Y-57415000D01*
X104112835Y-57415000D01*
X103941855Y-57449010D01*
X103780795Y-57515723D01*
X103635845Y-57612576D01*
X103512576Y-57735845D01*
X103454955Y-57822081D01*
X103437424Y-57795845D01*
X103314155Y-57672576D01*
X103169205Y-57575723D01*
X103008145Y-57509010D01*
X102837165Y-57475000D01*
X102662835Y-57475000D01*
X102491855Y-57509010D01*
X102330795Y-57575723D01*
X102185845Y-57672576D01*
X102062576Y-57795845D01*
X101971636Y-57931945D01*
X101907424Y-57835845D01*
X101784155Y-57712576D01*
X101639205Y-57615723D01*
X101478145Y-57549010D01*
X101307165Y-57515000D01*
X101132835Y-57515000D01*
X100961855Y-57549010D01*
X100800795Y-57615723D01*
X100655845Y-57712576D01*
X100532576Y-57835845D01*
X100476659Y-57919530D01*
X100427424Y-57845845D01*
X100304155Y-57722576D01*
X100159205Y-57625723D01*
X99998145Y-57559010D01*
X99827165Y-57525000D01*
X99652835Y-57525000D01*
X99481855Y-57559010D01*
X99320795Y-57625723D01*
X99175845Y-57722576D01*
X99052576Y-57845845D01*
X98955723Y-57990795D01*
X98889010Y-58151855D01*
X98855000Y-58322835D01*
X98855000Y-58497165D01*
X98889010Y-58668145D01*
X98955723Y-58829205D01*
X99003027Y-58900000D01*
X98124091Y-58900000D01*
X92430010Y-53205919D01*
X92430010Y-49135291D01*
X92433445Y-49100414D01*
X92419737Y-48961229D01*
X92379138Y-48827394D01*
X92365154Y-48801231D01*
X92313210Y-48704051D01*
X92224485Y-48595939D01*
X92197389Y-48573702D01*
X86046308Y-42422621D01*
X86024071Y-42395525D01*
X85915959Y-42306800D01*
X85792616Y-42240872D01*
X85658780Y-42200273D01*
X85554473Y-42190000D01*
X85554471Y-42190000D01*
X85519596Y-42186565D01*
X85484721Y-42190000D01*
X79033609Y-42190000D01*
X78997424Y-42135845D01*
X78874155Y-42012576D01*
X78729205Y-41915723D01*
X78568145Y-41849010D01*
X78397165Y-41815000D01*
X78222835Y-41815000D01*
X78051855Y-41849010D01*
X77890795Y-41915723D01*
X77745845Y-42012576D01*
X77622576Y-42135845D01*
X77525723Y-42280795D01*
X77459010Y-42441855D01*
X77425000Y-42612835D01*
X77425000Y-42704986D01*
X77350795Y-42735723D01*
X77205845Y-42832576D01*
X77082576Y-42955845D01*
X76985723Y-43100795D01*
X76919010Y-43261855D01*
X76885000Y-43432835D01*
X76885000Y-43607165D01*
X76919010Y-43778145D01*
X76985723Y-43939205D01*
X77082576Y-44084155D01*
X77205845Y-44207424D01*
X77350795Y-44304277D01*
X77511855Y-44370990D01*
X77618016Y-44392107D01*
X77863288Y-44637379D01*
X77885525Y-44664475D01*
X77993637Y-44753200D01*
X78116980Y-44819128D01*
X78250816Y-44859727D01*
X78355123Y-44870000D01*
X78355125Y-44870000D01*
X78390000Y-44873435D01*
X78424875Y-44870000D01*
X86061227Y-44870000D01*
X86776227Y-45585000D01*
X76254345Y-45585000D01*
X70864345Y-40195000D01*
X86723421Y-40195000D01*
X86702576Y-40215845D01*
X86605723Y-40360795D01*
X86539010Y-40521855D01*
X86505000Y-40692835D01*
X86505000Y-40867165D01*
X86539010Y-41038145D01*
X86605723Y-41199205D01*
X86702576Y-41344155D01*
X86825845Y-41467424D01*
X86970795Y-41564277D01*
X87131855Y-41630990D01*
X87302835Y-41665000D01*
X87477165Y-41665000D01*
X87648145Y-41630990D01*
X87809205Y-41564277D01*
X87954155Y-41467424D01*
X88077424Y-41344155D01*
X88165169Y-41212835D01*
X103415000Y-41212835D01*
X103415000Y-41387165D01*
X103449010Y-41558145D01*
X103515723Y-41719205D01*
X103612576Y-41864155D01*
X103735845Y-41987424D01*
X103880795Y-42084277D01*
X104041855Y-42150990D01*
X104212835Y-42185000D01*
X104387165Y-42185000D01*
X104558145Y-42150990D01*
X104719205Y-42084277D01*
X104864155Y-41987424D01*
X104987424Y-41864155D01*
X105084277Y-41719205D01*
X105150990Y-41558145D01*
X105185000Y-41387165D01*
X105185000Y-41212835D01*
X105150990Y-41041855D01*
X105084277Y-40880795D01*
X104987424Y-40735845D01*
X104864155Y-40612576D01*
X104719205Y-40515723D01*
X104558145Y-40449010D01*
X104387165Y-40415000D01*
X104212835Y-40415000D01*
X104041855Y-40449010D01*
X103880795Y-40515723D01*
X103735845Y-40612576D01*
X103612576Y-40735845D01*
X103515723Y-40880795D01*
X103449010Y-41041855D01*
X103415000Y-41212835D01*
X88165169Y-41212835D01*
X88174277Y-41199205D01*
X88240990Y-41038145D01*
X88275000Y-40867165D01*
X88275000Y-40692835D01*
X88240990Y-40521855D01*
X88216739Y-40463308D01*
X88331855Y-40510990D01*
X88502835Y-40545000D01*
X88677165Y-40545000D01*
X88848145Y-40510990D01*
X89009205Y-40444277D01*
X89154155Y-40347424D01*
X89277424Y-40224155D01*
X89296905Y-40195000D01*
X99463095Y-40195000D01*
X99482576Y-40224155D01*
X99605845Y-40347424D01*
X99750795Y-40444277D01*
X99911855Y-40510990D01*
X100082835Y-40545000D01*
X100257165Y-40545000D01*
X100428145Y-40510990D01*
X100589205Y-40444277D01*
X100734155Y-40347424D01*
X100857424Y-40224155D01*
X100876905Y-40195000D01*
X111305000Y-40195000D01*
X111305000Y-40267165D01*
X111339010Y-40438145D01*
X111405723Y-40599205D01*
X111502576Y-40744155D01*
X111625845Y-40867424D01*
X111770795Y-40964277D01*
X111931855Y-41030990D01*
X112102835Y-41065000D01*
X112277165Y-41065000D01*
X112448145Y-41030990D01*
X112609205Y-40964277D01*
X112754155Y-40867424D01*
X112877424Y-40744155D01*
X112974277Y-40599205D01*
X113040990Y-40438145D01*
X113075000Y-40267165D01*
X113075000Y-40092835D01*
X113073776Y-40086681D01*
X113220982Y-40042026D01*
X113591881Y-39843777D01*
X113916977Y-39576977D01*
X114183777Y-39251881D01*
X114382026Y-38880982D01*
X114504108Y-38478533D01*
X114545330Y-38060000D01*
X114504108Y-37641467D01*
X114382026Y-37239018D01*
X114183777Y-36868119D01*
X113916977Y-36543023D01*
X113591881Y-36276223D01*
X113220982Y-36077974D01*
X112818533Y-35955892D01*
X112504882Y-35925000D01*
X77936579Y-35925000D01*
X77884155Y-35872576D01*
X77739205Y-35775723D01*
X77578145Y-35709010D01*
X77407165Y-35675000D01*
X77232835Y-35675000D01*
X77061855Y-35709010D01*
X76900795Y-35775723D01*
X76755845Y-35872576D01*
X76703421Y-35925000D01*
X65814872Y-35925000D01*
X65710000Y-35914671D01*
X65605128Y-35925000D01*
X62084871Y-35925000D01*
X61979999Y-35914671D01*
X61875127Y-35925000D01*
X61875118Y-35925000D01*
X61561467Y-35955892D01*
X61159018Y-36077974D01*
X60788119Y-36276223D01*
X60716338Y-36335132D01*
X60544489Y-36476165D01*
X60544487Y-36476167D01*
X60463023Y-36543023D01*
X60396167Y-36624487D01*
X56326140Y-40694514D01*
X56250795Y-40725723D01*
X56105845Y-40822576D01*
X55982576Y-40945845D01*
X55885723Y-41090795D01*
X55854514Y-41166140D01*
X48055655Y-48965000D01*
X47494481Y-48965000D01*
X47370599Y-48977201D01*
X47251477Y-49013336D01*
X47141694Y-49072017D01*
X47045468Y-49150987D01*
X46966498Y-49247213D01*
X46907817Y-49356996D01*
X46871682Y-49476118D01*
X46859481Y-49600000D01*
X46868825Y-49694873D01*
X46859499Y-50935226D01*
X46864245Y-51017638D01*
X46891501Y-51139099D01*
X46941930Y-51252909D01*
X47013592Y-51354694D01*
X47103735Y-51440542D01*
X47208894Y-51507155D01*
X47275000Y-51532666D01*
X47275000Y-52655128D01*
X47264671Y-52760000D01*
X47275000Y-52864872D01*
X47275000Y-52864882D01*
X47305892Y-53178533D01*
X47390322Y-53456857D01*
X47427975Y-53580982D01*
X47626224Y-53951881D01*
X47826165Y-54195510D01*
X47826168Y-54195513D01*
X47893024Y-54276977D01*
X47974487Y-54343832D01*
X52865000Y-59234346D01*
X52865000Y-60424882D01*
X52895892Y-60738533D01*
X53017975Y-61140982D01*
X53216224Y-61511881D01*
X53365000Y-61693165D01*
X53365000Y-62945553D01*
X41370001Y-50950555D01*
X41370001Y-44637835D01*
X42232502Y-44637835D01*
X42232502Y-44812165D01*
X42266512Y-44983145D01*
X42314915Y-45100000D01*
X42266512Y-45216855D01*
X42232502Y-45387835D01*
X42232502Y-45562165D01*
X42266512Y-45733145D01*
X42333225Y-45894205D01*
X42430078Y-46039155D01*
X42553347Y-46162424D01*
X42698297Y-46259277D01*
X42859357Y-46325990D01*
X43030337Y-46360000D01*
X43204667Y-46360000D01*
X43375647Y-46325990D01*
X43536707Y-46259277D01*
X43681657Y-46162424D01*
X43804926Y-46039155D01*
X43901779Y-45894205D01*
X43968492Y-45733145D01*
X44002502Y-45562165D01*
X44002502Y-45387835D01*
X43968492Y-45216855D01*
X43920089Y-45100000D01*
X43968492Y-44983145D01*
X44002502Y-44812165D01*
X44002502Y-44637835D01*
X43968492Y-44466855D01*
X43901779Y-44305795D01*
X43804926Y-44160845D01*
X43681657Y-44037576D01*
X43536707Y-43940723D01*
X43375647Y-43874010D01*
X43204667Y-43840000D01*
X43030337Y-43840000D01*
X42859357Y-43874010D01*
X42698297Y-43940723D01*
X42553347Y-44037576D01*
X42430078Y-44160845D01*
X42333225Y-44305795D01*
X42266512Y-44466855D01*
X42232502Y-44637835D01*
X41370001Y-44637835D01*
X41370001Y-43851106D01*
X41373557Y-43815001D01*
X41359366Y-43670916D01*
X41317338Y-43532368D01*
X41286288Y-43474277D01*
X41278357Y-43459440D01*
X41250990Y-43321855D01*
X41184277Y-43160795D01*
X41087424Y-43015845D01*
X40964155Y-42892576D01*
X40819205Y-42795723D01*
X40658145Y-42729010D01*
X40487165Y-42695000D01*
X40312835Y-42695000D01*
X40141855Y-42729010D01*
X39980795Y-42795723D01*
X39835845Y-42892576D01*
X39712576Y-43015845D01*
X39615723Y-43160795D01*
X39549010Y-43321855D01*
X39515000Y-43492835D01*
X39515000Y-43667165D01*
X39549010Y-43838145D01*
X39615723Y-43999205D01*
X39712576Y-44144155D01*
X39835845Y-44267424D01*
X39900002Y-44310293D01*
X39900001Y-51218896D01*
X39896445Y-51255001D01*
X39900001Y-51291105D01*
X39910636Y-51399085D01*
X39952664Y-51537633D01*
X40020914Y-51665320D01*
X40112763Y-51777238D01*
X40140809Y-51800255D01*
X52215002Y-63874449D01*
X52215001Y-71778007D01*
X52096449Y-71633551D01*
X51923623Y-71491716D01*
X51726446Y-71386324D01*
X51512498Y-71321423D01*
X51290000Y-71299509D01*
X51067501Y-71321423D01*
X50853553Y-71386324D01*
X50656377Y-71491716D01*
X50483551Y-71633551D01*
X50448004Y-71676865D01*
X50016860Y-72108009D01*
X49973552Y-72143551D01*
X49831717Y-72316377D01*
X49726324Y-72513553D01*
X49661423Y-72727501D01*
X49648573Y-72857972D01*
X49639509Y-72950000D01*
X49645000Y-73005751D01*
X49645000Y-73484249D01*
X49639509Y-73540000D01*
X49653325Y-73680273D01*
X49661423Y-73762498D01*
X49726324Y-73976446D01*
X49831716Y-74173623D01*
X49973551Y-74346449D01*
X50146377Y-74488284D01*
X50343553Y-74593676D01*
X50557501Y-74658577D01*
X50780000Y-74680491D01*
X51002498Y-74658577D01*
X51014290Y-74655000D01*
X51944248Y-74655000D01*
X52000000Y-74660491D01*
X52075866Y-74653019D01*
X52215001Y-74639315D01*
X52215001Y-75533885D01*
X52225636Y-75641865D01*
X52267664Y-75780413D01*
X52335914Y-75908100D01*
X52427763Y-76020018D01*
X52539681Y-76111868D01*
X52659280Y-76175795D01*
X54315872Y-77832387D01*
X54338109Y-77859483D01*
X54446221Y-77948208D01*
X54548421Y-78002835D01*
X54569564Y-78014136D01*
X54654825Y-78040000D01*
X50778881Y-78040000D01*
X44955791Y-72216910D01*
X44933554Y-72189814D01*
X44825442Y-72101089D01*
X44702099Y-72035161D01*
X44568263Y-71994562D01*
X44463956Y-71984289D01*
X44463954Y-71984289D01*
X44429079Y-71980854D01*
X44394204Y-71984289D01*
X41400497Y-71984289D01*
X41407137Y-71858467D01*
X41408841Y-71841185D01*
X41410003Y-60107647D01*
X41409159Y-60099066D01*
X41408236Y-60063592D01*
X41403763Y-60027630D01*
X41402385Y-59991417D01*
X41401074Y-59982296D01*
X41367884Y-59762296D01*
X41353236Y-59704321D01*
X41339390Y-59646105D01*
X41336332Y-59637412D01*
X41261043Y-59428049D01*
X41235404Y-59374003D01*
X41210522Y-59319603D01*
X41205834Y-59311670D01*
X41091313Y-59120918D01*
X41055674Y-59072894D01*
X41020692Y-59024352D01*
X41014552Y-59017480D01*
X40865162Y-58852605D01*
X40820864Y-58812409D01*
X40777129Y-58771595D01*
X40769771Y-58766047D01*
X40591201Y-58633327D01*
X40539925Y-58602492D01*
X40489107Y-58570958D01*
X40480812Y-58566944D01*
X40279865Y-58471438D01*
X40223591Y-58451155D01*
X40167605Y-58430088D01*
X40158689Y-58427762D01*
X39943018Y-58373105D01*
X39883831Y-58364132D01*
X39824861Y-58354347D01*
X39815664Y-58353797D01*
X39815662Y-58353797D01*
X39608539Y-58342867D01*
X39591327Y-58341166D01*
X35857789Y-58339990D01*
X35849136Y-58340840D01*
X35813592Y-58341764D01*
X35777630Y-58346237D01*
X35741417Y-58347615D01*
X35732296Y-58348926D01*
X35512296Y-58382116D01*
X35454321Y-58396764D01*
X35396105Y-58410610D01*
X35387412Y-58413668D01*
X35178049Y-58488957D01*
X35124003Y-58514596D01*
X35069603Y-58539478D01*
X35061670Y-58544166D01*
X34870918Y-58658687D01*
X34822894Y-58694326D01*
X34774352Y-58729308D01*
X34767480Y-58735448D01*
X34602605Y-58884838D01*
X34562409Y-58929136D01*
X34521595Y-58972871D01*
X34516047Y-58980229D01*
X34383327Y-59158799D01*
X34352492Y-59210075D01*
X34320958Y-59260893D01*
X34316944Y-59269188D01*
X34221438Y-59470135D01*
X34201155Y-59526409D01*
X34180088Y-59582395D01*
X34177762Y-59591311D01*
X34123105Y-59806982D01*
X34114132Y-59866169D01*
X34104347Y-59925139D01*
X34103797Y-59934338D01*
X34092863Y-60141532D01*
X34091159Y-60158815D01*
X34089997Y-71892353D01*
X34090841Y-71900934D01*
X34091764Y-71936408D01*
X34096237Y-71972371D01*
X34097615Y-72008582D01*
X34098926Y-72017704D01*
X34132116Y-72237703D01*
X34146762Y-72295670D01*
X34160610Y-72353895D01*
X34163668Y-72362588D01*
X34238957Y-72571951D01*
X34264596Y-72625997D01*
X34289478Y-72680397D01*
X34294166Y-72688330D01*
X34408687Y-72879082D01*
X34444317Y-72927094D01*
X34479308Y-72975649D01*
X34485448Y-72982520D01*
X34634839Y-73147396D01*
X34679117Y-73187574D01*
X34722871Y-73228406D01*
X34730229Y-73233954D01*
X34908799Y-73366673D01*
X34960057Y-73397497D01*
X35010892Y-73429042D01*
X35019188Y-73433056D01*
X35220134Y-73528561D01*
X35276375Y-73548832D01*
X35332394Y-73569912D01*
X35341311Y-73572238D01*
X35556982Y-73626895D01*
X35616169Y-73635868D01*
X35675139Y-73645653D01*
X35684336Y-73646203D01*
X35684338Y-73646203D01*
X35891462Y-73657134D01*
X35908673Y-73658834D01*
X39642211Y-73660010D01*
X39650864Y-73659160D01*
X39686408Y-73658236D01*
X39722371Y-73653763D01*
X39758582Y-73652385D01*
X39767704Y-73651074D01*
X39987703Y-73617884D01*
X40045670Y-73603238D01*
X40103895Y-73589390D01*
X40112588Y-73586332D01*
X40124140Y-73582178D01*
X40173674Y-73631712D01*
X40318624Y-73728565D01*
X40479684Y-73795278D01*
X40650664Y-73829288D01*
X40824994Y-73829288D01*
X40995974Y-73795278D01*
X41157034Y-73728565D01*
X41301984Y-73631712D01*
X41331759Y-73601937D01*
X41327974Y-73609018D01*
X41205892Y-74011467D01*
X41164670Y-74430000D01*
X41205892Y-74848533D01*
X41327974Y-75250982D01*
X41521705Y-75613428D01*
X41586324Y-75826447D01*
X41691717Y-76023623D01*
X41833552Y-76196449D01*
X41850032Y-76209974D01*
X41863552Y-76226448D01*
X41906855Y-76261986D01*
X41906857Y-76261988D01*
X42036377Y-76368283D01*
X42118215Y-76412026D01*
X42233554Y-76473676D01*
X42447502Y-76538577D01*
X42670000Y-76560491D01*
X42735769Y-76554013D01*
X42685507Y-76675358D01*
X42651497Y-76846338D01*
X42651497Y-77020668D01*
X42685507Y-77191648D01*
X42752220Y-77352708D01*
X42849073Y-77497658D01*
X42949424Y-77598009D01*
X42870719Y-77715799D01*
X42804006Y-77876859D01*
X42769996Y-78047839D01*
X42769996Y-78222169D01*
X42804006Y-78393149D01*
X42870719Y-78554209D01*
X42967572Y-78699159D01*
X43018413Y-78750000D01*
X42910392Y-78750000D01*
X42762006Y-78764615D01*
X42571620Y-78822368D01*
X42396160Y-78916153D01*
X42242367Y-79042367D01*
X42116153Y-79196160D01*
X42022368Y-79371620D01*
X41964615Y-79562006D01*
X41945114Y-79760000D01*
X41964615Y-79957994D01*
X42022368Y-80148380D01*
X42116153Y-80323840D01*
X42242367Y-80477633D01*
X42396160Y-80603847D01*
X42515039Y-80667389D01*
X42566322Y-80836444D01*
X42671714Y-81033621D01*
X42813549Y-81206447D01*
X42856863Y-81241994D01*
X43422851Y-81807982D01*
X43310746Y-81854417D01*
X43165796Y-81951270D01*
X43042527Y-82074539D01*
X42945674Y-82219489D01*
X42878961Y-82380549D01*
X42844951Y-82551529D01*
X42844951Y-82725859D01*
X42878961Y-82896839D01*
X42945674Y-83057899D01*
X43042527Y-83202849D01*
X43165796Y-83326118D01*
X43310746Y-83422971D01*
X43471806Y-83489684D01*
X43642786Y-83523694D01*
X43817116Y-83523694D01*
X43988096Y-83489684D01*
X44149156Y-83422971D01*
X44176844Y-83404471D01*
X44191423Y-83552499D01*
X44256324Y-83766447D01*
X44361716Y-83963623D01*
X44503551Y-84136449D01*
X44676377Y-84278284D01*
X44873553Y-84383676D01*
X45087501Y-84448577D01*
X45254248Y-84465000D01*
X45254249Y-84465000D01*
X45310000Y-84470491D01*
X45365751Y-84465000D01*
X46594249Y-84465000D01*
X46650000Y-84470491D01*
X46705751Y-84465000D01*
X46705752Y-84465000D01*
X46872499Y-84448577D01*
X46884291Y-84445000D01*
X47739869Y-84445000D01*
X47961645Y-84666776D01*
X47852576Y-84775845D01*
X47755723Y-84920795D01*
X47689010Y-85081855D01*
X47655000Y-85252835D01*
X47655000Y-85427165D01*
X47689010Y-85598145D01*
X47755723Y-85759205D01*
X47852576Y-85904155D01*
X47975845Y-86027424D01*
X48120795Y-86124277D01*
X48281855Y-86190990D01*
X48452835Y-86225000D01*
X48627165Y-86225000D01*
X48798145Y-86190990D01*
X48959205Y-86124277D01*
X49104155Y-86027424D01*
X49213850Y-85917729D01*
X49292849Y-85982561D01*
X49336377Y-86018284D01*
X49533553Y-86123676D01*
X49747501Y-86188577D01*
X49970000Y-86210491D01*
X50025752Y-86205000D01*
X52883254Y-86205000D01*
X52884188Y-86214482D01*
X52914680Y-86315000D01*
X30685000Y-86315000D01*
X30685000Y-85294838D01*
X31834767Y-85294838D01*
X31972724Y-85595044D01*
X32321967Y-85770882D01*
X32698804Y-85875207D01*
X33088753Y-85904009D01*
X33476828Y-85856184D01*
X33848116Y-85733568D01*
X34107276Y-85595044D01*
X34245233Y-85294838D01*
X33040000Y-84089605D01*
X31834767Y-85294838D01*
X30685000Y-85294838D01*
X30685000Y-83958753D01*
X31045991Y-83958753D01*
X31093816Y-84346828D01*
X31216432Y-84718116D01*
X31354956Y-84977276D01*
X31655162Y-85115233D01*
X32860395Y-83910000D01*
X33219605Y-83910000D01*
X34424838Y-85115233D01*
X34725044Y-84977276D01*
X34900882Y-84628033D01*
X35005207Y-84251196D01*
X35005824Y-84242835D01*
X38665000Y-84242835D01*
X38665000Y-84417165D01*
X38699010Y-84588145D01*
X38765723Y-84749205D01*
X38862576Y-84894155D01*
X38985845Y-85017424D01*
X39130795Y-85114277D01*
X39291855Y-85180990D01*
X39462835Y-85215000D01*
X39637165Y-85215000D01*
X39808145Y-85180990D01*
X39969205Y-85114277D01*
X40114155Y-85017424D01*
X40237424Y-84894155D01*
X40334277Y-84749205D01*
X40400990Y-84588145D01*
X40435000Y-84417165D01*
X40435000Y-84242835D01*
X40400990Y-84071855D01*
X40334277Y-83910795D01*
X40237424Y-83765845D01*
X40114155Y-83642576D01*
X39969205Y-83545723D01*
X39808145Y-83479010D01*
X39637165Y-83445000D01*
X39462835Y-83445000D01*
X39291855Y-83479010D01*
X39130795Y-83545723D01*
X38985845Y-83642576D01*
X38862576Y-83765845D01*
X38765723Y-83910795D01*
X38699010Y-84071855D01*
X38665000Y-84242835D01*
X35005824Y-84242835D01*
X35034009Y-83861247D01*
X34986184Y-83473172D01*
X34863568Y-83101884D01*
X34725044Y-82842724D01*
X34424838Y-82704767D01*
X33219605Y-83910000D01*
X32860395Y-83910000D01*
X31655162Y-82704767D01*
X31354956Y-82842724D01*
X31179118Y-83191967D01*
X31074793Y-83568804D01*
X31045991Y-83958753D01*
X30685000Y-83958753D01*
X30685000Y-82525162D01*
X31834767Y-82525162D01*
X33040000Y-83730395D01*
X34245233Y-82525162D01*
X34107276Y-82224956D01*
X33758033Y-82049118D01*
X33381196Y-81944793D01*
X32991247Y-81915991D01*
X32603172Y-81963816D01*
X32231884Y-82086432D01*
X31972724Y-82224956D01*
X31834767Y-82525162D01*
X30685000Y-82525162D01*
X30685000Y-57896579D01*
X30715845Y-57927424D01*
X30860795Y-58024277D01*
X31021855Y-58090990D01*
X31192835Y-58125000D01*
X31211840Y-58125000D01*
X31256979Y-58149127D01*
X31390815Y-58189726D01*
X31495122Y-58199999D01*
X31495124Y-58199999D01*
X31529999Y-58203434D01*
X31564874Y-58199999D01*
X34432124Y-58199999D01*
X34466999Y-58203434D01*
X34501874Y-58199999D01*
X34501876Y-58199999D01*
X34606183Y-58189726D01*
X34740019Y-58149127D01*
X34863362Y-58083199D01*
X34931002Y-58027688D01*
X34970795Y-58054277D01*
X35131855Y-58120990D01*
X35302835Y-58155000D01*
X35477165Y-58155000D01*
X35648145Y-58120990D01*
X35809205Y-58054277D01*
X35920368Y-57980000D01*
X41875909Y-57980000D01*
X46043288Y-62147379D01*
X46065525Y-62174475D01*
X46173637Y-62263200D01*
X46296980Y-62329128D01*
X46430816Y-62369727D01*
X46535123Y-62380000D01*
X46535125Y-62380000D01*
X46570000Y-62383435D01*
X46604875Y-62380000D01*
X46729632Y-62380000D01*
X46840795Y-62454277D01*
X47001855Y-62520990D01*
X47172835Y-62555000D01*
X47347165Y-62555000D01*
X47518145Y-62520990D01*
X47679205Y-62454277D01*
X47824155Y-62357424D01*
X47947424Y-62234155D01*
X48044277Y-62089205D01*
X48110990Y-61928145D01*
X48145000Y-61757165D01*
X48145000Y-61582835D01*
X48110990Y-61411855D01*
X48044277Y-61250795D01*
X47947424Y-61105845D01*
X47928791Y-61087212D01*
X47994277Y-60989205D01*
X48060990Y-60828145D01*
X48095000Y-60657165D01*
X48095000Y-60482835D01*
X48060990Y-60311855D01*
X47994277Y-60150795D01*
X47897424Y-60005845D01*
X47774155Y-59882576D01*
X47629205Y-59785723D01*
X47468145Y-59719010D01*
X47297165Y-59685000D01*
X47122835Y-59685000D01*
X46986258Y-59712167D01*
X43291701Y-56017610D01*
X43269464Y-55990514D01*
X43161352Y-55901789D01*
X43038009Y-55835861D01*
X42904173Y-55795262D01*
X42799866Y-55784989D01*
X42799864Y-55784989D01*
X42764989Y-55781554D01*
X42730114Y-55784989D01*
X34829888Y-55784989D01*
X34795011Y-55781554D01*
X34655826Y-55795262D01*
X34609863Y-55809205D01*
X34521991Y-55835861D01*
X34398648Y-55901789D01*
X34290536Y-55990514D01*
X34268299Y-56017610D01*
X33985909Y-56300000D01*
X33503653Y-56300000D01*
X33520990Y-56258145D01*
X33555000Y-56087165D01*
X33555000Y-55912835D01*
X33520990Y-55741855D01*
X33454277Y-55580795D01*
X33357424Y-55435845D01*
X33234155Y-55312576D01*
X33089205Y-55215723D01*
X32928145Y-55149010D01*
X32757165Y-55115000D01*
X32582835Y-55115000D01*
X32411855Y-55149010D01*
X32250795Y-55215723D01*
X32105845Y-55312576D01*
X31982576Y-55435845D01*
X31885723Y-55580795D01*
X31819010Y-55741855D01*
X31785000Y-55912835D01*
X31785000Y-56087165D01*
X31798247Y-56153760D01*
X31771855Y-56159010D01*
X31610795Y-56225723D01*
X31465845Y-56322576D01*
X31422428Y-56365993D01*
X31367165Y-56355000D01*
X31192835Y-56355000D01*
X31021855Y-56389010D01*
X30860795Y-56455723D01*
X30715845Y-56552576D01*
X30685000Y-56583421D01*
X30685000Y-52135838D01*
X30752236Y-52217764D01*
X30762260Y-52225990D01*
X30825723Y-52379205D01*
X30922576Y-52524155D01*
X31045845Y-52647424D01*
X31190795Y-52744277D01*
X31351855Y-52810990D01*
X31522835Y-52845000D01*
X31697165Y-52845000D01*
X31868145Y-52810990D01*
X32029205Y-52744277D01*
X32174155Y-52647424D01*
X32297424Y-52524155D01*
X32394277Y-52379205D01*
X32460990Y-52218145D01*
X32495000Y-52047165D01*
X32495000Y-51872835D01*
X32493011Y-51862835D01*
X35115000Y-51862835D01*
X35115000Y-52037165D01*
X35149010Y-52208145D01*
X35215723Y-52369205D01*
X35312576Y-52514155D01*
X35435845Y-52637424D01*
X35580795Y-52734277D01*
X35741855Y-52800990D01*
X35912835Y-52835000D01*
X36087165Y-52835000D01*
X36258145Y-52800990D01*
X36419205Y-52734277D01*
X36564155Y-52637424D01*
X36687424Y-52514155D01*
X36784277Y-52369205D01*
X36850990Y-52208145D01*
X36885000Y-52037165D01*
X36885000Y-51862835D01*
X36850990Y-51691855D01*
X36784277Y-51530795D01*
X36687424Y-51385845D01*
X36564155Y-51262576D01*
X36419205Y-51165723D01*
X36258145Y-51099010D01*
X36087165Y-51065000D01*
X35912835Y-51065000D01*
X35741855Y-51099010D01*
X35580795Y-51165723D01*
X35435845Y-51262576D01*
X35312576Y-51385845D01*
X35215723Y-51530795D01*
X35149010Y-51691855D01*
X35115000Y-51862835D01*
X32493011Y-51862835D01*
X32460990Y-51701855D01*
X32394277Y-51540795D01*
X32297424Y-51395845D01*
X32192662Y-51291083D01*
X32160990Y-51131855D01*
X32094277Y-50970795D01*
X31997424Y-50825845D01*
X31874155Y-50702576D01*
X31729205Y-50605723D01*
X31568145Y-50539010D01*
X31397165Y-50505000D01*
X31222835Y-50505000D01*
X31051855Y-50539010D01*
X30890795Y-50605723D01*
X30745845Y-50702576D01*
X30685000Y-50763421D01*
X30685000Y-49625673D01*
X30717298Y-49717197D01*
X30832986Y-49897408D01*
X30981609Y-50051587D01*
X31157455Y-50173809D01*
X31353767Y-50259376D01*
X31563000Y-50305000D01*
X31963000Y-50305000D01*
X31963000Y-49347000D01*
X32217000Y-49347000D01*
X32217000Y-50305000D01*
X32617000Y-50305000D01*
X32826233Y-50259376D01*
X33022545Y-50173809D01*
X33198391Y-50051587D01*
X33347014Y-49897408D01*
X33462702Y-49717197D01*
X33534408Y-49514001D01*
X34665592Y-49514001D01*
X34737298Y-49717197D01*
X34852986Y-49897408D01*
X35001609Y-50051587D01*
X35177455Y-50173809D01*
X35373767Y-50259376D01*
X35583000Y-50305000D01*
X36133000Y-50305000D01*
X36133000Y-49347000D01*
X36387000Y-49347000D01*
X36387000Y-50305000D01*
X36937000Y-50305000D01*
X37146233Y-50259376D01*
X37342545Y-50173809D01*
X37518391Y-50051587D01*
X37667014Y-49897408D01*
X37782702Y-49717197D01*
X37854408Y-49514001D01*
X37727502Y-49347000D01*
X36387000Y-49347000D01*
X36133000Y-49347000D01*
X34792498Y-49347000D01*
X34665592Y-49514001D01*
X33534408Y-49514001D01*
X33407502Y-49347000D01*
X32217000Y-49347000D01*
X31963000Y-49347000D01*
X31943000Y-49347000D01*
X31943000Y-49093000D01*
X31963000Y-49093000D01*
X31963000Y-48135000D01*
X32217000Y-48135000D01*
X32217000Y-49093000D01*
X33407502Y-49093000D01*
X33534408Y-48925999D01*
X33462702Y-48722803D01*
X33347014Y-48542592D01*
X33198391Y-48388413D01*
X33022545Y-48266191D01*
X32826233Y-48180624D01*
X32617000Y-48135000D01*
X32217000Y-48135000D01*
X31963000Y-48135000D01*
X31563000Y-48135000D01*
X31353767Y-48180624D01*
X31157455Y-48266191D01*
X30981609Y-48388413D01*
X30832986Y-48542592D01*
X30717298Y-48722803D01*
X30685000Y-48814327D01*
X30685000Y-40985673D01*
X30717298Y-41077197D01*
X30832986Y-41257408D01*
X30981609Y-41411587D01*
X31157455Y-41533809D01*
X31353767Y-41619376D01*
X31563000Y-41665000D01*
X31963000Y-41665000D01*
X31963000Y-40707000D01*
X32217000Y-40707000D01*
X32217000Y-41665000D01*
X32617000Y-41665000D01*
X32826233Y-41619376D01*
X33022545Y-41533809D01*
X33198391Y-41411587D01*
X33347014Y-41257408D01*
X33462702Y-41077197D01*
X33534408Y-40874001D01*
X34665592Y-40874001D01*
X34737298Y-41077197D01*
X34852986Y-41257408D01*
X35001609Y-41411587D01*
X35038294Y-41437085D01*
X34951414Y-41567111D01*
X34880932Y-41737271D01*
X34845000Y-41917911D01*
X34845000Y-42102089D01*
X34880932Y-42282729D01*
X34951414Y-42452889D01*
X35053738Y-42606028D01*
X35183972Y-42736262D01*
X35337111Y-42838586D01*
X35507271Y-42909068D01*
X35635001Y-42934475D01*
X35635000Y-46464248D01*
X35629509Y-46520000D01*
X35635000Y-46575751D01*
X35651423Y-46742498D01*
X35685685Y-46855443D01*
X35507271Y-46890932D01*
X35337111Y-46961414D01*
X35183972Y-47063738D01*
X35053738Y-47193972D01*
X34951414Y-47347111D01*
X34880932Y-47517271D01*
X34845000Y-47697911D01*
X34845000Y-47882089D01*
X34880932Y-48062729D01*
X34951414Y-48232889D01*
X35038294Y-48362915D01*
X35001609Y-48388413D01*
X34852986Y-48542592D01*
X34737298Y-48722803D01*
X34665592Y-48925999D01*
X34792498Y-49093000D01*
X36133000Y-49093000D01*
X36133000Y-49073000D01*
X36387000Y-49073000D01*
X36387000Y-49093000D01*
X37727502Y-49093000D01*
X37854408Y-48925999D01*
X37782702Y-48722803D01*
X37667014Y-48542592D01*
X37634676Y-48509046D01*
X37675752Y-48505000D01*
X38305752Y-48505000D01*
X38472499Y-48488577D01*
X38686447Y-48423676D01*
X38883623Y-48318284D01*
X39056449Y-48176449D01*
X39198284Y-48003623D01*
X39303676Y-47806447D01*
X39368577Y-47592499D01*
X39390491Y-47370000D01*
X39368577Y-47147501D01*
X39303676Y-46933553D01*
X39198284Y-46736377D01*
X39056449Y-46563551D01*
X38910227Y-46443549D01*
X39024155Y-46367424D01*
X39147424Y-46244155D01*
X39244277Y-46099205D01*
X39310990Y-45938145D01*
X39345000Y-45767165D01*
X39345000Y-45592835D01*
X39310990Y-45421855D01*
X39244277Y-45260795D01*
X39147424Y-45115845D01*
X39118872Y-45087293D01*
X39124277Y-45079205D01*
X39190990Y-44918145D01*
X39225000Y-44747165D01*
X39225000Y-44572835D01*
X39190990Y-44401855D01*
X39124277Y-44240795D01*
X39027424Y-44095845D01*
X38904155Y-43972576D01*
X38759205Y-43875723D01*
X38598145Y-43809010D01*
X38427165Y-43775000D01*
X38252835Y-43775000D01*
X38081855Y-43809010D01*
X37920795Y-43875723D01*
X37905000Y-43886277D01*
X37905000Y-42645780D01*
X39553141Y-40997640D01*
X39596449Y-40962098D01*
X39738284Y-40789272D01*
X39843676Y-40592096D01*
X39908577Y-40378148D01*
X39925000Y-40211401D01*
X39925000Y-40211392D01*
X39930490Y-40155650D01*
X39925000Y-40099908D01*
X39925000Y-39114249D01*
X39908577Y-38947501D01*
X39843676Y-38733553D01*
X39738284Y-38536377D01*
X39596449Y-38363551D01*
X39423623Y-38221716D01*
X39226447Y-38116324D01*
X39012499Y-38051423D01*
X38790000Y-38029509D01*
X38567502Y-38051423D01*
X38353554Y-38116324D01*
X38156378Y-38221716D01*
X37983552Y-38363551D01*
X37841717Y-38536377D01*
X37736324Y-38733553D01*
X37671423Y-38947501D01*
X37655000Y-39114248D01*
X37655000Y-39685517D01*
X37554571Y-39785946D01*
X37518391Y-39748413D01*
X37342545Y-39626191D01*
X37146233Y-39540624D01*
X36937000Y-39495000D01*
X36387000Y-39495000D01*
X36387000Y-40453000D01*
X36407000Y-40453000D01*
X36407000Y-40707000D01*
X36387000Y-40707000D01*
X36387000Y-40727000D01*
X36133000Y-40727000D01*
X36133000Y-40707000D01*
X34792498Y-40707000D01*
X34665592Y-40874001D01*
X33534408Y-40874001D01*
X33407502Y-40707000D01*
X32217000Y-40707000D01*
X31963000Y-40707000D01*
X31943000Y-40707000D01*
X31943000Y-40453000D01*
X31963000Y-40453000D01*
X31963000Y-39495000D01*
X32217000Y-39495000D01*
X32217000Y-40453000D01*
X33407502Y-40453000D01*
X33534408Y-40285999D01*
X34665592Y-40285999D01*
X34792498Y-40453000D01*
X36133000Y-40453000D01*
X36133000Y-39495000D01*
X35583000Y-39495000D01*
X35373767Y-39540624D01*
X35177455Y-39626191D01*
X35001609Y-39748413D01*
X34852986Y-39902592D01*
X34737298Y-40082803D01*
X34665592Y-40285999D01*
X33534408Y-40285999D01*
X33462702Y-40082803D01*
X33347014Y-39902592D01*
X33198391Y-39748413D01*
X33022545Y-39626191D01*
X32826233Y-39540624D01*
X32617000Y-39495000D01*
X32217000Y-39495000D01*
X31963000Y-39495000D01*
X31563000Y-39495000D01*
X31353767Y-39540624D01*
X31157455Y-39626191D01*
X30981609Y-39748413D01*
X30832986Y-39902592D01*
X30717298Y-40082803D01*
X30685000Y-40174327D01*
X30685000Y-36108621D01*
X40964137Y-36108621D01*
X40964137Y-36282951D01*
X40998147Y-36453931D01*
X41064860Y-36614991D01*
X41161713Y-36759941D01*
X41284982Y-36883210D01*
X41429932Y-36980063D01*
X41590992Y-37046776D01*
X41761972Y-37080786D01*
X41936302Y-37080786D01*
X42107282Y-37046776D01*
X42145885Y-37030786D01*
X45186823Y-37030786D01*
X46070239Y-37914202D01*
X45973552Y-37993551D01*
X45831716Y-38166377D01*
X45726324Y-38363553D01*
X45680606Y-38514263D01*
X45646865Y-38548004D01*
X45603551Y-38583551D01*
X45568004Y-38626865D01*
X45488012Y-38706857D01*
X45381717Y-38836378D01*
X45276324Y-39033554D01*
X45211423Y-39247502D01*
X45189509Y-39470000D01*
X45211423Y-39692498D01*
X45276324Y-39906446D01*
X45381717Y-40103622D01*
X45523552Y-40276448D01*
X45696378Y-40418283D01*
X45893554Y-40523676D01*
X46107502Y-40588577D01*
X46330000Y-40610491D01*
X46552498Y-40588577D01*
X46762081Y-40525000D01*
X47065752Y-40525000D01*
X47232499Y-40508577D01*
X47446447Y-40443676D01*
X47643623Y-40338284D01*
X47816449Y-40196449D01*
X47958284Y-40023623D01*
X48010764Y-39925439D01*
X48130833Y-40045508D01*
X48275783Y-40142361D01*
X48436843Y-40209074D01*
X48607823Y-40243084D01*
X48782153Y-40243084D01*
X48953133Y-40209074D01*
X49114193Y-40142361D01*
X49259143Y-40045508D01*
X49382412Y-39922239D01*
X49479265Y-39777289D01*
X49545978Y-39616229D01*
X49579988Y-39445249D01*
X49579988Y-39270919D01*
X49545978Y-39099939D01*
X49479265Y-38938879D01*
X49382412Y-38793929D01*
X49259143Y-38670660D01*
X49114193Y-38573807D01*
X49075590Y-38557817D01*
X46152136Y-35634365D01*
X46125981Y-35602495D01*
X45998836Y-35498150D01*
X45853777Y-35420614D01*
X45696379Y-35372868D01*
X45573709Y-35360786D01*
X45573708Y-35360786D01*
X45532690Y-35356746D01*
X45491672Y-35360786D01*
X42145885Y-35360786D01*
X42107282Y-35344796D01*
X41936302Y-35310786D01*
X41761972Y-35310786D01*
X41590992Y-35344796D01*
X41429932Y-35411509D01*
X41284982Y-35508362D01*
X41161713Y-35631631D01*
X41064860Y-35776581D01*
X40998147Y-35937641D01*
X40964137Y-36108621D01*
X30685000Y-36108621D01*
X30685000Y-35132835D01*
X39265000Y-35132835D01*
X39265000Y-35307165D01*
X39299010Y-35478145D01*
X39365723Y-35639205D01*
X39462576Y-35784155D01*
X39585845Y-35907424D01*
X39730795Y-36004277D01*
X39891855Y-36070990D01*
X40062835Y-36105000D01*
X40237165Y-36105000D01*
X40408145Y-36070990D01*
X40569205Y-36004277D01*
X40714155Y-35907424D01*
X40837424Y-35784155D01*
X40934277Y-35639205D01*
X41000990Y-35478145D01*
X41035000Y-35307165D01*
X41035000Y-35132835D01*
X41000990Y-34961855D01*
X40934277Y-34800795D01*
X40837424Y-34655845D01*
X40714155Y-34532576D01*
X40569205Y-34435723D01*
X40408145Y-34369010D01*
X40237165Y-34335000D01*
X40062835Y-34335000D01*
X39891855Y-34369010D01*
X39730795Y-34435723D01*
X39585845Y-34532576D01*
X39462576Y-34655845D01*
X39365723Y-34800795D01*
X39299010Y-34961855D01*
X39265000Y-35132835D01*
X30685000Y-35132835D01*
X30685000Y-34434838D01*
X31834767Y-34434838D01*
X31972724Y-34735044D01*
X32321967Y-34910882D01*
X32698804Y-35015207D01*
X33088753Y-35044009D01*
X33476828Y-34996184D01*
X33848116Y-34873568D01*
X34107276Y-34735044D01*
X34245233Y-34434838D01*
X33040000Y-33229605D01*
X31834767Y-34434838D01*
X30685000Y-34434838D01*
X30685000Y-33098753D01*
X31045991Y-33098753D01*
X31093816Y-33486828D01*
X31216432Y-33858116D01*
X31354956Y-34117276D01*
X31655162Y-34255233D01*
X32860395Y-33050000D01*
X33219605Y-33050000D01*
X34424838Y-34255233D01*
X34725044Y-34117276D01*
X34900882Y-33768033D01*
X35005207Y-33391196D01*
X35034009Y-33001247D01*
X34986184Y-32613172D01*
X34863568Y-32241884D01*
X34725044Y-31982724D01*
X34424838Y-31844767D01*
X33219605Y-33050000D01*
X32860395Y-33050000D01*
X31655162Y-31844767D01*
X31354956Y-31982724D01*
X31179118Y-32331967D01*
X31074793Y-32708804D01*
X31045991Y-33098753D01*
X30685000Y-33098753D01*
X30685000Y-31665162D01*
X31834767Y-31665162D01*
X33040000Y-32870395D01*
X34094796Y-31815599D01*
X38330000Y-31815599D01*
X38330000Y-32024401D01*
X38370735Y-32229191D01*
X38450640Y-32422098D01*
X38566644Y-32595711D01*
X38714289Y-32743356D01*
X38887902Y-32859360D01*
X39080809Y-32939265D01*
X39285599Y-32980000D01*
X39494401Y-32980000D01*
X39699191Y-32939265D01*
X39892098Y-32859360D01*
X40065711Y-32743356D01*
X40213356Y-32595711D01*
X40329360Y-32422098D01*
X40409265Y-32229191D01*
X40450000Y-32024401D01*
X40450000Y-31815599D01*
X41330000Y-31815599D01*
X41330000Y-32024401D01*
X41370735Y-32229191D01*
X41450640Y-32422098D01*
X41566644Y-32595711D01*
X41714289Y-32743356D01*
X41887902Y-32859360D01*
X42080809Y-32939265D01*
X42285599Y-32980000D01*
X42494401Y-32980000D01*
X42699191Y-32939265D01*
X42892098Y-32859360D01*
X43065711Y-32743356D01*
X43213356Y-32595711D01*
X43329360Y-32422098D01*
X43409265Y-32229191D01*
X43450000Y-32024401D01*
X43450000Y-31815599D01*
X43409265Y-31610809D01*
X43329360Y-31417902D01*
X43213356Y-31244289D01*
X43065711Y-31096644D01*
X42892098Y-30980640D01*
X42699191Y-30900735D01*
X42494401Y-30860000D01*
X42285599Y-30860000D01*
X42080809Y-30900735D01*
X41887902Y-30980640D01*
X41714289Y-31096644D01*
X41566644Y-31244289D01*
X41450640Y-31417902D01*
X41370735Y-31610809D01*
X41330000Y-31815599D01*
X40450000Y-31815599D01*
X40409265Y-31610809D01*
X40329360Y-31417902D01*
X40213356Y-31244289D01*
X40065711Y-31096644D01*
X39892098Y-30980640D01*
X39699191Y-30900735D01*
X39494401Y-30860000D01*
X39285599Y-30860000D01*
X39080809Y-30900735D01*
X38887902Y-30980640D01*
X38714289Y-31096644D01*
X38566644Y-31244289D01*
X38450640Y-31417902D01*
X38370735Y-31610809D01*
X38330000Y-31815599D01*
X34094796Y-31815599D01*
X34245233Y-31665162D01*
X34107276Y-31364956D01*
X33758033Y-31189118D01*
X33381196Y-31084793D01*
X32991247Y-31055991D01*
X32603172Y-31103816D01*
X32231884Y-31226432D01*
X31972724Y-31364956D01*
X31834767Y-31665162D01*
X30685000Y-31665162D01*
X30685000Y-30685000D01*
X122930844Y-30685000D01*
X122899010Y-30761855D01*
G37*
%TD.AperFunction*%
D25*
X57027000Y-85113000D02*
X57047000Y-85113000D01*
X57047000Y-85367000D01*
X57027000Y-85367000D01*
X57027000Y-85387000D01*
X56773000Y-85387000D01*
X56773000Y-85367000D01*
X56753000Y-85367000D01*
X56753000Y-85113000D01*
X56773000Y-85113000D01*
X56773000Y-85093000D01*
X57027000Y-85093000D01*
X57027000Y-85113000D01*
%TA.AperFunction,Conductor*%
D26*
G36*
X57027000Y-85113000D02*
G01*
X57047000Y-85113000D01*
X57047000Y-85367000D01*
X57027000Y-85367000D01*
X57027000Y-85387000D01*
X56773000Y-85387000D01*
X56773000Y-85367000D01*
X56753000Y-85367000D01*
X56753000Y-85113000D01*
X56773000Y-85113000D01*
X56773000Y-85093000D01*
X57027000Y-85093000D01*
X57027000Y-85113000D01*
G37*
%TD.AperFunction*%
D25*
X48474958Y-82204303D02*
X48432499Y-82191423D01*
X48265752Y-82175000D01*
X48265751Y-82175000D01*
X48210000Y-82169509D01*
X48154249Y-82175000D01*
X47120131Y-82175000D01*
X46891996Y-81946865D01*
X46856449Y-81903551D01*
X46683623Y-81761716D01*
X46486447Y-81656324D01*
X46479283Y-81654151D01*
X44754998Y-79929867D01*
X44754998Y-79704249D01*
X44738575Y-79537502D01*
X44673674Y-79323553D01*
X44568282Y-79126377D01*
X44426447Y-78953551D01*
X44253621Y-78811716D01*
X44238139Y-78803440D01*
X44342420Y-78699159D01*
X44439273Y-78554209D01*
X44505986Y-78393149D01*
X44532170Y-78261515D01*
X48474958Y-82204303D01*
%TA.AperFunction,Conductor*%
D26*
G36*
X48474958Y-82204303D02*
G01*
X48432499Y-82191423D01*
X48265752Y-82175000D01*
X48265751Y-82175000D01*
X48210000Y-82169509D01*
X48154249Y-82175000D01*
X47120131Y-82175000D01*
X46891996Y-81946865D01*
X46856449Y-81903551D01*
X46683623Y-81761716D01*
X46486447Y-81656324D01*
X46479283Y-81654151D01*
X44754998Y-79929867D01*
X44754998Y-79704249D01*
X44738575Y-79537502D01*
X44673674Y-79323553D01*
X44568282Y-79126377D01*
X44426447Y-78953551D01*
X44253621Y-78811716D01*
X44238139Y-78803440D01*
X44342420Y-78699159D01*
X44439273Y-78554209D01*
X44505986Y-78393149D01*
X44532170Y-78261515D01*
X48474958Y-82204303D01*
G37*
%TD.AperFunction*%
D25*
X60652576Y-72684155D02*
X60775845Y-72807424D01*
X60920795Y-72904277D01*
X61081855Y-72970990D01*
X61252835Y-73005000D01*
X61427165Y-73005000D01*
X61598145Y-72970990D01*
X61759205Y-72904277D01*
X61870368Y-72830000D01*
X62395909Y-72830000D01*
X66240001Y-76674092D01*
X66240001Y-77025000D01*
X66092835Y-77025000D01*
X65921855Y-77059010D01*
X65760795Y-77125723D01*
X65615845Y-77222576D01*
X65492576Y-77345845D01*
X65395723Y-77490795D01*
X65380000Y-77528754D01*
X65380000Y-77144875D01*
X65383435Y-77110000D01*
X65379576Y-77070817D01*
X65369727Y-76970816D01*
X65329128Y-76836980D01*
X65263200Y-76713637D01*
X65174474Y-76605525D01*
X65147383Y-76583292D01*
X63797073Y-75232982D01*
X63770990Y-75101855D01*
X63704277Y-74940795D01*
X63607424Y-74795845D01*
X63484155Y-74672576D01*
X63339205Y-74575723D01*
X63178145Y-74509010D01*
X63007165Y-74475000D01*
X62832835Y-74475000D01*
X62661855Y-74509010D01*
X62500795Y-74575723D01*
X62355845Y-74672576D01*
X62232576Y-74795845D01*
X62135723Y-74940795D01*
X62069010Y-75101855D01*
X62035000Y-75272835D01*
X62035000Y-75447165D01*
X62069010Y-75618145D01*
X62135723Y-75779205D01*
X62232576Y-75924155D01*
X62355845Y-76047424D01*
X62500795Y-76144277D01*
X62661855Y-76210990D01*
X62792982Y-76237073D01*
X63960000Y-77404091D01*
X63960000Y-78899755D01*
X63849205Y-78825723D01*
X63688145Y-78759010D01*
X63517165Y-78725000D01*
X63342835Y-78725000D01*
X63171855Y-78759010D01*
X63010795Y-78825723D01*
X62865845Y-78922576D01*
X62742576Y-79045845D01*
X62645723Y-79190795D01*
X62579010Y-79351855D01*
X62545000Y-79522835D01*
X62545000Y-79697165D01*
X62579010Y-79868145D01*
X62645723Y-80029205D01*
X62742576Y-80174155D01*
X62865845Y-80297424D01*
X63010795Y-80394277D01*
X63171855Y-80460990D01*
X63342835Y-80495000D01*
X63517165Y-80495000D01*
X63688145Y-80460990D01*
X63849205Y-80394277D01*
X63960001Y-80320245D01*
X63960001Y-80725678D01*
X63945635Y-80773035D01*
X63931444Y-80917120D01*
X63945635Y-81061205D01*
X63987664Y-81199753D01*
X64037289Y-81292594D01*
X63816589Y-81384010D01*
X63573368Y-81546525D01*
X63366525Y-81753368D01*
X63250000Y-81927760D01*
X63133475Y-81753368D01*
X62926632Y-81546525D01*
X62683411Y-81384010D01*
X62413158Y-81272068D01*
X62126260Y-81215000D01*
X61833740Y-81215000D01*
X61546842Y-81272068D01*
X61276589Y-81384010D01*
X61033368Y-81546525D01*
X60826525Y-81753368D01*
X60710000Y-81927760D01*
X60593475Y-81753368D01*
X60386632Y-81546525D01*
X60143411Y-81384010D01*
X59873158Y-81272068D01*
X59586260Y-81215000D01*
X59293740Y-81215000D01*
X59006842Y-81272068D01*
X58736589Y-81384010D01*
X58493368Y-81546525D01*
X58286525Y-81753368D01*
X58170000Y-81927760D01*
X58053475Y-81753368D01*
X57846632Y-81546525D01*
X57603411Y-81384010D01*
X57333158Y-81272068D01*
X57046260Y-81215000D01*
X56753740Y-81215000D01*
X56466842Y-81272068D01*
X56196589Y-81384010D01*
X55953368Y-81546525D01*
X55746525Y-81753368D01*
X55630000Y-81927760D01*
X55513475Y-81753368D01*
X55306632Y-81546525D01*
X55063411Y-81384010D01*
X54793158Y-81272068D01*
X54506260Y-81215000D01*
X54213740Y-81215000D01*
X53926842Y-81272068D01*
X53656589Y-81384010D01*
X53413368Y-81546525D01*
X53394893Y-81565000D01*
X53285139Y-81565000D01*
X53264108Y-81351467D01*
X53142026Y-80949018D01*
X52972445Y-80631753D01*
X52976077Y-80631030D01*
X53137137Y-80564317D01*
X53282087Y-80467464D01*
X53405356Y-80344195D01*
X53502209Y-80199245D01*
X53568922Y-80038185D01*
X53602932Y-79867205D01*
X53602932Y-79692875D01*
X53568922Y-79521895D01*
X53543284Y-79460000D01*
X55535125Y-79460000D01*
X55570000Y-79463435D01*
X55604875Y-79460000D01*
X55604877Y-79460000D01*
X55709184Y-79449727D01*
X55843020Y-79409128D01*
X55966363Y-79343200D01*
X56074475Y-79254475D01*
X56096712Y-79227379D01*
X57281256Y-78042835D01*
X58845000Y-78042835D01*
X58845000Y-78217165D01*
X58879010Y-78388145D01*
X58945723Y-78549205D01*
X59042576Y-78694155D01*
X59165845Y-78817424D01*
X59310795Y-78914277D01*
X59471855Y-78980990D01*
X59642835Y-79015000D01*
X59817165Y-79015000D01*
X59988145Y-78980990D01*
X60149205Y-78914277D01*
X60294155Y-78817424D01*
X60417424Y-78694155D01*
X60471514Y-78613204D01*
X60531700Y-78703279D01*
X60654969Y-78826548D01*
X60799919Y-78923401D01*
X60960979Y-78990114D01*
X61131959Y-79024124D01*
X61306289Y-79024124D01*
X61477269Y-78990114D01*
X61621789Y-78930252D01*
X61671855Y-78950990D01*
X61842835Y-78985000D01*
X62017165Y-78985000D01*
X62188145Y-78950990D01*
X62349205Y-78884277D01*
X62494155Y-78787424D01*
X62617424Y-78664155D01*
X62714277Y-78519205D01*
X62780990Y-78358145D01*
X62815000Y-78187165D01*
X62815000Y-78012835D01*
X62780990Y-77841855D01*
X62714277Y-77680795D01*
X62617424Y-77535845D01*
X62494155Y-77412576D01*
X62349205Y-77315723D01*
X62188145Y-77249010D01*
X62017165Y-77215000D01*
X61842835Y-77215000D01*
X61671855Y-77249010D01*
X61527335Y-77308872D01*
X61477269Y-77288134D01*
X61306289Y-77254124D01*
X61131959Y-77254124D01*
X60960979Y-77288134D01*
X60799919Y-77354847D01*
X60693402Y-77426020D01*
X60725000Y-77267165D01*
X60725000Y-77092835D01*
X60690990Y-76921855D01*
X60624277Y-76760795D01*
X60527424Y-76615845D01*
X60404155Y-76492576D01*
X60259205Y-76395723D01*
X60098145Y-76329010D01*
X59927165Y-76295000D01*
X59752835Y-76295000D01*
X59581855Y-76329010D01*
X59420795Y-76395723D01*
X59275845Y-76492576D01*
X59152576Y-76615845D01*
X59055723Y-76760795D01*
X58989010Y-76921855D01*
X58955000Y-77092835D01*
X58955000Y-77267165D01*
X58989010Y-77438145D01*
X59042162Y-77566465D01*
X58945723Y-77710795D01*
X58879010Y-77871855D01*
X58845000Y-78042835D01*
X57281256Y-78042835D01*
X59797379Y-75526712D01*
X59824475Y-75504475D01*
X59913200Y-75396363D01*
X59979128Y-75273020D01*
X60019727Y-75139184D01*
X60030000Y-75034877D01*
X60030000Y-75034875D01*
X60033435Y-75000000D01*
X60030000Y-74965125D01*
X60030000Y-73244091D01*
X60627486Y-72646605D01*
X60652576Y-72684155D01*
%TA.AperFunction,Conductor*%
D26*
G36*
X60652576Y-72684155D02*
G01*
X60775845Y-72807424D01*
X60920795Y-72904277D01*
X61081855Y-72970990D01*
X61252835Y-73005000D01*
X61427165Y-73005000D01*
X61598145Y-72970990D01*
X61759205Y-72904277D01*
X61870368Y-72830000D01*
X62395909Y-72830000D01*
X66240001Y-76674092D01*
X66240001Y-77025000D01*
X66092835Y-77025000D01*
X65921855Y-77059010D01*
X65760795Y-77125723D01*
X65615845Y-77222576D01*
X65492576Y-77345845D01*
X65395723Y-77490795D01*
X65380000Y-77528754D01*
X65380000Y-77144875D01*
X65383435Y-77110000D01*
X65379576Y-77070817D01*
X65369727Y-76970816D01*
X65329128Y-76836980D01*
X65263200Y-76713637D01*
X65174474Y-76605525D01*
X65147383Y-76583292D01*
X63797073Y-75232982D01*
X63770990Y-75101855D01*
X63704277Y-74940795D01*
X63607424Y-74795845D01*
X63484155Y-74672576D01*
X63339205Y-74575723D01*
X63178145Y-74509010D01*
X63007165Y-74475000D01*
X62832835Y-74475000D01*
X62661855Y-74509010D01*
X62500795Y-74575723D01*
X62355845Y-74672576D01*
X62232576Y-74795845D01*
X62135723Y-74940795D01*
X62069010Y-75101855D01*
X62035000Y-75272835D01*
X62035000Y-75447165D01*
X62069010Y-75618145D01*
X62135723Y-75779205D01*
X62232576Y-75924155D01*
X62355845Y-76047424D01*
X62500795Y-76144277D01*
X62661855Y-76210990D01*
X62792982Y-76237073D01*
X63960000Y-77404091D01*
X63960000Y-78899755D01*
X63849205Y-78825723D01*
X63688145Y-78759010D01*
X63517165Y-78725000D01*
X63342835Y-78725000D01*
X63171855Y-78759010D01*
X63010795Y-78825723D01*
X62865845Y-78922576D01*
X62742576Y-79045845D01*
X62645723Y-79190795D01*
X62579010Y-79351855D01*
X62545000Y-79522835D01*
X62545000Y-79697165D01*
X62579010Y-79868145D01*
X62645723Y-80029205D01*
X62742576Y-80174155D01*
X62865845Y-80297424D01*
X63010795Y-80394277D01*
X63171855Y-80460990D01*
X63342835Y-80495000D01*
X63517165Y-80495000D01*
X63688145Y-80460990D01*
X63849205Y-80394277D01*
X63960001Y-80320245D01*
X63960001Y-80725678D01*
X63945635Y-80773035D01*
X63931444Y-80917120D01*
X63945635Y-81061205D01*
X63987664Y-81199753D01*
X64037289Y-81292594D01*
X63816589Y-81384010D01*
X63573368Y-81546525D01*
X63366525Y-81753368D01*
X63250000Y-81927760D01*
X63133475Y-81753368D01*
X62926632Y-81546525D01*
X62683411Y-81384010D01*
X62413158Y-81272068D01*
X62126260Y-81215000D01*
X61833740Y-81215000D01*
X61546842Y-81272068D01*
X61276589Y-81384010D01*
X61033368Y-81546525D01*
X60826525Y-81753368D01*
X60710000Y-81927760D01*
X60593475Y-81753368D01*
X60386632Y-81546525D01*
X60143411Y-81384010D01*
X59873158Y-81272068D01*
X59586260Y-81215000D01*
X59293740Y-81215000D01*
X59006842Y-81272068D01*
X58736589Y-81384010D01*
X58493368Y-81546525D01*
X58286525Y-81753368D01*
X58170000Y-81927760D01*
X58053475Y-81753368D01*
X57846632Y-81546525D01*
X57603411Y-81384010D01*
X57333158Y-81272068D01*
X57046260Y-81215000D01*
X56753740Y-81215000D01*
X56466842Y-81272068D01*
X56196589Y-81384010D01*
X55953368Y-81546525D01*
X55746525Y-81753368D01*
X55630000Y-81927760D01*
X55513475Y-81753368D01*
X55306632Y-81546525D01*
X55063411Y-81384010D01*
X54793158Y-81272068D01*
X54506260Y-81215000D01*
X54213740Y-81215000D01*
X53926842Y-81272068D01*
X53656589Y-81384010D01*
X53413368Y-81546525D01*
X53394893Y-81565000D01*
X53285139Y-81565000D01*
X53264108Y-81351467D01*
X53142026Y-80949018D01*
X52972445Y-80631753D01*
X52976077Y-80631030D01*
X53137137Y-80564317D01*
X53282087Y-80467464D01*
X53405356Y-80344195D01*
X53502209Y-80199245D01*
X53568922Y-80038185D01*
X53602932Y-79867205D01*
X53602932Y-79692875D01*
X53568922Y-79521895D01*
X53543284Y-79460000D01*
X55535125Y-79460000D01*
X55570000Y-79463435D01*
X55604875Y-79460000D01*
X55604877Y-79460000D01*
X55709184Y-79449727D01*
X55843020Y-79409128D01*
X55966363Y-79343200D01*
X56074475Y-79254475D01*
X56096712Y-79227379D01*
X57281256Y-78042835D01*
X58845000Y-78042835D01*
X58845000Y-78217165D01*
X58879010Y-78388145D01*
X58945723Y-78549205D01*
X59042576Y-78694155D01*
X59165845Y-78817424D01*
X59310795Y-78914277D01*
X59471855Y-78980990D01*
X59642835Y-79015000D01*
X59817165Y-79015000D01*
X59988145Y-78980990D01*
X60149205Y-78914277D01*
X60294155Y-78817424D01*
X60417424Y-78694155D01*
X60471514Y-78613204D01*
X60531700Y-78703279D01*
X60654969Y-78826548D01*
X60799919Y-78923401D01*
X60960979Y-78990114D01*
X61131959Y-79024124D01*
X61306289Y-79024124D01*
X61477269Y-78990114D01*
X61621789Y-78930252D01*
X61671855Y-78950990D01*
X61842835Y-78985000D01*
X62017165Y-78985000D01*
X62188145Y-78950990D01*
X62349205Y-78884277D01*
X62494155Y-78787424D01*
X62617424Y-78664155D01*
X62714277Y-78519205D01*
X62780990Y-78358145D01*
X62815000Y-78187165D01*
X62815000Y-78012835D01*
X62780990Y-77841855D01*
X62714277Y-77680795D01*
X62617424Y-77535845D01*
X62494155Y-77412576D01*
X62349205Y-77315723D01*
X62188145Y-77249010D01*
X62017165Y-77215000D01*
X61842835Y-77215000D01*
X61671855Y-77249010D01*
X61527335Y-77308872D01*
X61477269Y-77288134D01*
X61306289Y-77254124D01*
X61131959Y-77254124D01*
X60960979Y-77288134D01*
X60799919Y-77354847D01*
X60693402Y-77426020D01*
X60725000Y-77267165D01*
X60725000Y-77092835D01*
X60690990Y-76921855D01*
X60624277Y-76760795D01*
X60527424Y-76615845D01*
X60404155Y-76492576D01*
X60259205Y-76395723D01*
X60098145Y-76329010D01*
X59927165Y-76295000D01*
X59752835Y-76295000D01*
X59581855Y-76329010D01*
X59420795Y-76395723D01*
X59275845Y-76492576D01*
X59152576Y-76615845D01*
X59055723Y-76760795D01*
X58989010Y-76921855D01*
X58955000Y-77092835D01*
X58955000Y-77267165D01*
X58989010Y-77438145D01*
X59042162Y-77566465D01*
X58945723Y-77710795D01*
X58879010Y-77871855D01*
X58845000Y-78042835D01*
X57281256Y-78042835D01*
X59797379Y-75526712D01*
X59824475Y-75504475D01*
X59913200Y-75396363D01*
X59979128Y-75273020D01*
X60019727Y-75139184D01*
X60030000Y-75034877D01*
X60030000Y-75034875D01*
X60033435Y-75000000D01*
X60030000Y-74965125D01*
X60030000Y-73244091D01*
X60627486Y-72646605D01*
X60652576Y-72684155D01*
G37*
%TD.AperFunction*%
D25*
X65395723Y-78329205D02*
X65483917Y-78461195D01*
X65520872Y-78583020D01*
X65586800Y-78706363D01*
X65675526Y-78814475D01*
X65702616Y-78836707D01*
X66243292Y-79377384D01*
X66265525Y-79404475D01*
X66373637Y-79493200D01*
X66496980Y-79559128D01*
X66630816Y-79599727D01*
X66735123Y-79610000D01*
X66735124Y-79610000D01*
X66769999Y-79613435D01*
X66804874Y-79610000D01*
X67455125Y-79610000D01*
X67490000Y-79613435D01*
X67524875Y-79610000D01*
X67524877Y-79610000D01*
X67629184Y-79599727D01*
X67763020Y-79559128D01*
X67886363Y-79493200D01*
X67994475Y-79404475D01*
X68016713Y-79377378D01*
X68339605Y-79054485D01*
X68351362Y-79048201D01*
X68459474Y-78959476D01*
X68548199Y-78851363D01*
X68554481Y-78839610D01*
X68861410Y-78532681D01*
X68942576Y-78654155D01*
X69065845Y-78777424D01*
X69210795Y-78874277D01*
X69371855Y-78940990D01*
X69542835Y-78975000D01*
X69717165Y-78975000D01*
X69888145Y-78940990D01*
X70049205Y-78874277D01*
X70160368Y-78800000D01*
X70462123Y-78800000D01*
X70496998Y-78803435D01*
X70531873Y-78800000D01*
X70531875Y-78800000D01*
X70636182Y-78789727D01*
X70770018Y-78749128D01*
X70893361Y-78683200D01*
X71001473Y-78594475D01*
X71023710Y-78567379D01*
X71098245Y-78492844D01*
X71152576Y-78574155D01*
X71166014Y-78587593D01*
X71180872Y-78636573D01*
X71246800Y-78759916D01*
X71335526Y-78868028D01*
X71362617Y-78890261D01*
X73127366Y-80655010D01*
X65447336Y-80655010D01*
X65380000Y-80587674D01*
X65380000Y-78291246D01*
X65395723Y-78329205D01*
%TA.AperFunction,Conductor*%
D26*
G36*
X65395723Y-78329205D02*
G01*
X65483917Y-78461195D01*
X65520872Y-78583020D01*
X65586800Y-78706363D01*
X65675526Y-78814475D01*
X65702616Y-78836707D01*
X66243292Y-79377384D01*
X66265525Y-79404475D01*
X66373637Y-79493200D01*
X66496980Y-79559128D01*
X66630816Y-79599727D01*
X66735123Y-79610000D01*
X66735124Y-79610000D01*
X66769999Y-79613435D01*
X66804874Y-79610000D01*
X67455125Y-79610000D01*
X67490000Y-79613435D01*
X67524875Y-79610000D01*
X67524877Y-79610000D01*
X67629184Y-79599727D01*
X67763020Y-79559128D01*
X67886363Y-79493200D01*
X67994475Y-79404475D01*
X68016713Y-79377378D01*
X68339605Y-79054485D01*
X68351362Y-79048201D01*
X68459474Y-78959476D01*
X68548199Y-78851363D01*
X68554481Y-78839610D01*
X68861410Y-78532681D01*
X68942576Y-78654155D01*
X69065845Y-78777424D01*
X69210795Y-78874277D01*
X69371855Y-78940990D01*
X69542835Y-78975000D01*
X69717165Y-78975000D01*
X69888145Y-78940990D01*
X70049205Y-78874277D01*
X70160368Y-78800000D01*
X70462123Y-78800000D01*
X70496998Y-78803435D01*
X70531873Y-78800000D01*
X70531875Y-78800000D01*
X70636182Y-78789727D01*
X70770018Y-78749128D01*
X70893361Y-78683200D01*
X71001473Y-78594475D01*
X71023710Y-78567379D01*
X71098245Y-78492844D01*
X71152576Y-78574155D01*
X71166014Y-78587593D01*
X71180872Y-78636573D01*
X71246800Y-78759916D01*
X71335526Y-78868028D01*
X71362617Y-78890261D01*
X73127366Y-80655010D01*
X65447336Y-80655010D01*
X65380000Y-80587674D01*
X65380000Y-78291246D01*
X65395723Y-78329205D01*
G37*
%TD.AperFunction*%
D25*
X104936414Y-79715001D02*
X104820268Y-79715001D01*
X104878341Y-79628089D01*
X104936414Y-79715001D01*
%TA.AperFunction,Conductor*%
D26*
G36*
X104936414Y-79715001D02*
G01*
X104820268Y-79715001D01*
X104878341Y-79628089D01*
X104936414Y-79715001D01*
G37*
%TD.AperFunction*%
D25*
X95907907Y-79715001D02*
X74977685Y-79715001D01*
X73507683Y-78244999D01*
X94437906Y-78244999D01*
X95907907Y-79715001D01*
%TA.AperFunction,Conductor*%
D26*
G36*
X95907907Y-79715001D02*
G01*
X74977685Y-79715001D01*
X73507683Y-78244999D01*
X94437906Y-78244999D01*
X95907907Y-79715001D01*
G37*
%TD.AperFunction*%
D25*
X93510795Y-68454277D02*
X93671855Y-68520990D01*
X93842835Y-68555000D01*
X93900001Y-68555000D01*
X93900000Y-71017442D01*
X93896565Y-71052317D01*
X93900000Y-71087192D01*
X93900000Y-71087193D01*
X93910273Y-71191500D01*
X93950872Y-71325336D01*
X94016800Y-71448679D01*
X94105525Y-71556791D01*
X94132617Y-71579025D01*
X101832927Y-79279335D01*
X101859010Y-79410462D01*
X101925723Y-79571522D01*
X102021593Y-79715001D01*
X101081507Y-79715001D01*
X101060990Y-79611855D01*
X100994277Y-79450795D01*
X100897424Y-79305845D01*
X100774155Y-79182576D01*
X100629205Y-79085723D01*
X100468145Y-79019010D01*
X100297165Y-78985000D01*
X100122835Y-78985000D01*
X99951855Y-79019010D01*
X99790795Y-79085723D01*
X99679632Y-79160000D01*
X97361090Y-79160000D01*
X96121090Y-77920001D01*
X97138063Y-77920001D01*
X97195723Y-78059205D01*
X97292576Y-78204155D01*
X97415845Y-78327424D01*
X97560795Y-78424277D01*
X97721855Y-78490990D01*
X97892835Y-78525000D01*
X98067165Y-78525000D01*
X98238145Y-78490990D01*
X98399205Y-78424277D01*
X98544155Y-78327424D01*
X98667424Y-78204155D01*
X98764277Y-78059205D01*
X98830990Y-77898145D01*
X98865000Y-77727165D01*
X98865000Y-77552835D01*
X98830990Y-77381855D01*
X98764277Y-77220795D01*
X98667424Y-77075845D01*
X98544155Y-76952576D01*
X98399205Y-76855723D01*
X98238145Y-76789010D01*
X98107018Y-76762927D01*
X98076713Y-76732622D01*
X98054476Y-76705526D01*
X97946364Y-76616801D01*
X97823021Y-76550873D01*
X97689185Y-76510274D01*
X97584878Y-76500001D01*
X97584876Y-76500001D01*
X97550001Y-76496566D01*
X97515126Y-76500001D01*
X70894090Y-76500001D01*
X74851256Y-72542835D01*
X92205002Y-72542835D01*
X92205002Y-72717165D01*
X92239012Y-72888145D01*
X92305725Y-73049205D01*
X92402578Y-73194155D01*
X92525847Y-73317424D01*
X92670797Y-73414277D01*
X92831857Y-73480990D01*
X93002837Y-73515000D01*
X93177167Y-73515000D01*
X93348147Y-73480990D01*
X93509207Y-73414277D01*
X93654157Y-73317424D01*
X93777426Y-73194155D01*
X93874279Y-73049205D01*
X93940992Y-72888145D01*
X93975002Y-72717165D01*
X93975002Y-72542835D01*
X93940992Y-72371855D01*
X93874279Y-72210795D01*
X93777426Y-72065845D01*
X93654157Y-71942576D01*
X93509207Y-71845723D01*
X93348147Y-71779010D01*
X93177167Y-71745000D01*
X93002837Y-71745000D01*
X92831857Y-71779010D01*
X92670797Y-71845723D01*
X92525847Y-71942576D01*
X92402578Y-72065845D01*
X92305725Y-72210795D01*
X92239012Y-72371855D01*
X92205002Y-72542835D01*
X74851256Y-72542835D01*
X79014092Y-68380000D01*
X93399632Y-68380000D01*
X93510795Y-68454277D01*
%TA.AperFunction,Conductor*%
D26*
G36*
X93510795Y-68454277D02*
G01*
X93671855Y-68520990D01*
X93842835Y-68555000D01*
X93900001Y-68555000D01*
X93900000Y-71017442D01*
X93896565Y-71052317D01*
X93900000Y-71087192D01*
X93900000Y-71087193D01*
X93910273Y-71191500D01*
X93950872Y-71325336D01*
X94016800Y-71448679D01*
X94105525Y-71556791D01*
X94132617Y-71579025D01*
X101832927Y-79279335D01*
X101859010Y-79410462D01*
X101925723Y-79571522D01*
X102021593Y-79715001D01*
X101081507Y-79715001D01*
X101060990Y-79611855D01*
X100994277Y-79450795D01*
X100897424Y-79305845D01*
X100774155Y-79182576D01*
X100629205Y-79085723D01*
X100468145Y-79019010D01*
X100297165Y-78985000D01*
X100122835Y-78985000D01*
X99951855Y-79019010D01*
X99790795Y-79085723D01*
X99679632Y-79160000D01*
X97361090Y-79160000D01*
X96121090Y-77920001D01*
X97138063Y-77920001D01*
X97195723Y-78059205D01*
X97292576Y-78204155D01*
X97415845Y-78327424D01*
X97560795Y-78424277D01*
X97721855Y-78490990D01*
X97892835Y-78525000D01*
X98067165Y-78525000D01*
X98238145Y-78490990D01*
X98399205Y-78424277D01*
X98544155Y-78327424D01*
X98667424Y-78204155D01*
X98764277Y-78059205D01*
X98830990Y-77898145D01*
X98865000Y-77727165D01*
X98865000Y-77552835D01*
X98830990Y-77381855D01*
X98764277Y-77220795D01*
X98667424Y-77075845D01*
X98544155Y-76952576D01*
X98399205Y-76855723D01*
X98238145Y-76789010D01*
X98107018Y-76762927D01*
X98076713Y-76732622D01*
X98054476Y-76705526D01*
X97946364Y-76616801D01*
X97823021Y-76550873D01*
X97689185Y-76510274D01*
X97584878Y-76500001D01*
X97584876Y-76500001D01*
X97550001Y-76496566D01*
X97515126Y-76500001D01*
X70894090Y-76500001D01*
X74851256Y-72542835D01*
X92205002Y-72542835D01*
X92205002Y-72717165D01*
X92239012Y-72888145D01*
X92305725Y-73049205D01*
X92402578Y-73194155D01*
X92525847Y-73317424D01*
X92670797Y-73414277D01*
X92831857Y-73480990D01*
X93002837Y-73515000D01*
X93177167Y-73515000D01*
X93348147Y-73480990D01*
X93509207Y-73414277D01*
X93654157Y-73317424D01*
X93777426Y-73194155D01*
X93874279Y-73049205D01*
X93940992Y-72888145D01*
X93975002Y-72717165D01*
X93975002Y-72542835D01*
X93940992Y-72371855D01*
X93874279Y-72210795D01*
X93777426Y-72065845D01*
X93654157Y-71942576D01*
X93509207Y-71845723D01*
X93348147Y-71779010D01*
X93177167Y-71745000D01*
X93002837Y-71745000D01*
X92831857Y-71779010D01*
X92670797Y-71845723D01*
X92525847Y-71942576D01*
X92402578Y-72065845D01*
X92305725Y-72210795D01*
X92239012Y-72371855D01*
X92205002Y-72542835D01*
X74851256Y-72542835D01*
X79014092Y-68380000D01*
X93399632Y-68380000D01*
X93510795Y-68454277D01*
G37*
%TD.AperFunction*%
D25*
X96310186Y-69006276D02*
X96228189Y-69040240D01*
X96083239Y-69137093D01*
X95959970Y-69260362D01*
X95863117Y-69405312D01*
X95796404Y-69566372D01*
X95762394Y-69737352D01*
X95762394Y-69911682D01*
X95796404Y-70082662D01*
X95863117Y-70243722D01*
X95959970Y-70388672D01*
X96083239Y-70511941D01*
X96228189Y-70608794D01*
X96389249Y-70675507D01*
X96560229Y-70709517D01*
X96734559Y-70709517D01*
X96905539Y-70675507D01*
X97048721Y-70616199D01*
X97156855Y-70660990D01*
X97327835Y-70695000D01*
X97502165Y-70695000D01*
X97673145Y-70660990D01*
X97834205Y-70594277D01*
X97872560Y-70568649D01*
X103390000Y-76086090D01*
X103390001Y-78580739D01*
X103274155Y-78464893D01*
X103129205Y-78368040D01*
X102968145Y-78301327D01*
X102837018Y-78275244D01*
X95320000Y-70758226D01*
X95320000Y-68016089D01*
X96310186Y-69006276D01*
%TA.AperFunction,Conductor*%
D26*
G36*
X96310186Y-69006276D02*
G01*
X96228189Y-69040240D01*
X96083239Y-69137093D01*
X95959970Y-69260362D01*
X95863117Y-69405312D01*
X95796404Y-69566372D01*
X95762394Y-69737352D01*
X95762394Y-69911682D01*
X95796404Y-70082662D01*
X95863117Y-70243722D01*
X95959970Y-70388672D01*
X96083239Y-70511941D01*
X96228189Y-70608794D01*
X96389249Y-70675507D01*
X96560229Y-70709517D01*
X96734559Y-70709517D01*
X96905539Y-70675507D01*
X97048721Y-70616199D01*
X97156855Y-70660990D01*
X97327835Y-70695000D01*
X97502165Y-70695000D01*
X97673145Y-70660990D01*
X97834205Y-70594277D01*
X97872560Y-70568649D01*
X103390000Y-76086090D01*
X103390001Y-78580739D01*
X103274155Y-78464893D01*
X103129205Y-78368040D01*
X102968145Y-78301327D01*
X102837018Y-78275244D01*
X95320000Y-70758226D01*
X95320000Y-68016089D01*
X96310186Y-69006276D01*
G37*
%TD.AperFunction*%
D25*
X109500001Y-75004093D02*
X109500000Y-78149632D01*
X109469359Y-78195490D01*
X109434277Y-78110795D01*
X109337424Y-77965845D01*
X109214155Y-77842576D01*
X109069205Y-77745723D01*
X108908145Y-77679010D01*
X108737165Y-77645000D01*
X108562835Y-77645000D01*
X108391855Y-77679010D01*
X108383153Y-77682615D01*
X98591288Y-67890750D01*
X98605828Y-67868990D01*
X98672541Y-67707930D01*
X98706551Y-67536950D01*
X98706551Y-67362620D01*
X98672541Y-67191640D01*
X98605828Y-67030580D01*
X98508975Y-66885630D01*
X98385706Y-66762361D01*
X98240756Y-66665508D01*
X98079696Y-66598795D01*
X97908716Y-66564785D01*
X97734386Y-66564785D01*
X97563406Y-66598795D01*
X97402346Y-66665508D01*
X97380586Y-66680048D01*
X96613159Y-65912621D01*
X96590922Y-65885525D01*
X96482810Y-65796800D01*
X96359467Y-65730872D01*
X96225631Y-65690273D01*
X96121324Y-65680000D01*
X96121322Y-65680000D01*
X96086447Y-65676565D01*
X96051572Y-65680000D01*
X84961090Y-65680000D01*
X84531090Y-65250000D01*
X99745909Y-65250000D01*
X109500001Y-75004093D01*
%TA.AperFunction,Conductor*%
D26*
G36*
X109500001Y-75004093D02*
G01*
X109500000Y-78149632D01*
X109469359Y-78195490D01*
X109434277Y-78110795D01*
X109337424Y-77965845D01*
X109214155Y-77842576D01*
X109069205Y-77745723D01*
X108908145Y-77679010D01*
X108737165Y-77645000D01*
X108562835Y-77645000D01*
X108391855Y-77679010D01*
X108383153Y-77682615D01*
X98591288Y-67890750D01*
X98605828Y-67868990D01*
X98672541Y-67707930D01*
X98706551Y-67536950D01*
X98706551Y-67362620D01*
X98672541Y-67191640D01*
X98605828Y-67030580D01*
X98508975Y-66885630D01*
X98385706Y-66762361D01*
X98240756Y-66665508D01*
X98079696Y-66598795D01*
X97908716Y-66564785D01*
X97734386Y-66564785D01*
X97563406Y-66598795D01*
X97402346Y-66665508D01*
X97380586Y-66680048D01*
X96613159Y-65912621D01*
X96590922Y-65885525D01*
X96482810Y-65796800D01*
X96359467Y-65730872D01*
X96225631Y-65690273D01*
X96121324Y-65680000D01*
X96121322Y-65680000D01*
X96086447Y-65676565D01*
X96051572Y-65680000D01*
X84961090Y-65680000D01*
X84531090Y-65250000D01*
X99745909Y-65250000D01*
X109500001Y-75004093D01*
G37*
%TD.AperFunction*%
D25*
X83295723Y-60600795D02*
X83229010Y-60761855D01*
X83195000Y-60932835D01*
X83195000Y-61107165D01*
X83229010Y-61278145D01*
X83287306Y-61418884D01*
X83270795Y-61425723D01*
X83125845Y-61522576D01*
X83002576Y-61645845D01*
X82905723Y-61790795D01*
X82839010Y-61951855D01*
X82812927Y-62082981D01*
X81967594Y-62928315D01*
X81940503Y-62950548D01*
X81918270Y-62977639D01*
X81851778Y-63058660D01*
X81785849Y-63182004D01*
X81745251Y-63315839D01*
X81731542Y-63455023D01*
X81734978Y-63489907D01*
X81734977Y-64981662D01*
X81731542Y-65016537D01*
X81734977Y-65051412D01*
X81734977Y-65051413D01*
X81745250Y-65155720D01*
X81785849Y-65289556D01*
X81851777Y-65412899D01*
X81940502Y-65521011D01*
X81967594Y-65543245D01*
X83384349Y-66960000D01*
X78754874Y-66960000D01*
X78719999Y-66956565D01*
X78685124Y-66960000D01*
X78685123Y-66960000D01*
X78580816Y-66970273D01*
X78446980Y-67010872D01*
X78337846Y-67069205D01*
X78323635Y-67076801D01*
X78291182Y-67103435D01*
X78215525Y-67165525D01*
X78193292Y-67192616D01*
X70953744Y-74432165D01*
X70864155Y-74342576D01*
X70719205Y-74245723D01*
X70558145Y-74179010D01*
X70387165Y-74145000D01*
X70212835Y-74145000D01*
X70041855Y-74179010D01*
X69880795Y-74245723D01*
X69835000Y-74276322D01*
X69835000Y-74222835D01*
X69800990Y-74051855D01*
X69734277Y-73890795D01*
X69637424Y-73745845D01*
X69514155Y-73622576D01*
X69369205Y-73525723D01*
X69208145Y-73459010D01*
X69037165Y-73425000D01*
X68862835Y-73425000D01*
X68691855Y-73459010D01*
X68530795Y-73525723D01*
X68385845Y-73622576D01*
X68262576Y-73745845D01*
X68165723Y-73890795D01*
X68099010Y-74051855D01*
X68065000Y-74222835D01*
X68065000Y-74397165D01*
X68099010Y-74568145D01*
X68165723Y-74729205D01*
X68262576Y-74874155D01*
X68385845Y-74997424D01*
X68530795Y-75094277D01*
X68691855Y-75160990D01*
X68862835Y-75195000D01*
X69037165Y-75195000D01*
X69208145Y-75160990D01*
X69369205Y-75094277D01*
X69415000Y-75063678D01*
X69415000Y-75117165D01*
X69449010Y-75288145D01*
X69515723Y-75449205D01*
X69612576Y-75594155D01*
X69702165Y-75683744D01*
X67766740Y-77619169D01*
X67734277Y-77540795D01*
X67660000Y-77429632D01*
X67660000Y-76414875D01*
X67663435Y-76380000D01*
X67655063Y-76295000D01*
X67649727Y-76240816D01*
X67609128Y-76106980D01*
X67543200Y-75983637D01*
X67454475Y-75875525D01*
X67427379Y-75853288D01*
X63216712Y-71642621D01*
X63194475Y-71615525D01*
X63086363Y-71526800D01*
X62963020Y-71460872D01*
X62829184Y-71420273D01*
X62724877Y-71410000D01*
X62724875Y-71410000D01*
X62690000Y-71406565D01*
X62655125Y-71410000D01*
X61870368Y-71410000D01*
X61866605Y-71407486D01*
X62474091Y-70800000D01*
X63606977Y-70800000D01*
X64254360Y-71447384D01*
X64276593Y-71474475D01*
X64384705Y-71563200D01*
X64508048Y-71629128D01*
X64641884Y-71669727D01*
X64746191Y-71680000D01*
X64746193Y-71680000D01*
X64781068Y-71683435D01*
X64815943Y-71680000D01*
X68407930Y-71680000D01*
X68442805Y-71683435D01*
X68477680Y-71680000D01*
X68477682Y-71680000D01*
X68581989Y-71669727D01*
X68715825Y-71629128D01*
X68839168Y-71563200D01*
X68947280Y-71474475D01*
X68969517Y-71447379D01*
X79896897Y-60520000D01*
X83349709Y-60520000D01*
X83295723Y-60600795D01*
%TA.AperFunction,Conductor*%
D26*
G36*
X83295723Y-60600795D02*
G01*
X83229010Y-60761855D01*
X83195000Y-60932835D01*
X83195000Y-61107165D01*
X83229010Y-61278145D01*
X83287306Y-61418884D01*
X83270795Y-61425723D01*
X83125845Y-61522576D01*
X83002576Y-61645845D01*
X82905723Y-61790795D01*
X82839010Y-61951855D01*
X82812927Y-62082981D01*
X81967594Y-62928315D01*
X81940503Y-62950548D01*
X81918270Y-62977639D01*
X81851778Y-63058660D01*
X81785849Y-63182004D01*
X81745251Y-63315839D01*
X81731542Y-63455023D01*
X81734978Y-63489907D01*
X81734977Y-64981662D01*
X81731542Y-65016537D01*
X81734977Y-65051412D01*
X81734977Y-65051413D01*
X81745250Y-65155720D01*
X81785849Y-65289556D01*
X81851777Y-65412899D01*
X81940502Y-65521011D01*
X81967594Y-65543245D01*
X83384349Y-66960000D01*
X78754874Y-66960000D01*
X78719999Y-66956565D01*
X78685124Y-66960000D01*
X78685123Y-66960000D01*
X78580816Y-66970273D01*
X78446980Y-67010872D01*
X78337846Y-67069205D01*
X78323635Y-67076801D01*
X78291182Y-67103435D01*
X78215525Y-67165525D01*
X78193292Y-67192616D01*
X70953744Y-74432165D01*
X70864155Y-74342576D01*
X70719205Y-74245723D01*
X70558145Y-74179010D01*
X70387165Y-74145000D01*
X70212835Y-74145000D01*
X70041855Y-74179010D01*
X69880795Y-74245723D01*
X69835000Y-74276322D01*
X69835000Y-74222835D01*
X69800990Y-74051855D01*
X69734277Y-73890795D01*
X69637424Y-73745845D01*
X69514155Y-73622576D01*
X69369205Y-73525723D01*
X69208145Y-73459010D01*
X69037165Y-73425000D01*
X68862835Y-73425000D01*
X68691855Y-73459010D01*
X68530795Y-73525723D01*
X68385845Y-73622576D01*
X68262576Y-73745845D01*
X68165723Y-73890795D01*
X68099010Y-74051855D01*
X68065000Y-74222835D01*
X68065000Y-74397165D01*
X68099010Y-74568145D01*
X68165723Y-74729205D01*
X68262576Y-74874155D01*
X68385845Y-74997424D01*
X68530795Y-75094277D01*
X68691855Y-75160990D01*
X68862835Y-75195000D01*
X69037165Y-75195000D01*
X69208145Y-75160990D01*
X69369205Y-75094277D01*
X69415000Y-75063678D01*
X69415000Y-75117165D01*
X69449010Y-75288145D01*
X69515723Y-75449205D01*
X69612576Y-75594155D01*
X69702165Y-75683744D01*
X67766740Y-77619169D01*
X67734277Y-77540795D01*
X67660000Y-77429632D01*
X67660000Y-76414875D01*
X67663435Y-76380000D01*
X67655063Y-76295000D01*
X67649727Y-76240816D01*
X67609128Y-76106980D01*
X67543200Y-75983637D01*
X67454475Y-75875525D01*
X67427379Y-75853288D01*
X63216712Y-71642621D01*
X63194475Y-71615525D01*
X63086363Y-71526800D01*
X62963020Y-71460872D01*
X62829184Y-71420273D01*
X62724877Y-71410000D01*
X62724875Y-71410000D01*
X62690000Y-71406565D01*
X62655125Y-71410000D01*
X61870368Y-71410000D01*
X61866605Y-71407486D01*
X62474091Y-70800000D01*
X63606977Y-70800000D01*
X64254360Y-71447384D01*
X64276593Y-71474475D01*
X64384705Y-71563200D01*
X64508048Y-71629128D01*
X64641884Y-71669727D01*
X64746191Y-71680000D01*
X64746193Y-71680000D01*
X64781068Y-71683435D01*
X64815943Y-71680000D01*
X68407930Y-71680000D01*
X68442805Y-71683435D01*
X68477680Y-71680000D01*
X68477682Y-71680000D01*
X68581989Y-71669727D01*
X68715825Y-71629128D01*
X68839168Y-71563200D01*
X68947280Y-71474475D01*
X68969517Y-71447379D01*
X79896897Y-60520000D01*
X83349709Y-60520000D01*
X83295723Y-60600795D01*
G37*
%TD.AperFunction*%
D25*
X57888008Y-63633140D02*
X57923551Y-63676449D01*
X58049728Y-63780000D01*
X58096377Y-63818284D01*
X58293553Y-63923676D01*
X58507501Y-63988577D01*
X58730000Y-64010491D01*
X58785752Y-64005000D01*
X58873831Y-64005000D01*
X58929582Y-64010491D01*
X58985333Y-64005000D01*
X58985334Y-64005000D01*
X59152081Y-63988577D01*
X59366029Y-63923676D01*
X59563205Y-63818284D01*
X59736031Y-63676449D01*
X59771578Y-63633135D01*
X59850001Y-63554712D01*
X59850000Y-69659632D01*
X59775723Y-69770795D01*
X59709010Y-69931855D01*
X59675000Y-70102835D01*
X59675000Y-70277165D01*
X59709010Y-70448145D01*
X59775723Y-70609205D01*
X59872576Y-70754155D01*
X59995845Y-70877424D01*
X60140795Y-70974277D01*
X60247453Y-71018456D01*
X59610380Y-71655529D01*
X59604277Y-71640795D01*
X59507424Y-71495845D01*
X59384155Y-71372576D01*
X59239205Y-71275723D01*
X59078145Y-71209010D01*
X58907165Y-71175000D01*
X58732835Y-71175000D01*
X58561855Y-71209010D01*
X58400795Y-71275723D01*
X58255845Y-71372576D01*
X58132576Y-71495845D01*
X58035723Y-71640795D01*
X57969010Y-71801855D01*
X57935000Y-71972835D01*
X57935000Y-72147165D01*
X57969010Y-72318145D01*
X58035723Y-72479205D01*
X58110001Y-72590369D01*
X58110000Y-74615908D01*
X56950889Y-75775020D01*
X56867852Y-75501286D01*
X56716030Y-75217248D01*
X56635000Y-75118513D01*
X56635000Y-62380131D01*
X57888008Y-63633140D01*
%TA.AperFunction,Conductor*%
D26*
G36*
X57888008Y-63633140D02*
G01*
X57923551Y-63676449D01*
X58049728Y-63780000D01*
X58096377Y-63818284D01*
X58293553Y-63923676D01*
X58507501Y-63988577D01*
X58730000Y-64010491D01*
X58785752Y-64005000D01*
X58873831Y-64005000D01*
X58929582Y-64010491D01*
X58985333Y-64005000D01*
X58985334Y-64005000D01*
X59152081Y-63988577D01*
X59366029Y-63923676D01*
X59563205Y-63818284D01*
X59736031Y-63676449D01*
X59771578Y-63633135D01*
X59850001Y-63554712D01*
X59850000Y-69659632D01*
X59775723Y-69770795D01*
X59709010Y-69931855D01*
X59675000Y-70102835D01*
X59675000Y-70277165D01*
X59709010Y-70448145D01*
X59775723Y-70609205D01*
X59872576Y-70754155D01*
X59995845Y-70877424D01*
X60140795Y-70974277D01*
X60247453Y-71018456D01*
X59610380Y-71655529D01*
X59604277Y-71640795D01*
X59507424Y-71495845D01*
X59384155Y-71372576D01*
X59239205Y-71275723D01*
X59078145Y-71209010D01*
X58907165Y-71175000D01*
X58732835Y-71175000D01*
X58561855Y-71209010D01*
X58400795Y-71275723D01*
X58255845Y-71372576D01*
X58132576Y-71495845D01*
X58035723Y-71640795D01*
X57969010Y-71801855D01*
X57935000Y-71972835D01*
X57935000Y-72147165D01*
X57969010Y-72318145D01*
X58035723Y-72479205D01*
X58110001Y-72590369D01*
X58110000Y-74615908D01*
X56950889Y-75775020D01*
X56867852Y-75501286D01*
X56716030Y-75217248D01*
X56635000Y-75118513D01*
X56635000Y-62380131D01*
X57888008Y-63633140D01*
G37*
%TD.AperFunction*%
D25*
X110950001Y-71081091D02*
X110950001Y-73395909D01*
X99284091Y-61730000D01*
X101598911Y-61730000D01*
X110950001Y-71081091D01*
%TA.AperFunction,Conductor*%
D26*
G36*
X110950001Y-71081091D02*
G01*
X110950001Y-73395909D01*
X99284091Y-61730000D01*
X101598911Y-61730000D01*
X110950001Y-71081091D01*
G37*
%TD.AperFunction*%
D25*
X63450006Y-69380000D02*
X62214875Y-69380000D01*
X62180000Y-69376565D01*
X62145125Y-69380000D01*
X62145123Y-69380000D01*
X62040816Y-69390273D01*
X61906980Y-69430872D01*
X61783637Y-69496800D01*
X61675525Y-69585525D01*
X61653288Y-69612621D01*
X61388456Y-69877453D01*
X61344277Y-69770795D01*
X61270000Y-69659632D01*
X61270000Y-67506588D01*
X61412835Y-67535000D01*
X61587165Y-67535000D01*
X61758145Y-67500990D01*
X61919205Y-67434277D01*
X62064155Y-67337424D01*
X62187424Y-67214155D01*
X62284277Y-67069205D01*
X62302587Y-67025000D01*
X62317165Y-67025000D01*
X62488145Y-66990990D01*
X62649205Y-66924277D01*
X62794155Y-66827424D01*
X62917424Y-66704155D01*
X63014277Y-66559205D01*
X63036729Y-66505000D01*
X63047165Y-66505000D01*
X63218145Y-66470990D01*
X63379205Y-66404277D01*
X63450175Y-66356856D01*
X63450006Y-69380000D01*
%TA.AperFunction,Conductor*%
D26*
G36*
X63450006Y-69380000D02*
G01*
X62214875Y-69380000D01*
X62180000Y-69376565D01*
X62145125Y-69380000D01*
X62145123Y-69380000D01*
X62040816Y-69390273D01*
X61906980Y-69430872D01*
X61783637Y-69496800D01*
X61675525Y-69585525D01*
X61653288Y-69612621D01*
X61388456Y-69877453D01*
X61344277Y-69770795D01*
X61270000Y-69659632D01*
X61270000Y-67506588D01*
X61412835Y-67535000D01*
X61587165Y-67535000D01*
X61758145Y-67500990D01*
X61919205Y-67434277D01*
X62064155Y-67337424D01*
X62187424Y-67214155D01*
X62284277Y-67069205D01*
X62302587Y-67025000D01*
X62317165Y-67025000D01*
X62488145Y-66990990D01*
X62649205Y-66924277D01*
X62794155Y-66827424D01*
X62917424Y-66704155D01*
X63014277Y-66559205D01*
X63036729Y-66505000D01*
X63047165Y-66505000D01*
X63218145Y-66470990D01*
X63379205Y-66404277D01*
X63450175Y-66356856D01*
X63450006Y-69380000D01*
G37*
%TD.AperFunction*%
D25*
X73834490Y-49203835D02*
X74078118Y-49403776D01*
X74449018Y-49602026D01*
X74851466Y-49724108D01*
X75270000Y-49765329D01*
X75688533Y-49724108D01*
X75916351Y-49655000D01*
X87315950Y-49655000D01*
X87333552Y-49676448D01*
X87506378Y-49818283D01*
X87703554Y-49923676D01*
X87917502Y-49988577D01*
X88140000Y-50010491D01*
X88362498Y-49988577D01*
X88576446Y-49923676D01*
X88773622Y-49818283D01*
X88903143Y-49711988D01*
X89573135Y-49041996D01*
X89616449Y-49006449D01*
X89758284Y-48833623D01*
X89830128Y-48699210D01*
X89851135Y-48659909D01*
X90710001Y-49518775D01*
X90710000Y-54055125D01*
X90706565Y-54090000D01*
X90710000Y-54124875D01*
X90710000Y-54124876D01*
X90720273Y-54229183D01*
X90760872Y-54363019D01*
X90826800Y-54486362D01*
X90915525Y-54594474D01*
X90942617Y-54616708D01*
X95250908Y-58925000D01*
X95182835Y-58925000D01*
X95011855Y-58959010D01*
X94850795Y-59025723D01*
X94739632Y-59100000D01*
X79637679Y-59100000D01*
X79602804Y-59096565D01*
X79567929Y-59100000D01*
X79567928Y-59100000D01*
X79463621Y-59110273D01*
X79329785Y-59150872D01*
X79225845Y-59206429D01*
X79206440Y-59216801D01*
X79144756Y-59267424D01*
X79098330Y-59305525D01*
X79076097Y-59332616D01*
X69768888Y-68639826D01*
X69769953Y-49580377D01*
X74542721Y-54353147D01*
X74578259Y-54396450D01*
X74621562Y-54431988D01*
X74621564Y-54431990D01*
X74751085Y-54538285D01*
X74948261Y-54643677D01*
X75162209Y-54708578D01*
X75384708Y-54730492D01*
X75440460Y-54725001D01*
X83769269Y-54725001D01*
X83846378Y-54788283D01*
X84043554Y-54893676D01*
X84257501Y-54958577D01*
X84480000Y-54980491D01*
X84702498Y-54958577D01*
X84916446Y-54893676D01*
X85113622Y-54788283D01*
X85286448Y-54646448D01*
X85428283Y-54473622D01*
X85533676Y-54276446D01*
X85598577Y-54062498D01*
X85620491Y-53840000D01*
X85598577Y-53617501D01*
X85533676Y-53403554D01*
X85428283Y-53206378D01*
X85321988Y-53076857D01*
X85071997Y-52826866D01*
X85036450Y-52783552D01*
X84863624Y-52641717D01*
X84666448Y-52536325D01*
X84452500Y-52471424D01*
X84285753Y-52455001D01*
X84285752Y-52455001D01*
X84230001Y-52449510D01*
X84174250Y-52455001D01*
X75854841Y-52455001D01*
X69571573Y-46171735D01*
X69536026Y-46128421D01*
X69363200Y-45986586D01*
X69166024Y-45881194D01*
X68952076Y-45816293D01*
X68785329Y-45799870D01*
X68785328Y-45799870D01*
X68729577Y-45794379D01*
X68673826Y-45799870D01*
X64526996Y-45799870D01*
X64471244Y-45794379D01*
X64248745Y-45816293D01*
X64034797Y-45881194D01*
X63837621Y-45986586D01*
X63708100Y-46092881D01*
X63708099Y-46092882D01*
X63664795Y-46128421D01*
X63629257Y-46171724D01*
X60786858Y-49014125D01*
X60743550Y-49049667D01*
X60601715Y-49222493D01*
X60545661Y-49327363D01*
X60496322Y-49419670D01*
X60431421Y-49633618D01*
X60409507Y-49856116D01*
X60414999Y-49911877D01*
X60414998Y-59779452D01*
X59696403Y-60498048D01*
X58839261Y-59640906D01*
X58807633Y-59602367D01*
X58653840Y-59476153D01*
X58478380Y-59382368D01*
X58287994Y-59324615D01*
X58139608Y-59310000D01*
X58090000Y-59305114D01*
X58040392Y-59310000D01*
X57135000Y-59310000D01*
X57135000Y-58454874D01*
X57145329Y-58350000D01*
X57135000Y-58245125D01*
X57135000Y-58245118D01*
X57104108Y-57931467D01*
X57103399Y-57929128D01*
X56982026Y-57529018D01*
X56920877Y-57414616D01*
X56783777Y-57158119D01*
X56651534Y-56996981D01*
X56583835Y-56914489D01*
X56583833Y-56914487D01*
X56516977Y-56833023D01*
X56435513Y-56766167D01*
X53889346Y-54220000D01*
X55719509Y-54220000D01*
X55741423Y-54442499D01*
X55806324Y-54656447D01*
X55911716Y-54853623D01*
X56053551Y-55026449D01*
X56226377Y-55168284D01*
X56423553Y-55273676D01*
X56637501Y-55338577D01*
X56804248Y-55355000D01*
X57629869Y-55355000D01*
X57376855Y-55608014D01*
X57333552Y-55643552D01*
X57298014Y-55686855D01*
X57298012Y-55686857D01*
X57237333Y-55760795D01*
X57191717Y-55816378D01*
X57086324Y-56013554D01*
X57021423Y-56227502D01*
X56999509Y-56450000D01*
X57021423Y-56672498D01*
X57086324Y-56886446D01*
X57191717Y-57083622D01*
X57291321Y-57204989D01*
X57333552Y-57256448D01*
X57376855Y-57291986D01*
X57748004Y-57663135D01*
X57783551Y-57706449D01*
X57956377Y-57848284D01*
X58153553Y-57953676D01*
X58367501Y-58018577D01*
X58589999Y-58040491D01*
X58645751Y-58035000D01*
X58905752Y-58035000D01*
X59072499Y-58018577D01*
X59286447Y-57953676D01*
X59483623Y-57848284D01*
X59656449Y-57706449D01*
X59798284Y-57533623D01*
X59903676Y-57336447D01*
X59968577Y-57122499D01*
X59990491Y-56900000D01*
X59975018Y-56742898D01*
X60048284Y-56653623D01*
X60153676Y-56456447D01*
X60218577Y-56242499D01*
X60240491Y-56020000D01*
X60218577Y-55797501D01*
X60153676Y-55583553D01*
X60048284Y-55386377D01*
X59906449Y-55213551D01*
X59733623Y-55071716D01*
X59536447Y-54966324D01*
X59413359Y-54928985D01*
X59416449Y-54926449D01*
X59451996Y-54883135D01*
X59481988Y-54853143D01*
X59588283Y-54723623D01*
X59693675Y-54526447D01*
X59758576Y-54312499D01*
X59780490Y-54090001D01*
X59758576Y-53867502D01*
X59693675Y-53653554D01*
X59588283Y-53456378D01*
X59446448Y-53283552D01*
X59273622Y-53141717D01*
X59076446Y-53036325D01*
X58862498Y-52971424D01*
X58639999Y-52949510D01*
X58417501Y-52971424D01*
X58372747Y-52985000D01*
X57855741Y-52985000D01*
X57799999Y-52979510D01*
X57744258Y-52985000D01*
X57744248Y-52985000D01*
X57577501Y-53001423D01*
X57363553Y-53066324D01*
X57328612Y-53085000D01*
X56804248Y-53085000D01*
X56637501Y-53101423D01*
X56423553Y-53166324D01*
X56226377Y-53271716D01*
X56053551Y-53413551D01*
X55911716Y-53586377D01*
X55806324Y-53783553D01*
X55741423Y-53997501D01*
X55719509Y-54220000D01*
X53889346Y-54220000D01*
X51545000Y-51875655D01*
X51545000Y-51514345D01*
X53561002Y-49498343D01*
X54304492Y-49498343D01*
X54304492Y-49672673D01*
X54338502Y-49843653D01*
X54405215Y-50004713D01*
X54502068Y-50149663D01*
X54625337Y-50272932D01*
X54770287Y-50369785D01*
X54931347Y-50436498D01*
X55102327Y-50470508D01*
X55276657Y-50470508D01*
X55447637Y-50436498D01*
X55608697Y-50369785D01*
X55753647Y-50272932D01*
X55876916Y-50149663D01*
X55973769Y-50004713D01*
X56040482Y-49843653D01*
X56074492Y-49672673D01*
X56074492Y-49498343D01*
X56040482Y-49327363D01*
X55973769Y-49166303D01*
X55876916Y-49021353D01*
X55753647Y-48898084D01*
X55608697Y-48801231D01*
X55447637Y-48734518D01*
X55276657Y-48700508D01*
X55102327Y-48700508D01*
X54931347Y-48734518D01*
X54770287Y-48801231D01*
X54625337Y-48898084D01*
X54502068Y-49021353D01*
X54405215Y-49166303D01*
X54338502Y-49327363D01*
X54304492Y-49498343D01*
X53561002Y-49498343D01*
X60455000Y-42604346D01*
X60455000Y-42777165D01*
X60489010Y-42948145D01*
X60555723Y-43109205D01*
X60652576Y-43254155D01*
X60775845Y-43377424D01*
X60920795Y-43474277D01*
X61081855Y-43540990D01*
X61252835Y-43575000D01*
X61427165Y-43575000D01*
X61598145Y-43540990D01*
X61759205Y-43474277D01*
X61904155Y-43377424D01*
X62027424Y-43254155D01*
X62124277Y-43109205D01*
X62190990Y-42948145D01*
X62225000Y-42777165D01*
X62225000Y-42602835D01*
X62190990Y-42431855D01*
X62124277Y-42270795D01*
X62027424Y-42125845D01*
X61904155Y-42002576D01*
X61759205Y-41905723D01*
X61598145Y-41839010D01*
X61427165Y-41805000D01*
X61254346Y-41805000D01*
X61406511Y-41652835D01*
X61995000Y-41652835D01*
X61995000Y-41827165D01*
X62029010Y-41998145D01*
X62095723Y-42159205D01*
X62192576Y-42304155D01*
X62315845Y-42427424D01*
X62460795Y-42524277D01*
X62621855Y-42590990D01*
X62792835Y-42625000D01*
X62967165Y-42625000D01*
X63138145Y-42590990D01*
X63299205Y-42524277D01*
X63444155Y-42427424D01*
X63567424Y-42304155D01*
X63664277Y-42159205D01*
X63730990Y-41998145D01*
X63765000Y-41827165D01*
X63765000Y-41652835D01*
X63730990Y-41481855D01*
X63664277Y-41320795D01*
X63567424Y-41175845D01*
X63444155Y-41052576D01*
X63299205Y-40955723D01*
X63138145Y-40889010D01*
X62967165Y-40855000D01*
X62792835Y-40855000D01*
X62621855Y-40889010D01*
X62460795Y-40955723D01*
X62315845Y-41052576D01*
X62192576Y-41175845D01*
X62095723Y-41320795D01*
X62029010Y-41481855D01*
X61995000Y-41652835D01*
X61406511Y-41652835D01*
X62864346Y-40195000D01*
X64825655Y-40195000D01*
X73834490Y-49203835D01*
%TA.AperFunction,Conductor*%
D26*
G36*
X73834490Y-49203835D02*
G01*
X74078118Y-49403776D01*
X74449018Y-49602026D01*
X74851466Y-49724108D01*
X75270000Y-49765329D01*
X75688533Y-49724108D01*
X75916351Y-49655000D01*
X87315950Y-49655000D01*
X87333552Y-49676448D01*
X87506378Y-49818283D01*
X87703554Y-49923676D01*
X87917502Y-49988577D01*
X88140000Y-50010491D01*
X88362498Y-49988577D01*
X88576446Y-49923676D01*
X88773622Y-49818283D01*
X88903143Y-49711988D01*
X89573135Y-49041996D01*
X89616449Y-49006449D01*
X89758284Y-48833623D01*
X89830128Y-48699210D01*
X89851135Y-48659909D01*
X90710001Y-49518775D01*
X90710000Y-54055125D01*
X90706565Y-54090000D01*
X90710000Y-54124875D01*
X90710000Y-54124876D01*
X90720273Y-54229183D01*
X90760872Y-54363019D01*
X90826800Y-54486362D01*
X90915525Y-54594474D01*
X90942617Y-54616708D01*
X95250908Y-58925000D01*
X95182835Y-58925000D01*
X95011855Y-58959010D01*
X94850795Y-59025723D01*
X94739632Y-59100000D01*
X79637679Y-59100000D01*
X79602804Y-59096565D01*
X79567929Y-59100000D01*
X79567928Y-59100000D01*
X79463621Y-59110273D01*
X79329785Y-59150872D01*
X79225845Y-59206429D01*
X79206440Y-59216801D01*
X79144756Y-59267424D01*
X79098330Y-59305525D01*
X79076097Y-59332616D01*
X69768888Y-68639826D01*
X69769953Y-49580377D01*
X74542721Y-54353147D01*
X74578259Y-54396450D01*
X74621562Y-54431988D01*
X74621564Y-54431990D01*
X74751085Y-54538285D01*
X74948261Y-54643677D01*
X75162209Y-54708578D01*
X75384708Y-54730492D01*
X75440460Y-54725001D01*
X83769269Y-54725001D01*
X83846378Y-54788283D01*
X84043554Y-54893676D01*
X84257501Y-54958577D01*
X84480000Y-54980491D01*
X84702498Y-54958577D01*
X84916446Y-54893676D01*
X85113622Y-54788283D01*
X85286448Y-54646448D01*
X85428283Y-54473622D01*
X85533676Y-54276446D01*
X85598577Y-54062498D01*
X85620491Y-53840000D01*
X85598577Y-53617501D01*
X85533676Y-53403554D01*
X85428283Y-53206378D01*
X85321988Y-53076857D01*
X85071997Y-52826866D01*
X85036450Y-52783552D01*
X84863624Y-52641717D01*
X84666448Y-52536325D01*
X84452500Y-52471424D01*
X84285753Y-52455001D01*
X84285752Y-52455001D01*
X84230001Y-52449510D01*
X84174250Y-52455001D01*
X75854841Y-52455001D01*
X69571573Y-46171735D01*
X69536026Y-46128421D01*
X69363200Y-45986586D01*
X69166024Y-45881194D01*
X68952076Y-45816293D01*
X68785329Y-45799870D01*
X68785328Y-45799870D01*
X68729577Y-45794379D01*
X68673826Y-45799870D01*
X64526996Y-45799870D01*
X64471244Y-45794379D01*
X64248745Y-45816293D01*
X64034797Y-45881194D01*
X63837621Y-45986586D01*
X63708100Y-46092881D01*
X63708099Y-46092882D01*
X63664795Y-46128421D01*
X63629257Y-46171724D01*
X60786858Y-49014125D01*
X60743550Y-49049667D01*
X60601715Y-49222493D01*
X60545661Y-49327363D01*
X60496322Y-49419670D01*
X60431421Y-49633618D01*
X60409507Y-49856116D01*
X60414999Y-49911877D01*
X60414998Y-59779452D01*
X59696403Y-60498048D01*
X58839261Y-59640906D01*
X58807633Y-59602367D01*
X58653840Y-59476153D01*
X58478380Y-59382368D01*
X58287994Y-59324615D01*
X58139608Y-59310000D01*
X58090000Y-59305114D01*
X58040392Y-59310000D01*
X57135000Y-59310000D01*
X57135000Y-58454874D01*
X57145329Y-58350000D01*
X57135000Y-58245125D01*
X57135000Y-58245118D01*
X57104108Y-57931467D01*
X57103399Y-57929128D01*
X56982026Y-57529018D01*
X56920877Y-57414616D01*
X56783777Y-57158119D01*
X56651534Y-56996981D01*
X56583835Y-56914489D01*
X56583833Y-56914487D01*
X56516977Y-56833023D01*
X56435513Y-56766167D01*
X53889346Y-54220000D01*
X55719509Y-54220000D01*
X55741423Y-54442499D01*
X55806324Y-54656447D01*
X55911716Y-54853623D01*
X56053551Y-55026449D01*
X56226377Y-55168284D01*
X56423553Y-55273676D01*
X56637501Y-55338577D01*
X56804248Y-55355000D01*
X57629869Y-55355000D01*
X57376855Y-55608014D01*
X57333552Y-55643552D01*
X57298014Y-55686855D01*
X57298012Y-55686857D01*
X57237333Y-55760795D01*
X57191717Y-55816378D01*
X57086324Y-56013554D01*
X57021423Y-56227502D01*
X56999509Y-56450000D01*
X57021423Y-56672498D01*
X57086324Y-56886446D01*
X57191717Y-57083622D01*
X57291321Y-57204989D01*
X57333552Y-57256448D01*
X57376855Y-57291986D01*
X57748004Y-57663135D01*
X57783551Y-57706449D01*
X57956377Y-57848284D01*
X58153553Y-57953676D01*
X58367501Y-58018577D01*
X58589999Y-58040491D01*
X58645751Y-58035000D01*
X58905752Y-58035000D01*
X59072499Y-58018577D01*
X59286447Y-57953676D01*
X59483623Y-57848284D01*
X59656449Y-57706449D01*
X59798284Y-57533623D01*
X59903676Y-57336447D01*
X59968577Y-57122499D01*
X59990491Y-56900000D01*
X59975018Y-56742898D01*
X60048284Y-56653623D01*
X60153676Y-56456447D01*
X60218577Y-56242499D01*
X60240491Y-56020000D01*
X60218577Y-55797501D01*
X60153676Y-55583553D01*
X60048284Y-55386377D01*
X59906449Y-55213551D01*
X59733623Y-55071716D01*
X59536447Y-54966324D01*
X59413359Y-54928985D01*
X59416449Y-54926449D01*
X59451996Y-54883135D01*
X59481988Y-54853143D01*
X59588283Y-54723623D01*
X59693675Y-54526447D01*
X59758576Y-54312499D01*
X59780490Y-54090001D01*
X59758576Y-53867502D01*
X59693675Y-53653554D01*
X59588283Y-53456378D01*
X59446448Y-53283552D01*
X59273622Y-53141717D01*
X59076446Y-53036325D01*
X58862498Y-52971424D01*
X58639999Y-52949510D01*
X58417501Y-52971424D01*
X58372747Y-52985000D01*
X57855741Y-52985000D01*
X57799999Y-52979510D01*
X57744258Y-52985000D01*
X57744248Y-52985000D01*
X57577501Y-53001423D01*
X57363553Y-53066324D01*
X57328612Y-53085000D01*
X56804248Y-53085000D01*
X56637501Y-53101423D01*
X56423553Y-53166324D01*
X56226377Y-53271716D01*
X56053551Y-53413551D01*
X55911716Y-53586377D01*
X55806324Y-53783553D01*
X55741423Y-53997501D01*
X55719509Y-54220000D01*
X53889346Y-54220000D01*
X51545000Y-51875655D01*
X51545000Y-51514345D01*
X53561002Y-49498343D01*
X54304492Y-49498343D01*
X54304492Y-49672673D01*
X54338502Y-49843653D01*
X54405215Y-50004713D01*
X54502068Y-50149663D01*
X54625337Y-50272932D01*
X54770287Y-50369785D01*
X54931347Y-50436498D01*
X55102327Y-50470508D01*
X55276657Y-50470508D01*
X55447637Y-50436498D01*
X55608697Y-50369785D01*
X55753647Y-50272932D01*
X55876916Y-50149663D01*
X55973769Y-50004713D01*
X56040482Y-49843653D01*
X56074492Y-49672673D01*
X56074492Y-49498343D01*
X56040482Y-49327363D01*
X55973769Y-49166303D01*
X55876916Y-49021353D01*
X55753647Y-48898084D01*
X55608697Y-48801231D01*
X55447637Y-48734518D01*
X55276657Y-48700508D01*
X55102327Y-48700508D01*
X54931347Y-48734518D01*
X54770287Y-48801231D01*
X54625337Y-48898084D01*
X54502068Y-49021353D01*
X54405215Y-49166303D01*
X54338502Y-49327363D01*
X54304492Y-49498343D01*
X53561002Y-49498343D01*
X60455000Y-42604346D01*
X60455000Y-42777165D01*
X60489010Y-42948145D01*
X60555723Y-43109205D01*
X60652576Y-43254155D01*
X60775845Y-43377424D01*
X60920795Y-43474277D01*
X61081855Y-43540990D01*
X61252835Y-43575000D01*
X61427165Y-43575000D01*
X61598145Y-43540990D01*
X61759205Y-43474277D01*
X61904155Y-43377424D01*
X62027424Y-43254155D01*
X62124277Y-43109205D01*
X62190990Y-42948145D01*
X62225000Y-42777165D01*
X62225000Y-42602835D01*
X62190990Y-42431855D01*
X62124277Y-42270795D01*
X62027424Y-42125845D01*
X61904155Y-42002576D01*
X61759205Y-41905723D01*
X61598145Y-41839010D01*
X61427165Y-41805000D01*
X61254346Y-41805000D01*
X61406511Y-41652835D01*
X61995000Y-41652835D01*
X61995000Y-41827165D01*
X62029010Y-41998145D01*
X62095723Y-42159205D01*
X62192576Y-42304155D01*
X62315845Y-42427424D01*
X62460795Y-42524277D01*
X62621855Y-42590990D01*
X62792835Y-42625000D01*
X62967165Y-42625000D01*
X63138145Y-42590990D01*
X63299205Y-42524277D01*
X63444155Y-42427424D01*
X63567424Y-42304155D01*
X63664277Y-42159205D01*
X63730990Y-41998145D01*
X63765000Y-41827165D01*
X63765000Y-41652835D01*
X63730990Y-41481855D01*
X63664277Y-41320795D01*
X63567424Y-41175845D01*
X63444155Y-41052576D01*
X63299205Y-40955723D01*
X63138145Y-40889010D01*
X62967165Y-40855000D01*
X62792835Y-40855000D01*
X62621855Y-40889010D01*
X62460795Y-40955723D01*
X62315845Y-41052576D01*
X62192576Y-41175845D01*
X62095723Y-41320795D01*
X62029010Y-41481855D01*
X61995000Y-41652835D01*
X61406511Y-41652835D01*
X62864346Y-40195000D01*
X64825655Y-40195000D01*
X73834490Y-49203835D01*
G37*
%TD.AperFunction*%
D25*
X63450257Y-64883199D02*
X63379205Y-64835723D01*
X63218145Y-64769010D01*
X63047165Y-64735000D01*
X62872835Y-64735000D01*
X62701855Y-64769010D01*
X62540795Y-64835723D01*
X62395845Y-64932576D01*
X62272576Y-65055845D01*
X62175723Y-65200795D01*
X62153271Y-65255000D01*
X62142835Y-65255000D01*
X61971855Y-65289010D01*
X61810795Y-65355723D01*
X61665845Y-65452576D01*
X61542576Y-65575845D01*
X61445723Y-65720795D01*
X61427413Y-65765000D01*
X61412835Y-65765000D01*
X61270000Y-65793412D01*
X61270000Y-63144091D01*
X63037389Y-61376703D01*
X63064474Y-61354475D01*
X63086704Y-61327388D01*
X63086707Y-61327385D01*
X63153199Y-61246364D01*
X63153201Y-61246362D01*
X63219128Y-61123020D01*
X63259727Y-60989184D01*
X63270000Y-60884877D01*
X63270000Y-60884876D01*
X63273435Y-60850001D01*
X63270000Y-60815126D01*
X63270000Y-51060368D01*
X63344277Y-50949205D01*
X63410990Y-50788145D01*
X63445000Y-50617165D01*
X63445000Y-50442835D01*
X63410990Y-50271855D01*
X63344277Y-50110795D01*
X63247424Y-49965845D01*
X63146412Y-49864833D01*
X63451113Y-49560133D01*
X63450257Y-64883199D01*
%TA.AperFunction,Conductor*%
D26*
G36*
X63450257Y-64883199D02*
G01*
X63379205Y-64835723D01*
X63218145Y-64769010D01*
X63047165Y-64735000D01*
X62872835Y-64735000D01*
X62701855Y-64769010D01*
X62540795Y-64835723D01*
X62395845Y-64932576D01*
X62272576Y-65055845D01*
X62175723Y-65200795D01*
X62153271Y-65255000D01*
X62142835Y-65255000D01*
X61971855Y-65289010D01*
X61810795Y-65355723D01*
X61665845Y-65452576D01*
X61542576Y-65575845D01*
X61445723Y-65720795D01*
X61427413Y-65765000D01*
X61412835Y-65765000D01*
X61270000Y-65793412D01*
X61270000Y-63144091D01*
X63037389Y-61376703D01*
X63064474Y-61354475D01*
X63086704Y-61327388D01*
X63086707Y-61327385D01*
X63153199Y-61246364D01*
X63153201Y-61246362D01*
X63219128Y-61123020D01*
X63259727Y-60989184D01*
X63270000Y-60884877D01*
X63270000Y-60884876D01*
X63273435Y-60850001D01*
X63270000Y-60815126D01*
X63270000Y-51060368D01*
X63344277Y-50949205D01*
X63410990Y-50788145D01*
X63445000Y-50617165D01*
X63445000Y-50442835D01*
X63410990Y-50271855D01*
X63344277Y-50110795D01*
X63247424Y-49965845D01*
X63146412Y-49864833D01*
X63451113Y-49560133D01*
X63450257Y-64883199D01*
G37*
%TD.AperFunction*%
D25*
X99375909Y-63830000D02*
X85375000Y-63830000D01*
X85375000Y-63692835D01*
X85340990Y-63521855D01*
X85274277Y-63360795D01*
X85177424Y-63215845D01*
X85054155Y-63092576D01*
X84909205Y-62995723D01*
X84748145Y-62929010D01*
X84577165Y-62895000D01*
X84450871Y-62895000D01*
X84424277Y-62830795D01*
X84381928Y-62767415D01*
X84474277Y-62629205D01*
X84493093Y-62583779D01*
X84517133Y-62578997D01*
X84678193Y-62512284D01*
X84789356Y-62438007D01*
X97983916Y-62438007D01*
X99375909Y-63830000D01*
%TA.AperFunction,Conductor*%
D26*
G36*
X99375909Y-63830000D02*
G01*
X85375000Y-63830000D01*
X85375000Y-63692835D01*
X85340990Y-63521855D01*
X85274277Y-63360795D01*
X85177424Y-63215845D01*
X85054155Y-63092576D01*
X84909205Y-62995723D01*
X84748145Y-62929010D01*
X84577165Y-62895000D01*
X84450871Y-62895000D01*
X84424277Y-62830795D01*
X84381928Y-62767415D01*
X84474277Y-62629205D01*
X84493093Y-62583779D01*
X84517133Y-62578997D01*
X84678193Y-62512284D01*
X84789356Y-62438007D01*
X97983916Y-62438007D01*
X99375909Y-63830000D01*
G37*
%TD.AperFunction*%
D25*
X119517741Y-39939094D02*
X119549369Y-39977633D01*
X119703162Y-40103847D01*
X119873698Y-40195000D01*
X119878622Y-40197632D01*
X120051255Y-40250000D01*
X120000392Y-40250000D01*
X119852006Y-40264615D01*
X119661620Y-40322368D01*
X119486160Y-40416153D01*
X119332367Y-40542367D01*
X119297379Y-40585000D01*
X118203164Y-40585000D01*
X118993165Y-39794999D01*
X119373646Y-39794999D01*
X119517741Y-39939094D01*
%TA.AperFunction,Conductor*%
D26*
G36*
X119517741Y-39939094D02*
G01*
X119549369Y-39977633D01*
X119703162Y-40103847D01*
X119873698Y-40195000D01*
X119878622Y-40197632D01*
X120051255Y-40250000D01*
X120000392Y-40250000D01*
X119852006Y-40264615D01*
X119661620Y-40322368D01*
X119486160Y-40416153D01*
X119332367Y-40542367D01*
X119297379Y-40585000D01*
X118203164Y-40585000D01*
X118993165Y-39794999D01*
X119373646Y-39794999D01*
X119517741Y-39939094D01*
G37*
%TD.AperFunction*%
D25*
X129315000Y-38266740D02*
X129307994Y-38264615D01*
X129159608Y-38250000D01*
X120685357Y-38250000D01*
X120541262Y-38105905D01*
X120509634Y-38067366D01*
X120355841Y-37941152D01*
X120180381Y-37847367D01*
X119989995Y-37789614D01*
X119841609Y-37774999D01*
X119792001Y-37770113D01*
X119742393Y-37774999D01*
X119740359Y-37774999D01*
X119820462Y-37694896D01*
X128876493Y-37694896D01*
X129024879Y-37680281D01*
X129215265Y-37622528D01*
X129315000Y-37569219D01*
X129315000Y-38266740D01*
%TA.AperFunction,Conductor*%
D26*
G36*
X129315000Y-38266740D02*
G01*
X129307994Y-38264615D01*
X129159608Y-38250000D01*
X120685357Y-38250000D01*
X120541262Y-38105905D01*
X120509634Y-38067366D01*
X120355841Y-37941152D01*
X120180381Y-37847367D01*
X119989995Y-37789614D01*
X119841609Y-37774999D01*
X119792001Y-37770113D01*
X119742393Y-37774999D01*
X119740359Y-37774999D01*
X119820462Y-37694896D01*
X128876493Y-37694896D01*
X129024879Y-37680281D01*
X129215265Y-37622528D01*
X129315000Y-37569219D01*
X129315000Y-38266740D01*
G37*
%TD.AperFunction*%
%TD*%
D24*
%TO.N,+3V3*%
X49692319Y-51002176D02*
X47595182Y-50847170D01*
X47603807Y-49700000D01*
X49666448Y-49700000D01*
X49692319Y-51002176D01*
%TA.AperFunction,Conductor*%
D26*
G36*
X49692319Y-51002176D02*
G01*
X47595182Y-50847170D01*
X47603807Y-49700000D01*
X49666448Y-49700000D01*
X49692319Y-51002176D01*
G37*
%TD.AperFunction*%
%TD*%
M02*
