%TF.GenerationSoftware,KiCad,Pcbnew,(5.1.10)-1*%
%TF.CreationDate,2021-07-15T23:48:19-07:00*%
%TF.ProjectId,esp32_sensor,65737033-325f-4736-956e-736f722e6b69,rev?*%
%TF.SameCoordinates,Original*%
%TF.FileFunction,Soldermask,Top*%
%TF.FilePolarity,Negative*%
%FSLAX46Y46*%
G04 Gerber Fmt 4.6, Leading zero omitted, Abs format (unit mm)*
G04 Created by KiCad (PCBNEW (5.1.10)-1) date 2021-07-15 23:48:19*
%MOMM*%
%LPD*%
G01*
G04 APERTURE LIST*
%ADD10R,0.500000X0.350000*%
%ADD11R,1.520000X1.680000*%
%ADD12R,4.100000X4.100000*%
%ADD13R,0.900000X1.500000*%
%ADD14R,1.500000X0.900000*%
%ADD15R,3.000000X1.000000*%
%ADD16R,1.000000X3.000000*%
%ADD17R,1.300000X0.300000*%
%ADD18R,2.200000X1.800000*%
%ADD19R,1.700000X1.700000*%
%ADD20O,1.700000X1.700000*%
%ADD21R,0.250000X0.625000*%
%ADD22R,0.450000X0.575000*%
%ADD23R,0.450000X0.700000*%
%ADD24R,0.625000X0.250000*%
%ADD25R,0.700000X0.450000*%
%ADD26R,0.575000X0.450000*%
%ADD27R,1.300000X1.900000*%
%ADD28C,2.500000*%
%ADD29R,1.000000X0.700000*%
%ADD30R,0.600000X1.000000*%
%ADD31C,0.850000*%
%ADD32C,2.700000*%
%ADD33R,0.400000X0.600000*%
%ADD34R,2.400000X1.500000*%
%ADD35C,0.990600*%
%ADD36R,0.650000X1.060000*%
%ADD37R,1.500000X0.650000*%
%ADD38R,2.700000X3.600000*%
%ADD39R,1.160000X0.600000*%
%ADD40C,0.600000*%
%ADD41R,1.160000X0.300000*%
%ADD42O,1.700000X0.900000*%
%ADD43O,2.000000X0.900000*%
G04 APERTURE END LIST*
%TO.C,R37*%
G36*
G01*
X33160000Y-51895000D02*
X33160000Y-52265000D01*
G75*
G02*
X33025000Y-52400000I-135000J0D01*
G01*
X32755000Y-52400000D01*
G75*
G02*
X32620000Y-52265000I0J135000D01*
G01*
X32620000Y-51895000D01*
G75*
G02*
X32755000Y-51760000I135000J0D01*
G01*
X33025000Y-51760000D01*
G75*
G02*
X33160000Y-51895000I0J-135000D01*
G01*
G37*
G36*
G01*
X34180000Y-51895000D02*
X34180000Y-52265000D01*
G75*
G02*
X34045000Y-52400000I-135000J0D01*
G01*
X33775000Y-52400000D01*
G75*
G02*
X33640000Y-52265000I0J135000D01*
G01*
X33640000Y-51895000D01*
G75*
G02*
X33775000Y-51760000I135000J0D01*
G01*
X34045000Y-51760000D01*
G75*
G02*
X34180000Y-51895000I0J-135000D01*
G01*
G37*
%TD*%
%TO.C,R36*%
G36*
G01*
X32925000Y-57510000D02*
X33295000Y-57510000D01*
G75*
G02*
X33430000Y-57645000I0J-135000D01*
G01*
X33430000Y-57915000D01*
G75*
G02*
X33295000Y-58050000I-135000J0D01*
G01*
X32925000Y-58050000D01*
G75*
G02*
X32790000Y-57915000I0J135000D01*
G01*
X32790000Y-57645000D01*
G75*
G02*
X32925000Y-57510000I135000J0D01*
G01*
G37*
G36*
G01*
X32925000Y-56490000D02*
X33295000Y-56490000D01*
G75*
G02*
X33430000Y-56625000I0J-135000D01*
G01*
X33430000Y-56895000D01*
G75*
G02*
X33295000Y-57030000I-135000J0D01*
G01*
X32925000Y-57030000D01*
G75*
G02*
X32790000Y-56895000I0J135000D01*
G01*
X32790000Y-56625000D01*
G75*
G02*
X32925000Y-56490000I135000J0D01*
G01*
G37*
%TD*%
%TO.C,R35*%
G36*
G01*
X34325000Y-57000000D02*
X33955000Y-57000000D01*
G75*
G02*
X33820000Y-56865000I0J135000D01*
G01*
X33820000Y-56595000D01*
G75*
G02*
X33955000Y-56460000I135000J0D01*
G01*
X34325000Y-56460000D01*
G75*
G02*
X34460000Y-56595000I0J-135000D01*
G01*
X34460000Y-56865000D01*
G75*
G02*
X34325000Y-57000000I-135000J0D01*
G01*
G37*
G36*
G01*
X34325000Y-58020000D02*
X33955000Y-58020000D01*
G75*
G02*
X33820000Y-57885000I0J135000D01*
G01*
X33820000Y-57615000D01*
G75*
G02*
X33955000Y-57480000I135000J0D01*
G01*
X34325000Y-57480000D01*
G75*
G02*
X34460000Y-57615000I0J-135000D01*
G01*
X34460000Y-57885000D01*
G75*
G02*
X34325000Y-58020000I-135000J0D01*
G01*
G37*
%TD*%
%TO.C,C27*%
G36*
G01*
X34100000Y-54700000D02*
X34100000Y-54200000D01*
G75*
G02*
X34325000Y-53975000I225000J0D01*
G01*
X34775000Y-53975000D01*
G75*
G02*
X35000000Y-54200000I0J-225000D01*
G01*
X35000000Y-54700000D01*
G75*
G02*
X34775000Y-54925000I-225000J0D01*
G01*
X34325000Y-54925000D01*
G75*
G02*
X34100000Y-54700000I0J225000D01*
G01*
G37*
G36*
G01*
X32550000Y-54700000D02*
X32550000Y-54200000D01*
G75*
G02*
X32775000Y-53975000I225000J0D01*
G01*
X33225000Y-53975000D01*
G75*
G02*
X33450000Y-54200000I0J-225000D01*
G01*
X33450000Y-54700000D01*
G75*
G02*
X33225000Y-54925000I-225000J0D01*
G01*
X32775000Y-54925000D01*
G75*
G02*
X32550000Y-54700000I0J225000D01*
G01*
G37*
%TD*%
%TO.C,C26*%
G36*
G01*
X34240000Y-55950000D02*
X34240000Y-55610000D01*
G75*
G02*
X34380000Y-55470000I140000J0D01*
G01*
X34660000Y-55470000D01*
G75*
G02*
X34800000Y-55610000I0J-140000D01*
G01*
X34800000Y-55950000D01*
G75*
G02*
X34660000Y-56090000I-140000J0D01*
G01*
X34380000Y-56090000D01*
G75*
G02*
X34240000Y-55950000I0J140000D01*
G01*
G37*
G36*
G01*
X33280000Y-55950000D02*
X33280000Y-55610000D01*
G75*
G02*
X33420000Y-55470000I140000J0D01*
G01*
X33700000Y-55470000D01*
G75*
G02*
X33840000Y-55610000I0J-140000D01*
G01*
X33840000Y-55950000D01*
G75*
G02*
X33700000Y-56090000I-140000J0D01*
G01*
X33420000Y-56090000D01*
G75*
G02*
X33280000Y-55950000I0J140000D01*
G01*
G37*
%TD*%
%TO.C,C25*%
G36*
G01*
X31640000Y-54040000D02*
X31300000Y-54040000D01*
G75*
G02*
X31160000Y-53900000I0J140000D01*
G01*
X31160000Y-53620000D01*
G75*
G02*
X31300000Y-53480000I140000J0D01*
G01*
X31640000Y-53480000D01*
G75*
G02*
X31780000Y-53620000I0J-140000D01*
G01*
X31780000Y-53900000D01*
G75*
G02*
X31640000Y-54040000I-140000J0D01*
G01*
G37*
G36*
G01*
X31640000Y-55000000D02*
X31300000Y-55000000D01*
G75*
G02*
X31160000Y-54860000I0J140000D01*
G01*
X31160000Y-54580000D01*
G75*
G02*
X31300000Y-54440000I140000J0D01*
G01*
X31640000Y-54440000D01*
G75*
G02*
X31780000Y-54580000I0J-140000D01*
G01*
X31780000Y-54860000D01*
G75*
G02*
X31640000Y-55000000I-140000J0D01*
G01*
G37*
%TD*%
%TO.C,C24*%
G36*
G01*
X121760000Y-37870000D02*
X121760000Y-38210000D01*
G75*
G02*
X121620000Y-38350000I-140000J0D01*
G01*
X121340000Y-38350000D01*
G75*
G02*
X121200000Y-38210000I0J140000D01*
G01*
X121200000Y-37870000D01*
G75*
G02*
X121340000Y-37730000I140000J0D01*
G01*
X121620000Y-37730000D01*
G75*
G02*
X121760000Y-37870000I0J-140000D01*
G01*
G37*
G36*
G01*
X122720000Y-37870000D02*
X122720000Y-38210000D01*
G75*
G02*
X122580000Y-38350000I-140000J0D01*
G01*
X122300000Y-38350000D01*
G75*
G02*
X122160000Y-38210000I0J140000D01*
G01*
X122160000Y-37870000D01*
G75*
G02*
X122300000Y-37730000I140000J0D01*
G01*
X122580000Y-37730000D01*
G75*
G02*
X122720000Y-37870000I0J-140000D01*
G01*
G37*
%TD*%
D10*
%TO.C,U11*%
X120840000Y-39145000D03*
X122440000Y-39795000D03*
X122440000Y-40445000D03*
X122440000Y-41095000D03*
X120840000Y-39795000D03*
X120840000Y-40445000D03*
X120840000Y-41095000D03*
X122440000Y-39145000D03*
%TD*%
%TO.C,R34*%
G36*
G01*
X125110000Y-38385000D02*
X125110000Y-38755000D01*
G75*
G02*
X124975000Y-38890000I-135000J0D01*
G01*
X124705000Y-38890000D01*
G75*
G02*
X124570000Y-38755000I0J135000D01*
G01*
X124570000Y-38385000D01*
G75*
G02*
X124705000Y-38250000I135000J0D01*
G01*
X124975000Y-38250000D01*
G75*
G02*
X125110000Y-38385000I0J-135000D01*
G01*
G37*
G36*
G01*
X126130000Y-38385000D02*
X126130000Y-38755000D01*
G75*
G02*
X125995000Y-38890000I-135000J0D01*
G01*
X125725000Y-38890000D01*
G75*
G02*
X125590000Y-38755000I0J135000D01*
G01*
X125590000Y-38385000D01*
G75*
G02*
X125725000Y-38250000I135000J0D01*
G01*
X125995000Y-38250000D01*
G75*
G02*
X126130000Y-38385000I0J-135000D01*
G01*
G37*
%TD*%
%TO.C,R33*%
G36*
G01*
X124005000Y-39800000D02*
X123635000Y-39800000D01*
G75*
G02*
X123500000Y-39665000I0J135000D01*
G01*
X123500000Y-39395000D01*
G75*
G02*
X123635000Y-39260000I135000J0D01*
G01*
X124005000Y-39260000D01*
G75*
G02*
X124140000Y-39395000I0J-135000D01*
G01*
X124140000Y-39665000D01*
G75*
G02*
X124005000Y-39800000I-135000J0D01*
G01*
G37*
G36*
G01*
X124005000Y-40820000D02*
X123635000Y-40820000D01*
G75*
G02*
X123500000Y-40685000I0J135000D01*
G01*
X123500000Y-40415000D01*
G75*
G02*
X123635000Y-40280000I135000J0D01*
G01*
X124005000Y-40280000D01*
G75*
G02*
X124140000Y-40415000I0J-135000D01*
G01*
X124140000Y-40685000D01*
G75*
G02*
X124005000Y-40820000I-135000J0D01*
G01*
G37*
%TD*%
%TO.C,R32*%
G36*
G01*
X123995000Y-42660000D02*
X123625000Y-42660000D01*
G75*
G02*
X123490000Y-42525000I0J135000D01*
G01*
X123490000Y-42255000D01*
G75*
G02*
X123625000Y-42120000I135000J0D01*
G01*
X123995000Y-42120000D01*
G75*
G02*
X124130000Y-42255000I0J-135000D01*
G01*
X124130000Y-42525000D01*
G75*
G02*
X123995000Y-42660000I-135000J0D01*
G01*
G37*
G36*
G01*
X123995000Y-43680000D02*
X123625000Y-43680000D01*
G75*
G02*
X123490000Y-43545000I0J135000D01*
G01*
X123490000Y-43275000D01*
G75*
G02*
X123625000Y-43140000I135000J0D01*
G01*
X123995000Y-43140000D01*
G75*
G02*
X124130000Y-43275000I0J-135000D01*
G01*
X124130000Y-43545000D01*
G75*
G02*
X123995000Y-43680000I-135000J0D01*
G01*
G37*
%TD*%
%TO.C,R14*%
G36*
G01*
X53210000Y-79255000D02*
X53210000Y-78705000D01*
G75*
G02*
X53410000Y-78505000I200000J0D01*
G01*
X53810000Y-78505000D01*
G75*
G02*
X54010000Y-78705000I0J-200000D01*
G01*
X54010000Y-79255000D01*
G75*
G02*
X53810000Y-79455000I-200000J0D01*
G01*
X53410000Y-79455000D01*
G75*
G02*
X53210000Y-79255000I0J200000D01*
G01*
G37*
G36*
G01*
X51560000Y-79255000D02*
X51560000Y-78705000D01*
G75*
G02*
X51760000Y-78505000I200000J0D01*
G01*
X52160000Y-78505000D01*
G75*
G02*
X52360000Y-78705000I0J-200000D01*
G01*
X52360000Y-79255000D01*
G75*
G02*
X52160000Y-79455000I-200000J0D01*
G01*
X51760000Y-79455000D01*
G75*
G02*
X51560000Y-79255000I0J200000D01*
G01*
G37*
%TD*%
%TO.C,D6*%
G36*
G01*
X127802500Y-39023750D02*
X127802500Y-39536250D01*
G75*
G02*
X127583750Y-39755000I-218750J0D01*
G01*
X127146250Y-39755000D01*
G75*
G02*
X126927500Y-39536250I0J218750D01*
G01*
X126927500Y-39023750D01*
G75*
G02*
X127146250Y-38805000I218750J0D01*
G01*
X127583750Y-38805000D01*
G75*
G02*
X127802500Y-39023750I0J-218750D01*
G01*
G37*
G36*
G01*
X129377500Y-39023750D02*
X129377500Y-39536250D01*
G75*
G02*
X129158750Y-39755000I-218750J0D01*
G01*
X128721250Y-39755000D01*
G75*
G02*
X128502500Y-39536250I0J218750D01*
G01*
X128502500Y-39023750D01*
G75*
G02*
X128721250Y-38805000I218750J0D01*
G01*
X129158750Y-38805000D01*
G75*
G02*
X129377500Y-39023750I0J-218750D01*
G01*
G37*
%TD*%
D11*
%TO.C,D7*%
X44195000Y-41260000D03*
X48125000Y-41260000D03*
%TD*%
%TO.C,Q1*%
G36*
G01*
X59150000Y-57210000D02*
X59450000Y-57210000D01*
G75*
G02*
X59600000Y-57360000I0J-150000D01*
G01*
X59600000Y-58810000D01*
G75*
G02*
X59450000Y-58960000I-150000J0D01*
G01*
X59150000Y-58960000D01*
G75*
G02*
X59000000Y-58810000I0J150000D01*
G01*
X59000000Y-57360000D01*
G75*
G02*
X59150000Y-57210000I150000J0D01*
G01*
G37*
G36*
G01*
X57880000Y-57210000D02*
X58180000Y-57210000D01*
G75*
G02*
X58330000Y-57360000I0J-150000D01*
G01*
X58330000Y-58810000D01*
G75*
G02*
X58180000Y-58960000I-150000J0D01*
G01*
X57880000Y-58960000D01*
G75*
G02*
X57730000Y-58810000I0J150000D01*
G01*
X57730000Y-57360000D01*
G75*
G02*
X57880000Y-57210000I150000J0D01*
G01*
G37*
G36*
G01*
X56610000Y-57210000D02*
X56910000Y-57210000D01*
G75*
G02*
X57060000Y-57360000I0J-150000D01*
G01*
X57060000Y-58810000D01*
G75*
G02*
X56910000Y-58960000I-150000J0D01*
G01*
X56610000Y-58960000D01*
G75*
G02*
X56460000Y-58810000I0J150000D01*
G01*
X56460000Y-57360000D01*
G75*
G02*
X56610000Y-57210000I150000J0D01*
G01*
G37*
G36*
G01*
X55340000Y-57210000D02*
X55640000Y-57210000D01*
G75*
G02*
X55790000Y-57360000I0J-150000D01*
G01*
X55790000Y-58810000D01*
G75*
G02*
X55640000Y-58960000I-150000J0D01*
G01*
X55340000Y-58960000D01*
G75*
G02*
X55190000Y-58810000I0J150000D01*
G01*
X55190000Y-57360000D01*
G75*
G02*
X55340000Y-57210000I150000J0D01*
G01*
G37*
G36*
G01*
X55340000Y-52060000D02*
X55640000Y-52060000D01*
G75*
G02*
X55790000Y-52210000I0J-150000D01*
G01*
X55790000Y-53660000D01*
G75*
G02*
X55640000Y-53810000I-150000J0D01*
G01*
X55340000Y-53810000D01*
G75*
G02*
X55190000Y-53660000I0J150000D01*
G01*
X55190000Y-52210000D01*
G75*
G02*
X55340000Y-52060000I150000J0D01*
G01*
G37*
G36*
G01*
X56610000Y-52060000D02*
X56910000Y-52060000D01*
G75*
G02*
X57060000Y-52210000I0J-150000D01*
G01*
X57060000Y-53660000D01*
G75*
G02*
X56910000Y-53810000I-150000J0D01*
G01*
X56610000Y-53810000D01*
G75*
G02*
X56460000Y-53660000I0J150000D01*
G01*
X56460000Y-52210000D01*
G75*
G02*
X56610000Y-52060000I150000J0D01*
G01*
G37*
G36*
G01*
X57880000Y-52060000D02*
X58180000Y-52060000D01*
G75*
G02*
X58330000Y-52210000I0J-150000D01*
G01*
X58330000Y-53660000D01*
G75*
G02*
X58180000Y-53810000I-150000J0D01*
G01*
X57880000Y-53810000D01*
G75*
G02*
X57730000Y-53660000I0J150000D01*
G01*
X57730000Y-52210000D01*
G75*
G02*
X57880000Y-52060000I150000J0D01*
G01*
G37*
G36*
G01*
X59150000Y-52060000D02*
X59450000Y-52060000D01*
G75*
G02*
X59600000Y-52210000I0J-150000D01*
G01*
X59600000Y-53660000D01*
G75*
G02*
X59450000Y-53810000I-150000J0D01*
G01*
X59150000Y-53810000D01*
G75*
G02*
X59000000Y-53660000I0J150000D01*
G01*
X59000000Y-52210000D01*
G75*
G02*
X59150000Y-52060000I150000J0D01*
G01*
G37*
%TD*%
%TO.C,F1*%
G36*
G01*
X41047500Y-42275000D02*
X41047500Y-40125000D01*
G75*
G02*
X41297500Y-39875000I250000J0D01*
G01*
X42047500Y-39875000D01*
G75*
G02*
X42297500Y-40125000I0J-250000D01*
G01*
X42297500Y-42275000D01*
G75*
G02*
X42047500Y-42525000I-250000J0D01*
G01*
X41297500Y-42525000D01*
G75*
G02*
X41047500Y-42275000I0J250000D01*
G01*
G37*
G36*
G01*
X38247500Y-42275000D02*
X38247500Y-40125000D01*
G75*
G02*
X38497500Y-39875000I250000J0D01*
G01*
X39247500Y-39875000D01*
G75*
G02*
X39497500Y-40125000I0J-250000D01*
G01*
X39497500Y-42275000D01*
G75*
G02*
X39247500Y-42525000I-250000J0D01*
G01*
X38497500Y-42525000D01*
G75*
G02*
X38247500Y-42275000I0J250000D01*
G01*
G37*
%TD*%
%TO.C,C23*%
G36*
G01*
X43540000Y-36500000D02*
X43040000Y-36500000D01*
G75*
G02*
X42815000Y-36275000I0J225000D01*
G01*
X42815000Y-35825000D01*
G75*
G02*
X43040000Y-35600000I225000J0D01*
G01*
X43540000Y-35600000D01*
G75*
G02*
X43765000Y-35825000I0J-225000D01*
G01*
X43765000Y-36275000D01*
G75*
G02*
X43540000Y-36500000I-225000J0D01*
G01*
G37*
G36*
G01*
X43540000Y-38050000D02*
X43040000Y-38050000D01*
G75*
G02*
X42815000Y-37825000I0J225000D01*
G01*
X42815000Y-37375000D01*
G75*
G02*
X43040000Y-37150000I225000J0D01*
G01*
X43540000Y-37150000D01*
G75*
G02*
X43765000Y-37375000I0J-225000D01*
G01*
X43765000Y-37825000D01*
G75*
G02*
X43540000Y-38050000I-225000J0D01*
G01*
G37*
%TD*%
%TO.C,C22*%
G36*
G01*
X49050000Y-38650000D02*
X49050000Y-38150000D01*
G75*
G02*
X49275000Y-37925000I225000J0D01*
G01*
X49725000Y-37925000D01*
G75*
G02*
X49950000Y-38150000I0J-225000D01*
G01*
X49950000Y-38650000D01*
G75*
G02*
X49725000Y-38875000I-225000J0D01*
G01*
X49275000Y-38875000D01*
G75*
G02*
X49050000Y-38650000I0J225000D01*
G01*
G37*
G36*
G01*
X47500000Y-38650000D02*
X47500000Y-38150000D01*
G75*
G02*
X47725000Y-37925000I225000J0D01*
G01*
X48175000Y-37925000D01*
G75*
G02*
X48400000Y-38150000I0J-225000D01*
G01*
X48400000Y-38650000D01*
G75*
G02*
X48175000Y-38875000I-225000J0D01*
G01*
X47725000Y-38875000D01*
G75*
G02*
X47500000Y-38650000I0J225000D01*
G01*
G37*
%TD*%
%TO.C,C21*%
G36*
G01*
X45090000Y-36500000D02*
X44590000Y-36500000D01*
G75*
G02*
X44365000Y-36275000I0J225000D01*
G01*
X44365000Y-35825000D01*
G75*
G02*
X44590000Y-35600000I225000J0D01*
G01*
X45090000Y-35600000D01*
G75*
G02*
X45315000Y-35825000I0J-225000D01*
G01*
X45315000Y-36275000D01*
G75*
G02*
X45090000Y-36500000I-225000J0D01*
G01*
G37*
G36*
G01*
X45090000Y-38050000D02*
X44590000Y-38050000D01*
G75*
G02*
X44365000Y-37825000I0J225000D01*
G01*
X44365000Y-37375000D01*
G75*
G02*
X44590000Y-37150000I225000J0D01*
G01*
X45090000Y-37150000D01*
G75*
G02*
X45315000Y-37375000I0J-225000D01*
G01*
X45315000Y-37825000D01*
G75*
G02*
X45090000Y-38050000I-225000J0D01*
G01*
G37*
%TD*%
%TO.C,J10*%
G36*
G01*
X31770000Y-78280000D02*
X34270000Y-78280000D01*
G75*
G02*
X34520000Y-78530000I0J-250000D01*
G01*
X34520000Y-80130000D01*
G75*
G02*
X34270000Y-80380000I-250000J0D01*
G01*
X31770000Y-80380000D01*
G75*
G02*
X31520000Y-80130000I0J250000D01*
G01*
X31520000Y-78530000D01*
G75*
G02*
X31770000Y-78280000I250000J0D01*
G01*
G37*
G36*
G01*
X31770000Y-71930000D02*
X34270000Y-71930000D01*
G75*
G02*
X34520000Y-72180000I0J-250000D01*
G01*
X34520000Y-73780000D01*
G75*
G02*
X34270000Y-74030000I-250000J0D01*
G01*
X31770000Y-74030000D01*
G75*
G02*
X31520000Y-73780000I0J250000D01*
G01*
X31520000Y-72180000D01*
G75*
G02*
X31770000Y-71930000I250000J0D01*
G01*
G37*
G36*
G01*
X35320000Y-76380000D02*
X36520000Y-76380000D01*
G75*
G02*
X36720000Y-76580000I0J-200000D01*
G01*
X36720000Y-76980000D01*
G75*
G02*
X36520000Y-77180000I-200000J0D01*
G01*
X35320000Y-77180000D01*
G75*
G02*
X35120000Y-76980000I0J200000D01*
G01*
X35120000Y-76580000D01*
G75*
G02*
X35320000Y-76380000I200000J0D01*
G01*
G37*
G36*
G01*
X35320000Y-75130000D02*
X36520000Y-75130000D01*
G75*
G02*
X36720000Y-75330000I0J-200000D01*
G01*
X36720000Y-75730000D01*
G75*
G02*
X36520000Y-75930000I-200000J0D01*
G01*
X35320000Y-75930000D01*
G75*
G02*
X35120000Y-75730000I0J200000D01*
G01*
X35120000Y-75330000D01*
G75*
G02*
X35320000Y-75130000I200000J0D01*
G01*
G37*
%TD*%
D12*
%TO.C,U1*%
X114180000Y-67495000D03*
D13*
X122120000Y-77310000D03*
X120720000Y-77310000D03*
X119220000Y-77310000D03*
X117620000Y-77310000D03*
D14*
X98970000Y-73935000D03*
X98970000Y-75435000D03*
D13*
X99620000Y-77310000D03*
X101120000Y-77310000D03*
X102620000Y-77310000D03*
X104120000Y-77310000D03*
X105620000Y-77310000D03*
X107120000Y-77310000D03*
X108620000Y-77310000D03*
X110120000Y-77310000D03*
X111620000Y-77310000D03*
X113120000Y-77310000D03*
X114620000Y-77310000D03*
X116120000Y-77310000D03*
X102720000Y-60060000D03*
X104220000Y-60060000D03*
X105720000Y-60060000D03*
X107220000Y-60060000D03*
X108720000Y-60060000D03*
X110220000Y-60060000D03*
X111720000Y-60060000D03*
X113220000Y-60060000D03*
X114720000Y-60060000D03*
X116220000Y-60060000D03*
X117720000Y-60060000D03*
X119220000Y-60060000D03*
X120720000Y-60060000D03*
D14*
X98970000Y-72435000D03*
X98970000Y-70935000D03*
X98970000Y-69435000D03*
X98970000Y-67935000D03*
X98970000Y-66435000D03*
X98970000Y-64935000D03*
X98970000Y-63435000D03*
X98970000Y-61935000D03*
D13*
X99720000Y-60060000D03*
X101220000Y-60060000D03*
X122220000Y-60060000D03*
%TD*%
D15*
%TO.C,SW4*%
X71960000Y-36170000D03*
X61760000Y-36170000D03*
X71960000Y-31670000D03*
X61760000Y-31670000D03*
%TD*%
%TO.C,SW3*%
X58150000Y-36130000D03*
X47950000Y-36130000D03*
X58150000Y-31630000D03*
X47950000Y-31630000D03*
%TD*%
D16*
%TO.C,SW2*%
X75790000Y-42350000D03*
X75790000Y-32150000D03*
X80290000Y-42350000D03*
X80290000Y-32150000D03*
%TD*%
%TO.C,R31*%
G36*
G01*
X39240000Y-35575000D02*
X39240000Y-35945000D01*
G75*
G02*
X39105000Y-36080000I-135000J0D01*
G01*
X38835000Y-36080000D01*
G75*
G02*
X38700000Y-35945000I0J135000D01*
G01*
X38700000Y-35575000D01*
G75*
G02*
X38835000Y-35440000I135000J0D01*
G01*
X39105000Y-35440000D01*
G75*
G02*
X39240000Y-35575000I0J-135000D01*
G01*
G37*
G36*
G01*
X40260000Y-35575000D02*
X40260000Y-35945000D01*
G75*
G02*
X40125000Y-36080000I-135000J0D01*
G01*
X39855000Y-36080000D01*
G75*
G02*
X39720000Y-35945000I0J135000D01*
G01*
X39720000Y-35575000D01*
G75*
G02*
X39855000Y-35440000I135000J0D01*
G01*
X40125000Y-35440000D01*
G75*
G02*
X40260000Y-35575000I0J-135000D01*
G01*
G37*
%TD*%
%TO.C,C20*%
G36*
G01*
X84560000Y-48490000D02*
X84900000Y-48490000D01*
G75*
G02*
X85040000Y-48630000I0J-140000D01*
G01*
X85040000Y-48910000D01*
G75*
G02*
X84900000Y-49050000I-140000J0D01*
G01*
X84560000Y-49050000D01*
G75*
G02*
X84420000Y-48910000I0J140000D01*
G01*
X84420000Y-48630000D01*
G75*
G02*
X84560000Y-48490000I140000J0D01*
G01*
G37*
G36*
G01*
X84560000Y-47530000D02*
X84900000Y-47530000D01*
G75*
G02*
X85040000Y-47670000I0J-140000D01*
G01*
X85040000Y-47950000D01*
G75*
G02*
X84900000Y-48090000I-140000J0D01*
G01*
X84560000Y-48090000D01*
G75*
G02*
X84420000Y-47950000I0J140000D01*
G01*
X84420000Y-47670000D01*
G75*
G02*
X84560000Y-47530000I140000J0D01*
G01*
G37*
%TD*%
D17*
%TO.C,J9*%
X82220000Y-68250000D03*
X82220000Y-67750000D03*
X82220000Y-67250000D03*
X82220000Y-66750000D03*
X82220000Y-66250000D03*
X82220000Y-65750000D03*
X82220000Y-65250000D03*
X82220000Y-64750000D03*
X82220000Y-64250000D03*
X82220000Y-63750000D03*
X82220000Y-63250000D03*
X82220000Y-62750000D03*
X82220000Y-62250000D03*
X82220000Y-61750000D03*
X82220000Y-61250000D03*
X82220000Y-60750000D03*
X82220000Y-60250000D03*
X82220000Y-59750000D03*
X82220000Y-59250000D03*
X82220000Y-58750000D03*
X82220000Y-58250000D03*
X82220000Y-57750000D03*
X82220000Y-57250000D03*
X82220000Y-56750000D03*
X82220000Y-56250000D03*
X82220000Y-55750000D03*
X82220000Y-55250000D03*
X82220000Y-54750000D03*
X82220000Y-54250000D03*
X82220000Y-53750000D03*
X82220000Y-53250000D03*
X82220000Y-52750000D03*
X82220000Y-52250000D03*
X82220000Y-51750000D03*
X82220000Y-51250000D03*
X82220000Y-50750000D03*
X82220000Y-50250000D03*
X82220000Y-49750000D03*
X82220000Y-49250000D03*
X82220000Y-48750000D03*
D18*
X78970000Y-46850000D03*
X78970000Y-70150000D03*
%TD*%
D19*
%TO.C,J6*%
X54360000Y-85240000D03*
D20*
X54360000Y-82700000D03*
X56900000Y-85240000D03*
X56900000Y-82700000D03*
X59440000Y-85240000D03*
X59440000Y-82700000D03*
X61980000Y-85240000D03*
X61980000Y-82700000D03*
X64520000Y-85240000D03*
X64520000Y-82700000D03*
X67060000Y-85240000D03*
X67060000Y-82700000D03*
X69600000Y-85240000D03*
X69600000Y-82700000D03*
X72140000Y-85240000D03*
X72140000Y-82700000D03*
%TD*%
D21*
%TO.C,U10*%
X60980000Y-79072500D03*
X61480000Y-79072500D03*
D22*
X60480000Y-79047500D03*
D21*
X61480000Y-79847500D03*
X59980000Y-79072500D03*
X59480000Y-79072500D03*
X60980000Y-79847500D03*
X59480000Y-79847500D03*
D23*
X60480000Y-79810000D03*
D21*
X59980000Y-79847500D03*
%TD*%
%TO.C,U9*%
X64830000Y-79827500D03*
D23*
X65330000Y-79790000D03*
D21*
X64330000Y-79827500D03*
X65830000Y-79827500D03*
X64330000Y-79052500D03*
X64830000Y-79052500D03*
X66330000Y-79827500D03*
D22*
X65330000Y-79027500D03*
D21*
X66330000Y-79052500D03*
X65830000Y-79052500D03*
%TD*%
%TO.C,U8*%
X61340000Y-40710000D03*
D23*
X61840000Y-40672500D03*
D21*
X60840000Y-40710000D03*
X62340000Y-40710000D03*
X60840000Y-39935000D03*
X61340000Y-39935000D03*
X62840000Y-40710000D03*
D22*
X61840000Y-39910000D03*
D21*
X62840000Y-39935000D03*
X62340000Y-39935000D03*
%TD*%
D24*
%TO.C,U7*%
X41255000Y-43850000D03*
D25*
X41292500Y-44350000D03*
D24*
X41255000Y-43350000D03*
X41255000Y-44850000D03*
X42030000Y-43350000D03*
X42030000Y-43850000D03*
X41255000Y-45350000D03*
D26*
X42055000Y-44350000D03*
D24*
X42030000Y-45350000D03*
X42030000Y-44850000D03*
%TD*%
%TO.C,U6*%
X41292500Y-76860000D03*
D25*
X41330000Y-77360000D03*
D24*
X41292500Y-76360000D03*
X41292500Y-77860000D03*
X42067500Y-76360000D03*
X42067500Y-76860000D03*
X41292500Y-78360000D03*
D26*
X42092500Y-77360000D03*
D24*
X42067500Y-78360000D03*
X42067500Y-77860000D03*
%TD*%
D21*
%TO.C,U5*%
X70380000Y-80057500D03*
D23*
X70880000Y-80020000D03*
D21*
X69880000Y-80057500D03*
X71380000Y-80057500D03*
X69880000Y-79282500D03*
X70380000Y-79282500D03*
X71880000Y-80057500D03*
D22*
X70880000Y-79257500D03*
D21*
X71880000Y-79282500D03*
X71380000Y-79282500D03*
%TD*%
D27*
%TO.C,Y1*%
X95890000Y-65800000D03*
X90390000Y-65800000D03*
X90390000Y-62600000D03*
X95890000Y-62600000D03*
%TD*%
%TO.C,R30*%
G36*
G01*
X85490000Y-50505000D02*
X85490000Y-50875000D01*
G75*
G02*
X85355000Y-51010000I-135000J0D01*
G01*
X85085000Y-51010000D01*
G75*
G02*
X84950000Y-50875000I0J135000D01*
G01*
X84950000Y-50505000D01*
G75*
G02*
X85085000Y-50370000I135000J0D01*
G01*
X85355000Y-50370000D01*
G75*
G02*
X85490000Y-50505000I0J-135000D01*
G01*
G37*
G36*
G01*
X86510000Y-50505000D02*
X86510000Y-50875000D01*
G75*
G02*
X86375000Y-51010000I-135000J0D01*
G01*
X86105000Y-51010000D01*
G75*
G02*
X85970000Y-50875000I0J135000D01*
G01*
X85970000Y-50505000D01*
G75*
G02*
X86105000Y-50370000I135000J0D01*
G01*
X86375000Y-50370000D01*
G75*
G02*
X86510000Y-50505000I0J-135000D01*
G01*
G37*
%TD*%
%TO.C,R29*%
G36*
G01*
X85480000Y-51545000D02*
X85480000Y-51915000D01*
G75*
G02*
X85345000Y-52050000I-135000J0D01*
G01*
X85075000Y-52050000D01*
G75*
G02*
X84940000Y-51915000I0J135000D01*
G01*
X84940000Y-51545000D01*
G75*
G02*
X85075000Y-51410000I135000J0D01*
G01*
X85345000Y-51410000D01*
G75*
G02*
X85480000Y-51545000I0J-135000D01*
G01*
G37*
G36*
G01*
X86500000Y-51545000D02*
X86500000Y-51915000D01*
G75*
G02*
X86365000Y-52050000I-135000J0D01*
G01*
X86095000Y-52050000D01*
G75*
G02*
X85960000Y-51915000I0J135000D01*
G01*
X85960000Y-51545000D01*
G75*
G02*
X86095000Y-51410000I135000J0D01*
G01*
X86365000Y-51410000D01*
G75*
G02*
X86500000Y-51545000I0J-135000D01*
G01*
G37*
%TD*%
%TO.C,R28*%
G36*
G01*
X85480000Y-52595000D02*
X85480000Y-52965000D01*
G75*
G02*
X85345000Y-53100000I-135000J0D01*
G01*
X85075000Y-53100000D01*
G75*
G02*
X84940000Y-52965000I0J135000D01*
G01*
X84940000Y-52595000D01*
G75*
G02*
X85075000Y-52460000I135000J0D01*
G01*
X85345000Y-52460000D01*
G75*
G02*
X85480000Y-52595000I0J-135000D01*
G01*
G37*
G36*
G01*
X86500000Y-52595000D02*
X86500000Y-52965000D01*
G75*
G02*
X86365000Y-53100000I-135000J0D01*
G01*
X86095000Y-53100000D01*
G75*
G02*
X85960000Y-52965000I0J135000D01*
G01*
X85960000Y-52595000D01*
G75*
G02*
X86095000Y-52460000I135000J0D01*
G01*
X86365000Y-52460000D01*
G75*
G02*
X86500000Y-52595000I0J-135000D01*
G01*
G37*
%TD*%
%TO.C,R27*%
G36*
G01*
X85365000Y-63530000D02*
X84995000Y-63530000D01*
G75*
G02*
X84860000Y-63395000I0J135000D01*
G01*
X84860000Y-63125000D01*
G75*
G02*
X84995000Y-62990000I135000J0D01*
G01*
X85365000Y-62990000D01*
G75*
G02*
X85500000Y-63125000I0J-135000D01*
G01*
X85500000Y-63395000D01*
G75*
G02*
X85365000Y-63530000I-135000J0D01*
G01*
G37*
G36*
G01*
X85365000Y-64550000D02*
X84995000Y-64550000D01*
G75*
G02*
X84860000Y-64415000I0J135000D01*
G01*
X84860000Y-64145000D01*
G75*
G02*
X84995000Y-64010000I135000J0D01*
G01*
X85365000Y-64010000D01*
G75*
G02*
X85500000Y-64145000I0J-135000D01*
G01*
X85500000Y-64415000D01*
G75*
G02*
X85365000Y-64550000I-135000J0D01*
G01*
G37*
%TD*%
%TO.C,R25*%
G36*
G01*
X56330000Y-50405000D02*
X56330000Y-50035000D01*
G75*
G02*
X56465000Y-49900000I135000J0D01*
G01*
X56735000Y-49900000D01*
G75*
G02*
X56870000Y-50035000I0J-135000D01*
G01*
X56870000Y-50405000D01*
G75*
G02*
X56735000Y-50540000I-135000J0D01*
G01*
X56465000Y-50540000D01*
G75*
G02*
X56330000Y-50405000I0J135000D01*
G01*
G37*
G36*
G01*
X55310000Y-50405000D02*
X55310000Y-50035000D01*
G75*
G02*
X55445000Y-49900000I135000J0D01*
G01*
X55715000Y-49900000D01*
G75*
G02*
X55850000Y-50035000I0J-135000D01*
G01*
X55850000Y-50405000D01*
G75*
G02*
X55715000Y-50540000I-135000J0D01*
G01*
X55445000Y-50540000D01*
G75*
G02*
X55310000Y-50405000I0J135000D01*
G01*
G37*
%TD*%
%TO.C,R23*%
G36*
G01*
X113385000Y-56880000D02*
X113015000Y-56880000D01*
G75*
G02*
X112880000Y-56745000I0J135000D01*
G01*
X112880000Y-56475000D01*
G75*
G02*
X113015000Y-56340000I135000J0D01*
G01*
X113385000Y-56340000D01*
G75*
G02*
X113520000Y-56475000I0J-135000D01*
G01*
X113520000Y-56745000D01*
G75*
G02*
X113385000Y-56880000I-135000J0D01*
G01*
G37*
G36*
G01*
X113385000Y-57900000D02*
X113015000Y-57900000D01*
G75*
G02*
X112880000Y-57765000I0J135000D01*
G01*
X112880000Y-57495000D01*
G75*
G02*
X113015000Y-57360000I135000J0D01*
G01*
X113385000Y-57360000D01*
G75*
G02*
X113520000Y-57495000I0J-135000D01*
G01*
X113520000Y-57765000D01*
G75*
G02*
X113385000Y-57900000I-135000J0D01*
G01*
G37*
%TD*%
%TO.C,R20*%
G36*
G01*
X114075000Y-57360000D02*
X114445000Y-57360000D01*
G75*
G02*
X114580000Y-57495000I0J-135000D01*
G01*
X114580000Y-57765000D01*
G75*
G02*
X114445000Y-57900000I-135000J0D01*
G01*
X114075000Y-57900000D01*
G75*
G02*
X113940000Y-57765000I0J135000D01*
G01*
X113940000Y-57495000D01*
G75*
G02*
X114075000Y-57360000I135000J0D01*
G01*
G37*
G36*
G01*
X114075000Y-56340000D02*
X114445000Y-56340000D01*
G75*
G02*
X114580000Y-56475000I0J-135000D01*
G01*
X114580000Y-56745000D01*
G75*
G02*
X114445000Y-56880000I-135000J0D01*
G01*
X114075000Y-56880000D01*
G75*
G02*
X113940000Y-56745000I0J135000D01*
G01*
X113940000Y-56475000D01*
G75*
G02*
X114075000Y-56340000I135000J0D01*
G01*
G37*
%TD*%
%TO.C,R18*%
G36*
G01*
X96450000Y-59575000D02*
X96450000Y-59945000D01*
G75*
G02*
X96315000Y-60080000I-135000J0D01*
G01*
X96045000Y-60080000D01*
G75*
G02*
X95910000Y-59945000I0J135000D01*
G01*
X95910000Y-59575000D01*
G75*
G02*
X96045000Y-59440000I135000J0D01*
G01*
X96315000Y-59440000D01*
G75*
G02*
X96450000Y-59575000I0J-135000D01*
G01*
G37*
G36*
G01*
X97470000Y-59575000D02*
X97470000Y-59945000D01*
G75*
G02*
X97335000Y-60080000I-135000J0D01*
G01*
X97065000Y-60080000D01*
G75*
G02*
X96930000Y-59945000I0J135000D01*
G01*
X96930000Y-59575000D01*
G75*
G02*
X97065000Y-59440000I135000J0D01*
G01*
X97335000Y-59440000D01*
G75*
G02*
X97470000Y-59575000I0J-135000D01*
G01*
G37*
%TD*%
%TO.C,R5*%
G36*
G01*
X41300000Y-73935000D02*
X41300000Y-73565000D01*
G75*
G02*
X41435000Y-73430000I135000J0D01*
G01*
X41705000Y-73430000D01*
G75*
G02*
X41840000Y-73565000I0J-135000D01*
G01*
X41840000Y-73935000D01*
G75*
G02*
X41705000Y-74070000I-135000J0D01*
G01*
X41435000Y-74070000D01*
G75*
G02*
X41300000Y-73935000I0J135000D01*
G01*
G37*
G36*
G01*
X40280000Y-73935000D02*
X40280000Y-73565000D01*
G75*
G02*
X40415000Y-73430000I135000J0D01*
G01*
X40685000Y-73430000D01*
G75*
G02*
X40820000Y-73565000I0J-135000D01*
G01*
X40820000Y-73935000D01*
G75*
G02*
X40685000Y-74070000I-135000J0D01*
G01*
X40415000Y-74070000D01*
G75*
G02*
X40280000Y-73935000I0J135000D01*
G01*
G37*
%TD*%
%TO.C,R4*%
G36*
G01*
X42040000Y-72885000D02*
X42040000Y-72515000D01*
G75*
G02*
X42175000Y-72380000I135000J0D01*
G01*
X42445000Y-72380000D01*
G75*
G02*
X42580000Y-72515000I0J-135000D01*
G01*
X42580000Y-72885000D01*
G75*
G02*
X42445000Y-73020000I-135000J0D01*
G01*
X42175000Y-73020000D01*
G75*
G02*
X42040000Y-72885000I0J135000D01*
G01*
G37*
G36*
G01*
X41020000Y-72885000D02*
X41020000Y-72515000D01*
G75*
G02*
X41155000Y-72380000I135000J0D01*
G01*
X41425000Y-72380000D01*
G75*
G02*
X41560000Y-72515000I0J-135000D01*
G01*
X41560000Y-72885000D01*
G75*
G02*
X41425000Y-73020000I-135000J0D01*
G01*
X41155000Y-73020000D01*
G75*
G02*
X41020000Y-72885000I0J135000D01*
G01*
G37*
%TD*%
%TO.C,C19*%
G36*
G01*
X117710000Y-56590000D02*
X117710000Y-56250000D01*
G75*
G02*
X117850000Y-56110000I140000J0D01*
G01*
X118130000Y-56110000D01*
G75*
G02*
X118270000Y-56250000I0J-140000D01*
G01*
X118270000Y-56590000D01*
G75*
G02*
X118130000Y-56730000I-140000J0D01*
G01*
X117850000Y-56730000D01*
G75*
G02*
X117710000Y-56590000I0J140000D01*
G01*
G37*
G36*
G01*
X116750000Y-56590000D02*
X116750000Y-56250000D01*
G75*
G02*
X116890000Y-56110000I140000J0D01*
G01*
X117170000Y-56110000D01*
G75*
G02*
X117310000Y-56250000I0J-140000D01*
G01*
X117310000Y-56590000D01*
G75*
G02*
X117170000Y-56730000I-140000J0D01*
G01*
X116890000Y-56730000D01*
G75*
G02*
X116750000Y-56590000I0J140000D01*
G01*
G37*
%TD*%
%TO.C,C18*%
G36*
G01*
X95580000Y-67350000D02*
X95580000Y-67690000D01*
G75*
G02*
X95440000Y-67830000I-140000J0D01*
G01*
X95160000Y-67830000D01*
G75*
G02*
X95020000Y-67690000I0J140000D01*
G01*
X95020000Y-67350000D01*
G75*
G02*
X95160000Y-67210000I140000J0D01*
G01*
X95440000Y-67210000D01*
G75*
G02*
X95580000Y-67350000I0J-140000D01*
G01*
G37*
G36*
G01*
X96540000Y-67350000D02*
X96540000Y-67690000D01*
G75*
G02*
X96400000Y-67830000I-140000J0D01*
G01*
X96120000Y-67830000D01*
G75*
G02*
X95980000Y-67690000I0J140000D01*
G01*
X95980000Y-67350000D01*
G75*
G02*
X96120000Y-67210000I140000J0D01*
G01*
X96400000Y-67210000D01*
G75*
G02*
X96540000Y-67350000I0J-140000D01*
G01*
G37*
%TD*%
%TO.C,C17*%
G36*
G01*
X95950000Y-61040000D02*
X95950000Y-60700000D01*
G75*
G02*
X96090000Y-60560000I140000J0D01*
G01*
X96370000Y-60560000D01*
G75*
G02*
X96510000Y-60700000I0J-140000D01*
G01*
X96510000Y-61040000D01*
G75*
G02*
X96370000Y-61180000I-140000J0D01*
G01*
X96090000Y-61180000D01*
G75*
G02*
X95950000Y-61040000I0J140000D01*
G01*
G37*
G36*
G01*
X94990000Y-61040000D02*
X94990000Y-60700000D01*
G75*
G02*
X95130000Y-60560000I140000J0D01*
G01*
X95410000Y-60560000D01*
G75*
G02*
X95550000Y-60700000I0J-140000D01*
G01*
X95550000Y-61040000D01*
G75*
G02*
X95410000Y-61180000I-140000J0D01*
G01*
X95130000Y-61180000D01*
G75*
G02*
X94990000Y-61040000I0J140000D01*
G01*
G37*
%TD*%
%TO.C,R17*%
G36*
G01*
X103090000Y-40665000D02*
X103090000Y-40295000D01*
G75*
G02*
X103225000Y-40160000I135000J0D01*
G01*
X103495000Y-40160000D01*
G75*
G02*
X103630000Y-40295000I0J-135000D01*
G01*
X103630000Y-40665000D01*
G75*
G02*
X103495000Y-40800000I-135000J0D01*
G01*
X103225000Y-40800000D01*
G75*
G02*
X103090000Y-40665000I0J135000D01*
G01*
G37*
G36*
G01*
X102070000Y-40665000D02*
X102070000Y-40295000D01*
G75*
G02*
X102205000Y-40160000I135000J0D01*
G01*
X102475000Y-40160000D01*
G75*
G02*
X102610000Y-40295000I0J-135000D01*
G01*
X102610000Y-40665000D01*
G75*
G02*
X102475000Y-40800000I-135000J0D01*
G01*
X102205000Y-40800000D01*
G75*
G02*
X102070000Y-40665000I0J135000D01*
G01*
G37*
%TD*%
%TO.C,R15*%
G36*
G01*
X89880000Y-40535000D02*
X89880000Y-40905000D01*
G75*
G02*
X89745000Y-41040000I-135000J0D01*
G01*
X89475000Y-41040000D01*
G75*
G02*
X89340000Y-40905000I0J135000D01*
G01*
X89340000Y-40535000D01*
G75*
G02*
X89475000Y-40400000I135000J0D01*
G01*
X89745000Y-40400000D01*
G75*
G02*
X89880000Y-40535000I0J-135000D01*
G01*
G37*
G36*
G01*
X90900000Y-40535000D02*
X90900000Y-40905000D01*
G75*
G02*
X90765000Y-41040000I-135000J0D01*
G01*
X90495000Y-41040000D01*
G75*
G02*
X90360000Y-40905000I0J135000D01*
G01*
X90360000Y-40535000D01*
G75*
G02*
X90495000Y-40400000I135000J0D01*
G01*
X90765000Y-40400000D01*
G75*
G02*
X90900000Y-40535000I0J-135000D01*
G01*
G37*
%TD*%
%TO.C,C16*%
G36*
G01*
X58470000Y-41120000D02*
X58810000Y-41120000D01*
G75*
G02*
X58950000Y-41260000I0J-140000D01*
G01*
X58950000Y-41540000D01*
G75*
G02*
X58810000Y-41680000I-140000J0D01*
G01*
X58470000Y-41680000D01*
G75*
G02*
X58330000Y-41540000I0J140000D01*
G01*
X58330000Y-41260000D01*
G75*
G02*
X58470000Y-41120000I140000J0D01*
G01*
G37*
G36*
G01*
X58470000Y-40160000D02*
X58810000Y-40160000D01*
G75*
G02*
X58950000Y-40300000I0J-140000D01*
G01*
X58950000Y-40580000D01*
G75*
G02*
X58810000Y-40720000I-140000J0D01*
G01*
X58470000Y-40720000D01*
G75*
G02*
X58330000Y-40580000I0J140000D01*
G01*
X58330000Y-40300000D01*
G75*
G02*
X58470000Y-40160000I140000J0D01*
G01*
G37*
%TD*%
%TO.C,R19*%
G36*
G01*
X37775000Y-36540000D02*
X38145000Y-36540000D01*
G75*
G02*
X38280000Y-36675000I0J-135000D01*
G01*
X38280000Y-36945000D01*
G75*
G02*
X38145000Y-37080000I-135000J0D01*
G01*
X37775000Y-37080000D01*
G75*
G02*
X37640000Y-36945000I0J135000D01*
G01*
X37640000Y-36675000D01*
G75*
G02*
X37775000Y-36540000I135000J0D01*
G01*
G37*
G36*
G01*
X37775000Y-35520000D02*
X38145000Y-35520000D01*
G75*
G02*
X38280000Y-35655000I0J-135000D01*
G01*
X38280000Y-35925000D01*
G75*
G02*
X38145000Y-36060000I-135000J0D01*
G01*
X37775000Y-36060000D01*
G75*
G02*
X37640000Y-35925000I0J135000D01*
G01*
X37640000Y-35655000D01*
G75*
G02*
X37775000Y-35520000I135000J0D01*
G01*
G37*
%TD*%
%TO.C,R12*%
G36*
G01*
X47475000Y-86100000D02*
X47845000Y-86100000D01*
G75*
G02*
X47980000Y-86235000I0J-135000D01*
G01*
X47980000Y-86505000D01*
G75*
G02*
X47845000Y-86640000I-135000J0D01*
G01*
X47475000Y-86640000D01*
G75*
G02*
X47340000Y-86505000I0J135000D01*
G01*
X47340000Y-86235000D01*
G75*
G02*
X47475000Y-86100000I135000J0D01*
G01*
G37*
G36*
G01*
X47475000Y-85080000D02*
X47845000Y-85080000D01*
G75*
G02*
X47980000Y-85215000I0J-135000D01*
G01*
X47980000Y-85485000D01*
G75*
G02*
X47845000Y-85620000I-135000J0D01*
G01*
X47475000Y-85620000D01*
G75*
G02*
X47340000Y-85485000I0J135000D01*
G01*
X47340000Y-85215000D01*
G75*
G02*
X47475000Y-85080000I135000J0D01*
G01*
G37*
%TD*%
%TO.C,R11*%
G36*
G01*
X39705000Y-85520000D02*
X39335000Y-85520000D01*
G75*
G02*
X39200000Y-85385000I0J135000D01*
G01*
X39200000Y-85115000D01*
G75*
G02*
X39335000Y-84980000I135000J0D01*
G01*
X39705000Y-84980000D01*
G75*
G02*
X39840000Y-85115000I0J-135000D01*
G01*
X39840000Y-85385000D01*
G75*
G02*
X39705000Y-85520000I-135000J0D01*
G01*
G37*
G36*
G01*
X39705000Y-86540000D02*
X39335000Y-86540000D01*
G75*
G02*
X39200000Y-86405000I0J135000D01*
G01*
X39200000Y-86135000D01*
G75*
G02*
X39335000Y-86000000I135000J0D01*
G01*
X39705000Y-86000000D01*
G75*
G02*
X39840000Y-86135000I0J-135000D01*
G01*
X39840000Y-86405000D01*
G75*
G02*
X39705000Y-86540000I-135000J0D01*
G01*
G37*
%TD*%
%TO.C,R10*%
G36*
G01*
X121380000Y-37135000D02*
X121380000Y-36765000D01*
G75*
G02*
X121515000Y-36630000I135000J0D01*
G01*
X121785000Y-36630000D01*
G75*
G02*
X121920000Y-36765000I0J-135000D01*
G01*
X121920000Y-37135000D01*
G75*
G02*
X121785000Y-37270000I-135000J0D01*
G01*
X121515000Y-37270000D01*
G75*
G02*
X121380000Y-37135000I0J135000D01*
G01*
G37*
G36*
G01*
X120360000Y-37135000D02*
X120360000Y-36765000D01*
G75*
G02*
X120495000Y-36630000I135000J0D01*
G01*
X120765000Y-36630000D01*
G75*
G02*
X120900000Y-36765000I0J-135000D01*
G01*
X120900000Y-37135000D01*
G75*
G02*
X120765000Y-37270000I-135000J0D01*
G01*
X120495000Y-37270000D01*
G75*
G02*
X120360000Y-37135000I0J135000D01*
G01*
G37*
%TD*%
D28*
%TO.C,H5*%
X127150000Y-84170000D03*
%TD*%
%TO.C,C15*%
G36*
G01*
X47240000Y-48760000D02*
X47240000Y-49100000D01*
G75*
G02*
X47100000Y-49240000I-140000J0D01*
G01*
X46820000Y-49240000D01*
G75*
G02*
X46680000Y-49100000I0J140000D01*
G01*
X46680000Y-48760000D01*
G75*
G02*
X46820000Y-48620000I140000J0D01*
G01*
X47100000Y-48620000D01*
G75*
G02*
X47240000Y-48760000I0J-140000D01*
G01*
G37*
G36*
G01*
X48200000Y-48760000D02*
X48200000Y-49100000D01*
G75*
G02*
X48060000Y-49240000I-140000J0D01*
G01*
X47780000Y-49240000D01*
G75*
G02*
X47640000Y-49100000I0J140000D01*
G01*
X47640000Y-48760000D01*
G75*
G02*
X47780000Y-48620000I140000J0D01*
G01*
X48060000Y-48620000D01*
G75*
G02*
X48200000Y-48760000I0J-140000D01*
G01*
G37*
%TD*%
%TO.C,C14*%
G36*
G01*
X49900000Y-47580000D02*
X49400000Y-47580000D01*
G75*
G02*
X49175000Y-47355000I0J225000D01*
G01*
X49175000Y-46905000D01*
G75*
G02*
X49400000Y-46680000I225000J0D01*
G01*
X49900000Y-46680000D01*
G75*
G02*
X50125000Y-46905000I0J-225000D01*
G01*
X50125000Y-47355000D01*
G75*
G02*
X49900000Y-47580000I-225000J0D01*
G01*
G37*
G36*
G01*
X49900000Y-49130000D02*
X49400000Y-49130000D01*
G75*
G02*
X49175000Y-48905000I0J225000D01*
G01*
X49175000Y-48455000D01*
G75*
G02*
X49400000Y-48230000I225000J0D01*
G01*
X49900000Y-48230000D01*
G75*
G02*
X50125000Y-48455000I0J-225000D01*
G01*
X50125000Y-48905000D01*
G75*
G02*
X49900000Y-49130000I-225000J0D01*
G01*
G37*
%TD*%
%TO.C,C13*%
G36*
G01*
X47390000Y-43500000D02*
X47390000Y-44000000D01*
G75*
G02*
X47165000Y-44225000I-225000J0D01*
G01*
X46715000Y-44225000D01*
G75*
G02*
X46490000Y-44000000I0J225000D01*
G01*
X46490000Y-43500000D01*
G75*
G02*
X46715000Y-43275000I225000J0D01*
G01*
X47165000Y-43275000D01*
G75*
G02*
X47390000Y-43500000I0J-225000D01*
G01*
G37*
G36*
G01*
X48940000Y-43500000D02*
X48940000Y-44000000D01*
G75*
G02*
X48715000Y-44225000I-225000J0D01*
G01*
X48265000Y-44225000D01*
G75*
G02*
X48040000Y-44000000I0J225000D01*
G01*
X48040000Y-43500000D01*
G75*
G02*
X48265000Y-43275000I225000J0D01*
G01*
X48715000Y-43275000D01*
G75*
G02*
X48940000Y-43500000I0J-225000D01*
G01*
G37*
%TD*%
%TO.C,C12*%
G36*
G01*
X121900000Y-57890000D02*
X121560000Y-57890000D01*
G75*
G02*
X121420000Y-57750000I0J140000D01*
G01*
X121420000Y-57470000D01*
G75*
G02*
X121560000Y-57330000I140000J0D01*
G01*
X121900000Y-57330000D01*
G75*
G02*
X122040000Y-57470000I0J-140000D01*
G01*
X122040000Y-57750000D01*
G75*
G02*
X121900000Y-57890000I-140000J0D01*
G01*
G37*
G36*
G01*
X121900000Y-58850000D02*
X121560000Y-58850000D01*
G75*
G02*
X121420000Y-58710000I0J140000D01*
G01*
X121420000Y-58430000D01*
G75*
G02*
X121560000Y-58290000I140000J0D01*
G01*
X121900000Y-58290000D01*
G75*
G02*
X122040000Y-58430000I0J-140000D01*
G01*
X122040000Y-58710000D01*
G75*
G02*
X121900000Y-58850000I-140000J0D01*
G01*
G37*
%TD*%
%TO.C,C8*%
G36*
G01*
X122880000Y-57890000D02*
X122540000Y-57890000D01*
G75*
G02*
X122400000Y-57750000I0J140000D01*
G01*
X122400000Y-57470000D01*
G75*
G02*
X122540000Y-57330000I140000J0D01*
G01*
X122880000Y-57330000D01*
G75*
G02*
X123020000Y-57470000I0J-140000D01*
G01*
X123020000Y-57750000D01*
G75*
G02*
X122880000Y-57890000I-140000J0D01*
G01*
G37*
G36*
G01*
X122880000Y-58850000D02*
X122540000Y-58850000D01*
G75*
G02*
X122400000Y-58710000I0J140000D01*
G01*
X122400000Y-58430000D01*
G75*
G02*
X122540000Y-58290000I140000J0D01*
G01*
X122880000Y-58290000D01*
G75*
G02*
X123020000Y-58430000I0J-140000D01*
G01*
X123020000Y-58710000D01*
G75*
G02*
X122880000Y-58850000I-140000J0D01*
G01*
G37*
%TD*%
D29*
%TO.C,SW1*%
X37190000Y-30770000D03*
X37190000Y-33070000D03*
X44590000Y-30770000D03*
X44590000Y-33070000D03*
D30*
X40140000Y-33920000D03*
X38690000Y-33920000D03*
X43140000Y-33920000D03*
D31*
X39390000Y-31920000D03*
X42390000Y-31920000D03*
%TD*%
D32*
%TO.C,H4*%
X78160000Y-83890000D03*
%TD*%
%TO.C,H3*%
X126960000Y-33050000D03*
%TD*%
%TO.C,H2*%
X33040000Y-83910000D03*
%TD*%
%TO.C,H1*%
X33040000Y-33050000D03*
%TD*%
%TO.C,R26*%
G36*
G01*
X125600000Y-37705000D02*
X125600000Y-37335000D01*
G75*
G02*
X125735000Y-37200000I135000J0D01*
G01*
X126005000Y-37200000D01*
G75*
G02*
X126140000Y-37335000I0J-135000D01*
G01*
X126140000Y-37705000D01*
G75*
G02*
X126005000Y-37840000I-135000J0D01*
G01*
X125735000Y-37840000D01*
G75*
G02*
X125600000Y-37705000I0J135000D01*
G01*
G37*
G36*
G01*
X124580000Y-37705000D02*
X124580000Y-37335000D01*
G75*
G02*
X124715000Y-37200000I135000J0D01*
G01*
X124985000Y-37200000D01*
G75*
G02*
X125120000Y-37335000I0J-135000D01*
G01*
X125120000Y-37705000D01*
G75*
G02*
X124985000Y-37840000I-135000J0D01*
G01*
X124715000Y-37840000D01*
G75*
G02*
X124580000Y-37705000I0J135000D01*
G01*
G37*
%TD*%
%TO.C,R24*%
G36*
G01*
X125720000Y-40415000D02*
X125720000Y-40045000D01*
G75*
G02*
X125855000Y-39910000I135000J0D01*
G01*
X126125000Y-39910000D01*
G75*
G02*
X126260000Y-40045000I0J-135000D01*
G01*
X126260000Y-40415000D01*
G75*
G02*
X126125000Y-40550000I-135000J0D01*
G01*
X125855000Y-40550000D01*
G75*
G02*
X125720000Y-40415000I0J135000D01*
G01*
G37*
G36*
G01*
X124700000Y-40415000D02*
X124700000Y-40045000D01*
G75*
G02*
X124835000Y-39910000I135000J0D01*
G01*
X125105000Y-39910000D01*
G75*
G02*
X125240000Y-40045000I0J-135000D01*
G01*
X125240000Y-40415000D01*
G75*
G02*
X125105000Y-40550000I-135000J0D01*
G01*
X124835000Y-40550000D01*
G75*
G02*
X124700000Y-40415000I0J135000D01*
G01*
G37*
%TD*%
%TO.C,R22*%
G36*
G01*
X125740000Y-41435000D02*
X125740000Y-41065000D01*
G75*
G02*
X125875000Y-40930000I135000J0D01*
G01*
X126145000Y-40930000D01*
G75*
G02*
X126280000Y-41065000I0J-135000D01*
G01*
X126280000Y-41435000D01*
G75*
G02*
X126145000Y-41570000I-135000J0D01*
G01*
X125875000Y-41570000D01*
G75*
G02*
X125740000Y-41435000I0J135000D01*
G01*
G37*
G36*
G01*
X124720000Y-41435000D02*
X124720000Y-41065000D01*
G75*
G02*
X124855000Y-40930000I135000J0D01*
G01*
X125125000Y-40930000D01*
G75*
G02*
X125260000Y-41065000I0J-135000D01*
G01*
X125260000Y-41435000D01*
G75*
G02*
X125125000Y-41570000I-135000J0D01*
G01*
X124855000Y-41570000D01*
G75*
G02*
X124720000Y-41435000I0J135000D01*
G01*
G37*
%TD*%
%TO.C,R21*%
G36*
G01*
X125660000Y-43525000D02*
X125660000Y-43155000D01*
G75*
G02*
X125795000Y-43020000I135000J0D01*
G01*
X126065000Y-43020000D01*
G75*
G02*
X126200000Y-43155000I0J-135000D01*
G01*
X126200000Y-43525000D01*
G75*
G02*
X126065000Y-43660000I-135000J0D01*
G01*
X125795000Y-43660000D01*
G75*
G02*
X125660000Y-43525000I0J135000D01*
G01*
G37*
G36*
G01*
X124640000Y-43525000D02*
X124640000Y-43155000D01*
G75*
G02*
X124775000Y-43020000I135000J0D01*
G01*
X125045000Y-43020000D01*
G75*
G02*
X125180000Y-43155000I0J-135000D01*
G01*
X125180000Y-43525000D01*
G75*
G02*
X125045000Y-43660000I-135000J0D01*
G01*
X124775000Y-43660000D01*
G75*
G02*
X124640000Y-43525000I0J135000D01*
G01*
G37*
%TD*%
D33*
%TO.C,U2*%
X123010000Y-33800000D03*
X122060000Y-33800000D03*
X121110000Y-33800000D03*
X121110000Y-31000000D03*
X122060000Y-31000000D03*
X123010000Y-31000000D03*
D34*
X122060000Y-32400000D03*
%TD*%
%TO.C,TH1*%
G36*
G01*
X49957500Y-81510002D02*
X49957500Y-80609998D01*
G75*
G02*
X50207498Y-80360000I249998J0D01*
G01*
X50732502Y-80360000D01*
G75*
G02*
X50982500Y-80609998I0J-249998D01*
G01*
X50982500Y-81510002D01*
G75*
G02*
X50732502Y-81760000I-249998J0D01*
G01*
X50207498Y-81760000D01*
G75*
G02*
X49957500Y-81510002I0J249998D01*
G01*
G37*
G36*
G01*
X48132500Y-81510002D02*
X48132500Y-80609998D01*
G75*
G02*
X48382498Y-80360000I249998J0D01*
G01*
X48907502Y-80360000D01*
G75*
G02*
X49157500Y-80609998I0J-249998D01*
G01*
X49157500Y-81510002D01*
G75*
G02*
X48907502Y-81760000I-249998J0D01*
G01*
X48382498Y-81760000D01*
G75*
G02*
X48132500Y-81510002I0J249998D01*
G01*
G37*
%TD*%
%TO.C,R16*%
G36*
G01*
X52065000Y-77020000D02*
X51695000Y-77020000D01*
G75*
G02*
X51560000Y-76885000I0J135000D01*
G01*
X51560000Y-76615000D01*
G75*
G02*
X51695000Y-76480000I135000J0D01*
G01*
X52065000Y-76480000D01*
G75*
G02*
X52200000Y-76615000I0J-135000D01*
G01*
X52200000Y-76885000D01*
G75*
G02*
X52065000Y-77020000I-135000J0D01*
G01*
G37*
G36*
G01*
X52065000Y-78040000D02*
X51695000Y-78040000D01*
G75*
G02*
X51560000Y-77905000I0J135000D01*
G01*
X51560000Y-77635000D01*
G75*
G02*
X51695000Y-77500000I135000J0D01*
G01*
X52065000Y-77500000D01*
G75*
G02*
X52200000Y-77635000I0J-135000D01*
G01*
X52200000Y-77905000D01*
G75*
G02*
X52065000Y-78040000I-135000J0D01*
G01*
G37*
%TD*%
D17*
%TO.C,J8*%
X59930000Y-67630000D03*
X59930000Y-67130000D03*
X59930000Y-66630000D03*
X59930000Y-66130000D03*
X59930000Y-65630000D03*
X59930000Y-65130000D03*
D18*
X56750000Y-63200000D03*
X56680000Y-69530000D03*
%TD*%
D35*
%TO.C,J7*%
X114320000Y-84936000D03*
X109240000Y-85952000D03*
X109240000Y-83920000D03*
%TD*%
%TO.C,J5*%
G36*
G01*
X117720000Y-34940000D02*
X117720000Y-31840000D01*
G75*
G02*
X117970000Y-31590000I250000J0D01*
G01*
X119270000Y-31590000D01*
G75*
G02*
X119520000Y-31840000I0J-250000D01*
G01*
X119520000Y-34940000D01*
G75*
G02*
X119270000Y-35190000I-250000J0D01*
G01*
X117970000Y-35190000D01*
G75*
G02*
X117720000Y-34940000I0J250000D01*
G01*
G37*
G36*
G01*
X107020000Y-34940000D02*
X107020000Y-31840000D01*
G75*
G02*
X107270000Y-31590000I250000J0D01*
G01*
X108570000Y-31590000D01*
G75*
G02*
X108820000Y-31840000I0J-250000D01*
G01*
X108820000Y-34940000D01*
G75*
G02*
X108570000Y-35190000I-250000J0D01*
G01*
X107270000Y-35190000D01*
G75*
G02*
X107020000Y-34940000I0J250000D01*
G01*
G37*
G36*
G01*
X115770000Y-39240000D02*
X115770000Y-36840000D01*
G75*
G02*
X116020000Y-36590000I250000J0D01*
G01*
X116520000Y-36590000D01*
G75*
G02*
X116770000Y-36840000I0J-250000D01*
G01*
X116770000Y-39240000D01*
G75*
G02*
X116520000Y-39490000I-250000J0D01*
G01*
X116020000Y-39490000D01*
G75*
G02*
X115770000Y-39240000I0J250000D01*
G01*
G37*
G36*
G01*
X113770000Y-39240000D02*
X113770000Y-36840000D01*
G75*
G02*
X114020000Y-36590000I250000J0D01*
G01*
X114520000Y-36590000D01*
G75*
G02*
X114770000Y-36840000I0J-250000D01*
G01*
X114770000Y-39240000D01*
G75*
G02*
X114520000Y-39490000I-250000J0D01*
G01*
X114020000Y-39490000D01*
G75*
G02*
X113770000Y-39240000I0J250000D01*
G01*
G37*
G36*
G01*
X111770000Y-39240000D02*
X111770000Y-36840000D01*
G75*
G02*
X112020000Y-36590000I250000J0D01*
G01*
X112520000Y-36590000D01*
G75*
G02*
X112770000Y-36840000I0J-250000D01*
G01*
X112770000Y-39240000D01*
G75*
G02*
X112520000Y-39490000I-250000J0D01*
G01*
X112020000Y-39490000D01*
G75*
G02*
X111770000Y-39240000I0J250000D01*
G01*
G37*
G36*
G01*
X109770000Y-39240000D02*
X109770000Y-36840000D01*
G75*
G02*
X110020000Y-36590000I250000J0D01*
G01*
X110520000Y-36590000D01*
G75*
G02*
X110770000Y-36840000I0J-250000D01*
G01*
X110770000Y-39240000D01*
G75*
G02*
X110520000Y-39490000I-250000J0D01*
G01*
X110020000Y-39490000D01*
G75*
G02*
X109770000Y-39240000I0J250000D01*
G01*
G37*
%TD*%
%TO.C,J4*%
G36*
G01*
X103670000Y-34940000D02*
X103670000Y-31840000D01*
G75*
G02*
X103920000Y-31590000I250000J0D01*
G01*
X105220000Y-31590000D01*
G75*
G02*
X105470000Y-31840000I0J-250000D01*
G01*
X105470000Y-34940000D01*
G75*
G02*
X105220000Y-35190000I-250000J0D01*
G01*
X103920000Y-35190000D01*
G75*
G02*
X103670000Y-34940000I0J250000D01*
G01*
G37*
G36*
G01*
X94970000Y-34940000D02*
X94970000Y-31840000D01*
G75*
G02*
X95220000Y-31590000I250000J0D01*
G01*
X96520000Y-31590000D01*
G75*
G02*
X96770000Y-31840000I0J-250000D01*
G01*
X96770000Y-34940000D01*
G75*
G02*
X96520000Y-35190000I-250000J0D01*
G01*
X95220000Y-35190000D01*
G75*
G02*
X94970000Y-34940000I0J250000D01*
G01*
G37*
G36*
G01*
X101720000Y-39240000D02*
X101720000Y-36840000D01*
G75*
G02*
X101970000Y-36590000I250000J0D01*
G01*
X102470000Y-36590000D01*
G75*
G02*
X102720000Y-36840000I0J-250000D01*
G01*
X102720000Y-39240000D01*
G75*
G02*
X102470000Y-39490000I-250000J0D01*
G01*
X101970000Y-39490000D01*
G75*
G02*
X101720000Y-39240000I0J250000D01*
G01*
G37*
G36*
G01*
X99720000Y-39240000D02*
X99720000Y-36840000D01*
G75*
G02*
X99970000Y-36590000I250000J0D01*
G01*
X100470000Y-36590000D01*
G75*
G02*
X100720000Y-36840000I0J-250000D01*
G01*
X100720000Y-39240000D01*
G75*
G02*
X100470000Y-39490000I-250000J0D01*
G01*
X99970000Y-39490000D01*
G75*
G02*
X99720000Y-39240000I0J250000D01*
G01*
G37*
G36*
G01*
X97720000Y-39240000D02*
X97720000Y-36840000D01*
G75*
G02*
X97970000Y-36590000I250000J0D01*
G01*
X98470000Y-36590000D01*
G75*
G02*
X98720000Y-36840000I0J-250000D01*
G01*
X98720000Y-39240000D01*
G75*
G02*
X98470000Y-39490000I-250000J0D01*
G01*
X97970000Y-39490000D01*
G75*
G02*
X97720000Y-39240000I0J250000D01*
G01*
G37*
%TD*%
%TO.C,J3*%
G36*
G01*
X91880000Y-34940000D02*
X91880000Y-31840000D01*
G75*
G02*
X92130000Y-31590000I250000J0D01*
G01*
X93430000Y-31590000D01*
G75*
G02*
X93680000Y-31840000I0J-250000D01*
G01*
X93680000Y-34940000D01*
G75*
G02*
X93430000Y-35190000I-250000J0D01*
G01*
X92130000Y-35190000D01*
G75*
G02*
X91880000Y-34940000I0J250000D01*
G01*
G37*
G36*
G01*
X83180000Y-34940000D02*
X83180000Y-31840000D01*
G75*
G02*
X83430000Y-31590000I250000J0D01*
G01*
X84730000Y-31590000D01*
G75*
G02*
X84980000Y-31840000I0J-250000D01*
G01*
X84980000Y-34940000D01*
G75*
G02*
X84730000Y-35190000I-250000J0D01*
G01*
X83430000Y-35190000D01*
G75*
G02*
X83180000Y-34940000I0J250000D01*
G01*
G37*
G36*
G01*
X89930000Y-39240000D02*
X89930000Y-36840000D01*
G75*
G02*
X90180000Y-36590000I250000J0D01*
G01*
X90680000Y-36590000D01*
G75*
G02*
X90930000Y-36840000I0J-250000D01*
G01*
X90930000Y-39240000D01*
G75*
G02*
X90680000Y-39490000I-250000J0D01*
G01*
X90180000Y-39490000D01*
G75*
G02*
X89930000Y-39240000I0J250000D01*
G01*
G37*
G36*
G01*
X87930000Y-39240000D02*
X87930000Y-36840000D01*
G75*
G02*
X88180000Y-36590000I250000J0D01*
G01*
X88680000Y-36590000D01*
G75*
G02*
X88930000Y-36840000I0J-250000D01*
G01*
X88930000Y-39240000D01*
G75*
G02*
X88680000Y-39490000I-250000J0D01*
G01*
X88180000Y-39490000D01*
G75*
G02*
X87930000Y-39240000I0J250000D01*
G01*
G37*
G36*
G01*
X85930000Y-39240000D02*
X85930000Y-36840000D01*
G75*
G02*
X86180000Y-36590000I250000J0D01*
G01*
X86680000Y-36590000D01*
G75*
G02*
X86930000Y-36840000I0J-250000D01*
G01*
X86930000Y-39240000D01*
G75*
G02*
X86680000Y-39490000I-250000J0D01*
G01*
X86180000Y-39490000D01*
G75*
G02*
X85930000Y-39240000I0J250000D01*
G01*
G37*
%TD*%
%TO.C,C11*%
G36*
G01*
X45670000Y-74060000D02*
X45670000Y-73560000D01*
G75*
G02*
X45895000Y-73335000I225000J0D01*
G01*
X46345000Y-73335000D01*
G75*
G02*
X46570000Y-73560000I0J-225000D01*
G01*
X46570000Y-74060000D01*
G75*
G02*
X46345000Y-74285000I-225000J0D01*
G01*
X45895000Y-74285000D01*
G75*
G02*
X45670000Y-74060000I0J225000D01*
G01*
G37*
G36*
G01*
X44120000Y-74060000D02*
X44120000Y-73560000D01*
G75*
G02*
X44345000Y-73335000I225000J0D01*
G01*
X44795000Y-73335000D01*
G75*
G02*
X45020000Y-73560000I0J-225000D01*
G01*
X45020000Y-74060000D01*
G75*
G02*
X44795000Y-74285000I-225000J0D01*
G01*
X44345000Y-74285000D01*
G75*
G02*
X44120000Y-74060000I0J225000D01*
G01*
G37*
%TD*%
%TO.C,C10*%
G36*
G01*
X120040000Y-56570000D02*
X120040000Y-56070000D01*
G75*
G02*
X120265000Y-55845000I225000J0D01*
G01*
X120715000Y-55845000D01*
G75*
G02*
X120940000Y-56070000I0J-225000D01*
G01*
X120940000Y-56570000D01*
G75*
G02*
X120715000Y-56795000I-225000J0D01*
G01*
X120265000Y-56795000D01*
G75*
G02*
X120040000Y-56570000I0J225000D01*
G01*
G37*
G36*
G01*
X121590000Y-56570000D02*
X121590000Y-56070000D01*
G75*
G02*
X121815000Y-55845000I225000J0D01*
G01*
X122265000Y-55845000D01*
G75*
G02*
X122490000Y-56070000I0J-225000D01*
G01*
X122490000Y-56570000D01*
G75*
G02*
X122265000Y-56795000I-225000J0D01*
G01*
X121815000Y-56795000D01*
G75*
G02*
X121590000Y-56570000I0J225000D01*
G01*
G37*
%TD*%
%TO.C,C9*%
G36*
G01*
X48140000Y-73540000D02*
X48140000Y-74040000D01*
G75*
G02*
X47915000Y-74265000I-225000J0D01*
G01*
X47465000Y-74265000D01*
G75*
G02*
X47240000Y-74040000I0J225000D01*
G01*
X47240000Y-73540000D01*
G75*
G02*
X47465000Y-73315000I225000J0D01*
G01*
X47915000Y-73315000D01*
G75*
G02*
X48140000Y-73540000I0J-225000D01*
G01*
G37*
G36*
G01*
X49690000Y-73540000D02*
X49690000Y-74040000D01*
G75*
G02*
X49465000Y-74265000I-225000J0D01*
G01*
X49015000Y-74265000D01*
G75*
G02*
X48790000Y-74040000I0J225000D01*
G01*
X48790000Y-73540000D01*
G75*
G02*
X49015000Y-73315000I225000J0D01*
G01*
X49465000Y-73315000D01*
G75*
G02*
X49690000Y-73540000I0J-225000D01*
G01*
G37*
%TD*%
%TO.C,C7*%
G36*
G01*
X120920000Y-35730000D02*
X120920000Y-36070000D01*
G75*
G02*
X120780000Y-36210000I-140000J0D01*
G01*
X120500000Y-36210000D01*
G75*
G02*
X120360000Y-36070000I0J140000D01*
G01*
X120360000Y-35730000D01*
G75*
G02*
X120500000Y-35590000I140000J0D01*
G01*
X120780000Y-35590000D01*
G75*
G02*
X120920000Y-35730000I0J-140000D01*
G01*
G37*
G36*
G01*
X121880000Y-35730000D02*
X121880000Y-36070000D01*
G75*
G02*
X121740000Y-36210000I-140000J0D01*
G01*
X121460000Y-36210000D01*
G75*
G02*
X121320000Y-36070000I0J140000D01*
G01*
X121320000Y-35730000D01*
G75*
G02*
X121460000Y-35590000I140000J0D01*
G01*
X121740000Y-35590000D01*
G75*
G02*
X121880000Y-35730000I0J-140000D01*
G01*
G37*
%TD*%
%TO.C,C6*%
G36*
G01*
X41240000Y-74940000D02*
X41240000Y-74600000D01*
G75*
G02*
X41380000Y-74460000I140000J0D01*
G01*
X41660000Y-74460000D01*
G75*
G02*
X41800000Y-74600000I0J-140000D01*
G01*
X41800000Y-74940000D01*
G75*
G02*
X41660000Y-75080000I-140000J0D01*
G01*
X41380000Y-75080000D01*
G75*
G02*
X41240000Y-74940000I0J140000D01*
G01*
G37*
G36*
G01*
X40280000Y-74940000D02*
X40280000Y-74600000D01*
G75*
G02*
X40420000Y-74460000I140000J0D01*
G01*
X40700000Y-74460000D01*
G75*
G02*
X40840000Y-74600000I0J-140000D01*
G01*
X40840000Y-74940000D01*
G75*
G02*
X40700000Y-75080000I-140000J0D01*
G01*
X40420000Y-75080000D01*
G75*
G02*
X40280000Y-74940000I0J140000D01*
G01*
G37*
%TD*%
%TO.C,C5*%
G36*
G01*
X41430000Y-38920000D02*
X41430000Y-39260000D01*
G75*
G02*
X41290000Y-39400000I-140000J0D01*
G01*
X41010000Y-39400000D01*
G75*
G02*
X40870000Y-39260000I0J140000D01*
G01*
X40870000Y-38920000D01*
G75*
G02*
X41010000Y-38780000I140000J0D01*
G01*
X41290000Y-38780000D01*
G75*
G02*
X41430000Y-38920000I0J-140000D01*
G01*
G37*
G36*
G01*
X42390000Y-38920000D02*
X42390000Y-39260000D01*
G75*
G02*
X42250000Y-39400000I-140000J0D01*
G01*
X41970000Y-39400000D01*
G75*
G02*
X41830000Y-39260000I0J140000D01*
G01*
X41830000Y-38920000D01*
G75*
G02*
X41970000Y-38780000I140000J0D01*
G01*
X42250000Y-38780000D01*
G75*
G02*
X42390000Y-38920000I0J-140000D01*
G01*
G37*
%TD*%
%TO.C,C4*%
G36*
G01*
X120030000Y-57400000D02*
X120030000Y-57740000D01*
G75*
G02*
X119890000Y-57880000I-140000J0D01*
G01*
X119610000Y-57880000D01*
G75*
G02*
X119470000Y-57740000I0J140000D01*
G01*
X119470000Y-57400000D01*
G75*
G02*
X119610000Y-57260000I140000J0D01*
G01*
X119890000Y-57260000D01*
G75*
G02*
X120030000Y-57400000I0J-140000D01*
G01*
G37*
G36*
G01*
X120990000Y-57400000D02*
X120990000Y-57740000D01*
G75*
G02*
X120850000Y-57880000I-140000J0D01*
G01*
X120570000Y-57880000D01*
G75*
G02*
X120430000Y-57740000I0J140000D01*
G01*
X120430000Y-57400000D01*
G75*
G02*
X120570000Y-57260000I140000J0D01*
G01*
X120850000Y-57260000D01*
G75*
G02*
X120990000Y-57400000I0J-140000D01*
G01*
G37*
%TD*%
%TO.C,C3*%
G36*
G01*
X120920000Y-34760000D02*
X120920000Y-35100000D01*
G75*
G02*
X120780000Y-35240000I-140000J0D01*
G01*
X120500000Y-35240000D01*
G75*
G02*
X120360000Y-35100000I0J140000D01*
G01*
X120360000Y-34760000D01*
G75*
G02*
X120500000Y-34620000I140000J0D01*
G01*
X120780000Y-34620000D01*
G75*
G02*
X120920000Y-34760000I0J-140000D01*
G01*
G37*
G36*
G01*
X121880000Y-34760000D02*
X121880000Y-35100000D01*
G75*
G02*
X121740000Y-35240000I-140000J0D01*
G01*
X121460000Y-35240000D01*
G75*
G02*
X121320000Y-35100000I0J140000D01*
G01*
X121320000Y-34760000D01*
G75*
G02*
X121460000Y-34620000I140000J0D01*
G01*
X121740000Y-34620000D01*
G75*
G02*
X121880000Y-34760000I0J-140000D01*
G01*
G37*
%TD*%
%TO.C,C2*%
G36*
G01*
X120030000Y-58370000D02*
X120030000Y-58710000D01*
G75*
G02*
X119890000Y-58850000I-140000J0D01*
G01*
X119610000Y-58850000D01*
G75*
G02*
X119470000Y-58710000I0J140000D01*
G01*
X119470000Y-58370000D01*
G75*
G02*
X119610000Y-58230000I140000J0D01*
G01*
X119890000Y-58230000D01*
G75*
G02*
X120030000Y-58370000I0J-140000D01*
G01*
G37*
G36*
G01*
X120990000Y-58370000D02*
X120990000Y-58710000D01*
G75*
G02*
X120850000Y-58850000I-140000J0D01*
G01*
X120570000Y-58850000D01*
G75*
G02*
X120430000Y-58710000I0J140000D01*
G01*
X120430000Y-58370000D01*
G75*
G02*
X120570000Y-58230000I140000J0D01*
G01*
X120850000Y-58230000D01*
G75*
G02*
X120990000Y-58370000I0J-140000D01*
G01*
G37*
%TD*%
%TO.C,C1*%
G36*
G01*
X122850000Y-36280000D02*
X123350000Y-36280000D01*
G75*
G02*
X123575000Y-36505000I0J-225000D01*
G01*
X123575000Y-36955000D01*
G75*
G02*
X123350000Y-37180000I-225000J0D01*
G01*
X122850000Y-37180000D01*
G75*
G02*
X122625000Y-36955000I0J225000D01*
G01*
X122625000Y-36505000D01*
G75*
G02*
X122850000Y-36280000I225000J0D01*
G01*
G37*
G36*
G01*
X122850000Y-34730000D02*
X123350000Y-34730000D01*
G75*
G02*
X123575000Y-34955000I0J-225000D01*
G01*
X123575000Y-35405000D01*
G75*
G02*
X123350000Y-35630000I-225000J0D01*
G01*
X122850000Y-35630000D01*
G75*
G02*
X122625000Y-35405000I0J225000D01*
G01*
X122625000Y-34955000D01*
G75*
G02*
X122850000Y-34730000I225000J0D01*
G01*
G37*
%TD*%
D36*
%TO.C,U4*%
X48020000Y-47600000D03*
X46120000Y-47600000D03*
X46120000Y-45400000D03*
X47070000Y-45400000D03*
X48020000Y-45400000D03*
%TD*%
D37*
%TO.C,U3*%
X50250000Y-79230000D03*
X50250000Y-77960000D03*
X50250000Y-76690000D03*
X50250000Y-75420000D03*
X44850000Y-75420000D03*
X44850000Y-76690000D03*
X44850000Y-77960000D03*
X44850000Y-79230000D03*
D38*
X47550000Y-77325000D03*
%TD*%
%TO.C,R13*%
G36*
G01*
X43715000Y-81330000D02*
X44085000Y-81330000D01*
G75*
G02*
X44220000Y-81465000I0J-135000D01*
G01*
X44220000Y-81735000D01*
G75*
G02*
X44085000Y-81870000I-135000J0D01*
G01*
X43715000Y-81870000D01*
G75*
G02*
X43580000Y-81735000I0J135000D01*
G01*
X43580000Y-81465000D01*
G75*
G02*
X43715000Y-81330000I135000J0D01*
G01*
G37*
G36*
G01*
X43715000Y-80310000D02*
X44085000Y-80310000D01*
G75*
G02*
X44220000Y-80445000I0J-135000D01*
G01*
X44220000Y-80715000D01*
G75*
G02*
X44085000Y-80850000I-135000J0D01*
G01*
X43715000Y-80850000D01*
G75*
G02*
X43580000Y-80715000I0J135000D01*
G01*
X43580000Y-80445000D01*
G75*
G02*
X43715000Y-80310000I135000J0D01*
G01*
G37*
%TD*%
%TO.C,R9*%
G36*
G01*
X43330000Y-38785000D02*
X43330000Y-39155000D01*
G75*
G02*
X43195000Y-39290000I-135000J0D01*
G01*
X42925000Y-39290000D01*
G75*
G02*
X42790000Y-39155000I0J135000D01*
G01*
X42790000Y-38785000D01*
G75*
G02*
X42925000Y-38650000I135000J0D01*
G01*
X43195000Y-38650000D01*
G75*
G02*
X43330000Y-38785000I0J-135000D01*
G01*
G37*
G36*
G01*
X44350000Y-38785000D02*
X44350000Y-39155000D01*
G75*
G02*
X44215000Y-39290000I-135000J0D01*
G01*
X43945000Y-39290000D01*
G75*
G02*
X43810000Y-39155000I0J135000D01*
G01*
X43810000Y-38785000D01*
G75*
G02*
X43945000Y-38650000I135000J0D01*
G01*
X44215000Y-38650000D01*
G75*
G02*
X44350000Y-38785000I0J-135000D01*
G01*
G37*
%TD*%
%TO.C,R8*%
G36*
G01*
X38680000Y-46295000D02*
X38680000Y-46665000D01*
G75*
G02*
X38545000Y-46800000I-135000J0D01*
G01*
X38275000Y-46800000D01*
G75*
G02*
X38140000Y-46665000I0J135000D01*
G01*
X38140000Y-46295000D01*
G75*
G02*
X38275000Y-46160000I135000J0D01*
G01*
X38545000Y-46160000D01*
G75*
G02*
X38680000Y-46295000I0J-135000D01*
G01*
G37*
G36*
G01*
X39700000Y-46295000D02*
X39700000Y-46665000D01*
G75*
G02*
X39565000Y-46800000I-135000J0D01*
G01*
X39295000Y-46800000D01*
G75*
G02*
X39160000Y-46665000I0J135000D01*
G01*
X39160000Y-46295000D01*
G75*
G02*
X39295000Y-46160000I135000J0D01*
G01*
X39565000Y-46160000D01*
G75*
G02*
X39700000Y-46295000I0J-135000D01*
G01*
G37*
%TD*%
%TO.C,R7*%
G36*
G01*
X39180000Y-43745000D02*
X39180000Y-43375000D01*
G75*
G02*
X39315000Y-43240000I135000J0D01*
G01*
X39585000Y-43240000D01*
G75*
G02*
X39720000Y-43375000I0J-135000D01*
G01*
X39720000Y-43745000D01*
G75*
G02*
X39585000Y-43880000I-135000J0D01*
G01*
X39315000Y-43880000D01*
G75*
G02*
X39180000Y-43745000I0J135000D01*
G01*
G37*
G36*
G01*
X38160000Y-43745000D02*
X38160000Y-43375000D01*
G75*
G02*
X38295000Y-43240000I135000J0D01*
G01*
X38565000Y-43240000D01*
G75*
G02*
X38700000Y-43375000I0J-135000D01*
G01*
X38700000Y-43745000D01*
G75*
G02*
X38565000Y-43880000I-135000J0D01*
G01*
X38295000Y-43880000D01*
G75*
G02*
X38160000Y-43745000I0J135000D01*
G01*
G37*
%TD*%
%TO.C,R6*%
G36*
G01*
X57655000Y-40710000D02*
X57285000Y-40710000D01*
G75*
G02*
X57150000Y-40575000I0J135000D01*
G01*
X57150000Y-40305000D01*
G75*
G02*
X57285000Y-40170000I135000J0D01*
G01*
X57655000Y-40170000D01*
G75*
G02*
X57790000Y-40305000I0J-135000D01*
G01*
X57790000Y-40575000D01*
G75*
G02*
X57655000Y-40710000I-135000J0D01*
G01*
G37*
G36*
G01*
X57655000Y-41730000D02*
X57285000Y-41730000D01*
G75*
G02*
X57150000Y-41595000I0J135000D01*
G01*
X57150000Y-41325000D01*
G75*
G02*
X57285000Y-41190000I135000J0D01*
G01*
X57655000Y-41190000D01*
G75*
G02*
X57790000Y-41325000I0J-135000D01*
G01*
X57790000Y-41595000D01*
G75*
G02*
X57655000Y-41730000I-135000J0D01*
G01*
G37*
%TD*%
%TO.C,R3*%
G36*
G01*
X114095000Y-55330000D02*
X114465000Y-55330000D01*
G75*
G02*
X114600000Y-55465000I0J-135000D01*
G01*
X114600000Y-55735000D01*
G75*
G02*
X114465000Y-55870000I-135000J0D01*
G01*
X114095000Y-55870000D01*
G75*
G02*
X113960000Y-55735000I0J135000D01*
G01*
X113960000Y-55465000D01*
G75*
G02*
X114095000Y-55330000I135000J0D01*
G01*
G37*
G36*
G01*
X114095000Y-54310000D02*
X114465000Y-54310000D01*
G75*
G02*
X114600000Y-54445000I0J-135000D01*
G01*
X114600000Y-54715000D01*
G75*
G02*
X114465000Y-54850000I-135000J0D01*
G01*
X114095000Y-54850000D01*
G75*
G02*
X113960000Y-54715000I0J135000D01*
G01*
X113960000Y-54445000D01*
G75*
G02*
X114095000Y-54310000I135000J0D01*
G01*
G37*
%TD*%
%TO.C,R2*%
G36*
G01*
X117225001Y-55190001D02*
X117225001Y-55560001D01*
G75*
G02*
X117090001Y-55695001I-135000J0D01*
G01*
X116820001Y-55695001D01*
G75*
G02*
X116685001Y-55560001I0J135000D01*
G01*
X116685001Y-55190001D01*
G75*
G02*
X116820001Y-55055001I135000J0D01*
G01*
X117090001Y-55055001D01*
G75*
G02*
X117225001Y-55190001I0J-135000D01*
G01*
G37*
G36*
G01*
X118245001Y-55190001D02*
X118245001Y-55560001D01*
G75*
G02*
X118110001Y-55695001I-135000J0D01*
G01*
X117840001Y-55695001D01*
G75*
G02*
X117705001Y-55560001I0J135000D01*
G01*
X117705001Y-55190001D01*
G75*
G02*
X117840001Y-55055001I135000J0D01*
G01*
X118110001Y-55055001D01*
G75*
G02*
X118245001Y-55190001I0J-135000D01*
G01*
G37*
%TD*%
%TO.C,R1*%
G36*
G01*
X113045000Y-55360000D02*
X113415000Y-55360000D01*
G75*
G02*
X113550000Y-55495000I0J-135000D01*
G01*
X113550000Y-55765000D01*
G75*
G02*
X113415000Y-55900000I-135000J0D01*
G01*
X113045000Y-55900000D01*
G75*
G02*
X112910000Y-55765000I0J135000D01*
G01*
X112910000Y-55495000D01*
G75*
G02*
X113045000Y-55360000I135000J0D01*
G01*
G37*
G36*
G01*
X113045000Y-54340000D02*
X113415000Y-54340000D01*
G75*
G02*
X113550000Y-54475000I0J-135000D01*
G01*
X113550000Y-54745000D01*
G75*
G02*
X113415000Y-54880000I-135000J0D01*
G01*
X113045000Y-54880000D01*
G75*
G02*
X112910000Y-54745000I0J135000D01*
G01*
X112910000Y-54475000D01*
G75*
G02*
X113045000Y-54340000I135000J0D01*
G01*
G37*
%TD*%
D39*
%TO.C,J1*%
X36840000Y-48100000D03*
X36840000Y-47300000D03*
X36840000Y-48100000D03*
X36840000Y-47300000D03*
X36840000Y-41700000D03*
X36840000Y-41700000D03*
X36840000Y-42500000D03*
X36840000Y-42500000D03*
D40*
X35780000Y-42010000D03*
X35780000Y-47790000D03*
D41*
X36840000Y-46650000D03*
X36840000Y-45650000D03*
X36840000Y-46150000D03*
X36840000Y-43650000D03*
X36840000Y-43150000D03*
X36840000Y-45150000D03*
X36840000Y-44650000D03*
X36840000Y-44150000D03*
D42*
X32090000Y-49220000D03*
X32090000Y-40580000D03*
D43*
X36260000Y-49220000D03*
X36260000Y-40580000D03*
%TD*%
%TO.C,D5*%
G36*
G01*
X127682500Y-36843750D02*
X127682500Y-37756250D01*
G75*
G02*
X127438750Y-38000000I-243750J0D01*
G01*
X126951250Y-38000000D01*
G75*
G02*
X126707500Y-37756250I0J243750D01*
G01*
X126707500Y-36843750D01*
G75*
G02*
X126951250Y-36600000I243750J0D01*
G01*
X127438750Y-36600000D01*
G75*
G02*
X127682500Y-36843750I0J-243750D01*
G01*
G37*
G36*
G01*
X129557500Y-36843750D02*
X129557500Y-37756250D01*
G75*
G02*
X129313750Y-38000000I-243750J0D01*
G01*
X128826250Y-38000000D01*
G75*
G02*
X128582500Y-37756250I0J243750D01*
G01*
X128582500Y-36843750D01*
G75*
G02*
X128826250Y-36600000I243750J0D01*
G01*
X129313750Y-36600000D01*
G75*
G02*
X129557500Y-36843750I0J-243750D01*
G01*
G37*
%TD*%
%TO.C,D4*%
G36*
G01*
X127722500Y-40813750D02*
X127722500Y-41726250D01*
G75*
G02*
X127478750Y-41970000I-243750J0D01*
G01*
X126991250Y-41970000D01*
G75*
G02*
X126747500Y-41726250I0J243750D01*
G01*
X126747500Y-40813750D01*
G75*
G02*
X126991250Y-40570000I243750J0D01*
G01*
X127478750Y-40570000D01*
G75*
G02*
X127722500Y-40813750I0J-243750D01*
G01*
G37*
G36*
G01*
X129597500Y-40813750D02*
X129597500Y-41726250D01*
G75*
G02*
X129353750Y-41970000I-243750J0D01*
G01*
X128866250Y-41970000D01*
G75*
G02*
X128622500Y-41726250I0J243750D01*
G01*
X128622500Y-40813750D01*
G75*
G02*
X128866250Y-40570000I243750J0D01*
G01*
X129353750Y-40570000D01*
G75*
G02*
X129597500Y-40813750I0J-243750D01*
G01*
G37*
%TD*%
%TO.C,D3*%
G36*
G01*
X127717500Y-42903750D02*
X127717500Y-43816250D01*
G75*
G02*
X127473750Y-44060000I-243750J0D01*
G01*
X126986250Y-44060000D01*
G75*
G02*
X126742500Y-43816250I0J243750D01*
G01*
X126742500Y-42903750D01*
G75*
G02*
X126986250Y-42660000I243750J0D01*
G01*
X127473750Y-42660000D01*
G75*
G02*
X127717500Y-42903750I0J-243750D01*
G01*
G37*
G36*
G01*
X129592500Y-42903750D02*
X129592500Y-43816250D01*
G75*
G02*
X129348750Y-44060000I-243750J0D01*
G01*
X128861250Y-44060000D01*
G75*
G02*
X128617500Y-43816250I0J243750D01*
G01*
X128617500Y-42903750D01*
G75*
G02*
X128861250Y-42660000I243750J0D01*
G01*
X129348750Y-42660000D01*
G75*
G02*
X129592500Y-42903750I0J-243750D01*
G01*
G37*
%TD*%
%TO.C,D2*%
G36*
G01*
X42292500Y-86196250D02*
X42292500Y-85283750D01*
G75*
G02*
X42536250Y-85040000I243750J0D01*
G01*
X43023750Y-85040000D01*
G75*
G02*
X43267500Y-85283750I0J-243750D01*
G01*
X43267500Y-86196250D01*
G75*
G02*
X43023750Y-86440000I-243750J0D01*
G01*
X42536250Y-86440000D01*
G75*
G02*
X42292500Y-86196250I0J243750D01*
G01*
G37*
G36*
G01*
X40417500Y-86196250D02*
X40417500Y-85283750D01*
G75*
G02*
X40661250Y-85040000I243750J0D01*
G01*
X41148750Y-85040000D01*
G75*
G02*
X41392500Y-85283750I0J-243750D01*
G01*
X41392500Y-86196250D01*
G75*
G02*
X41148750Y-86440000I-243750J0D01*
G01*
X40661250Y-86440000D01*
G75*
G02*
X40417500Y-86196250I0J243750D01*
G01*
G37*
%TD*%
%TO.C,D1*%
G36*
G01*
X44897500Y-85293750D02*
X44897500Y-86206250D01*
G75*
G02*
X44653750Y-86450000I-243750J0D01*
G01*
X44166250Y-86450000D01*
G75*
G02*
X43922500Y-86206250I0J243750D01*
G01*
X43922500Y-85293750D01*
G75*
G02*
X44166250Y-85050000I243750J0D01*
G01*
X44653750Y-85050000D01*
G75*
G02*
X44897500Y-85293750I0J-243750D01*
G01*
G37*
G36*
G01*
X46772500Y-85293750D02*
X46772500Y-86206250D01*
G75*
G02*
X46528750Y-86450000I-243750J0D01*
G01*
X46041250Y-86450000D01*
G75*
G02*
X45797500Y-86206250I0J243750D01*
G01*
X45797500Y-85293750D01*
G75*
G02*
X46041250Y-85050000I243750J0D01*
G01*
X46528750Y-85050000D01*
G75*
G02*
X46772500Y-85293750I0J-243750D01*
G01*
G37*
%TD*%
M02*
