M48
; DRILL file {KiCad (5.1.10)-1} date 07/15/21 23:52:29
; FORMAT={-:-/ absolute / metric / decimal}
; #@! TF.CreationDate,2021-07-15T23:52:29-07:00
; #@! TF.GenerationSoftware,Kicad,Pcbnew,(5.1.10)-1
; #@! TF.FileFunction,Plated,1,4,PTH
FMAT,2
METRIC
T1C0.300
T2C0.600
T3C1.000
%
G90
G05
T1
X30.689Y-52.209
X30.95Y-50.64
X31.23Y-35.32
X31.267Y-58.178
X31.28Y-57.24
X31.31Y-51.39
X31.6Y-52.86
X31.61Y-51.96
X32.03Y-57.01
X32.07Y-38.99
X32.12Y-59.11
X32.16Y-51.14
X32.67Y-56.0
X33.03Y-70.84
X33.07Y-77.27
X33.07Y-81.37
X33.12Y-75.3
X33.42Y-59.7
X34.45Y-50.98
X34.9Y-34.87
X35.39Y-57.27
X35.43Y-31.47
X35.64Y-53.18
X36.0Y-51.95
X36.1Y-54.28
X36.25Y-38.94
X36.26Y-50.8
X36.28Y-81.68
X37.03Y-53.23
X37.08Y-54.27
X37.42Y-83.11
X37.47Y-58.08
X37.83Y-79.45
X37.95Y-51.0
X38.25Y-47.37
X38.33Y-49.44
X38.34Y-44.66
X38.46Y-45.68
X38.59Y-81.32
X38.79Y-39.17
X38.99Y-58.1
X39.24Y-50.64
X39.43Y-53.28
X39.45Y-37.75
X39.55Y-84.33
X39.69Y-49.2
X40.07Y-77.96
X40.135Y-44.245
X40.15Y-35.22
X40.19Y-42.62
X40.22Y-58.27
X40.4Y-43.58
X40.738Y-72.944
X40.89Y-31.0
X41.58Y-82.65
X41.78Y-81.74
X41.849Y-36.196
X42.18Y-36.94
X42.43Y-81.25
X42.56Y-82.22
X42.64Y-74.45
X42.67Y-75.42
X42.86Y-77.39
X42.96Y-79.76
X43.118Y-44.725
X43.118Y-45.475
X43.31Y-74.43
X43.536Y-76.934
X43.62Y-79.76
X43.655Y-78.135
X43.73Y-82.639
X44.05Y-49.59
X44.61Y-34.78
X44.62Y-50.41
X44.761Y-80.269
X44.77Y-43.02
X44.85Y-60.68
X44.94Y-72.22
X45.06Y-71.07
X45.084Y-38.964
X45.09Y-53.79
X45.21Y-61.27
X45.31Y-83.33
X45.39Y-57.89
X45.44Y-43.09
X45.51Y-43.75
X45.55Y-48.91
X45.56Y-49.93
X45.58Y-50.83
X45.6Y-64.43
X45.67Y-61.79
X45.88Y-55.17
X45.93Y-82.71
X45.96Y-83.31
X46.001Y-80.28
X46.01Y-38.21
X46.12Y-72.18
X46.13Y-42.7
X46.15Y-41.92
X46.23Y-71.02
X46.33Y-39.47
X46.46Y-58.49
X46.58Y-50.34
X46.59Y-53.78
X46.59Y-60.985
X46.66Y-83.32
X46.72Y-65.78
X46.78Y-38.8
X46.78Y-71.52
X46.89Y-59.26
X47.01Y-39.39
X47.05Y-72.2
X47.21Y-60.57
X47.26Y-61.67
X47.38Y-62.54
X47.94Y-49.94
X47.95Y-50.63
X48.24Y-57.09
X48.54Y-85.34
X48.695Y-39.358
X48.71Y-49.95
X48.73Y-50.62
X49.09Y-63.26
X49.12Y-60.77
X49.4Y-49.97
X49.41Y-50.63
X49.52Y-58.26
X49.52Y-86.32
X49.66Y-45.825
X50.24Y-86.33
X50.78Y-73.54
X50.8Y-42.2
X51.16Y-60.47
X51.24Y-34.13
X51.24Y-45.825
X51.26Y-31.56
X51.29Y-72.44
X51.51Y-37.96
X51.66Y-51.29
X51.93Y-66.06
X51.96Y-67.62
X52.0Y-73.52
X52.09Y-68.84
X52.25Y-76.0
X52.718Y-79.78
X52.74Y-83.78
X52.96Y-76.7
X53.03Y-53.56
X53.15Y-51.31
X54.964Y-47.764
X55.0Y-76.44
X55.11Y-75.67
X55.14Y-79.6
X55.189Y-49.586
X55.3Y-31.58
X55.4Y-33.77
X55.43Y-80.35
X55.75Y-76.4
X56.42Y-79.59
X56.44Y-80.21
X56.67Y-37.94
X56.67Y-41.51
X56.86Y-54.22
X56.89Y-75.03
X57.27Y-55.39
X57.27Y-61.41
X57.8Y-54.12
X57.97Y-34.09
X57.99Y-39.08
X57.99Y-49.8
X58.14Y-56.45
X58.32Y-67.66
X58.64Y-54.09
X58.82Y-72.06
X58.85Y-56.9
X59.06Y-61.29
X59.1Y-56.02
X59.43Y-44.0
X59.68Y-46.78
X59.73Y-78.13
X59.84Y-77.18
X59.91Y-74.14
X59.94Y-68.94
X59.95Y-54.88
X60.51Y-78.13
X60.51Y-81.06
X60.56Y-70.19
X61.219Y-78.139
X61.34Y-42.69
X61.34Y-72.12
X61.5Y-66.65
X61.67Y-48.19
X61.83Y-41.88
X61.86Y-67.64
X61.9Y-68.59
X61.92Y-69.48
X61.93Y-78.1
X61.97Y-73.01
X62.23Y-66.14
X62.56Y-50.53
X62.69Y-73.45
X62.88Y-41.74
X62.92Y-75.36
X62.96Y-65.62
X63.28Y-51.56
X63.32Y-34.07
X63.43Y-79.61
X63.48Y-74.06
X63.49Y-49.61
X63.57Y-61.88
X63.59Y-58.47
X63.62Y-64.72
X63.73Y-46.02
X63.94Y-39.96
X65.35Y-77.96
X65.35Y-80.89
X65.49Y-45.97
X66.18Y-77.91
X66.95Y-77.96
X66.97Y-73.58
X67.507Y-80.333
X67.98Y-73.62
X68.5Y-34.12
X68.95Y-74.31
X69.24Y-71.49
X69.33Y-46.19
X69.63Y-78.09
X69.96Y-60.85
X69.99Y-68.18
X70.0Y-63.46
X70.02Y-49.98
X70.02Y-58.31
X70.05Y-56.77
X70.26Y-77.46
X70.3Y-75.03
X70.9Y-80.82
X70.92Y-78.37
X71.16Y-70.17
X71.48Y-48.33
X71.84Y-78.01
X72.34Y-41.41
X72.36Y-65.96
X72.461Y-78.202
X72.62Y-61.1
X72.89Y-34.36
X73.64Y-64.15
X73.74Y-71.32
X73.95Y-73.48
X74.77Y-34.68
X75.11Y-72.87
X75.73Y-85.92
X75.78Y-52.66
X75.99Y-44.25
X76.42Y-73.02
X76.45Y-61.46
X77.02Y-78.44
X77.32Y-36.56
X77.77Y-43.52
X78.31Y-42.7
X78.35Y-31.83
X78.46Y-45.32
X78.69Y-55.59
X78.73Y-34.74
X80.59Y-50.25
X80.66Y-60.285
X80.71Y-66.24
X80.88Y-54.77
X80.88Y-69.7
X81.13Y-45.32
X81.18Y-85.99
X81.8Y-78.42
X83.52Y-64.54
X83.64Y-63.25
X83.644Y-66.916
X83.69Y-62.21
X83.71Y-54.53
X83.787Y-57.303
X83.88Y-60.285
X83.89Y-49.95
X84.02Y-45.39
X84.08Y-61.02
X84.259Y-61.728
X84.48Y-53.84
X84.49Y-63.78
X85.49Y-56.49
X85.58Y-69.48
X85.91Y-78.31
X86.26Y-32.04
X86.39Y-65.79
X86.56Y-57.79
X86.61Y-49.44
X86.72Y-69.5
X86.77Y-85.86
X87.14Y-51.73
X87.3Y-47.62
X87.39Y-40.78
X87.52Y-65.23
X87.71Y-69.6
X88.14Y-48.87
X88.59Y-39.66
X88.71Y-69.64
X88.79Y-60.285
X88.81Y-47.64
X90.01Y-32.02
X91.15Y-55.45
X91.41Y-85.97
X91.63Y-79.16
X92.71Y-51.42
X93.09Y-72.63
X93.14Y-43.47
X93.93Y-67.67
X94.29Y-62.48
X94.49Y-63.49
X94.58Y-65.88
X95.27Y-59.81
X95.35Y-68.78
X96.52Y-54.42
X96.647Y-69.825
X96.9Y-75.39
X96.95Y-86.1
X96.98Y-65.94
X96.99Y-78.33
X97.06Y-82.51
X97.415Y-69.81
X97.822Y-67.45
X97.98Y-77.64
X98.16Y-58.44
X98.31Y-43.42
X98.43Y-82.92
X98.54Y-32.19
X98.7Y-51.35
X99.74Y-58.41
X100.17Y-39.66
X100.21Y-79.87
X100.5Y-82.96
X100.72Y-62.01
X100.75Y-68.75
X101.05Y-75.33
X101.05Y-86.11
X101.22Y-58.4
X101.66Y-32.04
X102.71Y-79.152
X102.75Y-58.36
X103.2Y-79.91
X103.54Y-83.45
X104.1Y-79.2
X104.15Y-43.34
X104.2Y-58.3
X104.3Y-41.3
X104.4Y-85.99
X104.93Y-79.77
X105.06Y-72.33
X105.49Y-58.31
X105.65Y-79.19
X105.9Y-51.45
X107.15Y-74.01
X107.22Y-58.53
X107.44Y-79.4
X108.29Y-85.03
X108.61Y-43.5
X108.65Y-78.53
X108.71Y-58.5
X108.8Y-74.75
X110.21Y-58.56
X110.21Y-78.68
X110.42Y-86.51
X110.5Y-83.22
X110.69Y-31.81
X110.88Y-43.71
X110.93Y-67.5
X110.93Y-70.76
X111.49Y-64.34
X111.54Y-86.5
X111.66Y-79.152
X111.74Y-58.66
X111.81Y-83.18
X112.19Y-40.18
X112.35Y-56.18
X113.07Y-83.15
X113.11Y-49.4
X113.13Y-79.2
X113.3Y-48.46
X113.65Y-31.75
X113.855Y-49.86
X114.17Y-70.7
X114.18Y-64.43
X114.33Y-40.48
X114.66Y-50.65
X114.73Y-80.52
X114.94Y-55.39
X115.12Y-74.99
X115.15Y-85.96
X115.61Y-55.86
X115.67Y-57.37
X115.88Y-53.86
X115.911Y-80.083
X116.2Y-37.04
X116.21Y-58.69
X116.5Y-35.93
X116.82Y-74.94
X117.02Y-44.82
X117.35Y-46.66
X117.4Y-64.45
X117.4Y-67.44
X117.42Y-70.76
X117.47Y-79.38
X117.72Y-58.02
X118.51Y-75.01
X118.55Y-40.37
X118.62Y-30.91
X118.69Y-58.58
X118.7Y-57.65
X119.04Y-40.79
X119.099Y-56.508
X119.26Y-42.575
X119.27Y-80.36
X119.44Y-39.62
X120.132Y-33.461
X120.21Y-31.01
X120.49Y-42.035
X120.5Y-74.93
X120.91Y-62.24
X121.02Y-63.62
X121.03Y-81.16
X121.549Y-42.035
X122.07Y-55.0
X122.08Y-52.27
X122.09Y-44.73
X122.11Y-74.95
X122.12Y-46.08
X122.12Y-75.92
X122.15Y-49.22
X122.21Y-62.24
X122.25Y-63.67
X122.75Y-81.96
X123.014Y-40.035
X123.64Y-38.01
X123.73Y-33.82
X123.75Y-31.02
X124.08Y-32.39
X125.16Y-31.55
X125.25Y-34.97
X128.06Y-37.93
X128.827Y-36.685
X129.1Y-43.35
X129.11Y-39.26
X129.12Y-41.26
T3
X54.36Y-82.7
X54.36Y-85.24
X56.9Y-82.7
X56.9Y-85.24
X59.44Y-82.7
X59.44Y-85.24
X61.98Y-82.7
X61.98Y-85.24
X64.52Y-82.7
X64.52Y-85.24
X67.06Y-82.7
X67.06Y-85.24
X69.6Y-82.7
X69.6Y-85.24
X72.14Y-82.7
X72.14Y-85.24
T2
X31.69Y-40.58G85X32.49Y-40.58
G05
X31.69Y-49.22G85X32.49Y-49.22
G05
X35.71Y-40.58G85X36.81Y-40.58
G05
X35.71Y-49.22G85X36.81Y-49.22
G05
T0
M30
