%TF.GenerationSoftware,KiCad,Pcbnew,(5.1.10)-1*%
%TF.CreationDate,2021-07-15T23:48:19-07:00*%
%TF.ProjectId,esp32_sensor,65737033-325f-4736-956e-736f722e6b69,rev?*%
%TF.SameCoordinates,Original*%
%TF.FileFunction,Legend,Bot*%
%TF.FilePolarity,Positive*%
%FSLAX46Y46*%
G04 Gerber Fmt 4.6, Leading zero omitted, Abs format (unit mm)*
G04 Created by KiCad (PCBNEW (5.1.10)-1) date 2021-07-15 23:48:19*
%MOMM*%
%LPD*%
G01*
G04 APERTURE LIST*
%ADD10C,0.150000*%
%ADD11C,0.120000*%
%ADD12C,0.100000*%
%ADD13C,2.000000*%
%ADD14R,0.250000X1.050000*%
%ADD15R,0.250000X1.200000*%
%ADD16R,1.700000X1.700000*%
%ADD17O,1.700000X1.700000*%
%ADD18C,2.500000*%
%ADD19C,0.850000*%
%ADD20C,2.700000*%
%ADD21C,0.787400*%
%ADD22C,0.990600*%
%ADD23C,0.600000*%
%ADD24O,1.700000X0.900000*%
%ADD25O,2.000000X0.900000*%
G04 APERTURE END LIST*
D10*
X127321428Y-81402380D02*
X127321428Y-80402380D01*
X127083333Y-80402380D01*
X126940476Y-80450000D01*
X126845238Y-80545238D01*
X126797619Y-80640476D01*
X126750000Y-80830952D01*
X126750000Y-80973809D01*
X126797619Y-81164285D01*
X126845238Y-81259523D01*
X126940476Y-81354761D01*
X127083333Y-81402380D01*
X127321428Y-81402380D01*
X125988095Y-80878571D02*
X125845238Y-80926190D01*
X125797619Y-80973809D01*
X125750000Y-81069047D01*
X125750000Y-81211904D01*
X125797619Y-81307142D01*
X125845238Y-81354761D01*
X125940476Y-81402380D01*
X126321428Y-81402380D01*
X126321428Y-80402380D01*
X125988095Y-80402380D01*
X125892857Y-80450000D01*
X125845238Y-80497619D01*
X125797619Y-80592857D01*
X125797619Y-80688095D01*
X125845238Y-80783333D01*
X125892857Y-80830952D01*
X125988095Y-80878571D01*
X126321428Y-80878571D01*
X124797619Y-80450000D02*
X124892857Y-80402380D01*
X125035714Y-80402380D01*
X125178571Y-80450000D01*
X125273809Y-80545238D01*
X125321428Y-80640476D01*
X125369047Y-80830952D01*
X125369047Y-80973809D01*
X125321428Y-81164285D01*
X125273809Y-81259523D01*
X125178571Y-81354761D01*
X125035714Y-81402380D01*
X124940476Y-81402380D01*
X124797619Y-81354761D01*
X124750000Y-81307142D01*
X124750000Y-80973809D01*
X124940476Y-80973809D01*
X124559523Y-81497619D02*
X123797619Y-81497619D01*
X123369047Y-80402380D02*
X123178571Y-80402380D01*
X123083333Y-80450000D01*
X122988095Y-80545238D01*
X122940476Y-80735714D01*
X122940476Y-81069047D01*
X122988095Y-81259523D01*
X123083333Y-81354761D01*
X123178571Y-81402380D01*
X123369047Y-81402380D01*
X123464285Y-81354761D01*
X123559523Y-81259523D01*
X123607142Y-81069047D01*
X123607142Y-80735714D01*
X123559523Y-80545238D01*
X123464285Y-80450000D01*
X123369047Y-80402380D01*
X122511904Y-80402380D02*
X122511904Y-81211904D01*
X122464285Y-81307142D01*
X122416666Y-81354761D01*
X122321428Y-81402380D01*
X122130952Y-81402380D01*
X122035714Y-81354761D01*
X121988095Y-81307142D01*
X121940476Y-81211904D01*
X121940476Y-80402380D01*
X121607142Y-80402380D02*
X121035714Y-80402380D01*
X121321428Y-81402380D02*
X121321428Y-80402380D01*
X115562380Y-78804761D02*
X115419523Y-78852380D01*
X115181428Y-78852380D01*
X115086190Y-78804761D01*
X115038571Y-78757142D01*
X114990952Y-78661904D01*
X114990952Y-78566666D01*
X115038571Y-78471428D01*
X115086190Y-78423809D01*
X115181428Y-78376190D01*
X115371904Y-78328571D01*
X115467142Y-78280952D01*
X115514761Y-78233333D01*
X115562380Y-78138095D01*
X115562380Y-78042857D01*
X115514761Y-77947619D01*
X115467142Y-77900000D01*
X115371904Y-77852380D01*
X115133809Y-77852380D01*
X114990952Y-77900000D01*
X114562380Y-78852380D02*
X114562380Y-77852380D01*
X114181428Y-77852380D01*
X114086190Y-77900000D01*
X114038571Y-77947619D01*
X113990952Y-78042857D01*
X113990952Y-78185714D01*
X114038571Y-78280952D01*
X114086190Y-78328571D01*
X114181428Y-78376190D01*
X114562380Y-78376190D01*
X113562380Y-78852380D02*
X113562380Y-77852380D01*
X113229047Y-77852380D02*
X112895714Y-78852380D01*
X112562380Y-77852380D01*
X106425714Y-74594761D02*
X106282857Y-74642380D01*
X106044761Y-74642380D01*
X105949523Y-74594761D01*
X105901904Y-74547142D01*
X105854285Y-74451904D01*
X105854285Y-74356666D01*
X105901904Y-74261428D01*
X105949523Y-74213809D01*
X106044761Y-74166190D01*
X106235238Y-74118571D01*
X106330476Y-74070952D01*
X106378095Y-74023333D01*
X106425714Y-73928095D01*
X106425714Y-73832857D01*
X106378095Y-73737619D01*
X106330476Y-73690000D01*
X106235238Y-73642380D01*
X105997142Y-73642380D01*
X105854285Y-73690000D01*
X104854285Y-74547142D02*
X104901904Y-74594761D01*
X105044761Y-74642380D01*
X105140000Y-74642380D01*
X105282857Y-74594761D01*
X105378095Y-74499523D01*
X105425714Y-74404285D01*
X105473333Y-74213809D01*
X105473333Y-74070952D01*
X105425714Y-73880476D01*
X105378095Y-73785238D01*
X105282857Y-73690000D01*
X105140000Y-73642380D01*
X105044761Y-73642380D01*
X104901904Y-73690000D01*
X104854285Y-73737619D01*
X104425714Y-74642380D02*
X104425714Y-73642380D01*
X103854285Y-74642380D02*
X104282857Y-74070952D01*
X103854285Y-73642380D02*
X104425714Y-74213809D01*
X100761428Y-76082380D02*
X100761428Y-75082380D01*
X100428095Y-75796666D01*
X100094761Y-75082380D01*
X100094761Y-76082380D01*
X99428095Y-75082380D02*
X99237619Y-75082380D01*
X99142380Y-75130000D01*
X99047142Y-75225238D01*
X98999523Y-75415714D01*
X98999523Y-75749047D01*
X99047142Y-75939523D01*
X99142380Y-76034761D01*
X99237619Y-76082380D01*
X99428095Y-76082380D01*
X99523333Y-76034761D01*
X99618571Y-75939523D01*
X99666190Y-75749047D01*
X99666190Y-75415714D01*
X99618571Y-75225238D01*
X99523333Y-75130000D01*
X99428095Y-75082380D01*
X98618571Y-76034761D02*
X98475714Y-76082380D01*
X98237619Y-76082380D01*
X98142380Y-76034761D01*
X98094761Y-75987142D01*
X98047142Y-75891904D01*
X98047142Y-75796666D01*
X98094761Y-75701428D01*
X98142380Y-75653809D01*
X98237619Y-75606190D01*
X98428095Y-75558571D01*
X98523333Y-75510952D01*
X98570952Y-75463333D01*
X98618571Y-75368095D01*
X98618571Y-75272857D01*
X98570952Y-75177619D01*
X98523333Y-75130000D01*
X98428095Y-75082380D01*
X98190000Y-75082380D01*
X98047142Y-75130000D01*
X97618571Y-76082380D02*
X97618571Y-75082380D01*
X79050476Y-79702380D02*
X79383809Y-79226190D01*
X79621904Y-79702380D02*
X79621904Y-78702380D01*
X79240952Y-78702380D01*
X79145714Y-78750000D01*
X79098095Y-78797619D01*
X79050476Y-78892857D01*
X79050476Y-79035714D01*
X79098095Y-79130952D01*
X79145714Y-79178571D01*
X79240952Y-79226190D01*
X79621904Y-79226190D01*
X78717142Y-78702380D02*
X78050476Y-79702380D01*
X78050476Y-78702380D02*
X78717142Y-79702380D01*
X77669523Y-79702380D02*
X77669523Y-78702380D01*
X77431428Y-78702380D01*
X77288571Y-78750000D01*
X77193333Y-78845238D01*
X77145714Y-78940476D01*
X77098095Y-79130952D01*
X77098095Y-79273809D01*
X77145714Y-79464285D01*
X77193333Y-79559523D01*
X77288571Y-79654761D01*
X77431428Y-79702380D01*
X77669523Y-79702380D01*
X76479047Y-78702380D02*
X76288571Y-78702380D01*
X76193333Y-78750000D01*
X76098095Y-78845238D01*
X76050476Y-79035714D01*
X76050476Y-79369047D01*
X76098095Y-79559523D01*
X76193333Y-79654761D01*
X76288571Y-79702380D01*
X76479047Y-79702380D01*
X76574285Y-79654761D01*
X76669523Y-79559523D01*
X76717142Y-79369047D01*
X76717142Y-79035714D01*
X76669523Y-78845238D01*
X76574285Y-78750000D01*
X76479047Y-78702380D01*
X79315714Y-74952380D02*
X78744285Y-74952380D01*
X79029999Y-75952380D02*
X79029999Y-74952380D01*
X78506190Y-74952380D02*
X77839523Y-75952380D01*
X77839523Y-74952380D02*
X78506190Y-75952380D01*
X77458571Y-75952380D02*
X77458571Y-74952380D01*
X77220476Y-74952380D01*
X77077619Y-75000000D01*
X76982380Y-75095238D01*
X76934761Y-75190476D01*
X76887142Y-75380952D01*
X76887142Y-75523809D01*
X76934761Y-75714285D01*
X76982380Y-75809523D01*
X77077619Y-75904761D01*
X77220476Y-75952380D01*
X77458571Y-75952380D01*
X76268095Y-74952380D02*
X76077619Y-74952380D01*
X75982380Y-75000000D01*
X75887142Y-75095238D01*
X75839523Y-75285714D01*
X75839523Y-75619047D01*
X75887142Y-75809523D01*
X75982380Y-75904761D01*
X76077619Y-75952380D01*
X76268095Y-75952380D01*
X76363333Y-75904761D01*
X76458571Y-75809523D01*
X76506190Y-75619047D01*
X76506190Y-75285714D01*
X76458571Y-75095238D01*
X76363333Y-75000000D01*
X76268095Y-74952380D01*
X72690476Y-72184761D02*
X72547619Y-72232380D01*
X72309523Y-72232380D01*
X72214285Y-72184761D01*
X72166666Y-72137142D01*
X72119047Y-72041904D01*
X72119047Y-71946666D01*
X72166666Y-71851428D01*
X72214285Y-71803809D01*
X72309523Y-71756190D01*
X72500000Y-71708571D01*
X72595238Y-71660952D01*
X72642857Y-71613333D01*
X72690476Y-71518095D01*
X72690476Y-71422857D01*
X72642857Y-71327619D01*
X72595238Y-71280000D01*
X72500000Y-71232380D01*
X72261904Y-71232380D01*
X72119047Y-71280000D01*
X71119047Y-72137142D02*
X71166666Y-72184761D01*
X71309523Y-72232380D01*
X71404761Y-72232380D01*
X71547619Y-72184761D01*
X71642857Y-72089523D01*
X71690476Y-71994285D01*
X71738095Y-71803809D01*
X71738095Y-71660952D01*
X71690476Y-71470476D01*
X71642857Y-71375238D01*
X71547619Y-71280000D01*
X71404761Y-71232380D01*
X71309523Y-71232380D01*
X71166666Y-71280000D01*
X71119047Y-71327619D01*
X70214285Y-72232380D02*
X70690476Y-72232380D01*
X70690476Y-71232380D01*
X69204285Y-74484761D02*
X69061428Y-74532380D01*
X68823333Y-74532380D01*
X68728095Y-74484761D01*
X68680476Y-74437142D01*
X68632857Y-74341904D01*
X68632857Y-74246666D01*
X68680476Y-74151428D01*
X68728095Y-74103809D01*
X68823333Y-74056190D01*
X69013809Y-74008571D01*
X69109047Y-73960952D01*
X69156666Y-73913333D01*
X69204285Y-73818095D01*
X69204285Y-73722857D01*
X69156666Y-73627619D01*
X69109047Y-73580000D01*
X69013809Y-73532380D01*
X68775714Y-73532380D01*
X68632857Y-73580000D01*
X68204285Y-74532380D02*
X68204285Y-73532380D01*
X67966190Y-73532380D01*
X67823333Y-73580000D01*
X67728095Y-73675238D01*
X67680476Y-73770476D01*
X67632857Y-73960952D01*
X67632857Y-74103809D01*
X67680476Y-74294285D01*
X67728095Y-74389523D01*
X67823333Y-74484761D01*
X67966190Y-74532380D01*
X68204285Y-74532380D01*
X67251904Y-74246666D02*
X66775714Y-74246666D01*
X67347142Y-74532380D02*
X67013809Y-73532380D01*
X66680476Y-74532380D01*
X61270952Y-79315714D02*
X61270952Y-80125238D01*
X61318571Y-80220476D01*
X61366190Y-80268095D01*
X61461428Y-80315714D01*
X61604285Y-80315714D01*
X61699523Y-80268095D01*
X61270952Y-79934761D02*
X61366190Y-79982380D01*
X61556666Y-79982380D01*
X61651904Y-79934761D01*
X61699523Y-79887142D01*
X61747142Y-79791904D01*
X61747142Y-79506190D01*
X61699523Y-79410952D01*
X61651904Y-79363333D01*
X61556666Y-79315714D01*
X61366190Y-79315714D01*
X61270952Y-79363333D01*
X60794761Y-79315714D02*
X60794761Y-80315714D01*
X60794761Y-79363333D02*
X60699523Y-79315714D01*
X60509047Y-79315714D01*
X60413809Y-79363333D01*
X60366190Y-79410952D01*
X60318571Y-79506190D01*
X60318571Y-79791904D01*
X60366190Y-79887142D01*
X60413809Y-79934761D01*
X60509047Y-79982380D01*
X60699523Y-79982380D01*
X60794761Y-79934761D01*
X59890000Y-79982380D02*
X59890000Y-79315714D01*
X59890000Y-78982380D02*
X59937619Y-79030000D01*
X59890000Y-79077619D01*
X59842380Y-79030000D01*
X59890000Y-78982380D01*
X59890000Y-79077619D01*
X59270952Y-79982380D02*
X59366190Y-79934761D01*
X59413809Y-79887142D01*
X59461428Y-79791904D01*
X59461428Y-79506190D01*
X59413809Y-79410952D01*
X59366190Y-79363333D01*
X59270952Y-79315714D01*
X59128095Y-79315714D01*
X59032857Y-79363333D01*
X58985238Y-79410952D01*
X58937619Y-79506190D01*
X58937619Y-79791904D01*
X58985238Y-79887142D01*
X59032857Y-79934761D01*
X59128095Y-79982380D01*
X59270952Y-79982380D01*
X58604285Y-78982380D02*
X57985238Y-78982380D01*
X58318571Y-79363333D01*
X58175714Y-79363333D01*
X58080476Y-79410952D01*
X58032857Y-79458571D01*
X57985238Y-79553809D01*
X57985238Y-79791904D01*
X58032857Y-79887142D01*
X58080476Y-79934761D01*
X58175714Y-79982380D01*
X58461428Y-79982380D01*
X58556666Y-79934761D01*
X58604285Y-79887142D01*
X57413809Y-79410952D02*
X57509047Y-79363333D01*
X57556666Y-79315714D01*
X57604285Y-79220476D01*
X57604285Y-79172857D01*
X57556666Y-79077619D01*
X57509047Y-79030000D01*
X57413809Y-78982380D01*
X57223333Y-78982380D01*
X57128095Y-79030000D01*
X57080476Y-79077619D01*
X57032857Y-79172857D01*
X57032857Y-79220476D01*
X57080476Y-79315714D01*
X57128095Y-79363333D01*
X57223333Y-79410952D01*
X57413809Y-79410952D01*
X57509047Y-79458571D01*
X57556666Y-79506190D01*
X57604285Y-79601428D01*
X57604285Y-79791904D01*
X57556666Y-79887142D01*
X57509047Y-79934761D01*
X57413809Y-79982380D01*
X57223333Y-79982380D01*
X57128095Y-79934761D01*
X57080476Y-79887142D01*
X57032857Y-79791904D01*
X57032857Y-79601428D01*
X57080476Y-79506190D01*
X57128095Y-79458571D01*
X57223333Y-79410952D01*
X66114285Y-72656666D02*
X65638095Y-72656666D01*
X66209523Y-72942380D02*
X65876190Y-71942380D01*
X65542857Y-72942380D01*
X65209523Y-72942380D02*
X65209523Y-71942380D01*
X64971428Y-71942380D01*
X64828571Y-71990000D01*
X64733333Y-72085238D01*
X64685714Y-72180476D01*
X64638095Y-72370952D01*
X64638095Y-72513809D01*
X64685714Y-72704285D01*
X64733333Y-72799523D01*
X64828571Y-72894761D01*
X64971428Y-72942380D01*
X65209523Y-72942380D01*
X63685714Y-72942380D02*
X64257142Y-72942380D01*
X63971428Y-72942380D02*
X63971428Y-71942380D01*
X64066666Y-72085238D01*
X64161904Y-72180476D01*
X64257142Y-72228095D01*
X58622380Y-75722380D02*
X58955714Y-75246190D01*
X59193809Y-75722380D02*
X59193809Y-74722380D01*
X58812857Y-74722380D01*
X58717619Y-74770000D01*
X58670000Y-74817619D01*
X58622380Y-74912857D01*
X58622380Y-75055714D01*
X58670000Y-75150952D01*
X58717619Y-75198571D01*
X58812857Y-75246190D01*
X59193809Y-75246190D01*
X58193809Y-75198571D02*
X57860476Y-75198571D01*
X57717619Y-75722380D02*
X58193809Y-75722380D01*
X58193809Y-74722380D01*
X57717619Y-74722380D01*
X57336666Y-75674761D02*
X57193809Y-75722380D01*
X56955714Y-75722380D01*
X56860476Y-75674761D01*
X56812857Y-75627142D01*
X56765238Y-75531904D01*
X56765238Y-75436666D01*
X56812857Y-75341428D01*
X56860476Y-75293809D01*
X56955714Y-75246190D01*
X57146190Y-75198571D01*
X57241428Y-75150952D01*
X57289047Y-75103333D01*
X57336666Y-75008095D01*
X57336666Y-74912857D01*
X57289047Y-74817619D01*
X57241428Y-74770000D01*
X57146190Y-74722380D01*
X56908095Y-74722380D01*
X56765238Y-74770000D01*
X56336666Y-75198571D02*
X56003333Y-75198571D01*
X55860476Y-75722380D02*
X56336666Y-75722380D01*
X56336666Y-74722380D01*
X55860476Y-74722380D01*
X55574761Y-74722380D02*
X55003333Y-74722380D01*
X55289047Y-75722380D02*
X55289047Y-74722380D01*
X54098095Y-79462380D02*
X54098095Y-78462380D01*
X54098095Y-78843333D02*
X54002857Y-78795714D01*
X53812380Y-78795714D01*
X53717142Y-78843333D01*
X53669523Y-78890952D01*
X53621904Y-78986190D01*
X53621904Y-79271904D01*
X53669523Y-79367142D01*
X53717142Y-79414761D01*
X53812380Y-79462380D01*
X54002857Y-79462380D01*
X54098095Y-79414761D01*
X52764761Y-79462380D02*
X52764761Y-78938571D01*
X52812380Y-78843333D01*
X52907619Y-78795714D01*
X53098095Y-78795714D01*
X53193333Y-78843333D01*
X52764761Y-79414761D02*
X52860000Y-79462380D01*
X53098095Y-79462380D01*
X53193333Y-79414761D01*
X53240952Y-79319523D01*
X53240952Y-79224285D01*
X53193333Y-79129047D01*
X53098095Y-79081428D01*
X52860000Y-79081428D01*
X52764761Y-79033809D01*
X52431428Y-78795714D02*
X52050476Y-78795714D01*
X52288571Y-78462380D02*
X52288571Y-79319523D01*
X52240952Y-79414761D01*
X52145714Y-79462380D01*
X52050476Y-79462380D01*
X51860000Y-78795714D02*
X51479047Y-78795714D01*
X51717142Y-78462380D02*
X51717142Y-79319523D01*
X51669523Y-79414761D01*
X51574285Y-79462380D01*
X51479047Y-79462380D01*
X44759523Y-80772380D02*
X44188095Y-80772380D01*
X44473809Y-81772380D02*
X44473809Y-80772380D01*
X43854761Y-81248571D02*
X43521428Y-81248571D01*
X43378571Y-81772380D02*
X43854761Y-81772380D01*
X43854761Y-80772380D01*
X43378571Y-80772380D01*
X42950000Y-81772380D02*
X42950000Y-80772380D01*
X42616666Y-81486666D01*
X42283333Y-80772380D01*
X42283333Y-81772380D01*
X41807142Y-81772380D02*
X41807142Y-80772380D01*
X41426190Y-80772380D01*
X41330952Y-80820000D01*
X41283333Y-80867619D01*
X41235714Y-80962857D01*
X41235714Y-81105714D01*
X41283333Y-81200952D01*
X41330952Y-81248571D01*
X41426190Y-81296190D01*
X41807142Y-81296190D01*
X49499047Y-75288571D02*
X49356190Y-75336190D01*
X49308571Y-75383809D01*
X49260952Y-75479047D01*
X49260952Y-75621904D01*
X49308571Y-75717142D01*
X49356190Y-75764761D01*
X49451428Y-75812380D01*
X49832380Y-75812380D01*
X49832380Y-74812380D01*
X49499047Y-74812380D01*
X49403809Y-74860000D01*
X49356190Y-74907619D01*
X49308571Y-75002857D01*
X49308571Y-75098095D01*
X49356190Y-75193333D01*
X49403809Y-75240952D01*
X49499047Y-75288571D01*
X49832380Y-75288571D01*
X48880000Y-75526666D02*
X48403809Y-75526666D01*
X48975238Y-75812380D02*
X48641904Y-74812380D01*
X48308571Y-75812380D01*
X48118095Y-74812380D02*
X47546666Y-74812380D01*
X47832380Y-75812380D02*
X47832380Y-74812380D01*
X47356190Y-74812380D02*
X46784761Y-74812380D01*
X47070476Y-75812380D02*
X47070476Y-74812380D01*
X37634285Y-74636666D02*
X37158095Y-74636666D01*
X37729523Y-74922380D02*
X37396190Y-73922380D01*
X37062857Y-74922380D01*
X36729523Y-74922380D02*
X36729523Y-73922380D01*
X36491428Y-73922380D01*
X36348571Y-73970000D01*
X36253333Y-74065238D01*
X36205714Y-74160476D01*
X36158095Y-74350952D01*
X36158095Y-74493809D01*
X36205714Y-74684285D01*
X36253333Y-74779523D01*
X36348571Y-74874761D01*
X36491428Y-74922380D01*
X36729523Y-74922380D01*
X35777142Y-74017619D02*
X35729523Y-73970000D01*
X35634285Y-73922380D01*
X35396190Y-73922380D01*
X35300952Y-73970000D01*
X35253333Y-74017619D01*
X35205714Y-74112857D01*
X35205714Y-74208095D01*
X35253333Y-74350952D01*
X35824761Y-74922380D01*
X35205714Y-74922380D01*
X91212380Y-65252380D02*
X90640952Y-65252380D01*
X90926666Y-66252380D02*
X90926666Y-65252380D01*
X89974285Y-65728571D02*
X90307619Y-65728571D01*
X90307619Y-66252380D02*
X90307619Y-65252380D01*
X89831428Y-65252380D01*
X89593333Y-65252380D02*
X89021904Y-65252380D01*
X89307619Y-66252380D02*
X89307619Y-65252380D01*
X88926666Y-66347619D02*
X88164761Y-66347619D01*
X87355238Y-66157142D02*
X87402857Y-66204761D01*
X87545714Y-66252380D01*
X87640952Y-66252380D01*
X87783809Y-66204761D01*
X87879047Y-66109523D01*
X87926666Y-66014285D01*
X87974285Y-65823809D01*
X87974285Y-65680952D01*
X87926666Y-65490476D01*
X87879047Y-65395238D01*
X87783809Y-65300000D01*
X87640952Y-65252380D01*
X87545714Y-65252380D01*
X87402857Y-65300000D01*
X87355238Y-65347619D01*
X86974285Y-66204761D02*
X86831428Y-66252380D01*
X86593333Y-66252380D01*
X86498095Y-66204761D01*
X86450476Y-66157142D01*
X86402857Y-66061904D01*
X86402857Y-65966666D01*
X86450476Y-65871428D01*
X86498095Y-65823809D01*
X86593333Y-65776190D01*
X86783809Y-65728571D01*
X86879047Y-65680952D01*
X86926666Y-65633333D01*
X86974285Y-65538095D01*
X86974285Y-65442857D01*
X86926666Y-65347619D01*
X86879047Y-65300000D01*
X86783809Y-65252380D01*
X86545714Y-65252380D01*
X86402857Y-65300000D01*
X91171428Y-61832380D02*
X91171428Y-60832380D01*
X90838095Y-61546666D01*
X90504761Y-60832380D01*
X90504761Y-61832380D01*
X90028571Y-61832380D02*
X90028571Y-60832380D01*
X89600000Y-61784761D02*
X89457142Y-61832380D01*
X89219047Y-61832380D01*
X89123809Y-61784761D01*
X89076190Y-61737142D01*
X89028571Y-61641904D01*
X89028571Y-61546666D01*
X89076190Y-61451428D01*
X89123809Y-61403809D01*
X89219047Y-61356190D01*
X89409523Y-61308571D01*
X89504761Y-61260952D01*
X89552380Y-61213333D01*
X89600000Y-61118095D01*
X89600000Y-61022857D01*
X89552380Y-60927619D01*
X89504761Y-60880000D01*
X89409523Y-60832380D01*
X89171428Y-60832380D01*
X89028571Y-60880000D01*
X88409523Y-60832380D02*
X88219047Y-60832380D01*
X88123809Y-60880000D01*
X88028571Y-60975238D01*
X87980952Y-61165714D01*
X87980952Y-61499047D01*
X88028571Y-61689523D01*
X88123809Y-61784761D01*
X88219047Y-61832380D01*
X88409523Y-61832380D01*
X88504761Y-61784761D01*
X88600000Y-61689523D01*
X88647619Y-61499047D01*
X88647619Y-61165714D01*
X88600000Y-60975238D01*
X88504761Y-60880000D01*
X88409523Y-60832380D01*
X118426666Y-39797142D02*
X118474285Y-39844761D01*
X118617142Y-39892380D01*
X118712380Y-39892380D01*
X118855238Y-39844761D01*
X118950476Y-39749523D01*
X118998095Y-39654285D01*
X119045714Y-39463809D01*
X119045714Y-39320952D01*
X118998095Y-39130476D01*
X118950476Y-39035238D01*
X118855238Y-38940000D01*
X118712380Y-38892380D01*
X118617142Y-38892380D01*
X118474285Y-38940000D01*
X118426666Y-38987619D01*
X118045714Y-39844761D02*
X117902857Y-39892380D01*
X117664761Y-39892380D01*
X117569523Y-39844761D01*
X117521904Y-39797142D01*
X117474285Y-39701904D01*
X117474285Y-39606666D01*
X117521904Y-39511428D01*
X117569523Y-39463809D01*
X117664761Y-39416190D01*
X117855238Y-39368571D01*
X117950476Y-39320952D01*
X117998095Y-39273333D01*
X118045714Y-39178095D01*
X118045714Y-39082857D01*
X117998095Y-38987619D01*
X117950476Y-38940000D01*
X117855238Y-38892380D01*
X117617142Y-38892380D01*
X117474285Y-38940000D01*
X116712380Y-39368571D02*
X116569523Y-39416190D01*
X116521904Y-39463809D01*
X116474285Y-39559047D01*
X116474285Y-39701904D01*
X116521904Y-39797142D01*
X116569523Y-39844761D01*
X116664761Y-39892380D01*
X117045714Y-39892380D01*
X117045714Y-38892380D01*
X116712380Y-38892380D01*
X116617142Y-38940000D01*
X116569523Y-38987619D01*
X116521904Y-39082857D01*
X116521904Y-39178095D01*
X116569523Y-39273333D01*
X116617142Y-39320952D01*
X116712380Y-39368571D01*
X117045714Y-39368571D01*
X117669523Y-34422380D02*
X117669523Y-33422380D01*
X117669523Y-33898571D02*
X117098095Y-33898571D01*
X117098095Y-34422380D02*
X117098095Y-33422380D01*
X116621904Y-34422380D02*
X116621904Y-33422380D01*
X116383809Y-33422380D01*
X116240952Y-33470000D01*
X116145714Y-33565238D01*
X116098095Y-33660476D01*
X116050476Y-33850952D01*
X116050476Y-33993809D01*
X116098095Y-34184285D01*
X116145714Y-34279523D01*
X116240952Y-34374761D01*
X116383809Y-34422380D01*
X116621904Y-34422380D01*
X115050476Y-34327142D02*
X115098095Y-34374761D01*
X115240952Y-34422380D01*
X115336190Y-34422380D01*
X115479047Y-34374761D01*
X115574285Y-34279523D01*
X115621904Y-34184285D01*
X115669523Y-33993809D01*
X115669523Y-33850952D01*
X115621904Y-33660476D01*
X115574285Y-33565238D01*
X115479047Y-33470000D01*
X115336190Y-33422380D01*
X115240952Y-33422380D01*
X115098095Y-33470000D01*
X115050476Y-33517619D01*
X114860000Y-34517619D02*
X114098095Y-34517619D01*
X113860000Y-34422380D02*
X113860000Y-33422380D01*
X113383809Y-34422380D02*
X113383809Y-33422380D01*
X112812380Y-34422380D01*
X112812380Y-33422380D01*
X112479047Y-33422380D02*
X111907619Y-33422380D01*
X112193333Y-34422380D02*
X112193333Y-33422380D01*
X109044285Y-42396666D02*
X108568095Y-42396666D01*
X109139523Y-42682380D02*
X108806190Y-41682380D01*
X108472857Y-42682380D01*
X108139523Y-42682380D02*
X108139523Y-41682380D01*
X107901428Y-41682380D01*
X107758571Y-41730000D01*
X107663333Y-41825238D01*
X107615714Y-41920476D01*
X107568095Y-42110952D01*
X107568095Y-42253809D01*
X107615714Y-42444285D01*
X107663333Y-42539523D01*
X107758571Y-42634761D01*
X107901428Y-42682380D01*
X108139523Y-42682380D01*
X106949047Y-41682380D02*
X106853809Y-41682380D01*
X106758571Y-41730000D01*
X106710952Y-41777619D01*
X106663333Y-41872857D01*
X106615714Y-42063333D01*
X106615714Y-42301428D01*
X106663333Y-42491904D01*
X106710952Y-42587142D01*
X106758571Y-42634761D01*
X106853809Y-42682380D01*
X106949047Y-42682380D01*
X107044285Y-42634761D01*
X107091904Y-42587142D01*
X107139523Y-42491904D01*
X107187142Y-42301428D01*
X107187142Y-42063333D01*
X107139523Y-41872857D01*
X107091904Y-41777619D01*
X107044285Y-41730000D01*
X106949047Y-41682380D01*
X85180952Y-44592380D02*
X85180952Y-43592380D01*
X85180952Y-43973333D02*
X85085714Y-43925714D01*
X84895238Y-43925714D01*
X84800000Y-43973333D01*
X84752380Y-44020952D01*
X84704761Y-44116190D01*
X84704761Y-44401904D01*
X84752380Y-44497142D01*
X84800000Y-44544761D01*
X84895238Y-44592380D01*
X85085714Y-44592380D01*
X85180952Y-44544761D01*
X84133333Y-44592380D02*
X84228571Y-44544761D01*
X84276190Y-44497142D01*
X84323809Y-44401904D01*
X84323809Y-44116190D01*
X84276190Y-44020952D01*
X84228571Y-43973333D01*
X84133333Y-43925714D01*
X83990476Y-43925714D01*
X83895238Y-43973333D01*
X83847619Y-44020952D01*
X83800000Y-44116190D01*
X83800000Y-44401904D01*
X83847619Y-44497142D01*
X83895238Y-44544761D01*
X83990476Y-44592380D01*
X84133333Y-44592380D01*
X83228571Y-44592380D02*
X83323809Y-44544761D01*
X83371428Y-44497142D01*
X83419047Y-44401904D01*
X83419047Y-44116190D01*
X83371428Y-44020952D01*
X83323809Y-43973333D01*
X83228571Y-43925714D01*
X83085714Y-43925714D01*
X82990476Y-43973333D01*
X82942857Y-44020952D01*
X82895238Y-44116190D01*
X82895238Y-44401904D01*
X82942857Y-44497142D01*
X82990476Y-44544761D01*
X83085714Y-44592380D01*
X83228571Y-44592380D01*
X82609523Y-43925714D02*
X82228571Y-43925714D01*
X82466666Y-43592380D02*
X82466666Y-44449523D01*
X82419047Y-44544761D01*
X82323809Y-44592380D01*
X82228571Y-44592380D01*
X81704761Y-43592380D02*
X81609523Y-43592380D01*
X81514285Y-43640000D01*
X81466666Y-43687619D01*
X81419047Y-43782857D01*
X81371428Y-43973333D01*
X81371428Y-44211428D01*
X81419047Y-44401904D01*
X81466666Y-44497142D01*
X81514285Y-44544761D01*
X81609523Y-44592380D01*
X81704761Y-44592380D01*
X81800000Y-44544761D01*
X81847619Y-44497142D01*
X81895238Y-44401904D01*
X81942857Y-44211428D01*
X81942857Y-43973333D01*
X81895238Y-43782857D01*
X81847619Y-43687619D01*
X81800000Y-43640000D01*
X81704761Y-43592380D01*
X30384285Y-53482380D02*
X30955714Y-53482380D01*
X30670000Y-53482380D02*
X30670000Y-52482380D01*
X30765238Y-52625238D01*
X30860476Y-52720476D01*
X30955714Y-52768095D01*
X39038571Y-51335714D02*
X38800476Y-52002380D01*
X38562380Y-51335714D01*
X37752857Y-52002380D02*
X37752857Y-51002380D01*
X37752857Y-51954761D02*
X37848095Y-52002380D01*
X38038571Y-52002380D01*
X38133809Y-51954761D01*
X38181428Y-51907142D01*
X38229047Y-51811904D01*
X38229047Y-51526190D01*
X38181428Y-51430952D01*
X38133809Y-51383333D01*
X38038571Y-51335714D01*
X37848095Y-51335714D01*
X37752857Y-51383333D01*
X36848095Y-52002380D02*
X36848095Y-51002380D01*
X36848095Y-51954761D02*
X36943333Y-52002380D01*
X37133809Y-52002380D01*
X37229047Y-51954761D01*
X37276666Y-51907142D01*
X37324285Y-51811904D01*
X37324285Y-51526190D01*
X37276666Y-51430952D01*
X37229047Y-51383333D01*
X37133809Y-51335714D01*
X36943333Y-51335714D01*
X36848095Y-51383333D01*
X36514761Y-51335714D02*
X36133809Y-51335714D01*
X36371904Y-52002380D02*
X36371904Y-51145238D01*
X36324285Y-51050000D01*
X36229047Y-51002380D01*
X36133809Y-51002380D01*
X52868571Y-49932380D02*
X52249523Y-49932380D01*
X52582857Y-50313333D01*
X52440000Y-50313333D01*
X52344761Y-50360952D01*
X52297142Y-50408571D01*
X52249523Y-50503809D01*
X52249523Y-50741904D01*
X52297142Y-50837142D01*
X52344761Y-50884761D01*
X52440000Y-50932380D01*
X52725714Y-50932380D01*
X52820952Y-50884761D01*
X52868571Y-50837142D01*
X51820952Y-50837142D02*
X51773333Y-50884761D01*
X51820952Y-50932380D01*
X51868571Y-50884761D01*
X51820952Y-50837142D01*
X51820952Y-50932380D01*
X51440000Y-49932380D02*
X50820952Y-49932380D01*
X51154285Y-50313333D01*
X51011428Y-50313333D01*
X50916190Y-50360952D01*
X50868571Y-50408571D01*
X50820952Y-50503809D01*
X50820952Y-50741904D01*
X50868571Y-50837142D01*
X50916190Y-50884761D01*
X51011428Y-50932380D01*
X51297142Y-50932380D01*
X51392380Y-50884761D01*
X51440000Y-50837142D01*
X50487619Y-50265714D02*
X50249523Y-50932380D01*
X50011428Y-50265714D01*
X41451904Y-47682380D02*
X41451904Y-46682380D01*
X41213809Y-46682380D01*
X41070952Y-46730000D01*
X40975714Y-46825238D01*
X40928095Y-46920476D01*
X40880476Y-47110952D01*
X40880476Y-47253809D01*
X40928095Y-47444285D01*
X40975714Y-47539523D01*
X41070952Y-47634761D01*
X41213809Y-47682380D01*
X41451904Y-47682380D01*
X40451904Y-47682380D02*
X40451904Y-46682380D01*
X40070952Y-46682380D01*
X39975714Y-46730000D01*
X39928095Y-46777619D01*
X39880476Y-46872857D01*
X39880476Y-47015714D01*
X39928095Y-47110952D01*
X39975714Y-47158571D01*
X40070952Y-47206190D01*
X40451904Y-47206190D01*
X41195714Y-43432380D02*
X41195714Y-42432380D01*
X40957619Y-42432380D01*
X40814761Y-42480000D01*
X40719523Y-42575238D01*
X40671904Y-42670476D01*
X40624285Y-42860952D01*
X40624285Y-43003809D01*
X40671904Y-43194285D01*
X40719523Y-43289523D01*
X40814761Y-43384761D01*
X40957619Y-43432380D01*
X41195714Y-43432380D01*
X40195714Y-43432380D02*
X40195714Y-42432380D01*
X39624285Y-43432380D01*
X39624285Y-42432380D01*
X65733333Y-39528571D02*
X65590476Y-39576190D01*
X65542857Y-39623809D01*
X65495238Y-39719047D01*
X65495238Y-39861904D01*
X65542857Y-39957142D01*
X65590476Y-40004761D01*
X65685714Y-40052380D01*
X66066666Y-40052380D01*
X66066666Y-39052380D01*
X65733333Y-39052380D01*
X65638095Y-39100000D01*
X65590476Y-39147619D01*
X65542857Y-39242857D01*
X65542857Y-39338095D01*
X65590476Y-39433333D01*
X65638095Y-39480952D01*
X65733333Y-39528571D01*
X66066666Y-39528571D01*
X64876190Y-39052380D02*
X64685714Y-39052380D01*
X64590476Y-39100000D01*
X64495238Y-39195238D01*
X64447619Y-39385714D01*
X64447619Y-39719047D01*
X64495238Y-39909523D01*
X64590476Y-40004761D01*
X64685714Y-40052380D01*
X64876190Y-40052380D01*
X64971428Y-40004761D01*
X65066666Y-39909523D01*
X65114285Y-39719047D01*
X65114285Y-39385714D01*
X65066666Y-39195238D01*
X64971428Y-39100000D01*
X64876190Y-39052380D01*
X63828571Y-39052380D02*
X63638095Y-39052380D01*
X63542857Y-39100000D01*
X63447619Y-39195238D01*
X63400000Y-39385714D01*
X63400000Y-39719047D01*
X63447619Y-39909523D01*
X63542857Y-40004761D01*
X63638095Y-40052380D01*
X63828571Y-40052380D01*
X63923809Y-40004761D01*
X64019047Y-39909523D01*
X64066666Y-39719047D01*
X64066666Y-39385714D01*
X64019047Y-39195238D01*
X63923809Y-39100000D01*
X63828571Y-39052380D01*
X63114285Y-39052380D02*
X62542857Y-39052380D01*
X62828571Y-40052380D02*
X62828571Y-39052380D01*
X62019047Y-39052380D02*
X61923809Y-39052380D01*
X61828571Y-39100000D01*
X61780952Y-39147619D01*
X61733333Y-39242857D01*
X61685714Y-39433333D01*
X61685714Y-39671428D01*
X61733333Y-39861904D01*
X61780952Y-39957142D01*
X61828571Y-40004761D01*
X61923809Y-40052380D01*
X62019047Y-40052380D01*
X62114285Y-40004761D01*
X62161904Y-39957142D01*
X62209523Y-39861904D01*
X62257142Y-39671428D01*
X62257142Y-39433333D01*
X62209523Y-39242857D01*
X62161904Y-39147619D01*
X62114285Y-39100000D01*
X62019047Y-39052380D01*
X48063333Y-37042380D02*
X47730000Y-38042380D01*
X47396666Y-37042380D01*
X46730000Y-37518571D02*
X46587142Y-37566190D01*
X46539523Y-37613809D01*
X46491904Y-37709047D01*
X46491904Y-37851904D01*
X46539523Y-37947142D01*
X46587142Y-37994761D01*
X46682380Y-38042380D01*
X47063333Y-38042380D01*
X47063333Y-37042380D01*
X46730000Y-37042380D01*
X46634761Y-37090000D01*
X46587142Y-37137619D01*
X46539523Y-37232857D01*
X46539523Y-37328095D01*
X46587142Y-37423333D01*
X46634761Y-37470952D01*
X46730000Y-37518571D01*
X47063333Y-37518571D01*
X46063333Y-37042380D02*
X46063333Y-37851904D01*
X46015714Y-37947142D01*
X45968095Y-37994761D01*
X45872857Y-38042380D01*
X45682380Y-38042380D01*
X45587142Y-37994761D01*
X45539523Y-37947142D01*
X45491904Y-37851904D01*
X45491904Y-37042380D01*
X45063333Y-37994761D02*
X44920476Y-38042380D01*
X44682380Y-38042380D01*
X44587142Y-37994761D01*
X44539523Y-37947142D01*
X44491904Y-37851904D01*
X44491904Y-37756666D01*
X44539523Y-37661428D01*
X44587142Y-37613809D01*
X44682380Y-37566190D01*
X44872857Y-37518571D01*
X44968095Y-37470952D01*
X45015714Y-37423333D01*
X45063333Y-37328095D01*
X45063333Y-37232857D01*
X45015714Y-37137619D01*
X44968095Y-37090000D01*
X44872857Y-37042380D01*
X44634761Y-37042380D01*
X44491904Y-37090000D01*
X54093333Y-38142380D02*
X53760000Y-39142380D01*
X53426666Y-38142380D01*
X52521904Y-39047142D02*
X52569523Y-39094761D01*
X52712380Y-39142380D01*
X52807619Y-39142380D01*
X52950476Y-39094761D01*
X53045714Y-38999523D01*
X53093333Y-38904285D01*
X53140952Y-38713809D01*
X53140952Y-38570952D01*
X53093333Y-38380476D01*
X53045714Y-38285238D01*
X52950476Y-38190000D01*
X52807619Y-38142380D01*
X52712380Y-38142380D01*
X52569523Y-38190000D01*
X52521904Y-38237619D01*
X51521904Y-39047142D02*
X51569523Y-39094761D01*
X51712380Y-39142380D01*
X51807619Y-39142380D01*
X51950476Y-39094761D01*
X52045714Y-38999523D01*
X52093333Y-38904285D01*
X52140952Y-38713809D01*
X52140952Y-38570952D01*
X52093333Y-38380476D01*
X52045714Y-38285238D01*
X51950476Y-38190000D01*
X51807619Y-38142380D01*
X51712380Y-38142380D01*
X51569523Y-38190000D01*
X51521904Y-38237619D01*
X46971428Y-34922380D02*
X47447619Y-34922380D01*
X47447619Y-33922380D01*
X46638095Y-34922380D02*
X46638095Y-33922380D01*
X46400000Y-33922380D01*
X46257142Y-33970000D01*
X46161904Y-34065238D01*
X46114285Y-34160476D01*
X46066666Y-34350952D01*
X46066666Y-34493809D01*
X46114285Y-34684285D01*
X46161904Y-34779523D01*
X46257142Y-34874761D01*
X46400000Y-34922380D01*
X46638095Y-34922380D01*
X45447619Y-33922380D02*
X45257142Y-33922380D01*
X45161904Y-33970000D01*
X45066666Y-34065238D01*
X45019047Y-34255714D01*
X45019047Y-34589047D01*
X45066666Y-34779523D01*
X45161904Y-34874761D01*
X45257142Y-34922380D01*
X45447619Y-34922380D01*
X45542857Y-34874761D01*
X45638095Y-34779523D01*
X45685714Y-34589047D01*
X45685714Y-34255714D01*
X45638095Y-34065238D01*
X45542857Y-33970000D01*
X45447619Y-33922380D01*
X44828571Y-35017619D02*
X44066666Y-35017619D01*
X43828571Y-34398571D02*
X43495238Y-34398571D01*
X43352380Y-34922380D02*
X43828571Y-34922380D01*
X43828571Y-33922380D01*
X43352380Y-33922380D01*
X42923809Y-34922380D02*
X42923809Y-33922380D01*
X42352380Y-34922380D01*
X42352380Y-33922380D01*
D11*
%TO.C,TP21*%
X35190000Y-52570000D02*
G75*
G03*
X35190000Y-52570000I-1200000J0D01*
G01*
D12*
%TO.C,U12*%
X32210000Y-54160000D02*
X32310000Y-54160000D01*
X32310000Y-54160000D02*
X32310000Y-55860000D01*
X32310000Y-55860000D02*
X32210000Y-55860000D01*
X30610000Y-54160000D02*
X30510000Y-54160000D01*
X30510000Y-54160000D02*
X30510000Y-55860000D01*
X30510000Y-55860000D02*
X30610000Y-55860000D01*
D11*
%TO.C,TP29*%
X44840000Y-83590000D02*
G75*
G03*
X44840000Y-83590000I-1200000J0D01*
G01*
%TO.C,TP28*%
X53930000Y-81180000D02*
G75*
G03*
X53930000Y-81180000I-1200000J0D01*
G01*
%TO.C,TP27*%
X40950000Y-74180000D02*
G75*
G03*
X40950000Y-74180000I-1200000J0D01*
G01*
%TO.C,TP26*%
X80670000Y-43980000D02*
G75*
G03*
X80670000Y-43980000I-1200000J0D01*
G01*
%TO.C,TP25*%
X122310000Y-39100000D02*
G75*
G03*
X122310000Y-39100000I-1200000J0D01*
G01*
%TO.C,TP24*%
X103120000Y-77460000D02*
G75*
G03*
X103120000Y-77460000I-1200000J0D01*
G01*
%TO.C,TP23*%
X106170000Y-76620000D02*
G75*
G03*
X106170000Y-76620000I-1200000J0D01*
G01*
%TO.C,TP22*%
X87040000Y-61390000D02*
G75*
G03*
X87040000Y-61390000I-1200000J0D01*
G01*
%TO.C,TP20*%
X85490000Y-65630000D02*
G75*
G03*
X85490000Y-65630000I-1200000J0D01*
G01*
%TO.C,TP19*%
X41690000Y-35860000D02*
G75*
G03*
X41690000Y-35860000I-1200000J0D01*
G01*
%TO.C,TP18*%
X49890000Y-52040000D02*
G75*
G03*
X49890000Y-52040000I-1200000J0D01*
G01*
%TO.C,TP17*%
X44870000Y-47270000D02*
G75*
G03*
X44870000Y-47270000I-1200000J0D01*
G01*
%TO.C,TP16*%
X44560000Y-42890000D02*
G75*
G03*
X44560000Y-42890000I-1200000J0D01*
G01*
%TO.C,TP15*%
X64540000Y-42400000D02*
G75*
G03*
X64540000Y-42400000I-1200000J0D01*
G01*
%TO.C,TP14*%
X66110000Y-74950000D02*
G75*
G03*
X66110000Y-74950000I-1200000J0D01*
G01*
%TO.C,TP13*%
X105910000Y-41920000D02*
G75*
G03*
X105910000Y-41920000I-1200000J0D01*
G01*
%TO.C,TP12*%
X64650000Y-79470000D02*
G75*
G03*
X64650000Y-79470000I-1200000J0D01*
G01*
%TO.C,TP11*%
X75000000Y-76090000D02*
G75*
G03*
X75000000Y-76090000I-1200000J0D01*
G01*
%TO.C,TP10*%
X75540000Y-79530000D02*
G75*
G03*
X75540000Y-79530000I-1200000J0D01*
G01*
%TO.C,TP9*%
X46120000Y-75200000D02*
G75*
G03*
X46120000Y-75200000I-1200000J0D01*
G01*
%TO.C,TP8*%
X50950000Y-38810000D02*
G75*
G03*
X50950000Y-38810000I-1200000J0D01*
G01*
%TO.C,TP7*%
X47830000Y-39720000D02*
G75*
G03*
X47830000Y-39720000I-1200000J0D01*
G01*
%TO.C,TP6*%
X118590000Y-78690000D02*
G75*
G03*
X118590000Y-78690000I-1200000J0D01*
G01*
%TO.C,TP5*%
X120500000Y-81210000D02*
G75*
G03*
X120500000Y-81210000I-1200000J0D01*
G01*
%TO.C,TP4*%
X121320000Y-33790000D02*
G75*
G03*
X121320000Y-33790000I-1200000J0D01*
G01*
%TO.C,TP3*%
X69140000Y-76340000D02*
G75*
G03*
X69140000Y-76340000I-1200000J0D01*
G01*
%TO.C,TP2*%
X72770000Y-73960000D02*
G75*
G03*
X72770000Y-73960000I-1200000J0D01*
G01*
%TO.C,TP1*%
X62120000Y-75190000D02*
G75*
G03*
X62120000Y-75190000I-1200000J0D01*
G01*
%TO.C,J7*%
X113685000Y-86206000D02*
X113685000Y-85571000D01*
X113050000Y-86206000D02*
X113685000Y-86206000D01*
%TO.C,TP21*%
D10*
X38838095Y-53372380D02*
X38266666Y-53372380D01*
X38552380Y-54372380D02*
X38552380Y-53372380D01*
X37933333Y-54372380D02*
X37933333Y-53372380D01*
X37552380Y-53372380D01*
X37457142Y-53420000D01*
X37409523Y-53467619D01*
X37361904Y-53562857D01*
X37361904Y-53705714D01*
X37409523Y-53800952D01*
X37457142Y-53848571D01*
X37552380Y-53896190D01*
X37933333Y-53896190D01*
X36980952Y-53467619D02*
X36933333Y-53420000D01*
X36838095Y-53372380D01*
X36600000Y-53372380D01*
X36504761Y-53420000D01*
X36457142Y-53467619D01*
X36409523Y-53562857D01*
X36409523Y-53658095D01*
X36457142Y-53800952D01*
X37028571Y-54372380D01*
X36409523Y-54372380D01*
X35457142Y-54372380D02*
X36028571Y-54372380D01*
X35742857Y-54372380D02*
X35742857Y-53372380D01*
X35838095Y-53515238D01*
X35933333Y-53610476D01*
X36028571Y-53658095D01*
%TO.C,U12*%
X32789285Y-55691428D02*
X33396428Y-55691428D01*
X33467857Y-55727142D01*
X33503571Y-55762857D01*
X33539285Y-55834285D01*
X33539285Y-55977142D01*
X33503571Y-56048571D01*
X33467857Y-56084285D01*
X33396428Y-56120000D01*
X32789285Y-56120000D01*
X33539285Y-56870000D02*
X33539285Y-56441428D01*
X33539285Y-56655714D02*
X32789285Y-56655714D01*
X32896428Y-56584285D01*
X32967857Y-56512857D01*
X33003571Y-56441428D01*
X32860714Y-57155714D02*
X32825000Y-57191428D01*
X32789285Y-57262857D01*
X32789285Y-57441428D01*
X32825000Y-57512857D01*
X32860714Y-57548571D01*
X32932142Y-57584285D01*
X33003571Y-57584285D01*
X33110714Y-57548571D01*
X33539285Y-57120000D01*
X33539285Y-57584285D01*
%TO.C,TP29*%
X45378095Y-85040380D02*
X44806666Y-85040380D01*
X45092380Y-86040380D02*
X45092380Y-85040380D01*
X44473333Y-86040380D02*
X44473333Y-85040380D01*
X44092380Y-85040380D01*
X43997142Y-85088000D01*
X43949523Y-85135619D01*
X43901904Y-85230857D01*
X43901904Y-85373714D01*
X43949523Y-85468952D01*
X43997142Y-85516571D01*
X44092380Y-85564190D01*
X44473333Y-85564190D01*
X43520952Y-85135619D02*
X43473333Y-85088000D01*
X43378095Y-85040380D01*
X43140000Y-85040380D01*
X43044761Y-85088000D01*
X42997142Y-85135619D01*
X42949523Y-85230857D01*
X42949523Y-85326095D01*
X42997142Y-85468952D01*
X43568571Y-86040380D01*
X42949523Y-86040380D01*
X42473333Y-86040380D02*
X42282857Y-86040380D01*
X42187619Y-85992761D01*
X42140000Y-85945142D01*
X42044761Y-85802285D01*
X41997142Y-85611809D01*
X41997142Y-85230857D01*
X42044761Y-85135619D01*
X42092380Y-85088000D01*
X42187619Y-85040380D01*
X42378095Y-85040380D01*
X42473333Y-85088000D01*
X42520952Y-85135619D01*
X42568571Y-85230857D01*
X42568571Y-85468952D01*
X42520952Y-85564190D01*
X42473333Y-85611809D01*
X42378095Y-85659428D01*
X42187619Y-85659428D01*
X42092380Y-85611809D01*
X42044761Y-85564190D01*
X41997142Y-85468952D01*
%TO.C,TP28*%
X54468095Y-82630380D02*
X53896666Y-82630380D01*
X54182380Y-83630380D02*
X54182380Y-82630380D01*
X53563333Y-83630380D02*
X53563333Y-82630380D01*
X53182380Y-82630380D01*
X53087142Y-82678000D01*
X53039523Y-82725619D01*
X52991904Y-82820857D01*
X52991904Y-82963714D01*
X53039523Y-83058952D01*
X53087142Y-83106571D01*
X53182380Y-83154190D01*
X53563333Y-83154190D01*
X52610952Y-82725619D02*
X52563333Y-82678000D01*
X52468095Y-82630380D01*
X52230000Y-82630380D01*
X52134761Y-82678000D01*
X52087142Y-82725619D01*
X52039523Y-82820857D01*
X52039523Y-82916095D01*
X52087142Y-83058952D01*
X52658571Y-83630380D01*
X52039523Y-83630380D01*
X51468095Y-83058952D02*
X51563333Y-83011333D01*
X51610952Y-82963714D01*
X51658571Y-82868476D01*
X51658571Y-82820857D01*
X51610952Y-82725619D01*
X51563333Y-82678000D01*
X51468095Y-82630380D01*
X51277619Y-82630380D01*
X51182380Y-82678000D01*
X51134761Y-82725619D01*
X51087142Y-82820857D01*
X51087142Y-82868476D01*
X51134761Y-82963714D01*
X51182380Y-83011333D01*
X51277619Y-83058952D01*
X51468095Y-83058952D01*
X51563333Y-83106571D01*
X51610952Y-83154190D01*
X51658571Y-83249428D01*
X51658571Y-83439904D01*
X51610952Y-83535142D01*
X51563333Y-83582761D01*
X51468095Y-83630380D01*
X51277619Y-83630380D01*
X51182380Y-83582761D01*
X51134761Y-83535142D01*
X51087142Y-83439904D01*
X51087142Y-83249428D01*
X51134761Y-83154190D01*
X51182380Y-83106571D01*
X51277619Y-83058952D01*
%TO.C,TP27*%
X41488095Y-75630380D02*
X40916666Y-75630380D01*
X41202380Y-76630380D02*
X41202380Y-75630380D01*
X40583333Y-76630380D02*
X40583333Y-75630380D01*
X40202380Y-75630380D01*
X40107142Y-75678000D01*
X40059523Y-75725619D01*
X40011904Y-75820857D01*
X40011904Y-75963714D01*
X40059523Y-76058952D01*
X40107142Y-76106571D01*
X40202380Y-76154190D01*
X40583333Y-76154190D01*
X39630952Y-75725619D02*
X39583333Y-75678000D01*
X39488095Y-75630380D01*
X39250000Y-75630380D01*
X39154761Y-75678000D01*
X39107142Y-75725619D01*
X39059523Y-75820857D01*
X39059523Y-75916095D01*
X39107142Y-76058952D01*
X39678571Y-76630380D01*
X39059523Y-76630380D01*
X38726190Y-75630380D02*
X38059523Y-75630380D01*
X38488095Y-76630380D01*
%TO.C,TP26*%
X81208095Y-45430380D02*
X80636666Y-45430380D01*
X80922380Y-46430380D02*
X80922380Y-45430380D01*
X80303333Y-46430380D02*
X80303333Y-45430380D01*
X79922380Y-45430380D01*
X79827142Y-45478000D01*
X79779523Y-45525619D01*
X79731904Y-45620857D01*
X79731904Y-45763714D01*
X79779523Y-45858952D01*
X79827142Y-45906571D01*
X79922380Y-45954190D01*
X80303333Y-45954190D01*
X79350952Y-45525619D02*
X79303333Y-45478000D01*
X79208095Y-45430380D01*
X78970000Y-45430380D01*
X78874761Y-45478000D01*
X78827142Y-45525619D01*
X78779523Y-45620857D01*
X78779523Y-45716095D01*
X78827142Y-45858952D01*
X79398571Y-46430380D01*
X78779523Y-46430380D01*
X77922380Y-45430380D02*
X78112857Y-45430380D01*
X78208095Y-45478000D01*
X78255714Y-45525619D01*
X78350952Y-45668476D01*
X78398571Y-45858952D01*
X78398571Y-46239904D01*
X78350952Y-46335142D01*
X78303333Y-46382761D01*
X78208095Y-46430380D01*
X78017619Y-46430380D01*
X77922380Y-46382761D01*
X77874761Y-46335142D01*
X77827142Y-46239904D01*
X77827142Y-46001809D01*
X77874761Y-45906571D01*
X77922380Y-45858952D01*
X78017619Y-45811333D01*
X78208095Y-45811333D01*
X78303333Y-45858952D01*
X78350952Y-45906571D01*
X78398571Y-46001809D01*
%TO.C,TP25*%
X122848095Y-40550380D02*
X122276666Y-40550380D01*
X122562380Y-41550380D02*
X122562380Y-40550380D01*
X121943333Y-41550380D02*
X121943333Y-40550380D01*
X121562380Y-40550380D01*
X121467142Y-40598000D01*
X121419523Y-40645619D01*
X121371904Y-40740857D01*
X121371904Y-40883714D01*
X121419523Y-40978952D01*
X121467142Y-41026571D01*
X121562380Y-41074190D01*
X121943333Y-41074190D01*
X120990952Y-40645619D02*
X120943333Y-40598000D01*
X120848095Y-40550380D01*
X120610000Y-40550380D01*
X120514761Y-40598000D01*
X120467142Y-40645619D01*
X120419523Y-40740857D01*
X120419523Y-40836095D01*
X120467142Y-40978952D01*
X121038571Y-41550380D01*
X120419523Y-41550380D01*
X119514761Y-40550380D02*
X119990952Y-40550380D01*
X120038571Y-41026571D01*
X119990952Y-40978952D01*
X119895714Y-40931333D01*
X119657619Y-40931333D01*
X119562380Y-40978952D01*
X119514761Y-41026571D01*
X119467142Y-41121809D01*
X119467142Y-41359904D01*
X119514761Y-41455142D01*
X119562380Y-41502761D01*
X119657619Y-41550380D01*
X119895714Y-41550380D01*
X119990952Y-41502761D01*
X120038571Y-41455142D01*
%TO.C,TP24*%
X103658095Y-78910380D02*
X103086666Y-78910380D01*
X103372380Y-79910380D02*
X103372380Y-78910380D01*
X102753333Y-79910380D02*
X102753333Y-78910380D01*
X102372380Y-78910380D01*
X102277142Y-78958000D01*
X102229523Y-79005619D01*
X102181904Y-79100857D01*
X102181904Y-79243714D01*
X102229523Y-79338952D01*
X102277142Y-79386571D01*
X102372380Y-79434190D01*
X102753333Y-79434190D01*
X101800952Y-79005619D02*
X101753333Y-78958000D01*
X101658095Y-78910380D01*
X101420000Y-78910380D01*
X101324761Y-78958000D01*
X101277142Y-79005619D01*
X101229523Y-79100857D01*
X101229523Y-79196095D01*
X101277142Y-79338952D01*
X101848571Y-79910380D01*
X101229523Y-79910380D01*
X100372380Y-79243714D02*
X100372380Y-79910380D01*
X100610476Y-78862761D02*
X100848571Y-79577047D01*
X100229523Y-79577047D01*
%TO.C,TP23*%
X106708095Y-78070380D02*
X106136666Y-78070380D01*
X106422380Y-79070380D02*
X106422380Y-78070380D01*
X105803333Y-79070380D02*
X105803333Y-78070380D01*
X105422380Y-78070380D01*
X105327142Y-78118000D01*
X105279523Y-78165619D01*
X105231904Y-78260857D01*
X105231904Y-78403714D01*
X105279523Y-78498952D01*
X105327142Y-78546571D01*
X105422380Y-78594190D01*
X105803333Y-78594190D01*
X104850952Y-78165619D02*
X104803333Y-78118000D01*
X104708095Y-78070380D01*
X104470000Y-78070380D01*
X104374761Y-78118000D01*
X104327142Y-78165619D01*
X104279523Y-78260857D01*
X104279523Y-78356095D01*
X104327142Y-78498952D01*
X104898571Y-79070380D01*
X104279523Y-79070380D01*
X103946190Y-78070380D02*
X103327142Y-78070380D01*
X103660476Y-78451333D01*
X103517619Y-78451333D01*
X103422380Y-78498952D01*
X103374761Y-78546571D01*
X103327142Y-78641809D01*
X103327142Y-78879904D01*
X103374761Y-78975142D01*
X103422380Y-79022761D01*
X103517619Y-79070380D01*
X103803333Y-79070380D01*
X103898571Y-79022761D01*
X103946190Y-78975142D01*
%TO.C,TP22*%
X87578095Y-62840380D02*
X87006666Y-62840380D01*
X87292380Y-63840380D02*
X87292380Y-62840380D01*
X86673333Y-63840380D02*
X86673333Y-62840380D01*
X86292380Y-62840380D01*
X86197142Y-62888000D01*
X86149523Y-62935619D01*
X86101904Y-63030857D01*
X86101904Y-63173714D01*
X86149523Y-63268952D01*
X86197142Y-63316571D01*
X86292380Y-63364190D01*
X86673333Y-63364190D01*
X85720952Y-62935619D02*
X85673333Y-62888000D01*
X85578095Y-62840380D01*
X85340000Y-62840380D01*
X85244761Y-62888000D01*
X85197142Y-62935619D01*
X85149523Y-63030857D01*
X85149523Y-63126095D01*
X85197142Y-63268952D01*
X85768571Y-63840380D01*
X85149523Y-63840380D01*
X84768571Y-62935619D02*
X84720952Y-62888000D01*
X84625714Y-62840380D01*
X84387619Y-62840380D01*
X84292380Y-62888000D01*
X84244761Y-62935619D01*
X84197142Y-63030857D01*
X84197142Y-63126095D01*
X84244761Y-63268952D01*
X84816190Y-63840380D01*
X84197142Y-63840380D01*
%TO.C,TP20*%
X86028095Y-67080380D02*
X85456666Y-67080380D01*
X85742380Y-68080380D02*
X85742380Y-67080380D01*
X85123333Y-68080380D02*
X85123333Y-67080380D01*
X84742380Y-67080380D01*
X84647142Y-67128000D01*
X84599523Y-67175619D01*
X84551904Y-67270857D01*
X84551904Y-67413714D01*
X84599523Y-67508952D01*
X84647142Y-67556571D01*
X84742380Y-67604190D01*
X85123333Y-67604190D01*
X84170952Y-67175619D02*
X84123333Y-67128000D01*
X84028095Y-67080380D01*
X83790000Y-67080380D01*
X83694761Y-67128000D01*
X83647142Y-67175619D01*
X83599523Y-67270857D01*
X83599523Y-67366095D01*
X83647142Y-67508952D01*
X84218571Y-68080380D01*
X83599523Y-68080380D01*
X82980476Y-67080380D02*
X82885238Y-67080380D01*
X82790000Y-67128000D01*
X82742380Y-67175619D01*
X82694761Y-67270857D01*
X82647142Y-67461333D01*
X82647142Y-67699428D01*
X82694761Y-67889904D01*
X82742380Y-67985142D01*
X82790000Y-68032761D01*
X82885238Y-68080380D01*
X82980476Y-68080380D01*
X83075714Y-68032761D01*
X83123333Y-67985142D01*
X83170952Y-67889904D01*
X83218571Y-67699428D01*
X83218571Y-67461333D01*
X83170952Y-67270857D01*
X83123333Y-67175619D01*
X83075714Y-67128000D01*
X82980476Y-67080380D01*
%TO.C,TP19*%
X42228095Y-37310380D02*
X41656666Y-37310380D01*
X41942380Y-38310380D02*
X41942380Y-37310380D01*
X41323333Y-38310380D02*
X41323333Y-37310380D01*
X40942380Y-37310380D01*
X40847142Y-37358000D01*
X40799523Y-37405619D01*
X40751904Y-37500857D01*
X40751904Y-37643714D01*
X40799523Y-37738952D01*
X40847142Y-37786571D01*
X40942380Y-37834190D01*
X41323333Y-37834190D01*
X39799523Y-38310380D02*
X40370952Y-38310380D01*
X40085238Y-38310380D02*
X40085238Y-37310380D01*
X40180476Y-37453238D01*
X40275714Y-37548476D01*
X40370952Y-37596095D01*
X39323333Y-38310380D02*
X39132857Y-38310380D01*
X39037619Y-38262761D01*
X38990000Y-38215142D01*
X38894761Y-38072285D01*
X38847142Y-37881809D01*
X38847142Y-37500857D01*
X38894761Y-37405619D01*
X38942380Y-37358000D01*
X39037619Y-37310380D01*
X39228095Y-37310380D01*
X39323333Y-37358000D01*
X39370952Y-37405619D01*
X39418571Y-37500857D01*
X39418571Y-37738952D01*
X39370952Y-37834190D01*
X39323333Y-37881809D01*
X39228095Y-37929428D01*
X39037619Y-37929428D01*
X38942380Y-37881809D01*
X38894761Y-37834190D01*
X38847142Y-37738952D01*
%TO.C,TP18*%
X50428095Y-53490380D02*
X49856666Y-53490380D01*
X50142380Y-54490380D02*
X50142380Y-53490380D01*
X49523333Y-54490380D02*
X49523333Y-53490380D01*
X49142380Y-53490380D01*
X49047142Y-53538000D01*
X48999523Y-53585619D01*
X48951904Y-53680857D01*
X48951904Y-53823714D01*
X48999523Y-53918952D01*
X49047142Y-53966571D01*
X49142380Y-54014190D01*
X49523333Y-54014190D01*
X47999523Y-54490380D02*
X48570952Y-54490380D01*
X48285238Y-54490380D02*
X48285238Y-53490380D01*
X48380476Y-53633238D01*
X48475714Y-53728476D01*
X48570952Y-53776095D01*
X47428095Y-53918952D02*
X47523333Y-53871333D01*
X47570952Y-53823714D01*
X47618571Y-53728476D01*
X47618571Y-53680857D01*
X47570952Y-53585619D01*
X47523333Y-53538000D01*
X47428095Y-53490380D01*
X47237619Y-53490380D01*
X47142380Y-53538000D01*
X47094761Y-53585619D01*
X47047142Y-53680857D01*
X47047142Y-53728476D01*
X47094761Y-53823714D01*
X47142380Y-53871333D01*
X47237619Y-53918952D01*
X47428095Y-53918952D01*
X47523333Y-53966571D01*
X47570952Y-54014190D01*
X47618571Y-54109428D01*
X47618571Y-54299904D01*
X47570952Y-54395142D01*
X47523333Y-54442761D01*
X47428095Y-54490380D01*
X47237619Y-54490380D01*
X47142380Y-54442761D01*
X47094761Y-54395142D01*
X47047142Y-54299904D01*
X47047142Y-54109428D01*
X47094761Y-54014190D01*
X47142380Y-53966571D01*
X47237619Y-53918952D01*
%TO.C,TP17*%
X45408095Y-48720380D02*
X44836666Y-48720380D01*
X45122380Y-49720380D02*
X45122380Y-48720380D01*
X44503333Y-49720380D02*
X44503333Y-48720380D01*
X44122380Y-48720380D01*
X44027142Y-48768000D01*
X43979523Y-48815619D01*
X43931904Y-48910857D01*
X43931904Y-49053714D01*
X43979523Y-49148952D01*
X44027142Y-49196571D01*
X44122380Y-49244190D01*
X44503333Y-49244190D01*
X42979523Y-49720380D02*
X43550952Y-49720380D01*
X43265238Y-49720380D02*
X43265238Y-48720380D01*
X43360476Y-48863238D01*
X43455714Y-48958476D01*
X43550952Y-49006095D01*
X42646190Y-48720380D02*
X41979523Y-48720380D01*
X42408095Y-49720380D01*
%TO.C,TP16*%
X45098095Y-44340380D02*
X44526666Y-44340380D01*
X44812380Y-45340380D02*
X44812380Y-44340380D01*
X44193333Y-45340380D02*
X44193333Y-44340380D01*
X43812380Y-44340380D01*
X43717142Y-44388000D01*
X43669523Y-44435619D01*
X43621904Y-44530857D01*
X43621904Y-44673714D01*
X43669523Y-44768952D01*
X43717142Y-44816571D01*
X43812380Y-44864190D01*
X44193333Y-44864190D01*
X42669523Y-45340380D02*
X43240952Y-45340380D01*
X42955238Y-45340380D02*
X42955238Y-44340380D01*
X43050476Y-44483238D01*
X43145714Y-44578476D01*
X43240952Y-44626095D01*
X41812380Y-44340380D02*
X42002857Y-44340380D01*
X42098095Y-44388000D01*
X42145714Y-44435619D01*
X42240952Y-44578476D01*
X42288571Y-44768952D01*
X42288571Y-45149904D01*
X42240952Y-45245142D01*
X42193333Y-45292761D01*
X42098095Y-45340380D01*
X41907619Y-45340380D01*
X41812380Y-45292761D01*
X41764761Y-45245142D01*
X41717142Y-45149904D01*
X41717142Y-44911809D01*
X41764761Y-44816571D01*
X41812380Y-44768952D01*
X41907619Y-44721333D01*
X42098095Y-44721333D01*
X42193333Y-44768952D01*
X42240952Y-44816571D01*
X42288571Y-44911809D01*
%TO.C,TP15*%
X65078095Y-43850380D02*
X64506666Y-43850380D01*
X64792380Y-44850380D02*
X64792380Y-43850380D01*
X64173333Y-44850380D02*
X64173333Y-43850380D01*
X63792380Y-43850380D01*
X63697142Y-43898000D01*
X63649523Y-43945619D01*
X63601904Y-44040857D01*
X63601904Y-44183714D01*
X63649523Y-44278952D01*
X63697142Y-44326571D01*
X63792380Y-44374190D01*
X64173333Y-44374190D01*
X62649523Y-44850380D02*
X63220952Y-44850380D01*
X62935238Y-44850380D02*
X62935238Y-43850380D01*
X63030476Y-43993238D01*
X63125714Y-44088476D01*
X63220952Y-44136095D01*
X61744761Y-43850380D02*
X62220952Y-43850380D01*
X62268571Y-44326571D01*
X62220952Y-44278952D01*
X62125714Y-44231333D01*
X61887619Y-44231333D01*
X61792380Y-44278952D01*
X61744761Y-44326571D01*
X61697142Y-44421809D01*
X61697142Y-44659904D01*
X61744761Y-44755142D01*
X61792380Y-44802761D01*
X61887619Y-44850380D01*
X62125714Y-44850380D01*
X62220952Y-44802761D01*
X62268571Y-44755142D01*
%TO.C,TP14*%
X66648095Y-76400380D02*
X66076666Y-76400380D01*
X66362380Y-77400380D02*
X66362380Y-76400380D01*
X65743333Y-77400380D02*
X65743333Y-76400380D01*
X65362380Y-76400380D01*
X65267142Y-76448000D01*
X65219523Y-76495619D01*
X65171904Y-76590857D01*
X65171904Y-76733714D01*
X65219523Y-76828952D01*
X65267142Y-76876571D01*
X65362380Y-76924190D01*
X65743333Y-76924190D01*
X64219523Y-77400380D02*
X64790952Y-77400380D01*
X64505238Y-77400380D02*
X64505238Y-76400380D01*
X64600476Y-76543238D01*
X64695714Y-76638476D01*
X64790952Y-76686095D01*
X63362380Y-76733714D02*
X63362380Y-77400380D01*
X63600476Y-76352761D02*
X63838571Y-77067047D01*
X63219523Y-77067047D01*
%TO.C,TP13*%
X106448095Y-43370380D02*
X105876666Y-43370380D01*
X106162380Y-44370380D02*
X106162380Y-43370380D01*
X105543333Y-44370380D02*
X105543333Y-43370380D01*
X105162380Y-43370380D01*
X105067142Y-43418000D01*
X105019523Y-43465619D01*
X104971904Y-43560857D01*
X104971904Y-43703714D01*
X105019523Y-43798952D01*
X105067142Y-43846571D01*
X105162380Y-43894190D01*
X105543333Y-43894190D01*
X104019523Y-44370380D02*
X104590952Y-44370380D01*
X104305238Y-44370380D02*
X104305238Y-43370380D01*
X104400476Y-43513238D01*
X104495714Y-43608476D01*
X104590952Y-43656095D01*
X103686190Y-43370380D02*
X103067142Y-43370380D01*
X103400476Y-43751333D01*
X103257619Y-43751333D01*
X103162380Y-43798952D01*
X103114761Y-43846571D01*
X103067142Y-43941809D01*
X103067142Y-44179904D01*
X103114761Y-44275142D01*
X103162380Y-44322761D01*
X103257619Y-44370380D01*
X103543333Y-44370380D01*
X103638571Y-44322761D01*
X103686190Y-44275142D01*
%TO.C,TP12*%
X65188095Y-80920380D02*
X64616666Y-80920380D01*
X64902380Y-81920380D02*
X64902380Y-80920380D01*
X64283333Y-81920380D02*
X64283333Y-80920380D01*
X63902380Y-80920380D01*
X63807142Y-80968000D01*
X63759523Y-81015619D01*
X63711904Y-81110857D01*
X63711904Y-81253714D01*
X63759523Y-81348952D01*
X63807142Y-81396571D01*
X63902380Y-81444190D01*
X64283333Y-81444190D01*
X62759523Y-81920380D02*
X63330952Y-81920380D01*
X63045238Y-81920380D02*
X63045238Y-80920380D01*
X63140476Y-81063238D01*
X63235714Y-81158476D01*
X63330952Y-81206095D01*
X62378571Y-81015619D02*
X62330952Y-80968000D01*
X62235714Y-80920380D01*
X61997619Y-80920380D01*
X61902380Y-80968000D01*
X61854761Y-81015619D01*
X61807142Y-81110857D01*
X61807142Y-81206095D01*
X61854761Y-81348952D01*
X62426190Y-81920380D01*
X61807142Y-81920380D01*
%TO.C,TP11*%
X75538095Y-77540380D02*
X74966666Y-77540380D01*
X75252380Y-78540380D02*
X75252380Y-77540380D01*
X74633333Y-78540380D02*
X74633333Y-77540380D01*
X74252380Y-77540380D01*
X74157142Y-77588000D01*
X74109523Y-77635619D01*
X74061904Y-77730857D01*
X74061904Y-77873714D01*
X74109523Y-77968952D01*
X74157142Y-78016571D01*
X74252380Y-78064190D01*
X74633333Y-78064190D01*
X73109523Y-78540380D02*
X73680952Y-78540380D01*
X73395238Y-78540380D02*
X73395238Y-77540380D01*
X73490476Y-77683238D01*
X73585714Y-77778476D01*
X73680952Y-77826095D01*
X72157142Y-78540380D02*
X72728571Y-78540380D01*
X72442857Y-78540380D02*
X72442857Y-77540380D01*
X72538095Y-77683238D01*
X72633333Y-77778476D01*
X72728571Y-77826095D01*
%TO.C,TP10*%
X76078095Y-80980380D02*
X75506666Y-80980380D01*
X75792380Y-81980380D02*
X75792380Y-80980380D01*
X75173333Y-81980380D02*
X75173333Y-80980380D01*
X74792380Y-80980380D01*
X74697142Y-81028000D01*
X74649523Y-81075619D01*
X74601904Y-81170857D01*
X74601904Y-81313714D01*
X74649523Y-81408952D01*
X74697142Y-81456571D01*
X74792380Y-81504190D01*
X75173333Y-81504190D01*
X73649523Y-81980380D02*
X74220952Y-81980380D01*
X73935238Y-81980380D02*
X73935238Y-80980380D01*
X74030476Y-81123238D01*
X74125714Y-81218476D01*
X74220952Y-81266095D01*
X73030476Y-80980380D02*
X72935238Y-80980380D01*
X72840000Y-81028000D01*
X72792380Y-81075619D01*
X72744761Y-81170857D01*
X72697142Y-81361333D01*
X72697142Y-81599428D01*
X72744761Y-81789904D01*
X72792380Y-81885142D01*
X72840000Y-81932761D01*
X72935238Y-81980380D01*
X73030476Y-81980380D01*
X73125714Y-81932761D01*
X73173333Y-81885142D01*
X73220952Y-81789904D01*
X73268571Y-81599428D01*
X73268571Y-81361333D01*
X73220952Y-81170857D01*
X73173333Y-81075619D01*
X73125714Y-81028000D01*
X73030476Y-80980380D01*
%TO.C,TP9*%
X46181904Y-76650380D02*
X45610476Y-76650380D01*
X45896190Y-77650380D02*
X45896190Y-76650380D01*
X45277142Y-77650380D02*
X45277142Y-76650380D01*
X44896190Y-76650380D01*
X44800952Y-76698000D01*
X44753333Y-76745619D01*
X44705714Y-76840857D01*
X44705714Y-76983714D01*
X44753333Y-77078952D01*
X44800952Y-77126571D01*
X44896190Y-77174190D01*
X45277142Y-77174190D01*
X44229523Y-77650380D02*
X44039047Y-77650380D01*
X43943809Y-77602761D01*
X43896190Y-77555142D01*
X43800952Y-77412285D01*
X43753333Y-77221809D01*
X43753333Y-76840857D01*
X43800952Y-76745619D01*
X43848571Y-76698000D01*
X43943809Y-76650380D01*
X44134285Y-76650380D01*
X44229523Y-76698000D01*
X44277142Y-76745619D01*
X44324761Y-76840857D01*
X44324761Y-77078952D01*
X44277142Y-77174190D01*
X44229523Y-77221809D01*
X44134285Y-77269428D01*
X43943809Y-77269428D01*
X43848571Y-77221809D01*
X43800952Y-77174190D01*
X43753333Y-77078952D01*
%TO.C,TP8*%
X51011904Y-40260380D02*
X50440476Y-40260380D01*
X50726190Y-41260380D02*
X50726190Y-40260380D01*
X50107142Y-41260380D02*
X50107142Y-40260380D01*
X49726190Y-40260380D01*
X49630952Y-40308000D01*
X49583333Y-40355619D01*
X49535714Y-40450857D01*
X49535714Y-40593714D01*
X49583333Y-40688952D01*
X49630952Y-40736571D01*
X49726190Y-40784190D01*
X50107142Y-40784190D01*
X48964285Y-40688952D02*
X49059523Y-40641333D01*
X49107142Y-40593714D01*
X49154761Y-40498476D01*
X49154761Y-40450857D01*
X49107142Y-40355619D01*
X49059523Y-40308000D01*
X48964285Y-40260380D01*
X48773809Y-40260380D01*
X48678571Y-40308000D01*
X48630952Y-40355619D01*
X48583333Y-40450857D01*
X48583333Y-40498476D01*
X48630952Y-40593714D01*
X48678571Y-40641333D01*
X48773809Y-40688952D01*
X48964285Y-40688952D01*
X49059523Y-40736571D01*
X49107142Y-40784190D01*
X49154761Y-40879428D01*
X49154761Y-41069904D01*
X49107142Y-41165142D01*
X49059523Y-41212761D01*
X48964285Y-41260380D01*
X48773809Y-41260380D01*
X48678571Y-41212761D01*
X48630952Y-41165142D01*
X48583333Y-41069904D01*
X48583333Y-40879428D01*
X48630952Y-40784190D01*
X48678571Y-40736571D01*
X48773809Y-40688952D01*
%TO.C,TP7*%
X47891904Y-41170380D02*
X47320476Y-41170380D01*
X47606190Y-42170380D02*
X47606190Y-41170380D01*
X46987142Y-42170380D02*
X46987142Y-41170380D01*
X46606190Y-41170380D01*
X46510952Y-41218000D01*
X46463333Y-41265619D01*
X46415714Y-41360857D01*
X46415714Y-41503714D01*
X46463333Y-41598952D01*
X46510952Y-41646571D01*
X46606190Y-41694190D01*
X46987142Y-41694190D01*
X46082380Y-41170380D02*
X45415714Y-41170380D01*
X45844285Y-42170380D01*
%TO.C,TP6*%
X118651904Y-80140380D02*
X118080476Y-80140380D01*
X118366190Y-81140380D02*
X118366190Y-80140380D01*
X117747142Y-81140380D02*
X117747142Y-80140380D01*
X117366190Y-80140380D01*
X117270952Y-80188000D01*
X117223333Y-80235619D01*
X117175714Y-80330857D01*
X117175714Y-80473714D01*
X117223333Y-80568952D01*
X117270952Y-80616571D01*
X117366190Y-80664190D01*
X117747142Y-80664190D01*
X116318571Y-80140380D02*
X116509047Y-80140380D01*
X116604285Y-80188000D01*
X116651904Y-80235619D01*
X116747142Y-80378476D01*
X116794761Y-80568952D01*
X116794761Y-80949904D01*
X116747142Y-81045142D01*
X116699523Y-81092761D01*
X116604285Y-81140380D01*
X116413809Y-81140380D01*
X116318571Y-81092761D01*
X116270952Y-81045142D01*
X116223333Y-80949904D01*
X116223333Y-80711809D01*
X116270952Y-80616571D01*
X116318571Y-80568952D01*
X116413809Y-80521333D01*
X116604285Y-80521333D01*
X116699523Y-80568952D01*
X116747142Y-80616571D01*
X116794761Y-80711809D01*
%TO.C,TP5*%
X120561904Y-82660380D02*
X119990476Y-82660380D01*
X120276190Y-83660380D02*
X120276190Y-82660380D01*
X119657142Y-83660380D02*
X119657142Y-82660380D01*
X119276190Y-82660380D01*
X119180952Y-82708000D01*
X119133333Y-82755619D01*
X119085714Y-82850857D01*
X119085714Y-82993714D01*
X119133333Y-83088952D01*
X119180952Y-83136571D01*
X119276190Y-83184190D01*
X119657142Y-83184190D01*
X118180952Y-82660380D02*
X118657142Y-82660380D01*
X118704761Y-83136571D01*
X118657142Y-83088952D01*
X118561904Y-83041333D01*
X118323809Y-83041333D01*
X118228571Y-83088952D01*
X118180952Y-83136571D01*
X118133333Y-83231809D01*
X118133333Y-83469904D01*
X118180952Y-83565142D01*
X118228571Y-83612761D01*
X118323809Y-83660380D01*
X118561904Y-83660380D01*
X118657142Y-83612761D01*
X118704761Y-83565142D01*
%TO.C,TP4*%
X121381904Y-35240380D02*
X120810476Y-35240380D01*
X121096190Y-36240380D02*
X121096190Y-35240380D01*
X120477142Y-36240380D02*
X120477142Y-35240380D01*
X120096190Y-35240380D01*
X120000952Y-35288000D01*
X119953333Y-35335619D01*
X119905714Y-35430857D01*
X119905714Y-35573714D01*
X119953333Y-35668952D01*
X120000952Y-35716571D01*
X120096190Y-35764190D01*
X120477142Y-35764190D01*
X119048571Y-35573714D02*
X119048571Y-36240380D01*
X119286666Y-35192761D02*
X119524761Y-35907047D01*
X118905714Y-35907047D01*
%TO.C,TP3*%
X69201904Y-77790380D02*
X68630476Y-77790380D01*
X68916190Y-78790380D02*
X68916190Y-77790380D01*
X68297142Y-78790380D02*
X68297142Y-77790380D01*
X67916190Y-77790380D01*
X67820952Y-77838000D01*
X67773333Y-77885619D01*
X67725714Y-77980857D01*
X67725714Y-78123714D01*
X67773333Y-78218952D01*
X67820952Y-78266571D01*
X67916190Y-78314190D01*
X68297142Y-78314190D01*
X67392380Y-77790380D02*
X66773333Y-77790380D01*
X67106666Y-78171333D01*
X66963809Y-78171333D01*
X66868571Y-78218952D01*
X66820952Y-78266571D01*
X66773333Y-78361809D01*
X66773333Y-78599904D01*
X66820952Y-78695142D01*
X66868571Y-78742761D01*
X66963809Y-78790380D01*
X67249523Y-78790380D01*
X67344761Y-78742761D01*
X67392380Y-78695142D01*
%TO.C,TP2*%
X72831904Y-75410380D02*
X72260476Y-75410380D01*
X72546190Y-76410380D02*
X72546190Y-75410380D01*
X71927142Y-76410380D02*
X71927142Y-75410380D01*
X71546190Y-75410380D01*
X71450952Y-75458000D01*
X71403333Y-75505619D01*
X71355714Y-75600857D01*
X71355714Y-75743714D01*
X71403333Y-75838952D01*
X71450952Y-75886571D01*
X71546190Y-75934190D01*
X71927142Y-75934190D01*
X70974761Y-75505619D02*
X70927142Y-75458000D01*
X70831904Y-75410380D01*
X70593809Y-75410380D01*
X70498571Y-75458000D01*
X70450952Y-75505619D01*
X70403333Y-75600857D01*
X70403333Y-75696095D01*
X70450952Y-75838952D01*
X71022380Y-76410380D01*
X70403333Y-76410380D01*
%TO.C,TP1*%
X62181904Y-76640380D02*
X61610476Y-76640380D01*
X61896190Y-77640380D02*
X61896190Y-76640380D01*
X61277142Y-77640380D02*
X61277142Y-76640380D01*
X60896190Y-76640380D01*
X60800952Y-76688000D01*
X60753333Y-76735619D01*
X60705714Y-76830857D01*
X60705714Y-76973714D01*
X60753333Y-77068952D01*
X60800952Y-77116571D01*
X60896190Y-77164190D01*
X61277142Y-77164190D01*
X59753333Y-77640380D02*
X60324761Y-77640380D01*
X60039047Y-77640380D02*
X60039047Y-76640380D01*
X60134285Y-76783238D01*
X60229523Y-76878476D01*
X60324761Y-76926095D01*
%TO.C,J7*%
X112053333Y-81592380D02*
X112053333Y-82306666D01*
X112100952Y-82449523D01*
X112196190Y-82544761D01*
X112339047Y-82592380D01*
X112434285Y-82592380D01*
X111672380Y-81592380D02*
X111005714Y-81592380D01*
X111434285Y-82592380D01*
%TD*%
%LPC*%
D13*
%TO.C,TP21*%
X33990000Y-52570000D03*
%TD*%
D14*
%TO.C,U12*%
X30910000Y-55810000D03*
X31410000Y-55810000D03*
X31910000Y-55810000D03*
X31910000Y-54210000D03*
X31410000Y-54210000D03*
D15*
X30910000Y-54285000D03*
%TD*%
D13*
%TO.C,TP29*%
X43640000Y-83590000D03*
%TD*%
%TO.C,TP28*%
X52730000Y-81180000D03*
%TD*%
%TO.C,TP27*%
X39750000Y-74180000D03*
%TD*%
%TO.C,TP26*%
X79470000Y-43980000D03*
%TD*%
%TO.C,TP25*%
X121110000Y-39100000D03*
%TD*%
%TO.C,TP24*%
X101920000Y-77460000D03*
%TD*%
%TO.C,TP23*%
X104970000Y-76620000D03*
%TD*%
%TO.C,TP22*%
X85840000Y-61390000D03*
%TD*%
%TO.C,TP20*%
X84290000Y-65630000D03*
%TD*%
D16*
%TO.C,J6*%
X54360000Y-85240000D03*
D17*
X54360000Y-82700000D03*
X56900000Y-85240000D03*
X56900000Y-82700000D03*
X59440000Y-85240000D03*
X59440000Y-82700000D03*
X61980000Y-85240000D03*
X61980000Y-82700000D03*
X64520000Y-85240000D03*
X64520000Y-82700000D03*
X67060000Y-85240000D03*
X67060000Y-82700000D03*
X69600000Y-85240000D03*
X69600000Y-82700000D03*
X72140000Y-85240000D03*
X72140000Y-82700000D03*
%TD*%
D13*
%TO.C,TP19*%
X40490000Y-35860000D03*
%TD*%
%TO.C,TP18*%
X48690000Y-52040000D03*
%TD*%
%TO.C,TP17*%
X43670000Y-47270000D03*
%TD*%
%TO.C,TP16*%
X43360000Y-42890000D03*
%TD*%
%TO.C,TP15*%
X63340000Y-42400000D03*
%TD*%
%TO.C,TP14*%
X64910000Y-74950000D03*
%TD*%
%TO.C,TP13*%
X104710000Y-41920000D03*
%TD*%
%TO.C,TP12*%
X63450000Y-79470000D03*
%TD*%
%TO.C,TP11*%
X73800000Y-76090000D03*
%TD*%
%TO.C,TP10*%
X74340000Y-79530000D03*
%TD*%
%TO.C,TP9*%
X44920000Y-75200000D03*
%TD*%
%TO.C,TP8*%
X49750000Y-38810000D03*
%TD*%
%TO.C,TP7*%
X46630000Y-39720000D03*
%TD*%
%TO.C,TP6*%
X117390000Y-78690000D03*
%TD*%
%TO.C,TP5*%
X119300000Y-81210000D03*
%TD*%
%TO.C,TP4*%
X120120000Y-33790000D03*
%TD*%
%TO.C,TP3*%
X67940000Y-76340000D03*
%TD*%
%TO.C,TP2*%
X71570000Y-73960000D03*
%TD*%
%TO.C,TP1*%
X60920000Y-75190000D03*
%TD*%
D18*
%TO.C,H5*%
X127150000Y-84170000D03*
%TD*%
D19*
%TO.C,SW1*%
X39390000Y-31920000D03*
X42390000Y-31920000D03*
%TD*%
D20*
%TO.C,H4*%
X78160000Y-83890000D03*
%TD*%
%TO.C,H3*%
X126960000Y-33050000D03*
%TD*%
%TO.C,H2*%
X33040000Y-83910000D03*
%TD*%
%TO.C,H1*%
X33040000Y-33050000D03*
%TD*%
D21*
%TO.C,J7*%
X110510000Y-84301000D03*
X110510000Y-85571000D03*
X111780000Y-84301000D03*
X111780000Y-85571000D03*
X113050000Y-84301000D03*
X113050000Y-85571000D03*
D22*
X114320000Y-84936000D03*
X109240000Y-85952000D03*
X109240000Y-83920000D03*
%TD*%
D23*
%TO.C,J1*%
X35780000Y-42010000D03*
X35780000Y-47790000D03*
D24*
X32090000Y-49220000D03*
X32090000Y-40580000D03*
D25*
X36260000Y-49220000D03*
X36260000Y-40580000D03*
%TD*%
M02*
