%FSLAX45Y45*%
G04 Gerber Fmt 4.5, Leading zero omitted, Abs format (unit mm)*
G04 Created by KiCad (PCBNEW (5.1.10)-1) date 2021-07-15 23:52:47*
%MOMM*%
%LPD*%
G01*
G04 APERTURE LIST*
%TA.AperFunction,Profile*%
%ADD10C,0.050000*%
%TD*%
%TA.AperFunction,Profile*%
%ADD11C,0.100000*%
%TD*%
%ADD12C,0.200000*%
%ADD13C,0.300000*%
G04 APERTURE END LIST*
D10*
X6910884Y-6941870D02*
G75*
G02*
X6797000Y-7061000I-113885J-5130D01*
G01*
X6530130Y-7060884D02*
X6797000Y-7061000D01*
X6530130Y-7060884D02*
G75*
G02*
X6411000Y-6947000I-5130J113885D01*
G01*
X6791870Y-4761116D02*
G75*
G02*
X6911000Y-4875000I5130J-113885D01*
G01*
X6525000Y-4761000D02*
X6791870Y-4761116D01*
X6411000Y-6947000D02*
X6411115Y-4880130D01*
X6411115Y-4880130D02*
G75*
G02*
X6525000Y-4761000I113885J5130D01*
G01*
X6910884Y-6941870D02*
X6911000Y-4875000D01*
X4074884Y-7180870D02*
G75*
G02*
X3961000Y-7300000I-113885J-5130D01*
G01*
X3594130Y-7299884D02*
G75*
G02*
X3475000Y-7186000I-5130J113885D01*
G01*
X3955870Y-5900115D02*
G75*
G02*
X4075000Y-6014000I5130J-113885D01*
G01*
X3475115Y-6019130D02*
G75*
G02*
X3589000Y-5900000I113885J5130D01*
G01*
X3589000Y-5900000D02*
X3955870Y-5900115D01*
X3594130Y-7299884D02*
X3961000Y-7300000D01*
X3475000Y-7186000D02*
X3475115Y-6019130D01*
X4074884Y-7180870D02*
X4075000Y-6014000D01*
D11*
X13000000Y-3000000D02*
X13000000Y-8700000D01*
X3000000Y-3000000D02*
X13000000Y-3000000D01*
X3000000Y-8700000D02*
X3000000Y-3000000D01*
X13000000Y-8700000D02*
X3000000Y-8700000D01*
D12*
X3053891Y-5205934D02*
X3083891Y-5235934D01*
X3083891Y-5205934D02*
X3053891Y-5235934D01*
X3080000Y-5049000D02*
X3110000Y-5079000D01*
X3110000Y-5049000D02*
X3080000Y-5079000D01*
X3108000Y-3517000D02*
X3138000Y-3547000D01*
X3138000Y-3517000D02*
X3108000Y-3547000D01*
X3111668Y-5802821D02*
X3141668Y-5832821D01*
X3141668Y-5802821D02*
X3111668Y-5832821D01*
X3113000Y-5709000D02*
X3143000Y-5739000D01*
X3143000Y-5709000D02*
X3113000Y-5739000D01*
X3116000Y-5124000D02*
X3146000Y-5154000D01*
X3146000Y-5124000D02*
X3116000Y-5154000D01*
X3145000Y-5271000D02*
X3175000Y-5301000D01*
X3175000Y-5271000D02*
X3145000Y-5301000D01*
X3146000Y-5181000D02*
X3176000Y-5211000D01*
X3176000Y-5181000D02*
X3146000Y-5211000D01*
X3188000Y-5686000D02*
X3218000Y-5716000D01*
X3218000Y-5686000D02*
X3188000Y-5716000D01*
X3192000Y-3884000D02*
X3222000Y-3914000D01*
X3222000Y-3884000D02*
X3192000Y-3914000D01*
X3197000Y-5896000D02*
X3227000Y-5926000D01*
X3227000Y-5896000D02*
X3197000Y-5926000D01*
X3201000Y-5099000D02*
X3231000Y-5129000D01*
X3231000Y-5099000D02*
X3201000Y-5129000D01*
X3252000Y-5585000D02*
X3282000Y-5615000D01*
X3282000Y-5585000D02*
X3252000Y-5615000D01*
X3288000Y-7069000D02*
X3318000Y-7099000D01*
X3318000Y-7069000D02*
X3288000Y-7099000D01*
X3292000Y-7712000D02*
X3322000Y-7742000D01*
X3322000Y-7712000D02*
X3292000Y-7742000D01*
X3292000Y-8122000D02*
X3322000Y-8152000D01*
X3322000Y-8122000D02*
X3292000Y-8152000D01*
X3297000Y-7515000D02*
X3327000Y-7545000D01*
X3327000Y-7515000D02*
X3297000Y-7545000D01*
X3327000Y-5955000D02*
X3357000Y-5985000D01*
X3357000Y-5955000D02*
X3327000Y-5985000D01*
X3430000Y-5083000D02*
X3460000Y-5113000D01*
X3460000Y-5083000D02*
X3430000Y-5113000D01*
X3475000Y-3472000D02*
X3505000Y-3502000D01*
X3505000Y-3472000D02*
X3475000Y-3502000D01*
X3524000Y-5712000D02*
X3554000Y-5742000D01*
X3554000Y-5712000D02*
X3524000Y-5742000D01*
X3528000Y-3132000D02*
X3558000Y-3162000D01*
X3558000Y-3132000D02*
X3528000Y-3162000D01*
X3549000Y-5303000D02*
X3579000Y-5333000D01*
X3579000Y-5303000D02*
X3549000Y-5333000D01*
X3585000Y-5180000D02*
X3615000Y-5210000D01*
X3615000Y-5180000D02*
X3585000Y-5210000D01*
X3595000Y-5413000D02*
X3625000Y-5443000D01*
X3625000Y-5413000D02*
X3595000Y-5443000D01*
X3610000Y-3879000D02*
X3640000Y-3909000D01*
X3640000Y-3879000D02*
X3610000Y-3909000D01*
X3611000Y-5065000D02*
X3641000Y-5095000D01*
X3641000Y-5065000D02*
X3611000Y-5095000D01*
X3613000Y-8153000D02*
X3643000Y-8183000D01*
X3643000Y-8153000D02*
X3613000Y-8183000D01*
X3688000Y-5308000D02*
X3718000Y-5338000D01*
X3718000Y-5308000D02*
X3688000Y-5338000D01*
X3693000Y-5412000D02*
X3723000Y-5442000D01*
X3723000Y-5412000D02*
X3693000Y-5442000D01*
X3727000Y-8296000D02*
X3757000Y-8326000D01*
X3757000Y-8296000D02*
X3727000Y-8326000D01*
X3732000Y-5793000D02*
X3762000Y-5823000D01*
X3762000Y-5793000D02*
X3732000Y-5823000D01*
X3768000Y-7930000D02*
X3798000Y-7960000D01*
X3798000Y-7930000D02*
X3768000Y-7960000D01*
X3780000Y-5085000D02*
X3810000Y-5115000D01*
X3810000Y-5085000D02*
X3780000Y-5115000D01*
X3810000Y-4722000D02*
X3840000Y-4752000D01*
X3840000Y-4722000D02*
X3810000Y-4752000D01*
X3818000Y-4929000D02*
X3848000Y-4959000D01*
X3848000Y-4929000D02*
X3818000Y-4959000D01*
X3819000Y-4451000D02*
X3849000Y-4481000D01*
X3849000Y-4451000D02*
X3819000Y-4481000D01*
X3831000Y-4553000D02*
X3861000Y-4583000D01*
X3861000Y-4553000D02*
X3831000Y-4583000D01*
X3844000Y-8117000D02*
X3874000Y-8147000D01*
X3874000Y-8117000D02*
X3844000Y-8147000D01*
X3864000Y-3902000D02*
X3894000Y-3932000D01*
X3894000Y-3902000D02*
X3864000Y-3932000D01*
X3884000Y-5795000D02*
X3914000Y-5825000D01*
X3914000Y-5795000D02*
X3884000Y-5825000D01*
X3909000Y-5049000D02*
X3939000Y-5079000D01*
X3939000Y-5049000D02*
X3909000Y-5079000D01*
X3928000Y-5313000D02*
X3958000Y-5343000D01*
X3958000Y-5313000D02*
X3928000Y-5343000D01*
X3930000Y-3760000D02*
X3960000Y-3790000D01*
X3960000Y-3760000D02*
X3930000Y-3790000D01*
X3940000Y-8418000D02*
X3970000Y-8448000D01*
X3970000Y-8418000D02*
X3940000Y-8448000D01*
X3954000Y-4905000D02*
X3984000Y-4935000D01*
X3984000Y-4905000D02*
X3954000Y-4935000D01*
X3992000Y-7781000D02*
X4022000Y-7811000D01*
X4022000Y-7781000D02*
X3992000Y-7811000D01*
X3998500Y-4409500D02*
X4028500Y-4439500D01*
X4028500Y-4409500D02*
X3998500Y-4439500D01*
X4000000Y-3507000D02*
X4030000Y-3537000D01*
X4030000Y-3507000D02*
X4000000Y-3537000D01*
X4004000Y-4247000D02*
X4034000Y-4277000D01*
X4034000Y-4247000D02*
X4004000Y-4277000D01*
X4007000Y-5812000D02*
X4037000Y-5842000D01*
X4037000Y-5812000D02*
X4007000Y-5842000D01*
X4025000Y-4343000D02*
X4055000Y-4373000D01*
X4055000Y-4343000D02*
X4025000Y-4373000D01*
X4058783Y-7279429D02*
X4088783Y-7309429D01*
X4088783Y-7279429D02*
X4058783Y-7309429D01*
X4074000Y-3085000D02*
X4104000Y-3115000D01*
X4104000Y-3085000D02*
X4074000Y-3115000D01*
X4143000Y-8250000D02*
X4173000Y-8280000D01*
X4173000Y-8250000D02*
X4143000Y-8280000D01*
X4163000Y-8159000D02*
X4193000Y-8189000D01*
X4193000Y-8159000D02*
X4163000Y-8189000D01*
X4169914Y-3604579D02*
X4199914Y-3634579D01*
X4199914Y-3604579D02*
X4169914Y-3634579D01*
X4203000Y-3679000D02*
X4233000Y-3709000D01*
X4233000Y-3679000D02*
X4203000Y-3709000D01*
X4228000Y-8110000D02*
X4258000Y-8140000D01*
X4258000Y-8110000D02*
X4228000Y-8140000D01*
X4241000Y-8207000D02*
X4271000Y-8237000D01*
X4271000Y-8207000D02*
X4241000Y-8237000D01*
X4249000Y-7430000D02*
X4279000Y-7460000D01*
X4279000Y-7430000D02*
X4249000Y-7460000D01*
X4252000Y-7527000D02*
X4282000Y-7557000D01*
X4282000Y-7527000D02*
X4252000Y-7557000D01*
X4271000Y-7724000D02*
X4301000Y-7754000D01*
X4301000Y-7724000D02*
X4271000Y-7754000D01*
X4281000Y-7961000D02*
X4311000Y-7991000D01*
X4311000Y-7961000D02*
X4281000Y-7991000D01*
X4296750Y-4457500D02*
X4326750Y-4487500D01*
X4326750Y-4457500D02*
X4296750Y-4487500D01*
X4296750Y-4532500D02*
X4326750Y-4562500D01*
X4326750Y-4532500D02*
X4296750Y-4562500D01*
X4316000Y-7428000D02*
X4346000Y-7458000D01*
X4346000Y-7428000D02*
X4316000Y-7458000D01*
X4338650Y-7678350D02*
X4368650Y-7708350D01*
X4368650Y-7678350D02*
X4338650Y-7708350D01*
X4347000Y-7961000D02*
X4377000Y-7991000D01*
X4377000Y-7961000D02*
X4347000Y-7991000D01*
X4350500Y-7798500D02*
X4380500Y-7828500D01*
X4380500Y-7798500D02*
X4350500Y-7828500D01*
X4357995Y-8248869D02*
X4387995Y-8278869D01*
X4387995Y-8248869D02*
X4357995Y-8278869D01*
X4390000Y-4944000D02*
X4420000Y-4974000D01*
X4420000Y-4944000D02*
X4390000Y-4974000D01*
X4446000Y-3463000D02*
X4476000Y-3493000D01*
X4476000Y-3463000D02*
X4446000Y-3493000D01*
X4447000Y-5026000D02*
X4477000Y-5056000D01*
X4477000Y-5026000D02*
X4447000Y-5056000D01*
X4461140Y-8011860D02*
X4491140Y-8041860D01*
X4491140Y-8011860D02*
X4461140Y-8041860D01*
X4462000Y-4287000D02*
X4492000Y-4317000D01*
X4492000Y-4287000D02*
X4462000Y-4317000D01*
X4470000Y-6053000D02*
X4500000Y-6083000D01*
X4500000Y-6053000D02*
X4470000Y-6083000D01*
X4479000Y-7207000D02*
X4509000Y-7237000D01*
X4509000Y-7207000D02*
X4479000Y-7237000D01*
X4491000Y-7092000D02*
X4521000Y-7122000D01*
X4521000Y-7092000D02*
X4491000Y-7122000D01*
X4493360Y-3881360D02*
X4523360Y-3911360D01*
X4523360Y-3881360D02*
X4493360Y-3911360D01*
X4494000Y-5364000D02*
X4524000Y-5394000D01*
X4524000Y-5364000D02*
X4494000Y-5394000D01*
X4506000Y-6112000D02*
X4536000Y-6142000D01*
X4536000Y-6112000D02*
X4506000Y-6142000D01*
X4516000Y-8318000D02*
X4546000Y-8348000D01*
X4546000Y-8318000D02*
X4516000Y-8348000D01*
X4524000Y-5774000D02*
X4554000Y-5804000D01*
X4554000Y-5774000D02*
X4524000Y-5804000D01*
X4529000Y-4294000D02*
X4559000Y-4324000D01*
X4559000Y-4294000D02*
X4529000Y-4324000D01*
X4536000Y-4360000D02*
X4566000Y-4390000D01*
X4566000Y-4360000D02*
X4536000Y-4390000D01*
X4540000Y-4876000D02*
X4570000Y-4906000D01*
X4570000Y-4876000D02*
X4540000Y-4906000D01*
X4541000Y-4978000D02*
X4571000Y-5008000D01*
X4571000Y-4978000D02*
X4541000Y-5008000D01*
X4543000Y-5068000D02*
X4573000Y-5098000D01*
X4573000Y-5068000D02*
X4543000Y-5098000D01*
X4545000Y-6428000D02*
X4575000Y-6458000D01*
X4575000Y-6428000D02*
X4545000Y-6458000D01*
X4552000Y-6164000D02*
X4582000Y-6194000D01*
X4582000Y-6164000D02*
X4552000Y-6194000D01*
X4573000Y-5502000D02*
X4603000Y-5532000D01*
X4603000Y-5502000D02*
X4573000Y-5532000D01*
X4578000Y-8256000D02*
X4608000Y-8286000D01*
X4608000Y-8256000D02*
X4578000Y-8286000D01*
X4581000Y-8316000D02*
X4611000Y-8346000D01*
X4611000Y-8316000D02*
X4581000Y-8346000D01*
X4585109Y-8013000D02*
X4615109Y-8043000D01*
X4615109Y-8013000D02*
X4585109Y-8043000D01*
X4586000Y-3806000D02*
X4616000Y-3836000D01*
X4616000Y-3806000D02*
X4586000Y-3836000D01*
X4597000Y-7203000D02*
X4627000Y-7233000D01*
X4627000Y-7203000D02*
X4597000Y-7233000D01*
X4598000Y-4255000D02*
X4628000Y-4285000D01*
X4628000Y-4255000D02*
X4598000Y-4285000D01*
X4600000Y-4177000D02*
X4630000Y-4207000D01*
X4630000Y-4177000D02*
X4600000Y-4207000D01*
X4608000Y-7087000D02*
X4638000Y-7117000D01*
X4638000Y-7087000D02*
X4608000Y-7117000D01*
X4618000Y-3932000D02*
X4648000Y-3962000D01*
X4648000Y-3932000D02*
X4618000Y-3962000D01*
X4631000Y-5834000D02*
X4661000Y-5864000D01*
X4661000Y-5834000D02*
X4631000Y-5864000D01*
X4643000Y-5019000D02*
X4673000Y-5049000D01*
X4673000Y-5019000D02*
X4643000Y-5049000D01*
X4644000Y-5363000D02*
X4674000Y-5393000D01*
X4674000Y-5363000D02*
X4644000Y-5393000D01*
X4644000Y-6083499D02*
X4674000Y-6113499D01*
X4674000Y-6083499D02*
X4644000Y-6113499D01*
X4651000Y-8317000D02*
X4681000Y-8347000D01*
X4681000Y-8317000D02*
X4651000Y-8347000D01*
X4657000Y-6563000D02*
X4687000Y-6593000D01*
X4687000Y-6563000D02*
X4657000Y-6593000D01*
X4663000Y-3865000D02*
X4693000Y-3895000D01*
X4693000Y-3865000D02*
X4663000Y-3895000D01*
X4663000Y-7137000D02*
X4693000Y-7167000D01*
X4693000Y-7137000D02*
X4663000Y-7167000D01*
X4674000Y-5911000D02*
X4704000Y-5941000D01*
X4704000Y-5911000D02*
X4674000Y-5941000D01*
X4686000Y-3924000D02*
X4716000Y-3954000D01*
X4716000Y-3924000D02*
X4686000Y-3954000D01*
X4690000Y-7205000D02*
X4720000Y-7235000D01*
X4720000Y-7205000D02*
X4690000Y-7235000D01*
X4706000Y-6042000D02*
X4736000Y-6072000D01*
X4736000Y-6042000D02*
X4706000Y-6072000D01*
X4711000Y-6152000D02*
X4741000Y-6182000D01*
X4741000Y-6152000D02*
X4711000Y-6182000D01*
X4723000Y-6239000D02*
X4753000Y-6269000D01*
X4753000Y-6239000D02*
X4723000Y-6269000D01*
X4779000Y-4979000D02*
X4809000Y-5009000D01*
X4809000Y-4979000D02*
X4779000Y-5009000D01*
X4780000Y-5048000D02*
X4810000Y-5078000D01*
X4810000Y-5048000D02*
X4780000Y-5078000D01*
X4809000Y-5694000D02*
X4839000Y-5724000D01*
X4839000Y-5694000D02*
X4809000Y-5724000D01*
X4839000Y-8519000D02*
X4869000Y-8549000D01*
X4869000Y-8519000D02*
X4839000Y-8549000D01*
X4854499Y-3920808D02*
X4884499Y-3950808D01*
X4884499Y-3920808D02*
X4854499Y-3950808D01*
X4856000Y-4980000D02*
X4886000Y-5010000D01*
X4886000Y-4980000D02*
X4856000Y-5010000D01*
X4858000Y-5047000D02*
X4888000Y-5077000D01*
X4888000Y-5047000D02*
X4858000Y-5077000D01*
X4894000Y-6311000D02*
X4924000Y-6341000D01*
X4924000Y-6311000D02*
X4894000Y-6341000D01*
X4897000Y-6062000D02*
X4927000Y-6092000D01*
X4927000Y-6062000D02*
X4897000Y-6092000D01*
X4925000Y-4982000D02*
X4955000Y-5012000D01*
X4955000Y-4982000D02*
X4925000Y-5012000D01*
X4926000Y-5048000D02*
X4956000Y-5078000D01*
X4956000Y-5048000D02*
X4926000Y-5078000D01*
X4937000Y-5811000D02*
X4967000Y-5841000D01*
X4967000Y-5811000D02*
X4937000Y-5841000D01*
X4937000Y-8617000D02*
X4967000Y-8647000D01*
X4967000Y-8617000D02*
X4937000Y-8647000D01*
X4951000Y-4567500D02*
X4981000Y-4597500D01*
X4981000Y-4567500D02*
X4951000Y-4597500D01*
X5009000Y-8618000D02*
X5039000Y-8648000D01*
X5039000Y-8618000D02*
X5009000Y-8648000D01*
X5063000Y-7339000D02*
X5093000Y-7369000D01*
X5093000Y-7339000D02*
X5063000Y-7369000D01*
X5065000Y-4205000D02*
X5095000Y-4235000D01*
X5095000Y-4205000D02*
X5065000Y-4235000D01*
X5101000Y-6032000D02*
X5131000Y-6062000D01*
X5131000Y-6032000D02*
X5101000Y-6062000D01*
X5109000Y-3398000D02*
X5139000Y-3428000D01*
X5139000Y-3398000D02*
X5109000Y-3428000D01*
X5109000Y-4567500D02*
X5139000Y-4597500D01*
X5139000Y-4567500D02*
X5109000Y-4597500D01*
X5111000Y-3141000D02*
X5141000Y-3171000D01*
X5141000Y-3141000D02*
X5111000Y-3171000D01*
X5114000Y-7229000D02*
X5144000Y-7259000D01*
X5144000Y-7229000D02*
X5114000Y-7259000D01*
X5136000Y-3781000D02*
X5166000Y-3811000D01*
X5166000Y-3781000D02*
X5136000Y-3811000D01*
X5151000Y-5114000D02*
X5181000Y-5144000D01*
X5181000Y-5114000D02*
X5151000Y-5144000D01*
X5178000Y-6591000D02*
X5208000Y-6621000D01*
X5208000Y-6591000D02*
X5178000Y-6621000D01*
X5181000Y-6747000D02*
X5211000Y-6777000D01*
X5211000Y-6747000D02*
X5181000Y-6777000D01*
X5185000Y-7337000D02*
X5215000Y-7367000D01*
X5215000Y-7337000D02*
X5185000Y-7367000D01*
X5194000Y-6869000D02*
X5224000Y-6899000D01*
X5224000Y-6869000D02*
X5194000Y-6899000D01*
X5210000Y-7585000D02*
X5240000Y-7615000D01*
X5240000Y-7585000D02*
X5210000Y-7615000D01*
X5256793Y-7963004D02*
X5286793Y-7993004D01*
X5286793Y-7963004D02*
X5256793Y-7993004D01*
X5259000Y-8363000D02*
X5289000Y-8393000D01*
X5289000Y-8363000D02*
X5259000Y-8393000D01*
X5281000Y-7655000D02*
X5311000Y-7685000D01*
X5311000Y-7655000D02*
X5281000Y-7685000D01*
X5288000Y-5341000D02*
X5318000Y-5371000D01*
X5318000Y-5341000D02*
X5288000Y-5371000D01*
X5300000Y-5116000D02*
X5330000Y-5146000D01*
X5330000Y-5116000D02*
X5300000Y-5146000D01*
X5481350Y-4761350D02*
X5511350Y-4791350D01*
X5511350Y-4761350D02*
X5481350Y-4791350D01*
X5485000Y-7629000D02*
X5515000Y-7659000D01*
X5515000Y-7629000D02*
X5485000Y-7659000D01*
X5496000Y-7552000D02*
X5526000Y-7582000D01*
X5526000Y-7552000D02*
X5496000Y-7582000D01*
X5499000Y-7945000D02*
X5529000Y-7975000D01*
X5529000Y-7945000D02*
X5499000Y-7975000D01*
X5503949Y-4943551D02*
X5533949Y-4973551D01*
X5533949Y-4943551D02*
X5503949Y-4973551D01*
X5515000Y-3143000D02*
X5545000Y-3173000D01*
X5545000Y-3143000D02*
X5515000Y-3173000D01*
X5525000Y-3362000D02*
X5555000Y-3392000D01*
X5555000Y-3362000D02*
X5525000Y-3392000D01*
X5528000Y-8020000D02*
X5558000Y-8050000D01*
X5558000Y-8020000D02*
X5528000Y-8050000D01*
X5560000Y-7625000D02*
X5590000Y-7655000D01*
X5590000Y-7625000D02*
X5560000Y-7655000D01*
X5627000Y-7944000D02*
X5657000Y-7974000D01*
X5657000Y-7944000D02*
X5627000Y-7974000D01*
X5629000Y-8006000D02*
X5659000Y-8036000D01*
X5659000Y-8006000D02*
X5629000Y-8036000D01*
X5652000Y-3779000D02*
X5682000Y-3809000D01*
X5682000Y-3779000D02*
X5652000Y-3809000D01*
X5652000Y-4136000D02*
X5682000Y-4166000D01*
X5682000Y-4136000D02*
X5652000Y-4166000D01*
X5671000Y-5407000D02*
X5701000Y-5437000D01*
X5701000Y-5407000D02*
X5671000Y-5437000D01*
X5674000Y-7488000D02*
X5704000Y-7518000D01*
X5704000Y-7488000D02*
X5674000Y-7518000D01*
X5712000Y-5524000D02*
X5742000Y-5554000D01*
X5742000Y-5524000D02*
X5712000Y-5554000D01*
X5712000Y-6126000D02*
X5742000Y-6156000D01*
X5742000Y-6126000D02*
X5712000Y-6156000D01*
X5765000Y-5397000D02*
X5795000Y-5427000D01*
X5795000Y-5397000D02*
X5765000Y-5427000D01*
X5782000Y-3394000D02*
X5812000Y-3424000D01*
X5812000Y-3394000D02*
X5782000Y-3424000D01*
X5784000Y-3893000D02*
X5814000Y-3923000D01*
X5814000Y-3893000D02*
X5784000Y-3923000D01*
X5784000Y-4965000D02*
X5814000Y-4995000D01*
X5814000Y-4965000D02*
X5784000Y-4995000D01*
X5799000Y-5630000D02*
X5829000Y-5660000D01*
X5829000Y-5630000D02*
X5799000Y-5660000D01*
X5817000Y-6751000D02*
X5847000Y-6781000D01*
X5847000Y-6751000D02*
X5817000Y-6781000D01*
X5849000Y-5394000D02*
X5879000Y-5424000D01*
X5879000Y-5394000D02*
X5849000Y-5424000D01*
X5867000Y-7191000D02*
X5897000Y-7221000D01*
X5897000Y-7191000D02*
X5867000Y-7221000D01*
X5870000Y-5675000D02*
X5900000Y-5705000D01*
X5900000Y-5675000D02*
X5870000Y-5705000D01*
X5891000Y-6114000D02*
X5921000Y-6144000D01*
X5921000Y-6114000D02*
X5891000Y-6144000D01*
X5895000Y-5587000D02*
X5925000Y-5617000D01*
X5925000Y-5587000D02*
X5895000Y-5617000D01*
X5928000Y-4385000D02*
X5958000Y-4415000D01*
X5958000Y-4385000D02*
X5928000Y-4415000D01*
X5953000Y-4663000D02*
X5983000Y-4693000D01*
X5983000Y-4663000D02*
X5953000Y-4693000D01*
X5958000Y-7798000D02*
X5988000Y-7828000D01*
X5988000Y-7798000D02*
X5958000Y-7828000D01*
X5969000Y-7703000D02*
X5999000Y-7733000D01*
X5999000Y-7703000D02*
X5969000Y-7733000D01*
X5976000Y-7399000D02*
X6006000Y-7429000D01*
X6006000Y-7399000D02*
X5976000Y-7429000D01*
X5979000Y-6879000D02*
X6009000Y-6909000D01*
X6009000Y-6879000D02*
X5979000Y-6909000D01*
X5980000Y-5473000D02*
X6010000Y-5503000D01*
X6010000Y-5473000D02*
X5980000Y-5503000D01*
X6036000Y-7798000D02*
X6066000Y-7828000D01*
X6066000Y-7798000D02*
X6036000Y-7828000D01*
X6036000Y-8091000D02*
X6066000Y-8121000D01*
X6066000Y-8091000D02*
X6036000Y-8121000D01*
X6041000Y-7004000D02*
X6071000Y-7034000D01*
X6071000Y-7004000D02*
X6041000Y-7034000D01*
X6106912Y-7798912D02*
X6136912Y-7828912D01*
X6136912Y-7798912D02*
X6106912Y-7828912D01*
X6119000Y-4254000D02*
X6149000Y-4284000D01*
X6149000Y-4254000D02*
X6119000Y-4284000D01*
X6119000Y-7197000D02*
X6149000Y-7227000D01*
X6149000Y-7197000D02*
X6119000Y-7227000D01*
X6135000Y-6650000D02*
X6165000Y-6680000D01*
X6165000Y-6650000D02*
X6135000Y-6680000D01*
X6152000Y-4804000D02*
X6182000Y-4834000D01*
X6182000Y-4804000D02*
X6152000Y-4834000D01*
X6168000Y-4173000D02*
X6198000Y-4203000D01*
X6198000Y-4173000D02*
X6168000Y-4203000D01*
X6171000Y-6749000D02*
X6201000Y-6779000D01*
X6201000Y-6749000D02*
X6171000Y-6779000D01*
X6175000Y-6844000D02*
X6205000Y-6874000D01*
X6205000Y-6844000D02*
X6175000Y-6874000D01*
X6177000Y-6933000D02*
X6207000Y-6963000D01*
X6207000Y-6933000D02*
X6177000Y-6963000D01*
X6178000Y-7795000D02*
X6208000Y-7825000D01*
X6208000Y-7795000D02*
X6178000Y-7825000D01*
X6182000Y-7286000D02*
X6212000Y-7316000D01*
X6212000Y-7286000D02*
X6182000Y-7316000D01*
X6208000Y-6599000D02*
X6238000Y-6629000D01*
X6238000Y-6599000D02*
X6208000Y-6629000D01*
X6241000Y-5038000D02*
X6271000Y-5068000D01*
X6271000Y-5038000D02*
X6241000Y-5068000D01*
X6254000Y-7330000D02*
X6284000Y-7360000D01*
X6284000Y-7330000D02*
X6254000Y-7360000D01*
X6273000Y-4159000D02*
X6303000Y-4189000D01*
X6303000Y-4159000D02*
X6273000Y-4189000D01*
X6277000Y-7521000D02*
X6307000Y-7551000D01*
X6307000Y-7521000D02*
X6277000Y-7551000D01*
X6281000Y-6547000D02*
X6311000Y-6577000D01*
X6311000Y-6547000D02*
X6281000Y-6577000D01*
X6313000Y-5141000D02*
X6343000Y-5171000D01*
X6343000Y-5141000D02*
X6313000Y-5171000D01*
X6317000Y-3392000D02*
X6347000Y-3422000D01*
X6347000Y-3392000D02*
X6317000Y-3422000D01*
X6328000Y-7946000D02*
X6358000Y-7976000D01*
X6358000Y-7946000D02*
X6328000Y-7976000D01*
X6333000Y-7391000D02*
X6363000Y-7421000D01*
X6363000Y-7391000D02*
X6333000Y-7421000D01*
X6334000Y-4946000D02*
X6364000Y-4976000D01*
X6364000Y-4946000D02*
X6334000Y-4976000D01*
X6342000Y-6173000D02*
X6372000Y-6203000D01*
X6372000Y-6173000D02*
X6342000Y-6203000D01*
X6344000Y-5832000D02*
X6374000Y-5862000D01*
X6374000Y-5832000D02*
X6344000Y-5862000D01*
X6347000Y-6457000D02*
X6377000Y-6487000D01*
X6377000Y-6457000D02*
X6347000Y-6487000D01*
X6358000Y-4587000D02*
X6388000Y-4617000D01*
X6388000Y-4587000D02*
X6358000Y-4617000D01*
X6379000Y-3981000D02*
X6409000Y-4011000D01*
X6409000Y-3981000D02*
X6379000Y-4011000D01*
X6520000Y-7781000D02*
X6550000Y-7811000D01*
X6550000Y-7781000D02*
X6520000Y-7811000D01*
X6520000Y-8074000D02*
X6550000Y-8104000D01*
X6550000Y-8074000D02*
X6520000Y-8104000D01*
X6534000Y-4582000D02*
X6564000Y-4612000D01*
X6564000Y-4582000D02*
X6534000Y-4612000D01*
X6603000Y-7776000D02*
X6633000Y-7806000D01*
X6633000Y-7776000D02*
X6603000Y-7806000D01*
X6680000Y-7781000D02*
X6710000Y-7811000D01*
X6710000Y-7781000D02*
X6680000Y-7811000D01*
X6682000Y-7343000D02*
X6712000Y-7373000D01*
X6712000Y-7343000D02*
X6682000Y-7373000D01*
X6735713Y-8018287D02*
X6765713Y-8048287D01*
X6765713Y-8018287D02*
X6735713Y-8048287D01*
X6783000Y-7347000D02*
X6813000Y-7377000D01*
X6813000Y-7347000D02*
X6783000Y-7377000D01*
X6835000Y-3397000D02*
X6865000Y-3427000D01*
X6865000Y-3397000D02*
X6835000Y-3427000D01*
X6880000Y-7416000D02*
X6910000Y-7446000D01*
X6910000Y-7416000D02*
X6880000Y-7446000D01*
X6909000Y-7134000D02*
X6939000Y-7164000D01*
X6939000Y-7134000D02*
X6909000Y-7164000D01*
X6918000Y-4604000D02*
X6948000Y-4634000D01*
X6948000Y-4604000D02*
X6918000Y-4634000D01*
X6948000Y-7794000D02*
X6978000Y-7824000D01*
X6978000Y-7794000D02*
X6948000Y-7824000D01*
X6981000Y-6070000D02*
X7011000Y-6100000D01*
X7011000Y-6070000D02*
X6981000Y-6100000D01*
X6984000Y-6803000D02*
X7014000Y-6833000D01*
X7014000Y-6803000D02*
X6984000Y-6833000D01*
X6985000Y-6331000D02*
X7015000Y-6361000D01*
X7015000Y-6331000D02*
X6985000Y-6361000D01*
X6987000Y-4983000D02*
X7017000Y-5013000D01*
X7017000Y-4983000D02*
X6987000Y-5013000D01*
X6987000Y-5816000D02*
X7017000Y-5846000D01*
X7017000Y-5816000D02*
X6987000Y-5846000D01*
X6990000Y-5662000D02*
X7020000Y-5692000D01*
X7020000Y-5662000D02*
X6990000Y-5692000D01*
X7011000Y-7731000D02*
X7041000Y-7761000D01*
X7041000Y-7731000D02*
X7011000Y-7761000D01*
X7015000Y-7488000D02*
X7045000Y-7518000D01*
X7045000Y-7488000D02*
X7015000Y-7518000D01*
X7075000Y-8067000D02*
X7105000Y-8097000D01*
X7105000Y-8067000D02*
X7075000Y-8097000D01*
X7077000Y-7822000D02*
X7107000Y-7852000D01*
X7107000Y-7822000D02*
X7077000Y-7852000D01*
X7101000Y-7002000D02*
X7131000Y-7032000D01*
X7131000Y-7002000D02*
X7101000Y-7032000D01*
X7133000Y-4818000D02*
X7163000Y-4848000D01*
X7163000Y-4818000D02*
X7133000Y-4848000D01*
X7169000Y-7786000D02*
X7199000Y-7816000D01*
X7199000Y-7786000D02*
X7169000Y-7816000D01*
X7219000Y-4126000D02*
X7249000Y-4156000D01*
X7249000Y-4126000D02*
X7219000Y-4156000D01*
X7221000Y-6581000D02*
X7251000Y-6611000D01*
X7251000Y-6581000D02*
X7221000Y-6611000D01*
X7231091Y-7805232D02*
X7261091Y-7835232D01*
X7261091Y-7805232D02*
X7231091Y-7835232D01*
X7247000Y-6095000D02*
X7277000Y-6125000D01*
X7277000Y-6095000D02*
X7247000Y-6125000D01*
X7274000Y-3421000D02*
X7304000Y-3451000D01*
X7304000Y-3421000D02*
X7274000Y-3451000D01*
X7349000Y-6400000D02*
X7379000Y-6430000D01*
X7379000Y-6400000D02*
X7349000Y-6430000D01*
X7359000Y-7117000D02*
X7389000Y-7147000D01*
X7389000Y-7117000D02*
X7359000Y-7147000D01*
X7380000Y-7333000D02*
X7410000Y-7363000D01*
X7410000Y-7333000D02*
X7380000Y-7363000D01*
X7462000Y-3453000D02*
X7492000Y-3483000D01*
X7492000Y-3453000D02*
X7462000Y-3483000D01*
X7496000Y-7272000D02*
X7526000Y-7302000D01*
X7526000Y-7272000D02*
X7496000Y-7302000D01*
X7558000Y-8577000D02*
X7588000Y-8607000D01*
X7588000Y-8577000D02*
X7558000Y-8607000D01*
X7563000Y-5251000D02*
X7593000Y-5281000D01*
X7593000Y-5251000D02*
X7563000Y-5281000D01*
X7584000Y-4410000D02*
X7614000Y-4440000D01*
X7614000Y-4410000D02*
X7584000Y-4440000D01*
X7627000Y-7287000D02*
X7657000Y-7317000D01*
X7657000Y-7287000D02*
X7627000Y-7317000D01*
X7630000Y-6131000D02*
X7660000Y-6161000D01*
X7660000Y-6131000D02*
X7630000Y-6161000D01*
X7687000Y-7829000D02*
X7717000Y-7859000D01*
X7717000Y-7829000D02*
X7687000Y-7859000D01*
X7717000Y-3641000D02*
X7747000Y-3671000D01*
X7747000Y-3641000D02*
X7717000Y-3671000D01*
X7762000Y-4337000D02*
X7792000Y-4367000D01*
X7792000Y-4337000D02*
X7762000Y-4367000D01*
X7816000Y-4255000D02*
X7846000Y-4285000D01*
X7846000Y-4255000D02*
X7816000Y-4285000D01*
X7820000Y-3168000D02*
X7850000Y-3198000D01*
X7850000Y-3168000D02*
X7820000Y-3198000D01*
X7831000Y-4517000D02*
X7861000Y-4547000D01*
X7861000Y-4517000D02*
X7831000Y-4547000D01*
X7854000Y-5544000D02*
X7884000Y-5574000D01*
X7884000Y-5544000D02*
X7854000Y-5574000D01*
X7858000Y-3459000D02*
X7888000Y-3489000D01*
X7888000Y-3459000D02*
X7858000Y-3489000D01*
X8044000Y-5010000D02*
X8074000Y-5040000D01*
X8074000Y-5010000D02*
X8044000Y-5040000D01*
X8051000Y-6013500D02*
X8081000Y-6043500D01*
X8081000Y-6013500D02*
X8051000Y-6043500D01*
X8056000Y-6609000D02*
X8086000Y-6639000D01*
X8086000Y-6609000D02*
X8056000Y-6639000D01*
X8073000Y-5462000D02*
X8103000Y-5492000D01*
X8103000Y-5462000D02*
X8073000Y-5492000D01*
X8073000Y-6955000D02*
X8103000Y-6985000D01*
X8103000Y-6955000D02*
X8073000Y-6985000D01*
X8098000Y-4517000D02*
X8128000Y-4547000D01*
X8128000Y-4517000D02*
X8098000Y-4547000D01*
X8103000Y-8584000D02*
X8133000Y-8614000D01*
X8133000Y-8584000D02*
X8103000Y-8614000D01*
X8165000Y-7827000D02*
X8195000Y-7857000D01*
X8195000Y-7827000D02*
X8165000Y-7857000D01*
X8337000Y-6439000D02*
X8367000Y-6469000D01*
X8367000Y-6439000D02*
X8337000Y-6469000D01*
X8349000Y-6310000D02*
X8379000Y-6340000D01*
X8379000Y-6310000D02*
X8349000Y-6340000D01*
X8349412Y-6676588D02*
X8379412Y-6706588D01*
X8379412Y-6676588D02*
X8349412Y-6706588D01*
X8354000Y-6206000D02*
X8384000Y-6236000D01*
X8384000Y-6206000D02*
X8354000Y-6236000D01*
X8356000Y-5438000D02*
X8386000Y-5468000D01*
X8386000Y-5438000D02*
X8356000Y-5468000D01*
X8363735Y-5715265D02*
X8393735Y-5745265D01*
X8393735Y-5715265D02*
X8363735Y-5745265D01*
X8373000Y-6013500D02*
X8403000Y-6043500D01*
X8403000Y-6013500D02*
X8373000Y-6043500D01*
X8374000Y-4980000D02*
X8404000Y-5010000D01*
X8404000Y-4980000D02*
X8374000Y-5010000D01*
X8387000Y-4524000D02*
X8417000Y-4554000D01*
X8417000Y-4524000D02*
X8387000Y-4554000D01*
X8393000Y-6087000D02*
X8423000Y-6117000D01*
X8423000Y-6087000D02*
X8393000Y-6117000D01*
X8410899Y-6157801D02*
X8440899Y-6187801D01*
X8440899Y-6157801D02*
X8410899Y-6187801D01*
X8433000Y-5369000D02*
X8463000Y-5399000D01*
X8463000Y-5369000D02*
X8433000Y-5399000D01*
X8434000Y-6363000D02*
X8464000Y-6393000D01*
X8464000Y-6363000D02*
X8434000Y-6393000D01*
X8534000Y-5634000D02*
X8564000Y-5664000D01*
X8564000Y-5634000D02*
X8534000Y-5664000D01*
X8543000Y-6933000D02*
X8573000Y-6963000D01*
X8573000Y-6933000D02*
X8543000Y-6963000D01*
X8576000Y-7816000D02*
X8606000Y-7846000D01*
X8606000Y-7816000D02*
X8576000Y-7846000D01*
X8611000Y-3189000D02*
X8641000Y-3219000D01*
X8641000Y-3189000D02*
X8611000Y-3219000D01*
X8624000Y-6564000D02*
X8654000Y-6594000D01*
X8654000Y-6564000D02*
X8624000Y-6594000D01*
X8641000Y-5764000D02*
X8671000Y-5794000D01*
X8671000Y-5764000D02*
X8641000Y-5794000D01*
X8646000Y-4929000D02*
X8676000Y-4959000D01*
X8676000Y-4929000D02*
X8646000Y-4959000D01*
X8657000Y-6935000D02*
X8687000Y-6965000D01*
X8687000Y-6935000D02*
X8657000Y-6965000D01*
X8662000Y-8571000D02*
X8692000Y-8601000D01*
X8692000Y-8571000D02*
X8662000Y-8601000D01*
X8699000Y-5158000D02*
X8729000Y-5188000D01*
X8729000Y-5158000D02*
X8699000Y-5188000D01*
X8715000Y-4747000D02*
X8745000Y-4777000D01*
X8745000Y-4747000D02*
X8715000Y-4777000D01*
X8724000Y-4063000D02*
X8754000Y-4093000D01*
X8754000Y-4063000D02*
X8724000Y-4093000D01*
X8737000Y-6508000D02*
X8767000Y-6538000D01*
X8767000Y-6508000D02*
X8737000Y-6538000D01*
X8756000Y-6945000D02*
X8786000Y-6975000D01*
X8786000Y-6945000D02*
X8756000Y-6975000D01*
X8799000Y-4872000D02*
X8829000Y-4902000D01*
X8829000Y-4872000D02*
X8799000Y-4902000D01*
X8844000Y-3951000D02*
X8874000Y-3981000D01*
X8874000Y-3951000D02*
X8844000Y-3981000D01*
X8856000Y-6949000D02*
X8886000Y-6979000D01*
X8886000Y-6949000D02*
X8856000Y-6979000D01*
X8864000Y-6013501D02*
X8894000Y-6043501D01*
X8894000Y-6013501D02*
X8864000Y-6043501D01*
X8866000Y-4749000D02*
X8896000Y-4779000D01*
X8896000Y-4749000D02*
X8866000Y-4779000D01*
X8986000Y-3187000D02*
X9016000Y-3217000D01*
X9016000Y-3187000D02*
X8986000Y-3217000D01*
X9100000Y-5530000D02*
X9130000Y-5560000D01*
X9130000Y-5530000D02*
X9100000Y-5560000D01*
X9126000Y-8582000D02*
X9156000Y-8612000D01*
X9156000Y-8582000D02*
X9126000Y-8612000D01*
X9148000Y-7901000D02*
X9178000Y-7931000D01*
X9178000Y-7901000D02*
X9148000Y-7931000D01*
X9256000Y-5127000D02*
X9286000Y-5157000D01*
X9286000Y-5127000D02*
X9256000Y-5157000D01*
X9294000Y-7248000D02*
X9324000Y-7278000D01*
X9324000Y-7248000D02*
X9294000Y-7278000D01*
X9299000Y-4332000D02*
X9329000Y-4362000D01*
X9329000Y-4332000D02*
X9299000Y-4362000D01*
X9378000Y-6752000D02*
X9408000Y-6782000D01*
X9408000Y-6752000D02*
X9378000Y-6782000D01*
X9414000Y-6233000D02*
X9444000Y-6263000D01*
X9444000Y-6233000D02*
X9414000Y-6263000D01*
X9434000Y-6334000D02*
X9464000Y-6364000D01*
X9464000Y-6334000D02*
X9434000Y-6364000D01*
X9443000Y-6573000D02*
X9473000Y-6603000D01*
X9473000Y-6573000D02*
X9443000Y-6603000D01*
X9512000Y-5966000D02*
X9542000Y-5996000D01*
X9542000Y-5966000D02*
X9512000Y-5996000D01*
X9520000Y-6863000D02*
X9550000Y-6893000D01*
X9550000Y-6863000D02*
X9520000Y-6893000D01*
X9637000Y-5427000D02*
X9667000Y-5457000D01*
X9667000Y-5427000D02*
X9637000Y-5457000D01*
X9649739Y-6967452D02*
X9679739Y-6997452D01*
X9679739Y-6967452D02*
X9649739Y-6997452D01*
X9675000Y-7524000D02*
X9705000Y-7554000D01*
X9705000Y-7524000D02*
X9675000Y-7554000D01*
X9680000Y-8595000D02*
X9710000Y-8625000D01*
X9710000Y-8595000D02*
X9680000Y-8625000D01*
X9683000Y-6579000D02*
X9713000Y-6609000D01*
X9713000Y-6579000D02*
X9683000Y-6609000D01*
X9684000Y-7818000D02*
X9714000Y-7848000D01*
X9714000Y-7818000D02*
X9684000Y-7848000D01*
X9691000Y-8236000D02*
X9721000Y-8266000D01*
X9721000Y-8236000D02*
X9691000Y-8266000D01*
X9726500Y-6966000D02*
X9756500Y-6996000D01*
X9756500Y-6966000D02*
X9726500Y-6996000D01*
X9767155Y-6729978D02*
X9797155Y-6759978D01*
X9797155Y-6729978D02*
X9767155Y-6759978D01*
X9783000Y-7749000D02*
X9813000Y-7779000D01*
X9813000Y-7749000D02*
X9783000Y-7779000D01*
X9801000Y-5829000D02*
X9831000Y-5859000D01*
X9831000Y-5829000D02*
X9801000Y-5859000D01*
X9816000Y-4327000D02*
X9846000Y-4357000D01*
X9846000Y-4327000D02*
X9816000Y-4357000D01*
X9828000Y-8277000D02*
X9858000Y-8307000D01*
X9858000Y-8277000D02*
X9828000Y-8307000D01*
X9839000Y-3204000D02*
X9869000Y-3234000D01*
X9869000Y-3204000D02*
X9839000Y-3234000D01*
X9855000Y-5120000D02*
X9885000Y-5150000D01*
X9885000Y-5120000D02*
X9855000Y-5150000D01*
X9959000Y-5826000D02*
X9989000Y-5856000D01*
X9989000Y-5826000D02*
X9959000Y-5856000D01*
X10002000Y-3951000D02*
X10032000Y-3981000D01*
X10032000Y-3951000D02*
X10002000Y-3981000D01*
X10006000Y-7972000D02*
X10036000Y-8002000D01*
X10036000Y-7972000D02*
X10006000Y-8002000D01*
X10035000Y-8281000D02*
X10065000Y-8311000D01*
X10065000Y-8281000D02*
X10035000Y-8311000D01*
X10057000Y-6186000D02*
X10087000Y-6216000D01*
X10087000Y-6186000D02*
X10057000Y-6216000D01*
X10060000Y-6860000D02*
X10090000Y-6890000D01*
X10090000Y-6860000D02*
X10060000Y-6890000D01*
X10090000Y-7518000D02*
X10120000Y-7548000D01*
X10120000Y-7518000D02*
X10090000Y-7548000D01*
X10090000Y-8596000D02*
X10120000Y-8626000D01*
X10120000Y-8596000D02*
X10090000Y-8626000D01*
X10107000Y-5825000D02*
X10137000Y-5855000D01*
X10137000Y-5825000D02*
X10107000Y-5855000D01*
X10151000Y-3189000D02*
X10181000Y-3219000D01*
X10181000Y-3189000D02*
X10151000Y-3219000D01*
X10256000Y-7900232D02*
X10286000Y-7930232D01*
X10286000Y-7900232D02*
X10256000Y-7930232D01*
X10260000Y-5821000D02*
X10290000Y-5851000D01*
X10290000Y-5821000D02*
X10260000Y-5851000D01*
X10305000Y-7976000D02*
X10335000Y-8006000D01*
X10335000Y-7976000D02*
X10305000Y-8006000D01*
X10339000Y-8330000D02*
X10369000Y-8360000D01*
X10369000Y-8330000D02*
X10339000Y-8360000D01*
X10395000Y-7905000D02*
X10425000Y-7935000D01*
X10425000Y-7905000D02*
X10395000Y-7935000D01*
X10400000Y-4319000D02*
X10430000Y-4349000D01*
X10430000Y-4319000D02*
X10400000Y-4349000D01*
X10405000Y-5815000D02*
X10435000Y-5845000D01*
X10435000Y-5815000D02*
X10405000Y-5845000D01*
X10415000Y-4115000D02*
X10445000Y-4145000D01*
X10445000Y-4115000D02*
X10415000Y-4145000D01*
X10425000Y-8584000D02*
X10455000Y-8614000D01*
X10455000Y-8584000D02*
X10425000Y-8614000D01*
X10478000Y-7962000D02*
X10508000Y-7992000D01*
X10508000Y-7962000D02*
X10478000Y-7992000D01*
X10491000Y-7218000D02*
X10521000Y-7248000D01*
X10521000Y-7218000D02*
X10491000Y-7248000D01*
X10534000Y-5816000D02*
X10564000Y-5846000D01*
X10564000Y-5816000D02*
X10534000Y-5846000D01*
X10550000Y-7904000D02*
X10580000Y-7934000D01*
X10580000Y-7904000D02*
X10550000Y-7934000D01*
X10575000Y-5130000D02*
X10605000Y-5160000D01*
X10605000Y-5130000D02*
X10575000Y-5160000D01*
X10700000Y-7386000D02*
X10730000Y-7416000D01*
X10730000Y-7386000D02*
X10700000Y-7416000D01*
X10707000Y-5838000D02*
X10737000Y-5868000D01*
X10737000Y-5838000D02*
X10707000Y-5868000D01*
X10729000Y-7925000D02*
X10759000Y-7955000D01*
X10759000Y-7925000D02*
X10729000Y-7955000D01*
X10814000Y-8488000D02*
X10844000Y-8518000D01*
X10844000Y-8488000D02*
X10814000Y-8518000D01*
X10846000Y-4335000D02*
X10876000Y-4365000D01*
X10876000Y-4335000D02*
X10846000Y-4365000D01*
X10850000Y-7838000D02*
X10880000Y-7868000D01*
X10880000Y-7838000D02*
X10850000Y-7868000D01*
X10856000Y-5835000D02*
X10886000Y-5865000D01*
X10886000Y-5835000D02*
X10856000Y-5865000D01*
X10865000Y-7460000D02*
X10895000Y-7490000D01*
X10895000Y-7460000D02*
X10865000Y-7490000D01*
X11006000Y-5841000D02*
X11036000Y-5871000D01*
X11036000Y-5841000D02*
X11006000Y-5871000D01*
X11006000Y-7853000D02*
X11036000Y-7883000D01*
X11036000Y-7853000D02*
X11006000Y-7883000D01*
X11027000Y-8636000D02*
X11057000Y-8666000D01*
X11057000Y-8636000D02*
X11027000Y-8666000D01*
X11035000Y-8307000D02*
X11065000Y-8337000D01*
X11065000Y-8307000D02*
X11035000Y-8337000D01*
X11054000Y-3166000D02*
X11084000Y-3196000D01*
X11084000Y-3166000D02*
X11054000Y-3196000D01*
X11073000Y-4356000D02*
X11103000Y-4386000D01*
X11103000Y-4356000D02*
X11073000Y-4386000D01*
X11078000Y-6735000D02*
X11108000Y-6765000D01*
X11108000Y-6735000D02*
X11078000Y-6765000D01*
X11078000Y-7061000D02*
X11108000Y-7091000D01*
X11108000Y-7061000D02*
X11078000Y-7091000D01*
X11134000Y-6419000D02*
X11164000Y-6449000D01*
X11164000Y-6419000D02*
X11134000Y-6449000D01*
X11139000Y-8635000D02*
X11169000Y-8665000D01*
X11169000Y-8635000D02*
X11139000Y-8665000D01*
X11151000Y-7900232D02*
X11181000Y-7930232D01*
X11181000Y-7900232D02*
X11151000Y-7930232D01*
X11159000Y-5851000D02*
X11189000Y-5881000D01*
X11189000Y-5851000D02*
X11159000Y-5881000D01*
X11166000Y-8303000D02*
X11196000Y-8333000D01*
X11196000Y-8303000D02*
X11166000Y-8333000D01*
X11204000Y-4003000D02*
X11234000Y-4033000D01*
X11234000Y-4003000D02*
X11204000Y-4033000D01*
X11220000Y-5603000D02*
X11250000Y-5633000D01*
X11250000Y-5603000D02*
X11220000Y-5633000D01*
X11292000Y-8300000D02*
X11322000Y-8330000D01*
X11322000Y-8300000D02*
X11292000Y-8330000D01*
X11296000Y-4925000D02*
X11326000Y-4955000D01*
X11326000Y-4925000D02*
X11296000Y-4955000D01*
X11298000Y-7905000D02*
X11328000Y-7935000D01*
X11328000Y-7905000D02*
X11298000Y-7935000D01*
X11315000Y-4831000D02*
X11345000Y-4861000D01*
X11345000Y-4831000D02*
X11315000Y-4861000D01*
X11350000Y-3160000D02*
X11380000Y-3190000D01*
X11380000Y-3160000D02*
X11350000Y-3190000D01*
X11370500Y-4971000D02*
X11400500Y-5001000D01*
X11400500Y-4971000D02*
X11370500Y-5001000D01*
X11402000Y-7055000D02*
X11432000Y-7085000D01*
X11432000Y-7055000D02*
X11402000Y-7085000D01*
X11403000Y-6428000D02*
X11433000Y-6458000D01*
X11433000Y-6428000D02*
X11403000Y-6458000D01*
X11418000Y-4033000D02*
X11448000Y-4063000D01*
X11448000Y-4033000D02*
X11418000Y-4063000D01*
X11451000Y-5050000D02*
X11481000Y-5080000D01*
X11481000Y-5050000D02*
X11451000Y-5080000D01*
X11458000Y-8037000D02*
X11488000Y-8067000D01*
X11488000Y-8037000D02*
X11458000Y-8067000D01*
X11479000Y-5524000D02*
X11509000Y-5554000D01*
X11509000Y-5524000D02*
X11479000Y-5554000D01*
X11497000Y-7484000D02*
X11527000Y-7514000D01*
X11527000Y-7484000D02*
X11497000Y-7514000D01*
X11500000Y-8581000D02*
X11530000Y-8611000D01*
X11530000Y-8581000D02*
X11500000Y-8611000D01*
X11546000Y-5571000D02*
X11576000Y-5601000D01*
X11576000Y-5571000D02*
X11546000Y-5601000D01*
X11552000Y-5722000D02*
X11582000Y-5752000D01*
X11582000Y-5722000D02*
X11552000Y-5752000D01*
X11573000Y-5371000D02*
X11603000Y-5401000D01*
X11603000Y-5371000D02*
X11573000Y-5401000D01*
X11576129Y-7993330D02*
X11606129Y-8023330D01*
X11606129Y-7993330D02*
X11576129Y-8023330D01*
X11605000Y-3689000D02*
X11635000Y-3719000D01*
X11635000Y-3689000D02*
X11605000Y-3719000D01*
X11606000Y-5854000D02*
X11636000Y-5884000D01*
X11636000Y-5854000D02*
X11606000Y-5884000D01*
X11635000Y-3578000D02*
X11665000Y-3608000D01*
X11665000Y-3578000D02*
X11635000Y-3608000D01*
X11667000Y-7479000D02*
X11697000Y-7509000D01*
X11697000Y-7479000D02*
X11667000Y-7509000D01*
X11687000Y-4467000D02*
X11717000Y-4497000D01*
X11717000Y-4467000D02*
X11687000Y-4497000D01*
X11720000Y-4651000D02*
X11750000Y-4681000D01*
X11750000Y-4651000D02*
X11720000Y-4681000D01*
X11725000Y-6430000D02*
X11755000Y-6460000D01*
X11755000Y-6430000D02*
X11725000Y-6460000D01*
X11725000Y-6729000D02*
X11755000Y-6759000D01*
X11755000Y-6729000D02*
X11725000Y-6759000D01*
X11727000Y-7061000D02*
X11757000Y-7091000D01*
X11757000Y-7061000D02*
X11727000Y-7091000D01*
X11732000Y-7923000D02*
X11762000Y-7953000D01*
X11762000Y-7923000D02*
X11732000Y-7953000D01*
X11757000Y-5787000D02*
X11787000Y-5817000D01*
X11787000Y-5787000D02*
X11757000Y-5817000D01*
X11836000Y-7486000D02*
X11866000Y-7516000D01*
X11866000Y-7486000D02*
X11836000Y-7516000D01*
X11840000Y-4022000D02*
X11870000Y-4052000D01*
X11870000Y-4022000D02*
X11840000Y-4052000D01*
X11847000Y-3076000D02*
X11877000Y-3106000D01*
X11877000Y-3076000D02*
X11847000Y-3106000D01*
X11854000Y-5843000D02*
X11884000Y-5873000D01*
X11884000Y-5843000D02*
X11854000Y-5873000D01*
X11855000Y-5750000D02*
X11885000Y-5780000D01*
X11885000Y-5750000D02*
X11855000Y-5780000D01*
X11889000Y-4064000D02*
X11919000Y-4094000D01*
X11919000Y-4064000D02*
X11889000Y-4094000D01*
X11894923Y-5635789D02*
X11924923Y-5665789D01*
X11924923Y-5635789D02*
X11894923Y-5665789D01*
X11911000Y-4242500D02*
X11941000Y-4272500D01*
X11941000Y-4242500D02*
X11911000Y-4272500D01*
X11912000Y-8021000D02*
X11942000Y-8051000D01*
X11942000Y-8021000D02*
X11912000Y-8051000D01*
X11929000Y-3947000D02*
X11959000Y-3977000D01*
X11959000Y-3947000D02*
X11929000Y-3977000D01*
X11998227Y-3331070D02*
X12028227Y-3361070D01*
X12028227Y-3331070D02*
X11998227Y-3361070D01*
X12006000Y-3086000D02*
X12036000Y-3116000D01*
X12036000Y-3086000D02*
X12006000Y-3116000D01*
X12034000Y-4188500D02*
X12064000Y-4218500D01*
X12064000Y-4188500D02*
X12034000Y-4218500D01*
X12035000Y-7478000D02*
X12065000Y-7508000D01*
X12065000Y-7478000D02*
X12035000Y-7508000D01*
X12076000Y-6209000D02*
X12106000Y-6239000D01*
X12106000Y-6209000D02*
X12076000Y-6239000D01*
X12087000Y-6347000D02*
X12117000Y-6377000D01*
X12117000Y-6347000D02*
X12087000Y-6377000D01*
X12088000Y-8101000D02*
X12118000Y-8131000D01*
X12118000Y-8101000D02*
X12088000Y-8131000D01*
X12139855Y-4188500D02*
X12169855Y-4218500D01*
X12169855Y-4188500D02*
X12139855Y-4218500D01*
X12192000Y-5485000D02*
X12222000Y-5515000D01*
X12222000Y-5485000D02*
X12192000Y-5515000D01*
X12193000Y-5212000D02*
X12223000Y-5242000D01*
X12223000Y-5212000D02*
X12193000Y-5242000D01*
X12194000Y-4458000D02*
X12224000Y-4488000D01*
X12224000Y-4458000D02*
X12194000Y-4488000D01*
X12196000Y-7480000D02*
X12226000Y-7510000D01*
X12226000Y-7480000D02*
X12196000Y-7510000D01*
X12197000Y-4593000D02*
X12227000Y-4623000D01*
X12227000Y-4593000D02*
X12197000Y-4623000D01*
X12197000Y-7577000D02*
X12227000Y-7607000D01*
X12227000Y-7577000D02*
X12197000Y-7607000D01*
X12200000Y-4907000D02*
X12230000Y-4937000D01*
X12230000Y-4907000D02*
X12200000Y-4937000D01*
X12206000Y-6209000D02*
X12236000Y-6239000D01*
X12236000Y-6209000D02*
X12206000Y-6239000D01*
X12210000Y-6352000D02*
X12240000Y-6382000D01*
X12240000Y-6352000D02*
X12210000Y-6382000D01*
X12260000Y-8181000D02*
X12290000Y-8211000D01*
X12290000Y-8181000D02*
X12260000Y-8211000D01*
X12286369Y-3988500D02*
X12316369Y-4018500D01*
X12316369Y-3988500D02*
X12286369Y-4018500D01*
X12349000Y-3786000D02*
X12379000Y-3816000D01*
X12379000Y-3786000D02*
X12349000Y-3816000D01*
X12358000Y-3367000D02*
X12388000Y-3397000D01*
X12388000Y-3367000D02*
X12358000Y-3397000D01*
X12360000Y-3087000D02*
X12390000Y-3117000D01*
X12390000Y-3087000D02*
X12360000Y-3117000D01*
X12393000Y-3224000D02*
X12423000Y-3254000D01*
X12423000Y-3224000D02*
X12393000Y-3254000D01*
X12501000Y-3140000D02*
X12531000Y-3170000D01*
X12531000Y-3140000D02*
X12501000Y-3170000D01*
X12510000Y-3482000D02*
X12540000Y-3512000D01*
X12540000Y-3482000D02*
X12510000Y-3512000D01*
X12791000Y-3778000D02*
X12821000Y-3808000D01*
X12821000Y-3778000D02*
X12791000Y-3808000D01*
X12867688Y-3653490D02*
X12897688Y-3683490D01*
X12897688Y-3653490D02*
X12867688Y-3683490D01*
X12895000Y-4320000D02*
X12925000Y-4350000D01*
X12925000Y-4320000D02*
X12895000Y-4350000D01*
X12896000Y-3911000D02*
X12926000Y-3941000D01*
X12926000Y-3911000D02*
X12896000Y-3941000D01*
X12897000Y-4111000D02*
X12927000Y-4141000D01*
X12927000Y-4111000D02*
X12897000Y-4141000D01*
X3239000Y-4058000D02*
G75*
G03*
X3239000Y-4058000I-30000J0D01*
G01*
X3169000Y-4078000D02*
X3249000Y-4078000D01*
X3169000Y-4038000D02*
X3249000Y-4038000D01*
X3249000Y-4078000D02*
G75*
G03*
X3249000Y-4038000I0J20000D01*
G01*
X3169000Y-4038000D02*
G75*
G03*
X3169000Y-4078000I0J-20000D01*
G01*
X3239000Y-4922000D02*
G75*
G03*
X3239000Y-4922000I-30000J0D01*
G01*
X3169000Y-4942000D02*
X3249000Y-4942000D01*
X3169000Y-4902000D02*
X3249000Y-4902000D01*
X3249000Y-4942000D02*
G75*
G03*
X3249000Y-4902000I0J20000D01*
G01*
X3169000Y-4902000D02*
G75*
G03*
X3169000Y-4942000I0J-20000D01*
G01*
X3656000Y-4058000D02*
G75*
G03*
X3656000Y-4058000I-30000J0D01*
G01*
X3571000Y-4078000D02*
X3681000Y-4078000D01*
X3571000Y-4038000D02*
X3681000Y-4038000D01*
X3681000Y-4078000D02*
G75*
G03*
X3681000Y-4038000I0J20000D01*
G01*
X3571000Y-4038000D02*
G75*
G03*
X3571000Y-4078000I0J-20000D01*
G01*
X3656000Y-4922000D02*
G75*
G03*
X3656000Y-4922000I-30000J0D01*
G01*
X3571000Y-4942000D02*
X3681000Y-4942000D01*
X3571000Y-4902000D02*
X3681000Y-4902000D01*
X3681000Y-4942000D02*
G75*
G03*
X3681000Y-4902000I0J20000D01*
G01*
X3571000Y-4902000D02*
G75*
G03*
X3571000Y-4942000I0J-20000D01*
G01*
X5436000Y-8220000D02*
X5436000Y-8320000D01*
X5386000Y-8270000D02*
X5486000Y-8270000D01*
X5436000Y-8474000D02*
X5436000Y-8574000D01*
X5386000Y-8524000D02*
X5486000Y-8524000D01*
X5690000Y-8220000D02*
X5690000Y-8320000D01*
X5640000Y-8270000D02*
X5740000Y-8270000D01*
X5690000Y-8474000D02*
X5690000Y-8574000D01*
X5640000Y-8524000D02*
X5740000Y-8524000D01*
X5944000Y-8220000D02*
X5944000Y-8320000D01*
X5894000Y-8270000D02*
X5994000Y-8270000D01*
X5944000Y-8474000D02*
X5944000Y-8574000D01*
X5894000Y-8524000D02*
X5994000Y-8524000D01*
X6198000Y-8220000D02*
X6198000Y-8320000D01*
X6148000Y-8270000D02*
X6248000Y-8270000D01*
X6198000Y-8474000D02*
X6198000Y-8574000D01*
X6148000Y-8524000D02*
X6248000Y-8524000D01*
X6452000Y-8220000D02*
X6452000Y-8320000D01*
X6402000Y-8270000D02*
X6502000Y-8270000D01*
X6452000Y-8474000D02*
X6452000Y-8574000D01*
X6402000Y-8524000D02*
X6502000Y-8524000D01*
X6706000Y-8220000D02*
X6706000Y-8320000D01*
X6656000Y-8270000D02*
X6756000Y-8270000D01*
X6706000Y-8474000D02*
X6706000Y-8574000D01*
X6656000Y-8524000D02*
X6756000Y-8524000D01*
X6960000Y-8220000D02*
X6960000Y-8320000D01*
X6910000Y-8270000D02*
X7010000Y-8270000D01*
X6960000Y-8474000D02*
X6960000Y-8574000D01*
X6910000Y-8524000D02*
X7010000Y-8524000D01*
X7214000Y-8220000D02*
X7214000Y-8320000D01*
X7164000Y-8270000D02*
X7264000Y-8270000D01*
X7214000Y-8474000D02*
X7214000Y-8574000D01*
X7164000Y-8524000D02*
X7264000Y-8524000D01*
D13*
X3281428Y-9170714D02*
X3281428Y-8870714D01*
X3352857Y-8870714D01*
X3395714Y-8885000D01*
X3424286Y-8913572D01*
X3438571Y-8942143D01*
X3452857Y-8999286D01*
X3452857Y-9042143D01*
X3438571Y-9099286D01*
X3424286Y-9127857D01*
X3395714Y-9156429D01*
X3352857Y-9170714D01*
X3281428Y-9170714D01*
X3581428Y-9170714D02*
X3581428Y-8970714D01*
X3581428Y-9027857D02*
X3595714Y-8999286D01*
X3610000Y-8985000D01*
X3638571Y-8970714D01*
X3667143Y-8970714D01*
X3767143Y-9170714D02*
X3767143Y-8970714D01*
X3767143Y-8870714D02*
X3752857Y-8885000D01*
X3767143Y-8899286D01*
X3781428Y-8885000D01*
X3767143Y-8870714D01*
X3767143Y-8899286D01*
X3952857Y-9170714D02*
X3924286Y-9156429D01*
X3910000Y-9127857D01*
X3910000Y-8870714D01*
X4110000Y-9170714D02*
X4081428Y-9156429D01*
X4067143Y-9127857D01*
X4067143Y-8870714D01*
X4452857Y-9170714D02*
X4452857Y-8870714D01*
X4552857Y-9085000D01*
X4652857Y-8870714D01*
X4652857Y-9170714D01*
X4924286Y-9170714D02*
X4924286Y-9013572D01*
X4910000Y-8985000D01*
X4881428Y-8970714D01*
X4824286Y-8970714D01*
X4795714Y-8985000D01*
X4924286Y-9156429D02*
X4895714Y-9170714D01*
X4824286Y-9170714D01*
X4795714Y-9156429D01*
X4781428Y-9127857D01*
X4781428Y-9099286D01*
X4795714Y-9070714D01*
X4824286Y-9056429D01*
X4895714Y-9056429D01*
X4924286Y-9042143D01*
X5067143Y-8970714D02*
X5067143Y-9270714D01*
X5067143Y-8985000D02*
X5095714Y-8970714D01*
X5152857Y-8970714D01*
X5181428Y-8985000D01*
X5195714Y-8999286D01*
X5210000Y-9027857D01*
X5210000Y-9113572D01*
X5195714Y-9142143D01*
X5181428Y-9156429D01*
X5152857Y-9170714D01*
X5095714Y-9170714D01*
X5067143Y-9156429D01*
X5338571Y-9142143D02*
X5352857Y-9156429D01*
X5338571Y-9170714D01*
X5324286Y-9156429D01*
X5338571Y-9142143D01*
X5338571Y-9170714D01*
X5338571Y-8985000D02*
X5352857Y-8999286D01*
X5338571Y-9013572D01*
X5324286Y-8999286D01*
X5338571Y-8985000D01*
X5338571Y-9013572D01*
X2965000Y-9650000D02*
X2995000Y-9680000D01*
X2995000Y-9650000D02*
X2965000Y-9680000D01*
X3338571Y-9500714D02*
X3367143Y-9500714D01*
X3395714Y-9515000D01*
X3410000Y-9529286D01*
X3424286Y-9557857D01*
X3438571Y-9615000D01*
X3438571Y-9686429D01*
X3424286Y-9743572D01*
X3410000Y-9772143D01*
X3395714Y-9786429D01*
X3367143Y-9800714D01*
X3338571Y-9800714D01*
X3310000Y-9786429D01*
X3295714Y-9772143D01*
X3281428Y-9743572D01*
X3267143Y-9686429D01*
X3267143Y-9615000D01*
X3281428Y-9557857D01*
X3295714Y-9529286D01*
X3310000Y-9515000D01*
X3338571Y-9500714D01*
X3567143Y-9772143D02*
X3581428Y-9786429D01*
X3567143Y-9800714D01*
X3552857Y-9786429D01*
X3567143Y-9772143D01*
X3567143Y-9800714D01*
X3681428Y-9500714D02*
X3867143Y-9500714D01*
X3767143Y-9615000D01*
X3810000Y-9615000D01*
X3838571Y-9629286D01*
X3852857Y-9643572D01*
X3867143Y-9672143D01*
X3867143Y-9743572D01*
X3852857Y-9772143D01*
X3838571Y-9786429D01*
X3810000Y-9800714D01*
X3724286Y-9800714D01*
X3695714Y-9786429D01*
X3681428Y-9772143D01*
X4052857Y-9500714D02*
X4081428Y-9500714D01*
X4110000Y-9515000D01*
X4124286Y-9529286D01*
X4138571Y-9557857D01*
X4152857Y-9615000D01*
X4152857Y-9686429D01*
X4138571Y-9743572D01*
X4124286Y-9772143D01*
X4110000Y-9786429D01*
X4081428Y-9800714D01*
X4052857Y-9800714D01*
X4024286Y-9786429D01*
X4010000Y-9772143D01*
X3995714Y-9743572D01*
X3981428Y-9686429D01*
X3981428Y-9615000D01*
X3995714Y-9557857D01*
X4010000Y-9529286D01*
X4024286Y-9515000D01*
X4052857Y-9500714D01*
X4338571Y-9500714D02*
X4367143Y-9500714D01*
X4395714Y-9515000D01*
X4410000Y-9529286D01*
X4424286Y-9557857D01*
X4438571Y-9615000D01*
X4438571Y-9686429D01*
X4424286Y-9743572D01*
X4410000Y-9772143D01*
X4395714Y-9786429D01*
X4367143Y-9800714D01*
X4338571Y-9800714D01*
X4310000Y-9786429D01*
X4295714Y-9772143D01*
X4281428Y-9743572D01*
X4267143Y-9686429D01*
X4267143Y-9615000D01*
X4281428Y-9557857D01*
X4295714Y-9529286D01*
X4310000Y-9515000D01*
X4338571Y-9500714D01*
X4567143Y-9800714D02*
X4567143Y-9600714D01*
X4567143Y-9629286D02*
X4581428Y-9615000D01*
X4610000Y-9600714D01*
X4652857Y-9600714D01*
X4681428Y-9615000D01*
X4695714Y-9643572D01*
X4695714Y-9800714D01*
X4695714Y-9643572D02*
X4710000Y-9615000D01*
X4738571Y-9600714D01*
X4781428Y-9600714D01*
X4810000Y-9615000D01*
X4824286Y-9643572D01*
X4824286Y-9800714D01*
X4967143Y-9800714D02*
X4967143Y-9600714D01*
X4967143Y-9629286D02*
X4981428Y-9615000D01*
X5010000Y-9600714D01*
X5052857Y-9600714D01*
X5081428Y-9615000D01*
X5095714Y-9643572D01*
X5095714Y-9800714D01*
X5095714Y-9643572D02*
X5110000Y-9615000D01*
X5138571Y-9600714D01*
X5181428Y-9600714D01*
X5210000Y-9615000D01*
X5224286Y-9643572D01*
X5224286Y-9800714D01*
X5810000Y-9486429D02*
X5552857Y-9872143D01*
X6195714Y-9500714D02*
X6224286Y-9500714D01*
X6252857Y-9515000D01*
X6267143Y-9529286D01*
X6281428Y-9557857D01*
X6295714Y-9615000D01*
X6295714Y-9686429D01*
X6281428Y-9743572D01*
X6267143Y-9772143D01*
X6252857Y-9786429D01*
X6224286Y-9800714D01*
X6195714Y-9800714D01*
X6167143Y-9786429D01*
X6152857Y-9772143D01*
X6138571Y-9743572D01*
X6124286Y-9686429D01*
X6124286Y-9615000D01*
X6138571Y-9557857D01*
X6152857Y-9529286D01*
X6167143Y-9515000D01*
X6195714Y-9500714D01*
X6424286Y-9772143D02*
X6438571Y-9786429D01*
X6424286Y-9800714D01*
X6410000Y-9786429D01*
X6424286Y-9772143D01*
X6424286Y-9800714D01*
X6624286Y-9500714D02*
X6652857Y-9500714D01*
X6681428Y-9515000D01*
X6695714Y-9529286D01*
X6710000Y-9557857D01*
X6724286Y-9615000D01*
X6724286Y-9686429D01*
X6710000Y-9743572D01*
X6695714Y-9772143D01*
X6681428Y-9786429D01*
X6652857Y-9800714D01*
X6624286Y-9800714D01*
X6595714Y-9786429D01*
X6581428Y-9772143D01*
X6567143Y-9743572D01*
X6552857Y-9686429D01*
X6552857Y-9615000D01*
X6567143Y-9557857D01*
X6581428Y-9529286D01*
X6595714Y-9515000D01*
X6624286Y-9500714D01*
X7010000Y-9800714D02*
X6838571Y-9800714D01*
X6924286Y-9800714D02*
X6924286Y-9500714D01*
X6895714Y-9543572D01*
X6867143Y-9572143D01*
X6838571Y-9586429D01*
X7295714Y-9800714D02*
X7124286Y-9800714D01*
X7210000Y-9800714D02*
X7210000Y-9500714D01*
X7181428Y-9543572D01*
X7152857Y-9572143D01*
X7124286Y-9586429D01*
X7467143Y-9629286D02*
X7438571Y-9615000D01*
X7424286Y-9600714D01*
X7410000Y-9572143D01*
X7410000Y-9557857D01*
X7424286Y-9529286D01*
X7438571Y-9515000D01*
X7467143Y-9500714D01*
X7524286Y-9500714D01*
X7552857Y-9515000D01*
X7567143Y-9529286D01*
X7581428Y-9557857D01*
X7581428Y-9572143D01*
X7567143Y-9600714D01*
X7552857Y-9615000D01*
X7524286Y-9629286D01*
X7467143Y-9629286D01*
X7438571Y-9643572D01*
X7424286Y-9657857D01*
X7410000Y-9686429D01*
X7410000Y-9743572D01*
X7424286Y-9772143D01*
X7438571Y-9786429D01*
X7467143Y-9800714D01*
X7524286Y-9800714D01*
X7552857Y-9786429D01*
X7567143Y-9772143D01*
X7581428Y-9743572D01*
X7581428Y-9686429D01*
X7567143Y-9657857D01*
X7552857Y-9643572D01*
X7524286Y-9629286D01*
X7695714Y-9500714D02*
X7695714Y-9557857D01*
X7810000Y-9500714D02*
X7810000Y-9557857D01*
X8252857Y-9915000D02*
X8238571Y-9900714D01*
X8210000Y-9857857D01*
X8195714Y-9829286D01*
X8181428Y-9786429D01*
X8167143Y-9715000D01*
X8167143Y-9657857D01*
X8181428Y-9586429D01*
X8195714Y-9543572D01*
X8210000Y-9515000D01*
X8238571Y-9472143D01*
X8252857Y-9457857D01*
X8495714Y-9600714D02*
X8495714Y-9800714D01*
X8424286Y-9486429D02*
X8352857Y-9700714D01*
X8538571Y-9700714D01*
X8781428Y-9600714D02*
X8781428Y-9800714D01*
X8710000Y-9486429D02*
X8638571Y-9700714D01*
X8824286Y-9700714D01*
X8910000Y-9500714D02*
X9110000Y-9500714D01*
X8981428Y-9800714D01*
X9452857Y-9800714D02*
X9452857Y-9500714D01*
X9581428Y-9800714D02*
X9581428Y-9643572D01*
X9567143Y-9615000D01*
X9538571Y-9600714D01*
X9495714Y-9600714D01*
X9467143Y-9615000D01*
X9452857Y-9629286D01*
X9767143Y-9800714D02*
X9738571Y-9786429D01*
X9724286Y-9772143D01*
X9710000Y-9743572D01*
X9710000Y-9657857D01*
X9724286Y-9629286D01*
X9738571Y-9615000D01*
X9767143Y-9600714D01*
X9810000Y-9600714D01*
X9838571Y-9615000D01*
X9852857Y-9629286D01*
X9867143Y-9657857D01*
X9867143Y-9743572D01*
X9852857Y-9772143D01*
X9838571Y-9786429D01*
X9810000Y-9800714D01*
X9767143Y-9800714D01*
X10038571Y-9800714D02*
X10010000Y-9786429D01*
X9995714Y-9757857D01*
X9995714Y-9500714D01*
X10267143Y-9786429D02*
X10238571Y-9800714D01*
X10181428Y-9800714D01*
X10152857Y-9786429D01*
X10138571Y-9757857D01*
X10138571Y-9643572D01*
X10152857Y-9615000D01*
X10181428Y-9600714D01*
X10238571Y-9600714D01*
X10267143Y-9615000D01*
X10281428Y-9643572D01*
X10281428Y-9672143D01*
X10138571Y-9700714D01*
X10395714Y-9786429D02*
X10424286Y-9800714D01*
X10481428Y-9800714D01*
X10510000Y-9786429D01*
X10524286Y-9757857D01*
X10524286Y-9743572D01*
X10510000Y-9715000D01*
X10481428Y-9700714D01*
X10438571Y-9700714D01*
X10410000Y-9686429D01*
X10395714Y-9657857D01*
X10395714Y-9643572D01*
X10410000Y-9615000D01*
X10438571Y-9600714D01*
X10481428Y-9600714D01*
X10510000Y-9615000D01*
X10624286Y-9915000D02*
X10638571Y-9900714D01*
X10667143Y-9857857D01*
X10681428Y-9829286D01*
X10695714Y-9786429D01*
X10710000Y-9715000D01*
X10710000Y-9657857D01*
X10695714Y-9586429D01*
X10681428Y-9543572D01*
X10667143Y-9515000D01*
X10638571Y-9472143D01*
X10624286Y-9457857D01*
X2995000Y-10061000D02*
G75*
G03*
X2995000Y-10061000I-30000J0D01*
G01*
X3338571Y-9896714D02*
X3367143Y-9896714D01*
X3395714Y-9911000D01*
X3410000Y-9925286D01*
X3424286Y-9953857D01*
X3438571Y-10011000D01*
X3438571Y-10082429D01*
X3424286Y-10139572D01*
X3410000Y-10168143D01*
X3395714Y-10182429D01*
X3367143Y-10196714D01*
X3338571Y-10196714D01*
X3310000Y-10182429D01*
X3295714Y-10168143D01*
X3281428Y-10139572D01*
X3267143Y-10082429D01*
X3267143Y-10011000D01*
X3281428Y-9953857D01*
X3295714Y-9925286D01*
X3310000Y-9911000D01*
X3338571Y-9896714D01*
X3567143Y-10168143D02*
X3581428Y-10182429D01*
X3567143Y-10196714D01*
X3552857Y-10182429D01*
X3567143Y-10168143D01*
X3567143Y-10196714D01*
X3838571Y-9896714D02*
X3781428Y-9896714D01*
X3752857Y-9911000D01*
X3738571Y-9925286D01*
X3710000Y-9968143D01*
X3695714Y-10025286D01*
X3695714Y-10139572D01*
X3710000Y-10168143D01*
X3724286Y-10182429D01*
X3752857Y-10196714D01*
X3810000Y-10196714D01*
X3838571Y-10182429D01*
X3852857Y-10168143D01*
X3867143Y-10139572D01*
X3867143Y-10068143D01*
X3852857Y-10039572D01*
X3838571Y-10025286D01*
X3810000Y-10011000D01*
X3752857Y-10011000D01*
X3724286Y-10025286D01*
X3710000Y-10039572D01*
X3695714Y-10068143D01*
X4052857Y-9896714D02*
X4081428Y-9896714D01*
X4110000Y-9911000D01*
X4124286Y-9925286D01*
X4138571Y-9953857D01*
X4152857Y-10011000D01*
X4152857Y-10082429D01*
X4138571Y-10139572D01*
X4124286Y-10168143D01*
X4110000Y-10182429D01*
X4081428Y-10196714D01*
X4052857Y-10196714D01*
X4024286Y-10182429D01*
X4010000Y-10168143D01*
X3995714Y-10139572D01*
X3981428Y-10082429D01*
X3981428Y-10011000D01*
X3995714Y-9953857D01*
X4010000Y-9925286D01*
X4024286Y-9911000D01*
X4052857Y-9896714D01*
X4338571Y-9896714D02*
X4367143Y-9896714D01*
X4395714Y-9911000D01*
X4410000Y-9925286D01*
X4424286Y-9953857D01*
X4438571Y-10011000D01*
X4438571Y-10082429D01*
X4424286Y-10139572D01*
X4410000Y-10168143D01*
X4395714Y-10182429D01*
X4367143Y-10196714D01*
X4338571Y-10196714D01*
X4310000Y-10182429D01*
X4295714Y-10168143D01*
X4281428Y-10139572D01*
X4267143Y-10082429D01*
X4267143Y-10011000D01*
X4281428Y-9953857D01*
X4295714Y-9925286D01*
X4310000Y-9911000D01*
X4338571Y-9896714D01*
X4567143Y-10196714D02*
X4567143Y-9996714D01*
X4567143Y-10025286D02*
X4581428Y-10011000D01*
X4610000Y-9996714D01*
X4652857Y-9996714D01*
X4681428Y-10011000D01*
X4695714Y-10039572D01*
X4695714Y-10196714D01*
X4695714Y-10039572D02*
X4710000Y-10011000D01*
X4738571Y-9996714D01*
X4781428Y-9996714D01*
X4810000Y-10011000D01*
X4824286Y-10039572D01*
X4824286Y-10196714D01*
X4967143Y-10196714D02*
X4967143Y-9996714D01*
X4967143Y-10025286D02*
X4981428Y-10011000D01*
X5010000Y-9996714D01*
X5052857Y-9996714D01*
X5081428Y-10011000D01*
X5095714Y-10039572D01*
X5095714Y-10196714D01*
X5095714Y-10039572D02*
X5110000Y-10011000D01*
X5138571Y-9996714D01*
X5181428Y-9996714D01*
X5210000Y-10011000D01*
X5224286Y-10039572D01*
X5224286Y-10196714D01*
X5810000Y-9882429D02*
X5552857Y-10268143D01*
X6195714Y-9896714D02*
X6224286Y-9896714D01*
X6252857Y-9911000D01*
X6267143Y-9925286D01*
X6281428Y-9953857D01*
X6295714Y-10011000D01*
X6295714Y-10082429D01*
X6281428Y-10139572D01*
X6267143Y-10168143D01*
X6252857Y-10182429D01*
X6224286Y-10196714D01*
X6195714Y-10196714D01*
X6167143Y-10182429D01*
X6152857Y-10168143D01*
X6138571Y-10139572D01*
X6124286Y-10082429D01*
X6124286Y-10011000D01*
X6138571Y-9953857D01*
X6152857Y-9925286D01*
X6167143Y-9911000D01*
X6195714Y-9896714D01*
X6424286Y-10168143D02*
X6438571Y-10182429D01*
X6424286Y-10196714D01*
X6410000Y-10182429D01*
X6424286Y-10168143D01*
X6424286Y-10196714D01*
X6624286Y-9896714D02*
X6652857Y-9896714D01*
X6681428Y-9911000D01*
X6695714Y-9925286D01*
X6710000Y-9953857D01*
X6724286Y-10011000D01*
X6724286Y-10082429D01*
X6710000Y-10139572D01*
X6695714Y-10168143D01*
X6681428Y-10182429D01*
X6652857Y-10196714D01*
X6624286Y-10196714D01*
X6595714Y-10182429D01*
X6581428Y-10168143D01*
X6567143Y-10139572D01*
X6552857Y-10082429D01*
X6552857Y-10011000D01*
X6567143Y-9953857D01*
X6581428Y-9925286D01*
X6595714Y-9911000D01*
X6624286Y-9896714D01*
X6838571Y-9925286D02*
X6852857Y-9911000D01*
X6881428Y-9896714D01*
X6952857Y-9896714D01*
X6981428Y-9911000D01*
X6995714Y-9925286D01*
X7010000Y-9953857D01*
X7010000Y-9982429D01*
X6995714Y-10025286D01*
X6824286Y-10196714D01*
X7010000Y-10196714D01*
X7110000Y-9896714D02*
X7295714Y-9896714D01*
X7195714Y-10011000D01*
X7238571Y-10011000D01*
X7267143Y-10025286D01*
X7281428Y-10039572D01*
X7295714Y-10068143D01*
X7295714Y-10139572D01*
X7281428Y-10168143D01*
X7267143Y-10182429D01*
X7238571Y-10196714D01*
X7152857Y-10196714D01*
X7124286Y-10182429D01*
X7110000Y-10168143D01*
X7552857Y-9896714D02*
X7495714Y-9896714D01*
X7467143Y-9911000D01*
X7452857Y-9925286D01*
X7424286Y-9968143D01*
X7410000Y-10025286D01*
X7410000Y-10139572D01*
X7424286Y-10168143D01*
X7438571Y-10182429D01*
X7467143Y-10196714D01*
X7524286Y-10196714D01*
X7552857Y-10182429D01*
X7567143Y-10168143D01*
X7581428Y-10139572D01*
X7581428Y-10068143D01*
X7567143Y-10039572D01*
X7552857Y-10025286D01*
X7524286Y-10011000D01*
X7467143Y-10011000D01*
X7438571Y-10025286D01*
X7424286Y-10039572D01*
X7410000Y-10068143D01*
X7695714Y-9896714D02*
X7695714Y-9953857D01*
X7810000Y-9896714D02*
X7810000Y-9953857D01*
X8252857Y-10311000D02*
X8238571Y-10296714D01*
X8210000Y-10253857D01*
X8195714Y-10225286D01*
X8181428Y-10182429D01*
X8167143Y-10111000D01*
X8167143Y-10053857D01*
X8181428Y-9982429D01*
X8195714Y-9939572D01*
X8210000Y-9911000D01*
X8238571Y-9868143D01*
X8252857Y-9853857D01*
X8424286Y-9896714D02*
X8452857Y-9896714D01*
X8481428Y-9911000D01*
X8495714Y-9925286D01*
X8510000Y-9953857D01*
X8524286Y-10011000D01*
X8524286Y-10082429D01*
X8510000Y-10139572D01*
X8495714Y-10168143D01*
X8481428Y-10182429D01*
X8452857Y-10196714D01*
X8424286Y-10196714D01*
X8395714Y-10182429D01*
X8381428Y-10168143D01*
X8367143Y-10139572D01*
X8352857Y-10082429D01*
X8352857Y-10011000D01*
X8367143Y-9953857D01*
X8381428Y-9925286D01*
X8395714Y-9911000D01*
X8424286Y-9896714D01*
X8881428Y-10196714D02*
X8881428Y-9896714D01*
X9010000Y-10196714D02*
X9010000Y-10039572D01*
X8995714Y-10011000D01*
X8967143Y-9996714D01*
X8924286Y-9996714D01*
X8895714Y-10011000D01*
X8881428Y-10025286D01*
X9195714Y-10196714D02*
X9167143Y-10182429D01*
X9152857Y-10168143D01*
X9138571Y-10139572D01*
X9138571Y-10053857D01*
X9152857Y-10025286D01*
X9167143Y-10011000D01*
X9195714Y-9996714D01*
X9238571Y-9996714D01*
X9267143Y-10011000D01*
X9281428Y-10025286D01*
X9295714Y-10053857D01*
X9295714Y-10139572D01*
X9281428Y-10168143D01*
X9267143Y-10182429D01*
X9238571Y-10196714D01*
X9195714Y-10196714D01*
X9467143Y-10196714D02*
X9438571Y-10182429D01*
X9424286Y-10153857D01*
X9424286Y-9896714D01*
X9695714Y-10182429D02*
X9667143Y-10196714D01*
X9610000Y-10196714D01*
X9581428Y-10182429D01*
X9567143Y-10153857D01*
X9567143Y-10039572D01*
X9581428Y-10011000D01*
X9610000Y-9996714D01*
X9667143Y-9996714D01*
X9695714Y-10011000D01*
X9710000Y-10039572D01*
X9710000Y-10068143D01*
X9567143Y-10096714D01*
X9824286Y-10182429D02*
X9852857Y-10196714D01*
X9910000Y-10196714D01*
X9938571Y-10182429D01*
X9952857Y-10153857D01*
X9952857Y-10139572D01*
X9938571Y-10111000D01*
X9910000Y-10096714D01*
X9867143Y-10096714D01*
X9838571Y-10082429D01*
X9824286Y-10053857D01*
X9824286Y-10039572D01*
X9838571Y-10011000D01*
X9867143Y-9996714D01*
X9910000Y-9996714D01*
X9938571Y-10011000D01*
X10310000Y-10082429D02*
X10538571Y-10082429D01*
X10424286Y-10196714D02*
X10424286Y-9968143D01*
X11038571Y-9996714D02*
X11038571Y-10196714D01*
X10967143Y-9882429D02*
X10895714Y-10096714D01*
X11081428Y-10096714D01*
X11410000Y-10182429D02*
X11438571Y-10196714D01*
X11495714Y-10196714D01*
X11524286Y-10182429D01*
X11538571Y-10153857D01*
X11538571Y-10139572D01*
X11524286Y-10111000D01*
X11495714Y-10096714D01*
X11452857Y-10096714D01*
X11424286Y-10082429D01*
X11410000Y-10053857D01*
X11410000Y-10039572D01*
X11424286Y-10011000D01*
X11452857Y-9996714D01*
X11495714Y-9996714D01*
X11524286Y-10011000D01*
X11710000Y-10196714D02*
X11681428Y-10182429D01*
X11667143Y-10153857D01*
X11667143Y-9896714D01*
X11867143Y-10196714D02*
X11838571Y-10182429D01*
X11824286Y-10168143D01*
X11810000Y-10139572D01*
X11810000Y-10053857D01*
X11824286Y-10025286D01*
X11838571Y-10011000D01*
X11867143Y-9996714D01*
X11910000Y-9996714D01*
X11938571Y-10011000D01*
X11952857Y-10025286D01*
X11967143Y-10053857D01*
X11967143Y-10139572D01*
X11952857Y-10168143D01*
X11938571Y-10182429D01*
X11910000Y-10196714D01*
X11867143Y-10196714D01*
X12052857Y-9996714D02*
X12167143Y-9996714D01*
X12095714Y-9896714D02*
X12095714Y-10153857D01*
X12110000Y-10182429D01*
X12138571Y-10196714D01*
X12167143Y-10196714D01*
X12252857Y-10182429D02*
X12281428Y-10196714D01*
X12338571Y-10196714D01*
X12367143Y-10182429D01*
X12381428Y-10153857D01*
X12381428Y-10139572D01*
X12367143Y-10111000D01*
X12338571Y-10096714D01*
X12295714Y-10096714D01*
X12267143Y-10082429D01*
X12252857Y-10053857D01*
X12252857Y-10039572D01*
X12267143Y-10011000D01*
X12295714Y-9996714D01*
X12338571Y-9996714D01*
X12367143Y-10011000D01*
X12481428Y-10311000D02*
X12495714Y-10296714D01*
X12524286Y-10253857D01*
X12538571Y-10225286D01*
X12552857Y-10182429D01*
X12567143Y-10111000D01*
X12567143Y-10053857D01*
X12552857Y-9982429D01*
X12538571Y-9939572D01*
X12524286Y-9911000D01*
X12495714Y-9868143D01*
X12481428Y-9853857D01*
X2945000Y-10407000D02*
X2945000Y-10507000D01*
X2895000Y-10457000D02*
X2995000Y-10457000D01*
X3438571Y-10592714D02*
X3267143Y-10592714D01*
X3352857Y-10592714D02*
X3352857Y-10292714D01*
X3324286Y-10335572D01*
X3295714Y-10364143D01*
X3267143Y-10378429D01*
X3567143Y-10564143D02*
X3581428Y-10578429D01*
X3567143Y-10592714D01*
X3552857Y-10578429D01*
X3567143Y-10564143D01*
X3567143Y-10592714D01*
X3767143Y-10292714D02*
X3795714Y-10292714D01*
X3824286Y-10307000D01*
X3838571Y-10321286D01*
X3852857Y-10349857D01*
X3867143Y-10407000D01*
X3867143Y-10478429D01*
X3852857Y-10535572D01*
X3838571Y-10564143D01*
X3824286Y-10578429D01*
X3795714Y-10592714D01*
X3767143Y-10592714D01*
X3738571Y-10578429D01*
X3724286Y-10564143D01*
X3710000Y-10535572D01*
X3695714Y-10478429D01*
X3695714Y-10407000D01*
X3710000Y-10349857D01*
X3724286Y-10321286D01*
X3738571Y-10307000D01*
X3767143Y-10292714D01*
X4052857Y-10292714D02*
X4081428Y-10292714D01*
X4110000Y-10307000D01*
X4124286Y-10321286D01*
X4138571Y-10349857D01*
X4152857Y-10407000D01*
X4152857Y-10478429D01*
X4138571Y-10535572D01*
X4124286Y-10564143D01*
X4110000Y-10578429D01*
X4081428Y-10592714D01*
X4052857Y-10592714D01*
X4024286Y-10578429D01*
X4010000Y-10564143D01*
X3995714Y-10535572D01*
X3981428Y-10478429D01*
X3981428Y-10407000D01*
X3995714Y-10349857D01*
X4010000Y-10321286D01*
X4024286Y-10307000D01*
X4052857Y-10292714D01*
X4338571Y-10292714D02*
X4367143Y-10292714D01*
X4395714Y-10307000D01*
X4410000Y-10321286D01*
X4424286Y-10349857D01*
X4438571Y-10407000D01*
X4438571Y-10478429D01*
X4424286Y-10535572D01*
X4410000Y-10564143D01*
X4395714Y-10578429D01*
X4367143Y-10592714D01*
X4338571Y-10592714D01*
X4310000Y-10578429D01*
X4295714Y-10564143D01*
X4281428Y-10535572D01*
X4267143Y-10478429D01*
X4267143Y-10407000D01*
X4281428Y-10349857D01*
X4295714Y-10321286D01*
X4310000Y-10307000D01*
X4338571Y-10292714D01*
X4567143Y-10592714D02*
X4567143Y-10392714D01*
X4567143Y-10421286D02*
X4581428Y-10407000D01*
X4610000Y-10392714D01*
X4652857Y-10392714D01*
X4681428Y-10407000D01*
X4695714Y-10435572D01*
X4695714Y-10592714D01*
X4695714Y-10435572D02*
X4710000Y-10407000D01*
X4738571Y-10392714D01*
X4781428Y-10392714D01*
X4810000Y-10407000D01*
X4824286Y-10435572D01*
X4824286Y-10592714D01*
X4967143Y-10592714D02*
X4967143Y-10392714D01*
X4967143Y-10421286D02*
X4981428Y-10407000D01*
X5010000Y-10392714D01*
X5052857Y-10392714D01*
X5081428Y-10407000D01*
X5095714Y-10435572D01*
X5095714Y-10592714D01*
X5095714Y-10435572D02*
X5110000Y-10407000D01*
X5138571Y-10392714D01*
X5181428Y-10392714D01*
X5210000Y-10407000D01*
X5224286Y-10435572D01*
X5224286Y-10592714D01*
X5810000Y-10278429D02*
X5552857Y-10664143D01*
X6195714Y-10292714D02*
X6224286Y-10292714D01*
X6252857Y-10307000D01*
X6267143Y-10321286D01*
X6281428Y-10349857D01*
X6295714Y-10407000D01*
X6295714Y-10478429D01*
X6281428Y-10535572D01*
X6267143Y-10564143D01*
X6252857Y-10578429D01*
X6224286Y-10592714D01*
X6195714Y-10592714D01*
X6167143Y-10578429D01*
X6152857Y-10564143D01*
X6138571Y-10535572D01*
X6124286Y-10478429D01*
X6124286Y-10407000D01*
X6138571Y-10349857D01*
X6152857Y-10321286D01*
X6167143Y-10307000D01*
X6195714Y-10292714D01*
X6424286Y-10564143D02*
X6438571Y-10578429D01*
X6424286Y-10592714D01*
X6410000Y-10578429D01*
X6424286Y-10564143D01*
X6424286Y-10592714D01*
X6624286Y-10292714D02*
X6652857Y-10292714D01*
X6681428Y-10307000D01*
X6695714Y-10321286D01*
X6710000Y-10349857D01*
X6724286Y-10407000D01*
X6724286Y-10478429D01*
X6710000Y-10535572D01*
X6695714Y-10564143D01*
X6681428Y-10578429D01*
X6652857Y-10592714D01*
X6624286Y-10592714D01*
X6595714Y-10578429D01*
X6581428Y-10564143D01*
X6567143Y-10535572D01*
X6552857Y-10478429D01*
X6552857Y-10407000D01*
X6567143Y-10349857D01*
X6581428Y-10321286D01*
X6595714Y-10307000D01*
X6624286Y-10292714D01*
X6824286Y-10292714D02*
X7010000Y-10292714D01*
X6910000Y-10407000D01*
X6952857Y-10407000D01*
X6981428Y-10421286D01*
X6995714Y-10435572D01*
X7010000Y-10464143D01*
X7010000Y-10535572D01*
X6995714Y-10564143D01*
X6981428Y-10578429D01*
X6952857Y-10592714D01*
X6867143Y-10592714D01*
X6838571Y-10578429D01*
X6824286Y-10564143D01*
X7152857Y-10592714D02*
X7210000Y-10592714D01*
X7238571Y-10578429D01*
X7252857Y-10564143D01*
X7281428Y-10521286D01*
X7295714Y-10464143D01*
X7295714Y-10349857D01*
X7281428Y-10321286D01*
X7267143Y-10307000D01*
X7238571Y-10292714D01*
X7181428Y-10292714D01*
X7152857Y-10307000D01*
X7138571Y-10321286D01*
X7124286Y-10349857D01*
X7124286Y-10421286D01*
X7138571Y-10449857D01*
X7152857Y-10464143D01*
X7181428Y-10478429D01*
X7238571Y-10478429D01*
X7267143Y-10464143D01*
X7281428Y-10449857D01*
X7295714Y-10421286D01*
X7552857Y-10392714D02*
X7552857Y-10592714D01*
X7481428Y-10278429D02*
X7410000Y-10492714D01*
X7595714Y-10492714D01*
X7695714Y-10292714D02*
X7695714Y-10349857D01*
X7810000Y-10292714D02*
X7810000Y-10349857D01*
X8252857Y-10707000D02*
X8238571Y-10692714D01*
X8210000Y-10649857D01*
X8195714Y-10621286D01*
X8181428Y-10578429D01*
X8167143Y-10507000D01*
X8167143Y-10449857D01*
X8181428Y-10378429D01*
X8195714Y-10335572D01*
X8210000Y-10307000D01*
X8238571Y-10264143D01*
X8252857Y-10249857D01*
X8524286Y-10592714D02*
X8352857Y-10592714D01*
X8438571Y-10592714D02*
X8438571Y-10292714D01*
X8410000Y-10335572D01*
X8381428Y-10364143D01*
X8352857Y-10378429D01*
X8781428Y-10292714D02*
X8724286Y-10292714D01*
X8695714Y-10307000D01*
X8681428Y-10321286D01*
X8652857Y-10364143D01*
X8638571Y-10421286D01*
X8638571Y-10535572D01*
X8652857Y-10564143D01*
X8667143Y-10578429D01*
X8695714Y-10592714D01*
X8752857Y-10592714D01*
X8781428Y-10578429D01*
X8795714Y-10564143D01*
X8810000Y-10535572D01*
X8810000Y-10464143D01*
X8795714Y-10435572D01*
X8781428Y-10421286D01*
X8752857Y-10407000D01*
X8695714Y-10407000D01*
X8667143Y-10421286D01*
X8652857Y-10435572D01*
X8638571Y-10464143D01*
X9167143Y-10592714D02*
X9167143Y-10292714D01*
X9295714Y-10592714D02*
X9295714Y-10435572D01*
X9281428Y-10407000D01*
X9252857Y-10392714D01*
X9210000Y-10392714D01*
X9181428Y-10407000D01*
X9167143Y-10421286D01*
X9481428Y-10592714D02*
X9452857Y-10578429D01*
X9438571Y-10564143D01*
X9424286Y-10535572D01*
X9424286Y-10449857D01*
X9438571Y-10421286D01*
X9452857Y-10407000D01*
X9481428Y-10392714D01*
X9524286Y-10392714D01*
X9552857Y-10407000D01*
X9567143Y-10421286D01*
X9581428Y-10449857D01*
X9581428Y-10535572D01*
X9567143Y-10564143D01*
X9552857Y-10578429D01*
X9524286Y-10592714D01*
X9481428Y-10592714D01*
X9752857Y-10592714D02*
X9724286Y-10578429D01*
X9710000Y-10549857D01*
X9710000Y-10292714D01*
X9981428Y-10578429D02*
X9952857Y-10592714D01*
X9895714Y-10592714D01*
X9867143Y-10578429D01*
X9852857Y-10549857D01*
X9852857Y-10435572D01*
X9867143Y-10407000D01*
X9895714Y-10392714D01*
X9952857Y-10392714D01*
X9981428Y-10407000D01*
X9995714Y-10435572D01*
X9995714Y-10464143D01*
X9852857Y-10492714D01*
X10110000Y-10578429D02*
X10138571Y-10592714D01*
X10195714Y-10592714D01*
X10224286Y-10578429D01*
X10238571Y-10549857D01*
X10238571Y-10535572D01*
X10224286Y-10507000D01*
X10195714Y-10492714D01*
X10152857Y-10492714D01*
X10124286Y-10478429D01*
X10110000Y-10449857D01*
X10110000Y-10435572D01*
X10124286Y-10407000D01*
X10152857Y-10392714D01*
X10195714Y-10392714D01*
X10224286Y-10407000D01*
X10338571Y-10707000D02*
X10352857Y-10692714D01*
X10381428Y-10649857D01*
X10395714Y-10621286D01*
X10410000Y-10578429D01*
X10424286Y-10507000D01*
X10424286Y-10449857D01*
X10410000Y-10378429D01*
X10395714Y-10335572D01*
X10381428Y-10307000D01*
X10352857Y-10264143D01*
X10338571Y-10249857D01*
M02*
