%FSLAX45Y45*%
G04 Gerber Fmt 4.5, Leading zero omitted, Abs format (unit mm)*
G04 Created by KiCad (PCBNEW (5.1.10)-1) date 2021-07-15 23:52:47*
%MOMM*%
%LPD*%
G01*
G04 APERTURE LIST*
%TA.AperFunction,Profile*%
%ADD10C,0.050000*%
%TD*%
%TA.AperFunction,Profile*%
%ADD11C,0.100000*%
%TD*%
%ADD12C,0.200000*%
%ADD13C,0.300000*%
G04 APERTURE END LIST*
D10*
X6910884Y-6941870D02*
G75*
G02*
X6797000Y-7061000I-113885J-5130D01*
G01*
X6530130Y-7060884D02*
X6797000Y-7061000D01*
X6530130Y-7060884D02*
G75*
G02*
X6411000Y-6947000I-5130J113885D01*
G01*
X6791870Y-4761116D02*
G75*
G02*
X6911000Y-4875000I5130J-113885D01*
G01*
X6525000Y-4761000D02*
X6791870Y-4761116D01*
X6411000Y-6947000D02*
X6411115Y-4880130D01*
X6411115Y-4880130D02*
G75*
G02*
X6525000Y-4761000I113885J5130D01*
G01*
X6910884Y-6941870D02*
X6911000Y-4875000D01*
X4074884Y-7180870D02*
G75*
G02*
X3961000Y-7300000I-113885J-5130D01*
G01*
X3594130Y-7299884D02*
G75*
G02*
X3475000Y-7186000I-5130J113885D01*
G01*
X3955870Y-5900115D02*
G75*
G02*
X4075000Y-6014000I5130J-113885D01*
G01*
X3475115Y-6019130D02*
G75*
G02*
X3589000Y-5900000I113885J5130D01*
G01*
X3589000Y-5900000D02*
X3955870Y-5900115D01*
X3594130Y-7299884D02*
X3961000Y-7300000D01*
X3475000Y-7186000D02*
X3475115Y-6019130D01*
X4074884Y-7180870D02*
X4075000Y-6014000D01*
D11*
X13000000Y-3000000D02*
X13000000Y-8700000D01*
X3000000Y-3000000D02*
X13000000Y-3000000D01*
X3000000Y-8700000D02*
X3000000Y-3000000D01*
X13000000Y-8700000D02*
X3000000Y-8700000D01*
D12*
X3548000Y-4171000D02*
X3608000Y-4231000D01*
X3608000Y-4171000D02*
X3548000Y-4231000D01*
X3548000Y-4749000D02*
X3608000Y-4809000D01*
X3608000Y-4749000D02*
X3548000Y-4809000D01*
X3981500Y-3192000D02*
G75*
G03*
X3981500Y-3192000I-42500J0D01*
G01*
X4281500Y-3192000D02*
G75*
G03*
X4281500Y-3192000I-42500J0D01*
G01*
X10924000Y-8342470D02*
X10924000Y-8441530D01*
X10874470Y-8392000D02*
X10973530Y-8392000D01*
X10924000Y-8545670D02*
X10924000Y-8644730D01*
X10874470Y-8595200D02*
X10973530Y-8595200D01*
X11432000Y-8444070D02*
X11432000Y-8543130D01*
X11382470Y-8493600D02*
X11481530Y-8493600D01*
X12803389Y-8505389D02*
X12803389Y-8328611D01*
X12626611Y-8328611D01*
X12626611Y-8505389D01*
X12803389Y-8505389D01*
X3304000Y-3440000D02*
X3439000Y-3305000D01*
X3304000Y-3170000D01*
X3169000Y-3305000D01*
X3304000Y-3440000D01*
X3304000Y-8526000D02*
X3439000Y-8391000D01*
X3304000Y-8256000D01*
X3169000Y-8391000D01*
X3304000Y-8526000D01*
X7816000Y-8524000D02*
X7951000Y-8389000D01*
X7816000Y-8254000D01*
X7681000Y-8389000D01*
X7816000Y-8524000D01*
X12696000Y-3440000D02*
X12831000Y-3305000D01*
X12696000Y-3170000D01*
X12561000Y-3305000D01*
X12696000Y-3440000D01*
D13*
X3281428Y-9170714D02*
X3281428Y-8870714D01*
X3352857Y-8870714D01*
X3395714Y-8885000D01*
X3424286Y-8913572D01*
X3438571Y-8942143D01*
X3452857Y-8999286D01*
X3452857Y-9042143D01*
X3438571Y-9099286D01*
X3424286Y-9127857D01*
X3395714Y-9156429D01*
X3352857Y-9170714D01*
X3281428Y-9170714D01*
X3581428Y-9170714D02*
X3581428Y-8970714D01*
X3581428Y-9027857D02*
X3595714Y-8999286D01*
X3610000Y-8985000D01*
X3638571Y-8970714D01*
X3667143Y-8970714D01*
X3767143Y-9170714D02*
X3767143Y-8970714D01*
X3767143Y-8870714D02*
X3752857Y-8885000D01*
X3767143Y-8899286D01*
X3781428Y-8885000D01*
X3767143Y-8870714D01*
X3767143Y-8899286D01*
X3952857Y-9170714D02*
X3924286Y-9156429D01*
X3910000Y-9127857D01*
X3910000Y-8870714D01*
X4110000Y-9170714D02*
X4081428Y-9156429D01*
X4067143Y-9127857D01*
X4067143Y-8870714D01*
X4452857Y-9170714D02*
X4452857Y-8870714D01*
X4552857Y-9085000D01*
X4652857Y-8870714D01*
X4652857Y-9170714D01*
X4924286Y-9170714D02*
X4924286Y-9013572D01*
X4910000Y-8985000D01*
X4881428Y-8970714D01*
X4824286Y-8970714D01*
X4795714Y-8985000D01*
X4924286Y-9156429D02*
X4895714Y-9170714D01*
X4824286Y-9170714D01*
X4795714Y-9156429D01*
X4781428Y-9127857D01*
X4781428Y-9099286D01*
X4795714Y-9070714D01*
X4824286Y-9056429D01*
X4895714Y-9056429D01*
X4924286Y-9042143D01*
X5067143Y-8970714D02*
X5067143Y-9270714D01*
X5067143Y-8985000D02*
X5095714Y-8970714D01*
X5152857Y-8970714D01*
X5181428Y-8985000D01*
X5195714Y-8999286D01*
X5210000Y-9027857D01*
X5210000Y-9113572D01*
X5195714Y-9142143D01*
X5181428Y-9156429D01*
X5152857Y-9170714D01*
X5095714Y-9170714D01*
X5067143Y-9156429D01*
X5338571Y-9142143D02*
X5352857Y-9156429D01*
X5338571Y-9170714D01*
X5324286Y-9156429D01*
X5338571Y-9142143D01*
X5338571Y-9170714D01*
X5338571Y-8985000D02*
X5352857Y-8999286D01*
X5338571Y-9013572D01*
X5324286Y-8999286D01*
X5338571Y-8985000D01*
X5338571Y-9013572D01*
X2935000Y-9635000D02*
X2995000Y-9695000D01*
X2995000Y-9635000D02*
X2935000Y-9695000D01*
X3338571Y-9500714D02*
X3367143Y-9500714D01*
X3395714Y-9515000D01*
X3410000Y-9529286D01*
X3424286Y-9557857D01*
X3438571Y-9615000D01*
X3438571Y-9686429D01*
X3424286Y-9743572D01*
X3410000Y-9772143D01*
X3395714Y-9786429D01*
X3367143Y-9800714D01*
X3338571Y-9800714D01*
X3310000Y-9786429D01*
X3295714Y-9772143D01*
X3281428Y-9743572D01*
X3267143Y-9686429D01*
X3267143Y-9615000D01*
X3281428Y-9557857D01*
X3295714Y-9529286D01*
X3310000Y-9515000D01*
X3338571Y-9500714D01*
X3567143Y-9772143D02*
X3581428Y-9786429D01*
X3567143Y-9800714D01*
X3552857Y-9786429D01*
X3567143Y-9772143D01*
X3567143Y-9800714D01*
X3838571Y-9500714D02*
X3781428Y-9500714D01*
X3752857Y-9515000D01*
X3738571Y-9529286D01*
X3710000Y-9572143D01*
X3695714Y-9629286D01*
X3695714Y-9743572D01*
X3710000Y-9772143D01*
X3724286Y-9786429D01*
X3752857Y-9800714D01*
X3810000Y-9800714D01*
X3838571Y-9786429D01*
X3852857Y-9772143D01*
X3867143Y-9743572D01*
X3867143Y-9672143D01*
X3852857Y-9643572D01*
X3838571Y-9629286D01*
X3810000Y-9615000D01*
X3752857Y-9615000D01*
X3724286Y-9629286D01*
X3710000Y-9643572D01*
X3695714Y-9672143D01*
X4052857Y-9500714D02*
X4081428Y-9500714D01*
X4110000Y-9515000D01*
X4124286Y-9529286D01*
X4138571Y-9557857D01*
X4152857Y-9615000D01*
X4152857Y-9686429D01*
X4138571Y-9743572D01*
X4124286Y-9772143D01*
X4110000Y-9786429D01*
X4081428Y-9800714D01*
X4052857Y-9800714D01*
X4024286Y-9786429D01*
X4010000Y-9772143D01*
X3995714Y-9743572D01*
X3981428Y-9686429D01*
X3981428Y-9615000D01*
X3995714Y-9557857D01*
X4010000Y-9529286D01*
X4024286Y-9515000D01*
X4052857Y-9500714D01*
X4338571Y-9500714D02*
X4367143Y-9500714D01*
X4395714Y-9515000D01*
X4410000Y-9529286D01*
X4424286Y-9557857D01*
X4438571Y-9615000D01*
X4438571Y-9686429D01*
X4424286Y-9743572D01*
X4410000Y-9772143D01*
X4395714Y-9786429D01*
X4367143Y-9800714D01*
X4338571Y-9800714D01*
X4310000Y-9786429D01*
X4295714Y-9772143D01*
X4281428Y-9743572D01*
X4267143Y-9686429D01*
X4267143Y-9615000D01*
X4281428Y-9557857D01*
X4295714Y-9529286D01*
X4310000Y-9515000D01*
X4338571Y-9500714D01*
X4567143Y-9800714D02*
X4567143Y-9600714D01*
X4567143Y-9629286D02*
X4581428Y-9615000D01*
X4610000Y-9600714D01*
X4652857Y-9600714D01*
X4681428Y-9615000D01*
X4695714Y-9643572D01*
X4695714Y-9800714D01*
X4695714Y-9643572D02*
X4710000Y-9615000D01*
X4738571Y-9600714D01*
X4781428Y-9600714D01*
X4810000Y-9615000D01*
X4824286Y-9643572D01*
X4824286Y-9800714D01*
X4967143Y-9800714D02*
X4967143Y-9600714D01*
X4967143Y-9629286D02*
X4981428Y-9615000D01*
X5010000Y-9600714D01*
X5052857Y-9600714D01*
X5081428Y-9615000D01*
X5095714Y-9643572D01*
X5095714Y-9800714D01*
X5095714Y-9643572D02*
X5110000Y-9615000D01*
X5138571Y-9600714D01*
X5181428Y-9600714D01*
X5210000Y-9615000D01*
X5224286Y-9643572D01*
X5224286Y-9800714D01*
X5810000Y-9486429D02*
X5552857Y-9872143D01*
X6195714Y-9500714D02*
X6224286Y-9500714D01*
X6252857Y-9515000D01*
X6267143Y-9529286D01*
X6281428Y-9557857D01*
X6295714Y-9615000D01*
X6295714Y-9686429D01*
X6281428Y-9743572D01*
X6267143Y-9772143D01*
X6252857Y-9786429D01*
X6224286Y-9800714D01*
X6195714Y-9800714D01*
X6167143Y-9786429D01*
X6152857Y-9772143D01*
X6138571Y-9743572D01*
X6124286Y-9686429D01*
X6124286Y-9615000D01*
X6138571Y-9557857D01*
X6152857Y-9529286D01*
X6167143Y-9515000D01*
X6195714Y-9500714D01*
X6424286Y-9772143D02*
X6438571Y-9786429D01*
X6424286Y-9800714D01*
X6410000Y-9786429D01*
X6424286Y-9772143D01*
X6424286Y-9800714D01*
X6624286Y-9500714D02*
X6652857Y-9500714D01*
X6681428Y-9515000D01*
X6695714Y-9529286D01*
X6710000Y-9557857D01*
X6724286Y-9615000D01*
X6724286Y-9686429D01*
X6710000Y-9743572D01*
X6695714Y-9772143D01*
X6681428Y-9786429D01*
X6652857Y-9800714D01*
X6624286Y-9800714D01*
X6595714Y-9786429D01*
X6581428Y-9772143D01*
X6567143Y-9743572D01*
X6552857Y-9686429D01*
X6552857Y-9615000D01*
X6567143Y-9557857D01*
X6581428Y-9529286D01*
X6595714Y-9515000D01*
X6624286Y-9500714D01*
X6838571Y-9529286D02*
X6852857Y-9515000D01*
X6881428Y-9500714D01*
X6952857Y-9500714D01*
X6981428Y-9515000D01*
X6995714Y-9529286D01*
X7010000Y-9557857D01*
X7010000Y-9586429D01*
X6995714Y-9629286D01*
X6824286Y-9800714D01*
X7010000Y-9800714D01*
X7110000Y-9500714D02*
X7295714Y-9500714D01*
X7195714Y-9615000D01*
X7238571Y-9615000D01*
X7267143Y-9629286D01*
X7281428Y-9643572D01*
X7295714Y-9672143D01*
X7295714Y-9743572D01*
X7281428Y-9772143D01*
X7267143Y-9786429D01*
X7238571Y-9800714D01*
X7152857Y-9800714D01*
X7124286Y-9786429D01*
X7110000Y-9772143D01*
X7552857Y-9500714D02*
X7495714Y-9500714D01*
X7467143Y-9515000D01*
X7452857Y-9529286D01*
X7424286Y-9572143D01*
X7410000Y-9629286D01*
X7410000Y-9743572D01*
X7424286Y-9772143D01*
X7438571Y-9786429D01*
X7467143Y-9800714D01*
X7524286Y-9800714D01*
X7552857Y-9786429D01*
X7567143Y-9772143D01*
X7581428Y-9743572D01*
X7581428Y-9672143D01*
X7567143Y-9643572D01*
X7552857Y-9629286D01*
X7524286Y-9615000D01*
X7467143Y-9615000D01*
X7438571Y-9629286D01*
X7424286Y-9643572D01*
X7410000Y-9672143D01*
X7695714Y-9500714D02*
X7695714Y-9557857D01*
X7810000Y-9500714D02*
X7810000Y-9557857D01*
X8252857Y-9915000D02*
X8238571Y-9900714D01*
X8210000Y-9857857D01*
X8195714Y-9829286D01*
X8181428Y-9786429D01*
X8167143Y-9715000D01*
X8167143Y-9657857D01*
X8181428Y-9586429D01*
X8195714Y-9543572D01*
X8210000Y-9515000D01*
X8238571Y-9472143D01*
X8252857Y-9457857D01*
X8352857Y-9529286D02*
X8367143Y-9515000D01*
X8395714Y-9500714D01*
X8467143Y-9500714D01*
X8495714Y-9515000D01*
X8510000Y-9529286D01*
X8524286Y-9557857D01*
X8524286Y-9586429D01*
X8510000Y-9629286D01*
X8338571Y-9800714D01*
X8524286Y-9800714D01*
X8881428Y-9800714D02*
X8881428Y-9500714D01*
X9010000Y-9800714D02*
X9010000Y-9643572D01*
X8995714Y-9615000D01*
X8967143Y-9600714D01*
X8924286Y-9600714D01*
X8895714Y-9615000D01*
X8881428Y-9629286D01*
X9195714Y-9800714D02*
X9167143Y-9786429D01*
X9152857Y-9772143D01*
X9138571Y-9743572D01*
X9138571Y-9657857D01*
X9152857Y-9629286D01*
X9167143Y-9615000D01*
X9195714Y-9600714D01*
X9238571Y-9600714D01*
X9267143Y-9615000D01*
X9281428Y-9629286D01*
X9295714Y-9657857D01*
X9295714Y-9743572D01*
X9281428Y-9772143D01*
X9267143Y-9786429D01*
X9238571Y-9800714D01*
X9195714Y-9800714D01*
X9467143Y-9800714D02*
X9438571Y-9786429D01*
X9424286Y-9757857D01*
X9424286Y-9500714D01*
X9695714Y-9786429D02*
X9667143Y-9800714D01*
X9610000Y-9800714D01*
X9581428Y-9786429D01*
X9567143Y-9757857D01*
X9567143Y-9643572D01*
X9581428Y-9615000D01*
X9610000Y-9600714D01*
X9667143Y-9600714D01*
X9695714Y-9615000D01*
X9710000Y-9643572D01*
X9710000Y-9672143D01*
X9567143Y-9700714D01*
X9824286Y-9786429D02*
X9852857Y-9800714D01*
X9910000Y-9800714D01*
X9938571Y-9786429D01*
X9952857Y-9757857D01*
X9952857Y-9743572D01*
X9938571Y-9715000D01*
X9910000Y-9700714D01*
X9867143Y-9700714D01*
X9838571Y-9686429D01*
X9824286Y-9657857D01*
X9824286Y-9643572D01*
X9838571Y-9615000D01*
X9867143Y-9600714D01*
X9910000Y-9600714D01*
X9938571Y-9615000D01*
X10052857Y-9915000D02*
X10067143Y-9900714D01*
X10095714Y-9857857D01*
X10110000Y-9829286D01*
X10124286Y-9786429D01*
X10138571Y-9715000D01*
X10138571Y-9657857D01*
X10124286Y-9586429D01*
X10110000Y-9543572D01*
X10095714Y-9515000D01*
X10067143Y-9472143D01*
X10052857Y-9457857D01*
X10595714Y-9915000D02*
X10581428Y-9900714D01*
X10552857Y-9857857D01*
X10538571Y-9829286D01*
X10524286Y-9786429D01*
X10510000Y-9715000D01*
X10510000Y-9657857D01*
X10524286Y-9586429D01*
X10538571Y-9543572D01*
X10552857Y-9515000D01*
X10581428Y-9472143D01*
X10595714Y-9457857D01*
X10710000Y-9600714D02*
X10710000Y-9800714D01*
X10710000Y-9629286D02*
X10724286Y-9615000D01*
X10752857Y-9600714D01*
X10795714Y-9600714D01*
X10824286Y-9615000D01*
X10838571Y-9643572D01*
X10838571Y-9800714D01*
X11024286Y-9800714D02*
X10995714Y-9786429D01*
X10981428Y-9772143D01*
X10967143Y-9743572D01*
X10967143Y-9657857D01*
X10981428Y-9629286D01*
X10995714Y-9615000D01*
X11024286Y-9600714D01*
X11067143Y-9600714D01*
X11095714Y-9615000D01*
X11110000Y-9629286D01*
X11124286Y-9657857D01*
X11124286Y-9743572D01*
X11110000Y-9772143D01*
X11095714Y-9786429D01*
X11067143Y-9800714D01*
X11024286Y-9800714D01*
X11210000Y-9600714D02*
X11324286Y-9600714D01*
X11252857Y-9500714D02*
X11252857Y-9757857D01*
X11267143Y-9786429D01*
X11295714Y-9800714D01*
X11324286Y-9800714D01*
X11652857Y-9600714D02*
X11652857Y-9900714D01*
X11652857Y-9615000D02*
X11681428Y-9600714D01*
X11738571Y-9600714D01*
X11767143Y-9615000D01*
X11781428Y-9629286D01*
X11795714Y-9657857D01*
X11795714Y-9743572D01*
X11781428Y-9772143D01*
X11767143Y-9786429D01*
X11738571Y-9800714D01*
X11681428Y-9800714D01*
X11652857Y-9786429D01*
X11967143Y-9800714D02*
X11938571Y-9786429D01*
X11924286Y-9757857D01*
X11924286Y-9500714D01*
X12210000Y-9800714D02*
X12210000Y-9643572D01*
X12195714Y-9615000D01*
X12167143Y-9600714D01*
X12110000Y-9600714D01*
X12081428Y-9615000D01*
X12210000Y-9786429D02*
X12181428Y-9800714D01*
X12110000Y-9800714D01*
X12081428Y-9786429D01*
X12067143Y-9757857D01*
X12067143Y-9729286D01*
X12081428Y-9700714D01*
X12110000Y-9686429D01*
X12181428Y-9686429D01*
X12210000Y-9672143D01*
X12310000Y-9600714D02*
X12424286Y-9600714D01*
X12352857Y-9500714D02*
X12352857Y-9757857D01*
X12367143Y-9786429D01*
X12395714Y-9800714D01*
X12424286Y-9800714D01*
X12638571Y-9786429D02*
X12610000Y-9800714D01*
X12552857Y-9800714D01*
X12524286Y-9786429D01*
X12510000Y-9757857D01*
X12510000Y-9643572D01*
X12524286Y-9615000D01*
X12552857Y-9600714D01*
X12610000Y-9600714D01*
X12638571Y-9615000D01*
X12652857Y-9643572D01*
X12652857Y-9672143D01*
X12510000Y-9700714D01*
X12910000Y-9800714D02*
X12910000Y-9500714D01*
X12910000Y-9786429D02*
X12881428Y-9800714D01*
X12824286Y-9800714D01*
X12795714Y-9786429D01*
X12781428Y-9772143D01*
X12767143Y-9743572D01*
X12767143Y-9657857D01*
X12781428Y-9629286D01*
X12795714Y-9615000D01*
X12824286Y-9600714D01*
X12881428Y-9600714D01*
X12910000Y-9615000D01*
X13024286Y-9915000D02*
X13038571Y-9900714D01*
X13067143Y-9857857D01*
X13081428Y-9829286D01*
X13095714Y-9786429D01*
X13110000Y-9715000D01*
X13110000Y-9657857D01*
X13095714Y-9586429D01*
X13081428Y-9543572D01*
X13067143Y-9515000D01*
X13038571Y-9472143D01*
X13024286Y-9457857D01*
X2995000Y-10061000D02*
G75*
G03*
X2995000Y-10061000I-42500J0D01*
G01*
X3338571Y-9896714D02*
X3367143Y-9896714D01*
X3395714Y-9911000D01*
X3410000Y-9925286D01*
X3424286Y-9953857D01*
X3438571Y-10011000D01*
X3438571Y-10082429D01*
X3424286Y-10139572D01*
X3410000Y-10168143D01*
X3395714Y-10182429D01*
X3367143Y-10196714D01*
X3338571Y-10196714D01*
X3310000Y-10182429D01*
X3295714Y-10168143D01*
X3281428Y-10139572D01*
X3267143Y-10082429D01*
X3267143Y-10011000D01*
X3281428Y-9953857D01*
X3295714Y-9925286D01*
X3310000Y-9911000D01*
X3338571Y-9896714D01*
X3567143Y-10168143D02*
X3581428Y-10182429D01*
X3567143Y-10196714D01*
X3552857Y-10182429D01*
X3567143Y-10168143D01*
X3567143Y-10196714D01*
X3752857Y-10025286D02*
X3724286Y-10011000D01*
X3710000Y-9996714D01*
X3695714Y-9968143D01*
X3695714Y-9953857D01*
X3710000Y-9925286D01*
X3724286Y-9911000D01*
X3752857Y-9896714D01*
X3810000Y-9896714D01*
X3838571Y-9911000D01*
X3852857Y-9925286D01*
X3867143Y-9953857D01*
X3867143Y-9968143D01*
X3852857Y-9996714D01*
X3838571Y-10011000D01*
X3810000Y-10025286D01*
X3752857Y-10025286D01*
X3724286Y-10039572D01*
X3710000Y-10053857D01*
X3695714Y-10082429D01*
X3695714Y-10139572D01*
X3710000Y-10168143D01*
X3724286Y-10182429D01*
X3752857Y-10196714D01*
X3810000Y-10196714D01*
X3838571Y-10182429D01*
X3852857Y-10168143D01*
X3867143Y-10139572D01*
X3867143Y-10082429D01*
X3852857Y-10053857D01*
X3838571Y-10039572D01*
X3810000Y-10025286D01*
X4138571Y-9896714D02*
X3995714Y-9896714D01*
X3981428Y-10039572D01*
X3995714Y-10025286D01*
X4024286Y-10011000D01*
X4095714Y-10011000D01*
X4124286Y-10025286D01*
X4138571Y-10039572D01*
X4152857Y-10068143D01*
X4152857Y-10139572D01*
X4138571Y-10168143D01*
X4124286Y-10182429D01*
X4095714Y-10196714D01*
X4024286Y-10196714D01*
X3995714Y-10182429D01*
X3981428Y-10168143D01*
X4338571Y-9896714D02*
X4367143Y-9896714D01*
X4395714Y-9911000D01*
X4410000Y-9925286D01*
X4424286Y-9953857D01*
X4438571Y-10011000D01*
X4438571Y-10082429D01*
X4424286Y-10139572D01*
X4410000Y-10168143D01*
X4395714Y-10182429D01*
X4367143Y-10196714D01*
X4338571Y-10196714D01*
X4310000Y-10182429D01*
X4295714Y-10168143D01*
X4281428Y-10139572D01*
X4267143Y-10082429D01*
X4267143Y-10011000D01*
X4281428Y-9953857D01*
X4295714Y-9925286D01*
X4310000Y-9911000D01*
X4338571Y-9896714D01*
X4567143Y-10196714D02*
X4567143Y-9996714D01*
X4567143Y-10025286D02*
X4581428Y-10011000D01*
X4610000Y-9996714D01*
X4652857Y-9996714D01*
X4681428Y-10011000D01*
X4695714Y-10039572D01*
X4695714Y-10196714D01*
X4695714Y-10039572D02*
X4710000Y-10011000D01*
X4738571Y-9996714D01*
X4781428Y-9996714D01*
X4810000Y-10011000D01*
X4824286Y-10039572D01*
X4824286Y-10196714D01*
X4967143Y-10196714D02*
X4967143Y-9996714D01*
X4967143Y-10025286D02*
X4981428Y-10011000D01*
X5010000Y-9996714D01*
X5052857Y-9996714D01*
X5081428Y-10011000D01*
X5095714Y-10039572D01*
X5095714Y-10196714D01*
X5095714Y-10039572D02*
X5110000Y-10011000D01*
X5138571Y-9996714D01*
X5181428Y-9996714D01*
X5210000Y-10011000D01*
X5224286Y-10039572D01*
X5224286Y-10196714D01*
X5810000Y-9882429D02*
X5552857Y-10268143D01*
X6195714Y-9896714D02*
X6224286Y-9896714D01*
X6252857Y-9911000D01*
X6267143Y-9925286D01*
X6281428Y-9953857D01*
X6295714Y-10011000D01*
X6295714Y-10082429D01*
X6281428Y-10139572D01*
X6267143Y-10168143D01*
X6252857Y-10182429D01*
X6224286Y-10196714D01*
X6195714Y-10196714D01*
X6167143Y-10182429D01*
X6152857Y-10168143D01*
X6138571Y-10139572D01*
X6124286Y-10082429D01*
X6124286Y-10011000D01*
X6138571Y-9953857D01*
X6152857Y-9925286D01*
X6167143Y-9911000D01*
X6195714Y-9896714D01*
X6424286Y-10168143D02*
X6438571Y-10182429D01*
X6424286Y-10196714D01*
X6410000Y-10182429D01*
X6424286Y-10168143D01*
X6424286Y-10196714D01*
X6624286Y-9896714D02*
X6652857Y-9896714D01*
X6681428Y-9911000D01*
X6695714Y-9925286D01*
X6710000Y-9953857D01*
X6724286Y-10011000D01*
X6724286Y-10082429D01*
X6710000Y-10139572D01*
X6695714Y-10168143D01*
X6681428Y-10182429D01*
X6652857Y-10196714D01*
X6624286Y-10196714D01*
X6595714Y-10182429D01*
X6581428Y-10168143D01*
X6567143Y-10139572D01*
X6552857Y-10082429D01*
X6552857Y-10011000D01*
X6567143Y-9953857D01*
X6581428Y-9925286D01*
X6595714Y-9911000D01*
X6624286Y-9896714D01*
X6824286Y-9896714D02*
X7010000Y-9896714D01*
X6910000Y-10011000D01*
X6952857Y-10011000D01*
X6981428Y-10025286D01*
X6995714Y-10039572D01*
X7010000Y-10068143D01*
X7010000Y-10139572D01*
X6995714Y-10168143D01*
X6981428Y-10182429D01*
X6952857Y-10196714D01*
X6867143Y-10196714D01*
X6838571Y-10182429D01*
X6824286Y-10168143D01*
X7110000Y-9896714D02*
X7295714Y-9896714D01*
X7195714Y-10011000D01*
X7238571Y-10011000D01*
X7267143Y-10025286D01*
X7281428Y-10039572D01*
X7295714Y-10068143D01*
X7295714Y-10139572D01*
X7281428Y-10168143D01*
X7267143Y-10182429D01*
X7238571Y-10196714D01*
X7152857Y-10196714D01*
X7124286Y-10182429D01*
X7110000Y-10168143D01*
X7567143Y-9896714D02*
X7424286Y-9896714D01*
X7410000Y-10039572D01*
X7424286Y-10025286D01*
X7452857Y-10011000D01*
X7524286Y-10011000D01*
X7552857Y-10025286D01*
X7567143Y-10039572D01*
X7581428Y-10068143D01*
X7581428Y-10139572D01*
X7567143Y-10168143D01*
X7552857Y-10182429D01*
X7524286Y-10196714D01*
X7452857Y-10196714D01*
X7424286Y-10182429D01*
X7410000Y-10168143D01*
X7695714Y-9896714D02*
X7695714Y-9953857D01*
X7810000Y-9896714D02*
X7810000Y-9953857D01*
X8252857Y-10311000D02*
X8238571Y-10296714D01*
X8210000Y-10253857D01*
X8195714Y-10225286D01*
X8181428Y-10182429D01*
X8167143Y-10111000D01*
X8167143Y-10053857D01*
X8181428Y-9982429D01*
X8195714Y-9939572D01*
X8210000Y-9911000D01*
X8238571Y-9868143D01*
X8252857Y-9853857D01*
X8352857Y-9925286D02*
X8367143Y-9911000D01*
X8395714Y-9896714D01*
X8467143Y-9896714D01*
X8495714Y-9911000D01*
X8510000Y-9925286D01*
X8524286Y-9953857D01*
X8524286Y-9982429D01*
X8510000Y-10025286D01*
X8338571Y-10196714D01*
X8524286Y-10196714D01*
X8881428Y-10196714D02*
X8881428Y-9896714D01*
X9010000Y-10196714D02*
X9010000Y-10039572D01*
X8995714Y-10011000D01*
X8967143Y-9996714D01*
X8924286Y-9996714D01*
X8895714Y-10011000D01*
X8881428Y-10025286D01*
X9195714Y-10196714D02*
X9167143Y-10182429D01*
X9152857Y-10168143D01*
X9138571Y-10139572D01*
X9138571Y-10053857D01*
X9152857Y-10025286D01*
X9167143Y-10011000D01*
X9195714Y-9996714D01*
X9238571Y-9996714D01*
X9267143Y-10011000D01*
X9281428Y-10025286D01*
X9295714Y-10053857D01*
X9295714Y-10139572D01*
X9281428Y-10168143D01*
X9267143Y-10182429D01*
X9238571Y-10196714D01*
X9195714Y-10196714D01*
X9467143Y-10196714D02*
X9438571Y-10182429D01*
X9424286Y-10153857D01*
X9424286Y-9896714D01*
X9695714Y-10182429D02*
X9667143Y-10196714D01*
X9610000Y-10196714D01*
X9581428Y-10182429D01*
X9567143Y-10153857D01*
X9567143Y-10039572D01*
X9581428Y-10011000D01*
X9610000Y-9996714D01*
X9667143Y-9996714D01*
X9695714Y-10011000D01*
X9710000Y-10039572D01*
X9710000Y-10068143D01*
X9567143Y-10096714D01*
X9824286Y-10182429D02*
X9852857Y-10196714D01*
X9910000Y-10196714D01*
X9938571Y-10182429D01*
X9952857Y-10153857D01*
X9952857Y-10139572D01*
X9938571Y-10111000D01*
X9910000Y-10096714D01*
X9867143Y-10096714D01*
X9838571Y-10082429D01*
X9824286Y-10053857D01*
X9824286Y-10039572D01*
X9838571Y-10011000D01*
X9867143Y-9996714D01*
X9910000Y-9996714D01*
X9938571Y-10011000D01*
X10052857Y-10311000D02*
X10067143Y-10296714D01*
X10095714Y-10253857D01*
X10110000Y-10225286D01*
X10124286Y-10182429D01*
X10138571Y-10111000D01*
X10138571Y-10053857D01*
X10124286Y-9982429D01*
X10110000Y-9939572D01*
X10095714Y-9911000D01*
X10067143Y-9868143D01*
X10052857Y-9853857D01*
X10595714Y-10311000D02*
X10581428Y-10296714D01*
X10552857Y-10253857D01*
X10538571Y-10225286D01*
X10524286Y-10182429D01*
X10510000Y-10111000D01*
X10510000Y-10053857D01*
X10524286Y-9982429D01*
X10538571Y-9939572D01*
X10552857Y-9911000D01*
X10581428Y-9868143D01*
X10595714Y-9853857D01*
X10710000Y-9996714D02*
X10710000Y-10196714D01*
X10710000Y-10025286D02*
X10724286Y-10011000D01*
X10752857Y-9996714D01*
X10795714Y-9996714D01*
X10824286Y-10011000D01*
X10838571Y-10039572D01*
X10838571Y-10196714D01*
X11024286Y-10196714D02*
X10995714Y-10182429D01*
X10981428Y-10168143D01*
X10967143Y-10139572D01*
X10967143Y-10053857D01*
X10981428Y-10025286D01*
X10995714Y-10011000D01*
X11024286Y-9996714D01*
X11067143Y-9996714D01*
X11095714Y-10011000D01*
X11110000Y-10025286D01*
X11124286Y-10053857D01*
X11124286Y-10139572D01*
X11110000Y-10168143D01*
X11095714Y-10182429D01*
X11067143Y-10196714D01*
X11024286Y-10196714D01*
X11210000Y-9996714D02*
X11324286Y-9996714D01*
X11252857Y-9896714D02*
X11252857Y-10153857D01*
X11267143Y-10182429D01*
X11295714Y-10196714D01*
X11324286Y-10196714D01*
X11652857Y-9996714D02*
X11652857Y-10296714D01*
X11652857Y-10011000D02*
X11681428Y-9996714D01*
X11738571Y-9996714D01*
X11767143Y-10011000D01*
X11781428Y-10025286D01*
X11795714Y-10053857D01*
X11795714Y-10139572D01*
X11781428Y-10168143D01*
X11767143Y-10182429D01*
X11738571Y-10196714D01*
X11681428Y-10196714D01*
X11652857Y-10182429D01*
X11967143Y-10196714D02*
X11938571Y-10182429D01*
X11924286Y-10153857D01*
X11924286Y-9896714D01*
X12210000Y-10196714D02*
X12210000Y-10039572D01*
X12195714Y-10011000D01*
X12167143Y-9996714D01*
X12110000Y-9996714D01*
X12081428Y-10011000D01*
X12210000Y-10182429D02*
X12181428Y-10196714D01*
X12110000Y-10196714D01*
X12081428Y-10182429D01*
X12067143Y-10153857D01*
X12067143Y-10125286D01*
X12081428Y-10096714D01*
X12110000Y-10082429D01*
X12181428Y-10082429D01*
X12210000Y-10068143D01*
X12310000Y-9996714D02*
X12424286Y-9996714D01*
X12352857Y-9896714D02*
X12352857Y-10153857D01*
X12367143Y-10182429D01*
X12395714Y-10196714D01*
X12424286Y-10196714D01*
X12638571Y-10182429D02*
X12610000Y-10196714D01*
X12552857Y-10196714D01*
X12524286Y-10182429D01*
X12510000Y-10153857D01*
X12510000Y-10039572D01*
X12524286Y-10011000D01*
X12552857Y-9996714D01*
X12610000Y-9996714D01*
X12638571Y-10011000D01*
X12652857Y-10039572D01*
X12652857Y-10068143D01*
X12510000Y-10096714D01*
X12910000Y-10196714D02*
X12910000Y-9896714D01*
X12910000Y-10182429D02*
X12881428Y-10196714D01*
X12824286Y-10196714D01*
X12795714Y-10182429D01*
X12781428Y-10168143D01*
X12767143Y-10139572D01*
X12767143Y-10053857D01*
X12781428Y-10025286D01*
X12795714Y-10011000D01*
X12824286Y-9996714D01*
X12881428Y-9996714D01*
X12910000Y-10011000D01*
X13024286Y-10311000D02*
X13038571Y-10296714D01*
X13067143Y-10253857D01*
X13081428Y-10225286D01*
X13095714Y-10182429D01*
X13110000Y-10111000D01*
X13110000Y-10053857D01*
X13095714Y-9982429D01*
X13081428Y-9939572D01*
X13067143Y-9911000D01*
X13038571Y-9868143D01*
X13024286Y-9853857D01*
X2945470Y-10407470D02*
X2945470Y-10506530D01*
X2895940Y-10457000D02*
X2995000Y-10457000D01*
X3338571Y-10292714D02*
X3367143Y-10292714D01*
X3395714Y-10307000D01*
X3410000Y-10321286D01*
X3424286Y-10349857D01*
X3438571Y-10407000D01*
X3438571Y-10478429D01*
X3424286Y-10535572D01*
X3410000Y-10564143D01*
X3395714Y-10578429D01*
X3367143Y-10592714D01*
X3338571Y-10592714D01*
X3310000Y-10578429D01*
X3295714Y-10564143D01*
X3281428Y-10535572D01*
X3267143Y-10478429D01*
X3267143Y-10407000D01*
X3281428Y-10349857D01*
X3295714Y-10321286D01*
X3310000Y-10307000D01*
X3338571Y-10292714D01*
X3567143Y-10564143D02*
X3581428Y-10578429D01*
X3567143Y-10592714D01*
X3552857Y-10578429D01*
X3567143Y-10564143D01*
X3567143Y-10592714D01*
X3724286Y-10592714D02*
X3781428Y-10592714D01*
X3810000Y-10578429D01*
X3824286Y-10564143D01*
X3852857Y-10521286D01*
X3867143Y-10464143D01*
X3867143Y-10349857D01*
X3852857Y-10321286D01*
X3838571Y-10307000D01*
X3810000Y-10292714D01*
X3752857Y-10292714D01*
X3724286Y-10307000D01*
X3710000Y-10321286D01*
X3695714Y-10349857D01*
X3695714Y-10421286D01*
X3710000Y-10449857D01*
X3724286Y-10464143D01*
X3752857Y-10478429D01*
X3810000Y-10478429D01*
X3838571Y-10464143D01*
X3852857Y-10449857D01*
X3867143Y-10421286D01*
X4010000Y-10592714D02*
X4067143Y-10592714D01*
X4095714Y-10578429D01*
X4110000Y-10564143D01*
X4138571Y-10521286D01*
X4152857Y-10464143D01*
X4152857Y-10349857D01*
X4138571Y-10321286D01*
X4124286Y-10307000D01*
X4095714Y-10292714D01*
X4038571Y-10292714D01*
X4010000Y-10307000D01*
X3995714Y-10321286D01*
X3981428Y-10349857D01*
X3981428Y-10421286D01*
X3995714Y-10449857D01*
X4010000Y-10464143D01*
X4038571Y-10478429D01*
X4095714Y-10478429D01*
X4124286Y-10464143D01*
X4138571Y-10449857D01*
X4152857Y-10421286D01*
X4438571Y-10592714D02*
X4267143Y-10592714D01*
X4352857Y-10592714D02*
X4352857Y-10292714D01*
X4324286Y-10335572D01*
X4295714Y-10364143D01*
X4267143Y-10378429D01*
X4567143Y-10592714D02*
X4567143Y-10392714D01*
X4567143Y-10421286D02*
X4581428Y-10407000D01*
X4610000Y-10392714D01*
X4652857Y-10392714D01*
X4681428Y-10407000D01*
X4695714Y-10435572D01*
X4695714Y-10592714D01*
X4695714Y-10435572D02*
X4710000Y-10407000D01*
X4738571Y-10392714D01*
X4781428Y-10392714D01*
X4810000Y-10407000D01*
X4824286Y-10435572D01*
X4824286Y-10592714D01*
X4967143Y-10592714D02*
X4967143Y-10392714D01*
X4967143Y-10421286D02*
X4981428Y-10407000D01*
X5010000Y-10392714D01*
X5052857Y-10392714D01*
X5081428Y-10407000D01*
X5095714Y-10435572D01*
X5095714Y-10592714D01*
X5095714Y-10435572D02*
X5110000Y-10407000D01*
X5138571Y-10392714D01*
X5181428Y-10392714D01*
X5210000Y-10407000D01*
X5224286Y-10435572D01*
X5224286Y-10592714D01*
X5810000Y-10278429D02*
X5552857Y-10664143D01*
X6195714Y-10292714D02*
X6224286Y-10292714D01*
X6252857Y-10307000D01*
X6267143Y-10321286D01*
X6281428Y-10349857D01*
X6295714Y-10407000D01*
X6295714Y-10478429D01*
X6281428Y-10535572D01*
X6267143Y-10564143D01*
X6252857Y-10578429D01*
X6224286Y-10592714D01*
X6195714Y-10592714D01*
X6167143Y-10578429D01*
X6152857Y-10564143D01*
X6138571Y-10535572D01*
X6124286Y-10478429D01*
X6124286Y-10407000D01*
X6138571Y-10349857D01*
X6152857Y-10321286D01*
X6167143Y-10307000D01*
X6195714Y-10292714D01*
X6424286Y-10564143D02*
X6438571Y-10578429D01*
X6424286Y-10592714D01*
X6410000Y-10578429D01*
X6424286Y-10564143D01*
X6424286Y-10592714D01*
X6624286Y-10292714D02*
X6652857Y-10292714D01*
X6681428Y-10307000D01*
X6695714Y-10321286D01*
X6710000Y-10349857D01*
X6724286Y-10407000D01*
X6724286Y-10478429D01*
X6710000Y-10535572D01*
X6695714Y-10564143D01*
X6681428Y-10578429D01*
X6652857Y-10592714D01*
X6624286Y-10592714D01*
X6595714Y-10578429D01*
X6581428Y-10564143D01*
X6567143Y-10535572D01*
X6552857Y-10478429D01*
X6552857Y-10407000D01*
X6567143Y-10349857D01*
X6581428Y-10321286D01*
X6595714Y-10307000D01*
X6624286Y-10292714D01*
X6824286Y-10292714D02*
X7010000Y-10292714D01*
X6910000Y-10407000D01*
X6952857Y-10407000D01*
X6981428Y-10421286D01*
X6995714Y-10435572D01*
X7010000Y-10464143D01*
X7010000Y-10535572D01*
X6995714Y-10564143D01*
X6981428Y-10578429D01*
X6952857Y-10592714D01*
X6867143Y-10592714D01*
X6838571Y-10578429D01*
X6824286Y-10564143D01*
X7152857Y-10592714D02*
X7210000Y-10592714D01*
X7238571Y-10578429D01*
X7252857Y-10564143D01*
X7281428Y-10521286D01*
X7295714Y-10464143D01*
X7295714Y-10349857D01*
X7281428Y-10321286D01*
X7267143Y-10307000D01*
X7238571Y-10292714D01*
X7181428Y-10292714D01*
X7152857Y-10307000D01*
X7138571Y-10321286D01*
X7124286Y-10349857D01*
X7124286Y-10421286D01*
X7138571Y-10449857D01*
X7152857Y-10464143D01*
X7181428Y-10478429D01*
X7238571Y-10478429D01*
X7267143Y-10464143D01*
X7281428Y-10449857D01*
X7295714Y-10421286D01*
X7481428Y-10292714D02*
X7510000Y-10292714D01*
X7538571Y-10307000D01*
X7552857Y-10321286D01*
X7567143Y-10349857D01*
X7581428Y-10407000D01*
X7581428Y-10478429D01*
X7567143Y-10535572D01*
X7552857Y-10564143D01*
X7538571Y-10578429D01*
X7510000Y-10592714D01*
X7481428Y-10592714D01*
X7452857Y-10578429D01*
X7438571Y-10564143D01*
X7424286Y-10535572D01*
X7410000Y-10478429D01*
X7410000Y-10407000D01*
X7424286Y-10349857D01*
X7438571Y-10321286D01*
X7452857Y-10307000D01*
X7481428Y-10292714D01*
X7695714Y-10292714D02*
X7695714Y-10349857D01*
X7810000Y-10292714D02*
X7810000Y-10349857D01*
X8252857Y-10707000D02*
X8238571Y-10692714D01*
X8210000Y-10649857D01*
X8195714Y-10621286D01*
X8181428Y-10578429D01*
X8167143Y-10507000D01*
X8167143Y-10449857D01*
X8181428Y-10378429D01*
X8195714Y-10335572D01*
X8210000Y-10307000D01*
X8238571Y-10264143D01*
X8252857Y-10249857D01*
X8338571Y-10292714D02*
X8524286Y-10292714D01*
X8424286Y-10407000D01*
X8467143Y-10407000D01*
X8495714Y-10421286D01*
X8510000Y-10435572D01*
X8524286Y-10464143D01*
X8524286Y-10535572D01*
X8510000Y-10564143D01*
X8495714Y-10578429D01*
X8467143Y-10592714D01*
X8381428Y-10592714D01*
X8352857Y-10578429D01*
X8338571Y-10564143D01*
X8881428Y-10592714D02*
X8881428Y-10292714D01*
X9010000Y-10592714D02*
X9010000Y-10435572D01*
X8995714Y-10407000D01*
X8967143Y-10392714D01*
X8924286Y-10392714D01*
X8895714Y-10407000D01*
X8881428Y-10421286D01*
X9195714Y-10592714D02*
X9167143Y-10578429D01*
X9152857Y-10564143D01*
X9138571Y-10535572D01*
X9138571Y-10449857D01*
X9152857Y-10421286D01*
X9167143Y-10407000D01*
X9195714Y-10392714D01*
X9238571Y-10392714D01*
X9267143Y-10407000D01*
X9281428Y-10421286D01*
X9295714Y-10449857D01*
X9295714Y-10535572D01*
X9281428Y-10564143D01*
X9267143Y-10578429D01*
X9238571Y-10592714D01*
X9195714Y-10592714D01*
X9467143Y-10592714D02*
X9438571Y-10578429D01*
X9424286Y-10549857D01*
X9424286Y-10292714D01*
X9695714Y-10578429D02*
X9667143Y-10592714D01*
X9610000Y-10592714D01*
X9581428Y-10578429D01*
X9567143Y-10549857D01*
X9567143Y-10435572D01*
X9581428Y-10407000D01*
X9610000Y-10392714D01*
X9667143Y-10392714D01*
X9695714Y-10407000D01*
X9710000Y-10435572D01*
X9710000Y-10464143D01*
X9567143Y-10492714D01*
X9824286Y-10578429D02*
X9852857Y-10592714D01*
X9910000Y-10592714D01*
X9938571Y-10578429D01*
X9952857Y-10549857D01*
X9952857Y-10535572D01*
X9938571Y-10507000D01*
X9910000Y-10492714D01*
X9867143Y-10492714D01*
X9838571Y-10478429D01*
X9824286Y-10449857D01*
X9824286Y-10435572D01*
X9838571Y-10407000D01*
X9867143Y-10392714D01*
X9910000Y-10392714D01*
X9938571Y-10407000D01*
X10052857Y-10707000D02*
X10067143Y-10692714D01*
X10095714Y-10649857D01*
X10110000Y-10621286D01*
X10124286Y-10578429D01*
X10138571Y-10507000D01*
X10138571Y-10449857D01*
X10124286Y-10378429D01*
X10110000Y-10335572D01*
X10095714Y-10307000D01*
X10067143Y-10264143D01*
X10052857Y-10249857D01*
X10595714Y-10707000D02*
X10581428Y-10692714D01*
X10552857Y-10649857D01*
X10538571Y-10621286D01*
X10524286Y-10578429D01*
X10510000Y-10507000D01*
X10510000Y-10449857D01*
X10524286Y-10378429D01*
X10538571Y-10335572D01*
X10552857Y-10307000D01*
X10581428Y-10264143D01*
X10595714Y-10249857D01*
X10710000Y-10392714D02*
X10710000Y-10592714D01*
X10710000Y-10421286D02*
X10724286Y-10407000D01*
X10752857Y-10392714D01*
X10795714Y-10392714D01*
X10824286Y-10407000D01*
X10838571Y-10435572D01*
X10838571Y-10592714D01*
X11024286Y-10592714D02*
X10995714Y-10578429D01*
X10981428Y-10564143D01*
X10967143Y-10535572D01*
X10967143Y-10449857D01*
X10981428Y-10421286D01*
X10995714Y-10407000D01*
X11024286Y-10392714D01*
X11067143Y-10392714D01*
X11095714Y-10407000D01*
X11110000Y-10421286D01*
X11124286Y-10449857D01*
X11124286Y-10535572D01*
X11110000Y-10564143D01*
X11095714Y-10578429D01*
X11067143Y-10592714D01*
X11024286Y-10592714D01*
X11210000Y-10392714D02*
X11324286Y-10392714D01*
X11252857Y-10292714D02*
X11252857Y-10549857D01*
X11267143Y-10578429D01*
X11295714Y-10592714D01*
X11324286Y-10592714D01*
X11652857Y-10392714D02*
X11652857Y-10692714D01*
X11652857Y-10407000D02*
X11681428Y-10392714D01*
X11738571Y-10392714D01*
X11767143Y-10407000D01*
X11781428Y-10421286D01*
X11795714Y-10449857D01*
X11795714Y-10535572D01*
X11781428Y-10564143D01*
X11767143Y-10578429D01*
X11738571Y-10592714D01*
X11681428Y-10592714D01*
X11652857Y-10578429D01*
X11967143Y-10592714D02*
X11938571Y-10578429D01*
X11924286Y-10549857D01*
X11924286Y-10292714D01*
X12210000Y-10592714D02*
X12210000Y-10435572D01*
X12195714Y-10407000D01*
X12167143Y-10392714D01*
X12110000Y-10392714D01*
X12081428Y-10407000D01*
X12210000Y-10578429D02*
X12181428Y-10592714D01*
X12110000Y-10592714D01*
X12081428Y-10578429D01*
X12067143Y-10549857D01*
X12067143Y-10521286D01*
X12081428Y-10492714D01*
X12110000Y-10478429D01*
X12181428Y-10478429D01*
X12210000Y-10464143D01*
X12310000Y-10392714D02*
X12424286Y-10392714D01*
X12352857Y-10292714D02*
X12352857Y-10549857D01*
X12367143Y-10578429D01*
X12395714Y-10592714D01*
X12424286Y-10592714D01*
X12638571Y-10578429D02*
X12610000Y-10592714D01*
X12552857Y-10592714D01*
X12524286Y-10578429D01*
X12510000Y-10549857D01*
X12510000Y-10435572D01*
X12524286Y-10407000D01*
X12552857Y-10392714D01*
X12610000Y-10392714D01*
X12638571Y-10407000D01*
X12652857Y-10435572D01*
X12652857Y-10464143D01*
X12510000Y-10492714D01*
X12910000Y-10592714D02*
X12910000Y-10292714D01*
X12910000Y-10578429D02*
X12881428Y-10592714D01*
X12824286Y-10592714D01*
X12795714Y-10578429D01*
X12781428Y-10564143D01*
X12767143Y-10535572D01*
X12767143Y-10449857D01*
X12781428Y-10421286D01*
X12795714Y-10407000D01*
X12824286Y-10392714D01*
X12881428Y-10392714D01*
X12910000Y-10407000D01*
X13024286Y-10707000D02*
X13038571Y-10692714D01*
X13067143Y-10649857D01*
X13081428Y-10621286D01*
X13095714Y-10578429D01*
X13110000Y-10507000D01*
X13110000Y-10449857D01*
X13095714Y-10378429D01*
X13081428Y-10335572D01*
X13067143Y-10307000D01*
X13038571Y-10264143D01*
X13024286Y-10249857D01*
X2958389Y-10941389D02*
X2958389Y-10764611D01*
X2781611Y-10764611D01*
X2781611Y-10941389D01*
X2958389Y-10941389D01*
X3267143Y-10717286D02*
X3281428Y-10703000D01*
X3310000Y-10688714D01*
X3381428Y-10688714D01*
X3410000Y-10703000D01*
X3424286Y-10717286D01*
X3438571Y-10745857D01*
X3438571Y-10774429D01*
X3424286Y-10817286D01*
X3252857Y-10988714D01*
X3438571Y-10988714D01*
X3567143Y-10960143D02*
X3581428Y-10974429D01*
X3567143Y-10988714D01*
X3552857Y-10974429D01*
X3567143Y-10960143D01*
X3567143Y-10988714D01*
X3852857Y-10688714D02*
X3710000Y-10688714D01*
X3695714Y-10831572D01*
X3710000Y-10817286D01*
X3738571Y-10803000D01*
X3810000Y-10803000D01*
X3838571Y-10817286D01*
X3852857Y-10831572D01*
X3867143Y-10860143D01*
X3867143Y-10931572D01*
X3852857Y-10960143D01*
X3838571Y-10974429D01*
X3810000Y-10988714D01*
X3738571Y-10988714D01*
X3710000Y-10974429D01*
X3695714Y-10960143D01*
X4052857Y-10688714D02*
X4081428Y-10688714D01*
X4110000Y-10703000D01*
X4124286Y-10717286D01*
X4138571Y-10745857D01*
X4152857Y-10803000D01*
X4152857Y-10874429D01*
X4138571Y-10931572D01*
X4124286Y-10960143D01*
X4110000Y-10974429D01*
X4081428Y-10988714D01*
X4052857Y-10988714D01*
X4024286Y-10974429D01*
X4010000Y-10960143D01*
X3995714Y-10931572D01*
X3981428Y-10874429D01*
X3981428Y-10803000D01*
X3995714Y-10745857D01*
X4010000Y-10717286D01*
X4024286Y-10703000D01*
X4052857Y-10688714D01*
X4338571Y-10688714D02*
X4367143Y-10688714D01*
X4395714Y-10703000D01*
X4410000Y-10717286D01*
X4424286Y-10745857D01*
X4438571Y-10803000D01*
X4438571Y-10874429D01*
X4424286Y-10931572D01*
X4410000Y-10960143D01*
X4395714Y-10974429D01*
X4367143Y-10988714D01*
X4338571Y-10988714D01*
X4310000Y-10974429D01*
X4295714Y-10960143D01*
X4281428Y-10931572D01*
X4267143Y-10874429D01*
X4267143Y-10803000D01*
X4281428Y-10745857D01*
X4295714Y-10717286D01*
X4310000Y-10703000D01*
X4338571Y-10688714D01*
X4567143Y-10988714D02*
X4567143Y-10788714D01*
X4567143Y-10817286D02*
X4581428Y-10803000D01*
X4610000Y-10788714D01*
X4652857Y-10788714D01*
X4681428Y-10803000D01*
X4695714Y-10831572D01*
X4695714Y-10988714D01*
X4695714Y-10831572D02*
X4710000Y-10803000D01*
X4738571Y-10788714D01*
X4781428Y-10788714D01*
X4810000Y-10803000D01*
X4824286Y-10831572D01*
X4824286Y-10988714D01*
X4967143Y-10988714D02*
X4967143Y-10788714D01*
X4967143Y-10817286D02*
X4981428Y-10803000D01*
X5010000Y-10788714D01*
X5052857Y-10788714D01*
X5081428Y-10803000D01*
X5095714Y-10831572D01*
X5095714Y-10988714D01*
X5095714Y-10831572D02*
X5110000Y-10803000D01*
X5138571Y-10788714D01*
X5181428Y-10788714D01*
X5210000Y-10803000D01*
X5224286Y-10831572D01*
X5224286Y-10988714D01*
X5810000Y-10674429D02*
X5552857Y-11060143D01*
X6195714Y-10688714D02*
X6224286Y-10688714D01*
X6252857Y-10703000D01*
X6267143Y-10717286D01*
X6281428Y-10745857D01*
X6295714Y-10803000D01*
X6295714Y-10874429D01*
X6281428Y-10931572D01*
X6267143Y-10960143D01*
X6252857Y-10974429D01*
X6224286Y-10988714D01*
X6195714Y-10988714D01*
X6167143Y-10974429D01*
X6152857Y-10960143D01*
X6138571Y-10931572D01*
X6124286Y-10874429D01*
X6124286Y-10803000D01*
X6138571Y-10745857D01*
X6152857Y-10717286D01*
X6167143Y-10703000D01*
X6195714Y-10688714D01*
X6424286Y-10960143D02*
X6438571Y-10974429D01*
X6424286Y-10988714D01*
X6410000Y-10974429D01*
X6424286Y-10960143D01*
X6424286Y-10988714D01*
X6624286Y-10688714D02*
X6652857Y-10688714D01*
X6681428Y-10703000D01*
X6695714Y-10717286D01*
X6710000Y-10745857D01*
X6724286Y-10803000D01*
X6724286Y-10874429D01*
X6710000Y-10931572D01*
X6695714Y-10960143D01*
X6681428Y-10974429D01*
X6652857Y-10988714D01*
X6624286Y-10988714D01*
X6595714Y-10974429D01*
X6581428Y-10960143D01*
X6567143Y-10931572D01*
X6552857Y-10874429D01*
X6552857Y-10803000D01*
X6567143Y-10745857D01*
X6581428Y-10717286D01*
X6595714Y-10703000D01*
X6624286Y-10688714D01*
X6867143Y-10988714D02*
X6924286Y-10988714D01*
X6952857Y-10974429D01*
X6967143Y-10960143D01*
X6995714Y-10917286D01*
X7010000Y-10860143D01*
X7010000Y-10745857D01*
X6995714Y-10717286D01*
X6981428Y-10703000D01*
X6952857Y-10688714D01*
X6895714Y-10688714D01*
X6867143Y-10703000D01*
X6852857Y-10717286D01*
X6838571Y-10745857D01*
X6838571Y-10817286D01*
X6852857Y-10845857D01*
X6867143Y-10860143D01*
X6895714Y-10874429D01*
X6952857Y-10874429D01*
X6981428Y-10860143D01*
X6995714Y-10845857D01*
X7010000Y-10817286D01*
X7181428Y-10817286D02*
X7152857Y-10803000D01*
X7138571Y-10788714D01*
X7124286Y-10760143D01*
X7124286Y-10745857D01*
X7138571Y-10717286D01*
X7152857Y-10703000D01*
X7181428Y-10688714D01*
X7238571Y-10688714D01*
X7267143Y-10703000D01*
X7281428Y-10717286D01*
X7295714Y-10745857D01*
X7295714Y-10760143D01*
X7281428Y-10788714D01*
X7267143Y-10803000D01*
X7238571Y-10817286D01*
X7181428Y-10817286D01*
X7152857Y-10831572D01*
X7138571Y-10845857D01*
X7124286Y-10874429D01*
X7124286Y-10931572D01*
X7138571Y-10960143D01*
X7152857Y-10974429D01*
X7181428Y-10988714D01*
X7238571Y-10988714D01*
X7267143Y-10974429D01*
X7281428Y-10960143D01*
X7295714Y-10931572D01*
X7295714Y-10874429D01*
X7281428Y-10845857D01*
X7267143Y-10831572D01*
X7238571Y-10817286D01*
X7552857Y-10788714D02*
X7552857Y-10988714D01*
X7481428Y-10674429D02*
X7410000Y-10888714D01*
X7595714Y-10888714D01*
X7695714Y-10688714D02*
X7695714Y-10745857D01*
X7810000Y-10688714D02*
X7810000Y-10745857D01*
X8252857Y-11103000D02*
X8238571Y-11088714D01*
X8210000Y-11045857D01*
X8195714Y-11017286D01*
X8181428Y-10974429D01*
X8167143Y-10903000D01*
X8167143Y-10845857D01*
X8181428Y-10774429D01*
X8195714Y-10731572D01*
X8210000Y-10703000D01*
X8238571Y-10660143D01*
X8252857Y-10645857D01*
X8524286Y-10988714D02*
X8352857Y-10988714D01*
X8438571Y-10988714D02*
X8438571Y-10688714D01*
X8410000Y-10731572D01*
X8381428Y-10760143D01*
X8352857Y-10774429D01*
X8881428Y-10988714D02*
X8881428Y-10688714D01*
X9010000Y-10988714D02*
X9010000Y-10831572D01*
X8995714Y-10803000D01*
X8967143Y-10788714D01*
X8924286Y-10788714D01*
X8895714Y-10803000D01*
X8881428Y-10817286D01*
X9195714Y-10988714D02*
X9167143Y-10974429D01*
X9152857Y-10960143D01*
X9138571Y-10931572D01*
X9138571Y-10845857D01*
X9152857Y-10817286D01*
X9167143Y-10803000D01*
X9195714Y-10788714D01*
X9238571Y-10788714D01*
X9267143Y-10803000D01*
X9281428Y-10817286D01*
X9295714Y-10845857D01*
X9295714Y-10931572D01*
X9281428Y-10960143D01*
X9267143Y-10974429D01*
X9238571Y-10988714D01*
X9195714Y-10988714D01*
X9467143Y-10988714D02*
X9438571Y-10974429D01*
X9424286Y-10945857D01*
X9424286Y-10688714D01*
X9695714Y-10974429D02*
X9667143Y-10988714D01*
X9610000Y-10988714D01*
X9581428Y-10974429D01*
X9567143Y-10945857D01*
X9567143Y-10831572D01*
X9581428Y-10803000D01*
X9610000Y-10788714D01*
X9667143Y-10788714D01*
X9695714Y-10803000D01*
X9710000Y-10831572D01*
X9710000Y-10860143D01*
X9567143Y-10888714D01*
X9810000Y-11103000D02*
X9824286Y-11088714D01*
X9852857Y-11045857D01*
X9867143Y-11017286D01*
X9881428Y-10974429D01*
X9895714Y-10903000D01*
X9895714Y-10845857D01*
X9881428Y-10774429D01*
X9867143Y-10731572D01*
X9852857Y-10703000D01*
X9824286Y-10660143D01*
X9810000Y-10645857D01*
X10352857Y-11103000D02*
X10338571Y-11088714D01*
X10310000Y-11045857D01*
X10295714Y-11017286D01*
X10281428Y-10974429D01*
X10267143Y-10903000D01*
X10267143Y-10845857D01*
X10281428Y-10774429D01*
X10295714Y-10731572D01*
X10310000Y-10703000D01*
X10338571Y-10660143D01*
X10352857Y-10645857D01*
X10467143Y-10788714D02*
X10467143Y-10988714D01*
X10467143Y-10817286D02*
X10481428Y-10803000D01*
X10510000Y-10788714D01*
X10552857Y-10788714D01*
X10581428Y-10803000D01*
X10595714Y-10831572D01*
X10595714Y-10988714D01*
X10781428Y-10988714D02*
X10752857Y-10974429D01*
X10738571Y-10960143D01*
X10724286Y-10931572D01*
X10724286Y-10845857D01*
X10738571Y-10817286D01*
X10752857Y-10803000D01*
X10781428Y-10788714D01*
X10824286Y-10788714D01*
X10852857Y-10803000D01*
X10867143Y-10817286D01*
X10881428Y-10845857D01*
X10881428Y-10931572D01*
X10867143Y-10960143D01*
X10852857Y-10974429D01*
X10824286Y-10988714D01*
X10781428Y-10988714D01*
X10967143Y-10788714D02*
X11081428Y-10788714D01*
X11010000Y-10688714D02*
X11010000Y-10945857D01*
X11024286Y-10974429D01*
X11052857Y-10988714D01*
X11081428Y-10988714D01*
X11410000Y-10788714D02*
X11410000Y-11088714D01*
X11410000Y-10803000D02*
X11438571Y-10788714D01*
X11495714Y-10788714D01*
X11524286Y-10803000D01*
X11538571Y-10817286D01*
X11552857Y-10845857D01*
X11552857Y-10931572D01*
X11538571Y-10960143D01*
X11524286Y-10974429D01*
X11495714Y-10988714D01*
X11438571Y-10988714D01*
X11410000Y-10974429D01*
X11724286Y-10988714D02*
X11695714Y-10974429D01*
X11681428Y-10945857D01*
X11681428Y-10688714D01*
X11967143Y-10988714D02*
X11967143Y-10831572D01*
X11952857Y-10803000D01*
X11924286Y-10788714D01*
X11867143Y-10788714D01*
X11838571Y-10803000D01*
X11967143Y-10974429D02*
X11938571Y-10988714D01*
X11867143Y-10988714D01*
X11838571Y-10974429D01*
X11824286Y-10945857D01*
X11824286Y-10917286D01*
X11838571Y-10888714D01*
X11867143Y-10874429D01*
X11938571Y-10874429D01*
X11967143Y-10860143D01*
X12067143Y-10788714D02*
X12181428Y-10788714D01*
X12110000Y-10688714D02*
X12110000Y-10945857D01*
X12124286Y-10974429D01*
X12152857Y-10988714D01*
X12181428Y-10988714D01*
X12395714Y-10974429D02*
X12367143Y-10988714D01*
X12310000Y-10988714D01*
X12281428Y-10974429D01*
X12267143Y-10945857D01*
X12267143Y-10831572D01*
X12281428Y-10803000D01*
X12310000Y-10788714D01*
X12367143Y-10788714D01*
X12395714Y-10803000D01*
X12410000Y-10831572D01*
X12410000Y-10860143D01*
X12267143Y-10888714D01*
X12667143Y-10988714D02*
X12667143Y-10688714D01*
X12667143Y-10974429D02*
X12638571Y-10988714D01*
X12581428Y-10988714D01*
X12552857Y-10974429D01*
X12538571Y-10960143D01*
X12524286Y-10931572D01*
X12524286Y-10845857D01*
X12538571Y-10817286D01*
X12552857Y-10803000D01*
X12581428Y-10788714D01*
X12638571Y-10788714D01*
X12667143Y-10803000D01*
X12781428Y-11103000D02*
X12795714Y-11088714D01*
X12824286Y-11045857D01*
X12838571Y-11017286D01*
X12852857Y-10974429D01*
X12867143Y-10903000D01*
X12867143Y-10845857D01*
X12852857Y-10774429D01*
X12838571Y-10731572D01*
X12824286Y-10703000D01*
X12795714Y-10660143D01*
X12781428Y-10645857D01*
X2860000Y-11384000D02*
X2995000Y-11249000D01*
X2860000Y-11114000D01*
X2725000Y-11249000D01*
X2860000Y-11384000D01*
X3267143Y-11113286D02*
X3281428Y-11099000D01*
X3310000Y-11084714D01*
X3381428Y-11084714D01*
X3410000Y-11099000D01*
X3424286Y-11113286D01*
X3438571Y-11141857D01*
X3438571Y-11170429D01*
X3424286Y-11213286D01*
X3252857Y-11384714D01*
X3438571Y-11384714D01*
X3567143Y-11356143D02*
X3581428Y-11370429D01*
X3567143Y-11384714D01*
X3552857Y-11370429D01*
X3567143Y-11356143D01*
X3567143Y-11384714D01*
X3681428Y-11084714D02*
X3881428Y-11084714D01*
X3752857Y-11384714D01*
X4052857Y-11084714D02*
X4081428Y-11084714D01*
X4110000Y-11099000D01*
X4124286Y-11113286D01*
X4138571Y-11141857D01*
X4152857Y-11199000D01*
X4152857Y-11270429D01*
X4138571Y-11327571D01*
X4124286Y-11356143D01*
X4110000Y-11370429D01*
X4081428Y-11384714D01*
X4052857Y-11384714D01*
X4024286Y-11370429D01*
X4010000Y-11356143D01*
X3995714Y-11327571D01*
X3981428Y-11270429D01*
X3981428Y-11199000D01*
X3995714Y-11141857D01*
X4010000Y-11113286D01*
X4024286Y-11099000D01*
X4052857Y-11084714D01*
X4338571Y-11084714D02*
X4367143Y-11084714D01*
X4395714Y-11099000D01*
X4410000Y-11113286D01*
X4424286Y-11141857D01*
X4438571Y-11199000D01*
X4438571Y-11270429D01*
X4424286Y-11327571D01*
X4410000Y-11356143D01*
X4395714Y-11370429D01*
X4367143Y-11384714D01*
X4338571Y-11384714D01*
X4310000Y-11370429D01*
X4295714Y-11356143D01*
X4281428Y-11327571D01*
X4267143Y-11270429D01*
X4267143Y-11199000D01*
X4281428Y-11141857D01*
X4295714Y-11113286D01*
X4310000Y-11099000D01*
X4338571Y-11084714D01*
X4567143Y-11384714D02*
X4567143Y-11184714D01*
X4567143Y-11213286D02*
X4581428Y-11199000D01*
X4610000Y-11184714D01*
X4652857Y-11184714D01*
X4681428Y-11199000D01*
X4695714Y-11227571D01*
X4695714Y-11384714D01*
X4695714Y-11227571D02*
X4710000Y-11199000D01*
X4738571Y-11184714D01*
X4781428Y-11184714D01*
X4810000Y-11199000D01*
X4824286Y-11227571D01*
X4824286Y-11384714D01*
X4967143Y-11384714D02*
X4967143Y-11184714D01*
X4967143Y-11213286D02*
X4981428Y-11199000D01*
X5010000Y-11184714D01*
X5052857Y-11184714D01*
X5081428Y-11199000D01*
X5095714Y-11227571D01*
X5095714Y-11384714D01*
X5095714Y-11227571D02*
X5110000Y-11199000D01*
X5138571Y-11184714D01*
X5181428Y-11184714D01*
X5210000Y-11199000D01*
X5224286Y-11227571D01*
X5224286Y-11384714D01*
X5810000Y-11070429D02*
X5552857Y-11456143D01*
X6195714Y-11084714D02*
X6224286Y-11084714D01*
X6252857Y-11099000D01*
X6267143Y-11113286D01*
X6281428Y-11141857D01*
X6295714Y-11199000D01*
X6295714Y-11270429D01*
X6281428Y-11327571D01*
X6267143Y-11356143D01*
X6252857Y-11370429D01*
X6224286Y-11384714D01*
X6195714Y-11384714D01*
X6167143Y-11370429D01*
X6152857Y-11356143D01*
X6138571Y-11327571D01*
X6124286Y-11270429D01*
X6124286Y-11199000D01*
X6138571Y-11141857D01*
X6152857Y-11113286D01*
X6167143Y-11099000D01*
X6195714Y-11084714D01*
X6424286Y-11356143D02*
X6438571Y-11370429D01*
X6424286Y-11384714D01*
X6410000Y-11370429D01*
X6424286Y-11356143D01*
X6424286Y-11384714D01*
X6724286Y-11384714D02*
X6552857Y-11384714D01*
X6638571Y-11384714D02*
X6638571Y-11084714D01*
X6610000Y-11127572D01*
X6581428Y-11156143D01*
X6552857Y-11170429D01*
X6910000Y-11084714D02*
X6938571Y-11084714D01*
X6967143Y-11099000D01*
X6981428Y-11113286D01*
X6995714Y-11141857D01*
X7010000Y-11199000D01*
X7010000Y-11270429D01*
X6995714Y-11327571D01*
X6981428Y-11356143D01*
X6967143Y-11370429D01*
X6938571Y-11384714D01*
X6910000Y-11384714D01*
X6881428Y-11370429D01*
X6867143Y-11356143D01*
X6852857Y-11327571D01*
X6838571Y-11270429D01*
X6838571Y-11199000D01*
X6852857Y-11141857D01*
X6867143Y-11113286D01*
X6881428Y-11099000D01*
X6910000Y-11084714D01*
X7267143Y-11084714D02*
X7210000Y-11084714D01*
X7181428Y-11099000D01*
X7167143Y-11113286D01*
X7138571Y-11156143D01*
X7124286Y-11213286D01*
X7124286Y-11327571D01*
X7138571Y-11356143D01*
X7152857Y-11370429D01*
X7181428Y-11384714D01*
X7238571Y-11384714D01*
X7267143Y-11370429D01*
X7281428Y-11356143D01*
X7295714Y-11327571D01*
X7295714Y-11256143D01*
X7281428Y-11227571D01*
X7267143Y-11213286D01*
X7238571Y-11199000D01*
X7181428Y-11199000D01*
X7152857Y-11213286D01*
X7138571Y-11227571D01*
X7124286Y-11256143D01*
X7395714Y-11084714D02*
X7581428Y-11084714D01*
X7481428Y-11199000D01*
X7524286Y-11199000D01*
X7552857Y-11213286D01*
X7567143Y-11227571D01*
X7581428Y-11256143D01*
X7581428Y-11327571D01*
X7567143Y-11356143D01*
X7552857Y-11370429D01*
X7524286Y-11384714D01*
X7438571Y-11384714D01*
X7410000Y-11370429D01*
X7395714Y-11356143D01*
X7695714Y-11084714D02*
X7695714Y-11141857D01*
X7810000Y-11084714D02*
X7810000Y-11141857D01*
X8252857Y-11499000D02*
X8238571Y-11484714D01*
X8210000Y-11441857D01*
X8195714Y-11413286D01*
X8181428Y-11370429D01*
X8167143Y-11299000D01*
X8167143Y-11241857D01*
X8181428Y-11170429D01*
X8195714Y-11127572D01*
X8210000Y-11099000D01*
X8238571Y-11056143D01*
X8252857Y-11041857D01*
X8495714Y-11184714D02*
X8495714Y-11384714D01*
X8424286Y-11070429D02*
X8352857Y-11284714D01*
X8538571Y-11284714D01*
X8881428Y-11384714D02*
X8881428Y-11084714D01*
X9010000Y-11384714D02*
X9010000Y-11227571D01*
X8995714Y-11199000D01*
X8967143Y-11184714D01*
X8924286Y-11184714D01*
X8895714Y-11199000D01*
X8881428Y-11213286D01*
X9195714Y-11384714D02*
X9167143Y-11370429D01*
X9152857Y-11356143D01*
X9138571Y-11327571D01*
X9138571Y-11241857D01*
X9152857Y-11213286D01*
X9167143Y-11199000D01*
X9195714Y-11184714D01*
X9238571Y-11184714D01*
X9267143Y-11199000D01*
X9281428Y-11213286D01*
X9295714Y-11241857D01*
X9295714Y-11327571D01*
X9281428Y-11356143D01*
X9267143Y-11370429D01*
X9238571Y-11384714D01*
X9195714Y-11384714D01*
X9467143Y-11384714D02*
X9438571Y-11370429D01*
X9424286Y-11341857D01*
X9424286Y-11084714D01*
X9695714Y-11370429D02*
X9667143Y-11384714D01*
X9610000Y-11384714D01*
X9581428Y-11370429D01*
X9567143Y-11341857D01*
X9567143Y-11227571D01*
X9581428Y-11199000D01*
X9610000Y-11184714D01*
X9667143Y-11184714D01*
X9695714Y-11199000D01*
X9710000Y-11227571D01*
X9710000Y-11256143D01*
X9567143Y-11284714D01*
X9824286Y-11370429D02*
X9852857Y-11384714D01*
X9910000Y-11384714D01*
X9938571Y-11370429D01*
X9952857Y-11341857D01*
X9952857Y-11327571D01*
X9938571Y-11299000D01*
X9910000Y-11284714D01*
X9867143Y-11284714D01*
X9838571Y-11270429D01*
X9824286Y-11241857D01*
X9824286Y-11227571D01*
X9838571Y-11199000D01*
X9867143Y-11184714D01*
X9910000Y-11184714D01*
X9938571Y-11199000D01*
X10052857Y-11499000D02*
X10067143Y-11484714D01*
X10095714Y-11441857D01*
X10110000Y-11413286D01*
X10124286Y-11370429D01*
X10138571Y-11299000D01*
X10138571Y-11241857D01*
X10124286Y-11170429D01*
X10110000Y-11127572D01*
X10095714Y-11099000D01*
X10067143Y-11056143D01*
X10052857Y-11041857D01*
X10595714Y-11499000D02*
X10581428Y-11484714D01*
X10552857Y-11441857D01*
X10538571Y-11413286D01*
X10524286Y-11370429D01*
X10510000Y-11299000D01*
X10510000Y-11241857D01*
X10524286Y-11170429D01*
X10538571Y-11127572D01*
X10552857Y-11099000D01*
X10581428Y-11056143D01*
X10595714Y-11041857D01*
X10710000Y-11184714D02*
X10710000Y-11384714D01*
X10710000Y-11213286D02*
X10724286Y-11199000D01*
X10752857Y-11184714D01*
X10795714Y-11184714D01*
X10824286Y-11199000D01*
X10838571Y-11227571D01*
X10838571Y-11384714D01*
X11024286Y-11384714D02*
X10995714Y-11370429D01*
X10981428Y-11356143D01*
X10967143Y-11327571D01*
X10967143Y-11241857D01*
X10981428Y-11213286D01*
X10995714Y-11199000D01*
X11024286Y-11184714D01*
X11067143Y-11184714D01*
X11095714Y-11199000D01*
X11110000Y-11213286D01*
X11124286Y-11241857D01*
X11124286Y-11327571D01*
X11110000Y-11356143D01*
X11095714Y-11370429D01*
X11067143Y-11384714D01*
X11024286Y-11384714D01*
X11210000Y-11184714D02*
X11324286Y-11184714D01*
X11252857Y-11084714D02*
X11252857Y-11341857D01*
X11267143Y-11370429D01*
X11295714Y-11384714D01*
X11324286Y-11384714D01*
X11652857Y-11184714D02*
X11652857Y-11484714D01*
X11652857Y-11199000D02*
X11681428Y-11184714D01*
X11738571Y-11184714D01*
X11767143Y-11199000D01*
X11781428Y-11213286D01*
X11795714Y-11241857D01*
X11795714Y-11327571D01*
X11781428Y-11356143D01*
X11767143Y-11370429D01*
X11738571Y-11384714D01*
X11681428Y-11384714D01*
X11652857Y-11370429D01*
X11967143Y-11384714D02*
X11938571Y-11370429D01*
X11924286Y-11341857D01*
X11924286Y-11084714D01*
X12210000Y-11384714D02*
X12210000Y-11227571D01*
X12195714Y-11199000D01*
X12167143Y-11184714D01*
X12110000Y-11184714D01*
X12081428Y-11199000D01*
X12210000Y-11370429D02*
X12181428Y-11384714D01*
X12110000Y-11384714D01*
X12081428Y-11370429D01*
X12067143Y-11341857D01*
X12067143Y-11313286D01*
X12081428Y-11284714D01*
X12110000Y-11270429D01*
X12181428Y-11270429D01*
X12210000Y-11256143D01*
X12310000Y-11184714D02*
X12424286Y-11184714D01*
X12352857Y-11084714D02*
X12352857Y-11341857D01*
X12367143Y-11370429D01*
X12395714Y-11384714D01*
X12424286Y-11384714D01*
X12638571Y-11370429D02*
X12610000Y-11384714D01*
X12552857Y-11384714D01*
X12524286Y-11370429D01*
X12510000Y-11341857D01*
X12510000Y-11227571D01*
X12524286Y-11199000D01*
X12552857Y-11184714D01*
X12610000Y-11184714D01*
X12638571Y-11199000D01*
X12652857Y-11227571D01*
X12652857Y-11256143D01*
X12510000Y-11284714D01*
X12910000Y-11384714D02*
X12910000Y-11084714D01*
X12910000Y-11370429D02*
X12881428Y-11384714D01*
X12824286Y-11384714D01*
X12795714Y-11370429D01*
X12781428Y-11356143D01*
X12767143Y-11327571D01*
X12767143Y-11241857D01*
X12781428Y-11213286D01*
X12795714Y-11199000D01*
X12824286Y-11184714D01*
X12881428Y-11184714D01*
X12910000Y-11199000D01*
X13024286Y-11499000D02*
X13038571Y-11484714D01*
X13067143Y-11441857D01*
X13081428Y-11413286D01*
X13095714Y-11370429D01*
X13110000Y-11299000D01*
X13110000Y-11241857D01*
X13095714Y-11170429D01*
X13081428Y-11127572D01*
X13067143Y-11099000D01*
X13038571Y-11056143D01*
X13024286Y-11041857D01*
M02*
